<svg xmlns="http://www.w3.org/2000/svg" width="1000" height="969.485" viewBox="0 0 1000 969.485">
  <g id="Grupo_16019" data-name="Grupo 16019" transform="translate(1.481 -441.642)">
    <g id="Grupo_15838" data-name="Grupo 15838">
      <path id="Trazado_34026" data-name="Trazado 34026" d="M582.051,1140.224a22.982,22.982,0,1,0,22.982,22.982A22.981,22.981,0,0,0,582.051,1140.224Z" fill="#fabf62"/>
      <path id="Trazado_34027" data-name="Trazado 34027" d="M582.051,1138.249a24.956,24.956,0,1,0,24.956,24.956A24.985,24.985,0,0,0,582.051,1138.249Zm0,45.964a21.008,21.008,0,1,1,21.008-21.008A21.032,21.032,0,0,1,582.051,1184.213Z" fill="#1c3e58"/>
    </g>
    <g id="Grupo_15839" data-name="Grupo 15839">
      <path id="Trazado_34028" data-name="Trazado 34028" d="M674.684,754.745l-23.96-15.984a1.976,1.976,0,0,0-2.738.547l-23.96,35.916a1.975,1.975,0,0,0,.548,2.738l23.96,15.984a1.972,1.972,0,0,0,2.737-.548l23.961-35.915a1.975,1.975,0,0,0-.548-2.738Zm-25.6,34.82-20.676-13.792,21.768-32.632,20.676,13.793Z" fill="#1c3e58"/>
    </g>
    <g id="Grupo_15840" data-name="Grupo 15840">
      <path id="Trazado_34029" data-name="Trazado 34029" d="M581.029,743.763a20.031,20.031,0,1,0,20.031,20.032A20.032,20.032,0,0,0,581.029,743.763Z" fill="#4088da"/>
      <path id="Trazado_34030" data-name="Trazado 34030" d="M581.028,741.789a22.005,22.005,0,1,0,22.006,22.006A22.03,22.03,0,0,0,581.028,741.789Zm0,40.063a18.057,18.057,0,1,1,18.058-18.057A18.078,18.078,0,0,1,581.028,781.852Z" fill="#1c3e58"/>
    </g>
    <g id="Grupo_15841" data-name="Grupo 15841">
      <rect id="Rectángulo_3072" data-name="Rectángulo 3072" width="64.642" height="55.278" transform="translate(442.608 785.034) rotate(-69.743)" fill="#25ce9e"/>
      <path id="Trazado_34031" data-name="Trazado 34031" d="M517.53,741.676l-51.858-19.138a1.977,1.977,0,0,0-2.536,1.169l-22.381,60.644a1.975,1.975,0,0,0,1.169,2.535l51.859,19.139a1.975,1.975,0,0,0,2.536-1.169l22.38-60.644a1.974,1.974,0,0,0-1.169-2.536ZM493.3,801.637l-48.155-17.772,21.014-56.939L514.311,744.7Z" fill="#1c3e58"/>
    </g>
    <g id="Grupo_15842" data-name="Grupo 15842">
      <path id="Trazado_34032" data-name="Trazado 34032" d="M475.89,796.685H341.409a1.975,1.975,0,0,0-1.975,1.975v93.391a1.975,1.975,0,0,0,3.558,1.18L366,862.353H475.89a1.974,1.974,0,0,0,1.974-1.974V798.66A1.974,1.974,0,0,0,475.89,796.685ZM473.916,858.4H365.007a1.973,1.973,0,0,0-1.583.795l-20.041,26.9V800.634H473.916Z" fill="#1c3e58"/>
    </g>
    <g id="Grupo_15843" data-name="Grupo 15843">
      <path id="Trazado_34033" data-name="Trazado 34033" d="M990.754,443.616c-19.2,0-34.758,16.143-34.758,36.057s15.562,36.056,34.758,36.056a33.407,33.407,0,0,0,7.765-.939V444.555A33.461,33.461,0,0,0,990.754,443.616Z" fill="#25ce9e"/>
      <path id="Trazado_34034" data-name="Trazado 34034" d="M990.753,513.755c-18.076,0-32.783-15.289-32.783-34.082s14.707-34.083,32.783-34.083a31.481,31.481,0,0,1,7.766.988v-4.044a35.461,35.461,0,0,0-7.766-.892c-20.254,0-36.732,17.06-36.732,38.031S970.5,517.7,990.753,517.7a35.461,35.461,0,0,0,7.766-.892v-4.044A31.528,31.528,0,0,1,990.753,513.755Z" fill="#1c3e58"/>
    </g>
    <g id="Grupo_15844" data-name="Grupo 15844">
      <path id="Trazado_34035" data-name="Trazado 34035" d="M895.164,563.647A69.937,69.937,0,0,0,843.3,677.031c13,16.338,20.554,36.337,20.554,57.217v.853h68.431v-.293c0-21.117,7.571-41.37,20.675-57.93a69.939,69.939,0,0,0-57.794-113.231Z" fill="#fabf62"/>
      <path id="Trazado_34036" data-name="Trazado 34036" d="M895.084,561.674c-36.807,1.49-67.052,31.47-68.85,68.255a71.93,71.93,0,0,0,15.518,48.332c12.978,16.3,20.125,36.188,20.125,55.987v.853a1.974,1.974,0,0,0,1.974,1.974h68.431a1.975,1.975,0,0,0,1.975-1.974v-.293c0-20.064,7.192-40.2,20.25-56.7a71.918,71.918,0,0,0-59.423-116.429Zm56.326,113.98a96.23,96.23,0,0,0-21.086,57.472H865.818c-.264-20.315-7.69-40.63-20.975-57.324a67.988,67.988,0,0,1-14.667-45.681c1.7-34.762,30.283-63.094,65.068-64.5A67.966,67.966,0,0,1,951.41,675.654Z" fill="#1c3e58"/>
    </g>
    <g id="Grupo_15845" data-name="Grupo 15845">
      <path id="Trazado_34037" data-name="Trazado 34037" d="M741.552,728.171h25.12v82.183h51.974V728.171h25.12L792.658,672.3Z" fill="#4088da"/>
      <path id="Trazado_34038" data-name="Trazado 34038" d="M794.114,670.966a2.036,2.036,0,0,0-2.912,0l-51.107,55.872a1.975,1.975,0,0,0,1.456,3.307H764.7v80.209a1.975,1.975,0,0,0,1.975,1.975h51.973a1.975,1.975,0,0,0,1.975-1.975V730.145h23.145a1.974,1.974,0,0,0,1.456-3.307Zm24.531,55.23a1.974,1.974,0,0,0-1.974,1.975V808.38H768.646V728.171a1.974,1.974,0,0,0-1.974-1.975H746.034l46.624-50.972L839.283,726.2Z" fill="#1c3e58"/>
    </g>
    <g id="Grupo_15846" data-name="Grupo 15846">
      <path id="Trazado_34039" data-name="Trazado 34039" d="M519.852,933.019v121.069l44.178-19.707V933.019L681.186,760.655H402.694Z" fill="#fabf62"/>
      <path id="Trazado_34040" data-name="Trazado 34040" d="M681.185,758.68H402.694a1.975,1.975,0,0,0-1.633,3.085L517.877,933.627v120.462a1.973,1.973,0,0,0,2.779,1.8l44.178-19.707a1.975,1.975,0,0,0,1.17-1.8V933.627L682.819,761.765a1.975,1.975,0,0,0-1.634-3.085ZM562.4,931.909a1.973,1.973,0,0,0-.342,1.11V1033.1l-40.229,17.946V933.019a1.973,1.973,0,0,0-.342-1.11L406.423,762.628H677.456Z" fill="#1c3e58"/>
    </g>
    <g id="Grupo_15847" data-name="Grupo 15847">
      <path id="Trazado_34041" data-name="Trazado 34041" d="M367.071,943.862h82.1l26.723,25.554V890.589H367.071Z" fill="#25ce9e"/>
      <path id="Trazado_34042" data-name="Trazado 34042" d="M475.89,888.614H367.071a1.974,1.974,0,0,0-1.974,1.975v53.272a1.973,1.973,0,0,0,1.974,1.974h81.3l26.15,25.006a1.974,1.974,0,0,0,3.338-1.427V890.589A1.974,1.974,0,0,0,475.89,888.614Zm-1.974,76.181-23.384-22.361a1.975,1.975,0,0,0-1.365-.547H369.045V892.563H473.916Z" fill="#1c3e58"/>
    </g>
    <g id="Grupo_15848" data-name="Grupo 15848">
      <path id="Trazado_34043" data-name="Trazado 34043" d="M357.975,1040.662V1079.8l18.567-25.716h85.38V983.816H357.975Z" fill="#ebf0f6"/>
      <path id="Trazado_34044" data-name="Trazado 34044" d="M461.923,981.842H357.975A1.974,1.974,0,0,0,356,983.816v95.989a1.974,1.974,0,0,0,3.575,1.155l17.976-24.9h84.371a1.974,1.974,0,0,0,1.974-1.975V983.816A1.974,1.974,0,0,0,461.923,981.842Zm-1.975,70.273H376.542a1.974,1.974,0,0,0-1.6.819L359.949,1073.7V985.79h100Z" fill="#1c3e58"/>
    </g>
    <g id="Grupo_15849" data-name="Grupo 15849">
      <rect id="Rectángulo_3073" data-name="Rectángulo 3073" width="57.821" height="105.571" transform="translate(194.259 983.816)" fill="#ebf0f6"/>
      <path id="Trazado_34045" data-name="Trazado 34045" d="M252.08,981.842H194.258a1.974,1.974,0,0,0-1.974,1.974v105.572a1.974,1.974,0,0,0,1.974,1.974H252.08a1.974,1.974,0,0,0,1.974-1.974V983.816A1.974,1.974,0,0,0,252.08,981.842ZM250.1,1087.414H196.233V985.79H250.1Z" fill="#1c3e58"/>
    </g>
    <g id="Grupo_15850" data-name="Grupo 15850">
      <path id="Trazado_34046" data-name="Trazado 34046" d="M189.549,914.139a25.825,25.825,0,1,0,25.824,25.824A25.824,25.824,0,0,0,189.549,914.139Z" fill="#4088da"/>
      <path id="Trazado_34047" data-name="Trazado 34047" d="M189.549,912.164a27.8,27.8,0,1,0,27.8,27.8A27.831,27.831,0,0,0,189.549,912.164Zm0,51.65A23.851,23.851,0,1,1,213.4,939.963,23.878,23.878,0,0,1,189.549,963.814Z" fill="#1c3e58"/>
    </g>
    <g id="Grupo_15851" data-name="Grupo 15851">
      <rect id="Rectángulo_3074" data-name="Rectángulo 3074" width="107.41" height="66.153" transform="translate(114.997 1192.035)" fill="#4088da"/>
      <path id="Trazado_34048" data-name="Trazado 34048" d="M222.407,1190.061H115a1.973,1.973,0,0,0-1.974,1.974v66.153a1.974,1.974,0,0,0,1.974,1.975h107.41a1.974,1.974,0,0,0,1.974-1.975v-66.153A1.974,1.974,0,0,0,222.407,1190.061Zm-1.974,66.153H116.971v-62.2H220.433Z" fill="#1c3e58"/>
    </g>
    <g id="Grupo_15852" data-name="Grupo 15852">
      <path id="Trazado_34049" data-name="Trazado 34049" d="M161.249,1239.427l24.185-15.827-24.185-12.8Z" fill="#fff"/>
      <path id="Trazado_34050" data-name="Trazado 34050" d="M186.358,1221.856l-24.185-12.8a1.973,1.973,0,0,0-2.9,1.744v28.631a1.974,1.974,0,0,0,3.055,1.652l24.185-15.827a1.975,1.975,0,0,0-.157-3.4Zm-23.135,13.921v-21.7l18.331,9.7Z" fill="#1c3e58"/>
    </g>
    <g id="Grupo_15853" data-name="Grupo 15853">
      <path id="Trazado_34051" data-name="Trazado 34051" d="M421.318,1231.99,385.1,1190.736,348.88,1231.99h21.926v179.137h28.585V1231.99Z" fill="#ebf0f6"/>
      <path id="Trazado_34052" data-name="Trazado 34052" d="M421.318,1233.964a1.974,1.974,0,0,0,1.484-3.277l-36.219-41.254a2.041,2.041,0,0,0-2.968,0L347.4,1230.688a1.974,1.974,0,0,0,1.484,3.276h19.952v177.163h3.949V1231.99a1.974,1.974,0,0,0-1.974-1.974H353.241l31.858-36.287,31.859,36.287H399.392a1.975,1.975,0,0,0-1.975,1.974v179.137h3.949V1233.964Z" fill="#1c3e58"/>
    </g>
    <g id="Grupo_15854" data-name="Grupo 15854">
      <rect id="Rectángulo_3075" data-name="Rectángulo 3075" width="128.039" height="32.091" transform="translate(101.897 1379.035)" fill="#fabf62"/>
      <path id="Trazado_34053" data-name="Trazado 34053" d="M229.936,1377.06H101.9a1.974,1.974,0,0,0-1.974,1.975v32.092h3.948v-30.118h124.09v30.118h3.949v-32.092A1.974,1.974,0,0,0,229.936,1377.06Z" fill="#1c3e58"/>
    </g>
    <g id="Grupo_15855" data-name="Grupo 15855">
      <rect id="Rectángulo_3076" data-name="Rectángulo 3076" width="55.547" height="48.228" transform="translate(761.745 1362.898)" fill="#2b71b5"/>
      <path id="Trazado_34054" data-name="Trazado 34054" d="M817.291,1360.923H761.745a1.975,1.975,0,0,0-1.974,1.975v48.229h3.948v-46.255h51.6v46.255h3.948V1362.9A1.975,1.975,0,0,0,817.291,1360.923Z" fill="#1c3e58"/>
    </g>
    <g id="Grupo_15856" data-name="Grupo 15856">
      <path id="Trazado_34055" data-name="Trazado 34055" d="M446.072,1349.88a24.6,24.6,0,1,0,24.6,24.6A24.63,24.63,0,0,0,446.072,1349.88Zm0,45.256a20.654,20.654,0,1,1,20.654-20.655A20.677,20.677,0,0,1,446.072,1395.136Z" fill="#1c3e58"/>
    </g>
    <g id="Grupo_15857" data-name="Grupo 15857">
      <path id="Trazado_34056" data-name="Trazado 34056" d="M376.807,1133.016a15.617,15.617,0,1,0,15.618,15.617A15.634,15.634,0,0,0,376.807,1133.016Zm0,27.285a11.669,11.669,0,1,1,11.669-11.668A11.682,11.682,0,0,1,376.807,1160.3Z" fill="#1c3e58"/>
    </g>
    <g id="Grupo_15858" data-name="Grupo 15858">
      <path id="Trazado_34057" data-name="Trazado 34057" d="M348.3,1163.116a18.191,18.191,0,1,0,18.191,18.191A18.191,18.191,0,0,0,348.3,1163.116Z" fill="#fabf62"/>
      <path id="Trazado_34058" data-name="Trazado 34058" d="M348.3,1161.142a20.165,20.165,0,1,0,20.165,20.165A20.188,20.188,0,0,0,348.3,1161.142Zm0,36.381a16.216,16.216,0,1,1,16.217-16.216A16.234,16.234,0,0,1,348.3,1197.523Z" fill="#1c3e58"/>
    </g>
    <g id="Grupo_15859" data-name="Grupo 15859">
      <path id="Trazado_34059" data-name="Trazado 34059" d="M285.893,1139.75H45.939a27.613,27.613,0,0,0-27.582,27.581v139.894a27.614,27.614,0,0,0,27.582,27.582H285.893a27.613,27.613,0,0,0,27.582-27.582V1167.331A27.613,27.613,0,0,0,285.893,1139.75Zm23.634,167.475a23.66,23.66,0,0,1-23.634,23.633H45.939a23.66,23.66,0,0,1-23.633-23.633V1167.331A23.66,23.66,0,0,1,45.939,1143.7H285.893a23.66,23.66,0,0,1,23.634,23.633Z" fill="#1c3e58"/>
    </g>
    <g id="Grupo_15860" data-name="Grupo 15860">
      <path id="Trazado_34060" data-name="Trazado 34060" d="M813.069,529.131a14.318,14.318,0,1,0,14.317,14.317A14.333,14.333,0,0,0,813.069,529.131Zm0,24.687a10.37,10.37,0,1,1,10.369-10.37A10.382,10.382,0,0,1,813.069,553.818Z" fill="#1c3e58"/>
    </g>
    <g id="Grupo_15861" data-name="Grupo 15861">
      <circle id="Elipse_1379" data-name="Elipse 1379" cx="17.045" cy="17.045" r="17.045" transform="translate(48.897 953.911)" fill="#fff"/>
      <path id="Trazado_34061" data-name="Trazado 34061" d="M65.942,951.936a19.02,19.02,0,1,0,19.019,19.019A19.041,19.041,0,0,0,65.942,951.936Zm0,34.091a15.072,15.072,0,1,1,15.07-15.072A15.088,15.088,0,0,1,65.942,986.027Z" fill="#1c3e58"/>
    </g>
    <g id="Grupo_15862" data-name="Grupo 15862">
      <path id="Trazado_34062" data-name="Trazado 34062" d="M32.1,1014.623A23.242,23.242,0,0,0-1.481,993.765v41.716A23.242,23.242,0,0,0,32.1,1014.623Z" fill="#fff"/>
      <path id="Trazado_34063" data-name="Trazado 34063" d="M34.071,1014.623A25.214,25.214,0,0,0-1.481,991.584v4.4a21.307,21.307,0,1,1,0,37.284v4.4a25.214,25.214,0,0,0,35.552-23.039Z" fill="#1c3e58"/>
    </g>
    <g id="Grupo_15863" data-name="Grupo 15863">
      <path id="Trazado_34064" data-name="Trazado 34064" d="M679.02,654.734A12.368,12.368,0,1,0,691.39,667.1,12.382,12.382,0,0,0,679.02,654.734Zm0,20.789a8.42,8.42,0,1,1,8.422-8.42A8.43,8.43,0,0,1,679.02,675.523Z" fill="#1c3e58"/>
    </g>
    <g id="Grupo_15864" data-name="Grupo 15864">
      <path id="Trazado_34065" data-name="Trazado 34065" d="M992.267,759.88a24.779,24.779,0,1,1,6.252-48.727V707.08a28.727,28.727,0,1,0,0,56.043V759.05A24.661,24.661,0,0,1,992.267,759.88Z" fill="#1c3e58"/>
    </g>
    <g id="Grupo_15865" data-name="Grupo 15865">
      <path id="Trazado_34066" data-name="Trazado 34066" d="M709.572,691.723a2.034,2.034,0,0,0-2.85,0L683.659,715.76a1.975,1.975,0,0,0,1.426,3.341h11.343v91.253a1.974,1.974,0,1,0,3.948,0V717.127a1.974,1.974,0,0,0-1.974-1.975h-8.687l18.432-19.211,18.434,19.211h-8.689a1.974,1.974,0,0,0-1.974,1.975v82.292a1.974,1.974,0,0,0,3.949,0V719.1h11.344a1.975,1.975,0,0,0,1.425-3.341Z" fill="#1c3e58"/>
    </g>
    <g id="Grupo_15866" data-name="Grupo 15866">
      <path id="Trazado_34067" data-name="Trazado 34067" d="M902.02,808.38H681.673a42.79,42.79,0,0,0-42.741,42.741V997.135a1.974,1.974,0,0,0,1.974,1.974h301.88a1.974,1.974,0,0,0,1.975-1.974V851.121A42.79,42.79,0,0,0,902.02,808.38Zm38.792,186.781H642.881V851.121a38.835,38.835,0,0,1,38.792-38.792H902.02a38.835,38.835,0,0,1,38.792,38.792Z" fill="#1c3e58"/>
    </g>
    <g id="Grupo_15867" data-name="Grupo 15867">
      <path id="Trazado_34068" data-name="Trazado 34068" d="M968.124,995.161H615.569a1.974,1.974,0,0,0-1.975,1.974,26.692,26.692,0,0,0,26.663,26.661H943.436A26.691,26.691,0,0,0,970.1,997.135,1.974,1.974,0,0,0,968.124,995.161Zm-24.688,24.686H640.257a22.744,22.744,0,0,1-22.629-20.738H966.065A22.746,22.746,0,0,1,943.436,1019.847Z" fill="#1c3e58"/>
    </g>
    <g id="Grupo_15868" data-name="Grupo 15868">
      <path id="Trazado_34069" data-name="Trazado 34069" d="M824.763,995.161H758.93a1.974,1.974,0,0,0-1.974,1.974,14.333,14.333,0,0,0,14.318,14.317h41.144a14.334,14.334,0,0,0,14.319-14.317A1.974,1.974,0,0,0,824.763,995.161ZM812.418,1007.5H771.274a10.387,10.387,0,0,1-10.181-8.394H822.6A10.387,10.387,0,0,1,812.418,1007.5Z" fill="#1c3e58"/>
    </g>
    <g id="Grupo_15869" data-name="Grupo 15869">
      <path id="Trazado_34070" data-name="Trazado 34070" d="M975.486,815.852a1.973,1.973,0,0,0-1.974,1.974V969.414a1.974,1.974,0,1,0,3.948,0V817.826A1.974,1.974,0,0,0,975.486,815.852Z" fill="#1c3e58"/>
    </g>
    <g id="Grupo_15870" data-name="Grupo 15870">
      <path id="Trazado_34071" data-name="Trazado 34071" d="M302.808,798.96a1.975,1.975,0,0,0-1.975,1.975v13.858a1.975,1.975,0,1,0,3.949,0V800.935A1.974,1.974,0,0,0,302.808,798.96Z" fill="#1c3e58"/>
    </g>
    <g id="Grupo_15871" data-name="Grupo 15871">
      <path id="Trazado_34072" data-name="Trazado 34072" d="M302.808,833.068a1.975,1.975,0,0,0-1.975,1.975V848.9a1.975,1.975,0,1,0,3.949,0V835.043A1.975,1.975,0,0,0,302.808,833.068Z" fill="#1c3e58"/>
    </g>
    <g id="Grupo_15872" data-name="Grupo 15872">
      <path id="Trazado_34073" data-name="Trazado 34073" d="M292.684,822.944h-13.86a1.974,1.974,0,0,0,0,3.948h13.86a1.974,1.974,0,0,0,0-3.948Z" fill="#1c3e58"/>
    </g>
    <g id="Grupo_15873" data-name="Grupo 15873">
      <path id="Trazado_34074" data-name="Trazado 34074" d="M326.791,822.944h-13.86a1.974,1.974,0,0,0,0,3.948h13.86a1.974,1.974,0,1,0,0-3.948Z" fill="#1c3e58"/>
    </g>
    <g id="Grupo_15874" data-name="Grupo 15874">
      <path id="Trazado_34075" data-name="Trazado 34075" d="M962.98,1091.262a1.974,1.974,0,0,0-1.975,1.974v16.345a1.974,1.974,0,1,0,3.949,0v-16.345A1.974,1.974,0,0,0,962.98,1091.262Z" fill="#1c3e58"/>
    </g>
    <g id="Grupo_15875" data-name="Grupo 15875">
      <path id="Trazado_34076" data-name="Trazado 34076" d="M962.98,1131.487a1.974,1.974,0,0,0-1.975,1.974v16.345a1.974,1.974,0,1,0,3.949,0v-16.345A1.974,1.974,0,0,0,962.98,1131.487Z" fill="#1c3e58"/>
    </g>
    <g id="Grupo_15876" data-name="Grupo 15876">
      <path id="Trazado_34077" data-name="Trazado 34077" d="M951.04,1119.547H934.7a1.974,1.974,0,1,0,0,3.949H951.04a1.974,1.974,0,0,0,0-3.949Z" fill="#1c3e58"/>
    </g>
    <g id="Grupo_15877" data-name="Grupo 15877">
      <path id="Trazado_34078" data-name="Trazado 34078" d="M991.265,1119.547H974.92a1.974,1.974,0,1,0,0,3.949h16.345a1.974,1.974,0,0,0,0-3.949Z" fill="#1c3e58"/>
    </g>
    <g id="Grupo_15878" data-name="Grupo 15878">
      <path id="Trazado_34079" data-name="Trazado 34079" d="M375.841,1089.633a1.974,1.974,0,0,0-1.974,1.974,18.782,18.782,0,0,1-18.761,18.761H272.815a18.782,18.782,0,0,1-18.761-18.761V889.668a18.782,18.782,0,0,1,18.761-18.761h68.594a1.974,1.974,0,1,0,0-3.948H272.815a22.735,22.735,0,0,0-22.71,22.709v201.939a22.735,22.735,0,0,0,22.71,22.71h82.291a22.735,22.735,0,0,0,22.709-22.71A1.974,1.974,0,0,0,375.841,1089.633Z" fill="#1c3e58"/>
    </g>
    <g id="Grupo_15879" data-name="Grupo 15879">
      <path id="Trazado_34080" data-name="Trazado 34080" d="M339.135,1072.147H252.08a1.974,1.974,0,1,0,0,3.948h87.055a1.974,1.974,0,0,0,0-3.948Z" fill="#1c3e58"/>
    </g>
    <g id="Grupo_15880" data-name="Grupo 15880">
      <path id="Trazado_34081" data-name="Trazado 34081" d="M334.263,898.685H252.08a1.974,1.974,0,1,0,0,3.948h82.183a1.974,1.974,0,1,0,0-3.948Z" fill="#1c3e58"/>
    </g>
    <g id="Grupo_15881" data-name="Grupo 15881">
      <path id="Trazado_34082" data-name="Trazado 34082" d="M81.894,1123.616l-3,2.965-3-2.965a20.984,20.984,0,0,0-29.515,29.836L78.9,1185.615l32.512-32.163a20.984,20.984,0,0,0-29.515-29.836Z" fill="#fabf62"/>
      <path id="Trazado_34083" data-name="Trazado 34083" d="M80.506,1122.212,78.9,1123.8l-1.608-1.591A22.959,22.959,0,0,0,45,1154.856l32.512,32.163a1.973,1.973,0,0,0,2.776,0l32.513-32.163a22.959,22.959,0,0,0-32.292-32.644Zm29.515,29.837L78.9,1182.837l-31.122-30.788a19.009,19.009,0,0,1,26.737-27.029l3,2.964a1.973,1.973,0,0,0,2.777,0l3-2.964a19.01,19.01,0,0,1,26.739,27.029Z" fill="#1c3e58"/>
    </g>
    <g id="Grupo_15882" data-name="Grupo 15882">
      <path id="Trazado_34084" data-name="Trazado 34084" d="M436.638,1092.008l-2.737,2.707-2.737-2.707a19.165,19.165,0,0,0-26.957,27.25l29.694,29.375,29.694-29.375a19.165,19.165,0,0,0-26.957-27.25Z" fill="#25ce9e"/>
      <path id="Trazado_34085" data-name="Trazado 34085" d="M435.249,1090.6l-1.348,1.334-1.349-1.334a21.139,21.139,0,0,0-29.733,30.056l29.694,29.375a1.972,1.972,0,0,0,2.776,0l29.694-29.375a21.139,21.139,0,1,0-29.734-30.056Zm26.958,27.248-28.306,28-28.306-28a17.191,17.191,0,0,1,24.181-24.441l2.737,2.707a1.971,1.971,0,0,0,2.776,0l2.737-2.707a17.191,17.191,0,0,1,24.181,24.441Z" fill="#1c3e58"/>
    </g>
    <g id="Grupo_15883" data-name="Grupo 15883">
      <path id="Trazado_34086" data-name="Trazado 34086" d="M629.789,626.97l-2.062,2.04-2.063-2.04a14.445,14.445,0,0,0-20.318,20.538l22.381,22.14,22.38-22.14a14.445,14.445,0,0,0-20.318-20.538Z" fill="#4088da"/>
      <path id="Trazado_34087" data-name="Trazado 34087" d="M640.036,620.82a16.028,16.028,0,0,0-11.636,4.747l-.674.667-.674-.667a16.3,16.3,0,0,0-11.545-4.747h-.091a16.419,16.419,0,0,0-11.458,28.091l22.38,22.14a1.973,1.973,0,0,0,2.776,0l22.381-22.14a16.419,16.419,0,0,0-11.459-28.091Zm8.683,25.284L627.726,666.87,606.735,646.1a12.471,12.471,0,0,1,8.7-21.336h.069a12.387,12.387,0,0,1,8.769,3.606l2.062,2.04a1.971,1.971,0,0,0,2.776,0l2.063-2.04a12.386,12.386,0,0,1,8.768-3.606h.07a12.471,12.471,0,0,1,8.7,21.336Z" fill="#1c3e58"/>
    </g>
    <g id="Grupo_15884" data-name="Grupo 15884">
      <path id="Trazado_34088" data-name="Trazado 34088" d="M20.332,1307.225a25.608,25.608,0,0,0,25.608,25.608H285.893a25.608,25.608,0,0,0,25.608-25.608v-8.536H20.332Z" fill="#ebf0f6"/>
      <path id="Trazado_34089" data-name="Trazado 34089" d="M311.5,1296.715H20.332a1.975,1.975,0,0,0-1.975,1.974v8.536a27.614,27.614,0,0,0,27.582,27.582H285.893a27.614,27.614,0,0,0,27.582-27.582v-8.536A1.975,1.975,0,0,0,311.5,1296.715Zm-1.974,10.51a23.66,23.66,0,0,1-23.633,23.633H45.939a23.66,23.66,0,0,1-23.633-23.633v-6.561h287.22Z" fill="#1c3e58"/>
    </g>
    <g id="Grupo_15885" data-name="Grupo 15885">
      <rect id="Rectángulo_3077" data-name="Rectángulo 3077" width="61.069" height="33.999" transform="matrix(0.924, -0.383, 0.383, 0.924, 505.492, 663.084)" fill="#fabf62"/>
      <path id="Trazado_34090" data-name="Trazado 34090" d="M563.735,638.955a1.974,1.974,0,0,0-2.58-1.069l-56.419,23.372a1.977,1.977,0,0,0-1.068,2.581l13.013,31.411a1.974,1.974,0,0,0,2.579,1.069l56.419-23.374a1.975,1.975,0,0,0,1.068-2.58Zm-44.162,52.961-11.5-27.764,52.772-21.862,11.5,27.762Z" fill="#1c3e58"/>
    </g>
    <g id="Grupo_15886" data-name="Grupo 15886">
      <rect id="Rectángulo_3078" data-name="Rectángulo 3078" width="33.999" height="61.069" transform="translate(576.882 707.958) rotate(-55.44)" fill="#25ce9e"/>
      <path id="Trazado_34091" data-name="Trazado 34091" d="M597.289,678.333a1.974,1.974,0,0,0-2.746.506l-19.287,28a1.973,1.973,0,0,0,.506,2.745l50.292,34.643a1.974,1.974,0,0,0,2.746-.506l19.286-28a1.974,1.974,0,0,0-.506-2.746Zm29.379,61.523-47.041-32.4L596.675,682.7l47.04,32.4Z" fill="#1c3e58"/>
    </g>
    <g id="Grupo_15887" data-name="Grupo 15887">
      <path id="Trazado_34092" data-name="Trazado 34092" d="M486.641,694.02a13.719,13.719,0,0,0-18.461,5.974l-1.254,2.454-2.468-1.228a13.72,13.72,0,0,0-12.222,24.568l10.338,5.143,2.414-6.541,18.123,6.688,9.5-18.6A13.72,13.72,0,0,0,486.641,694.02Z" fill="#fabf62"/>
      <path id="Trazado_34093" data-name="Trazado 34093" d="M487.539,692.261a15.716,15.716,0,0,0-21.117,6.835l-.365.714-.719-.358a15.7,15.7,0,0,0-13.982,28.1h0L461.7,732.7a1.974,1.974,0,0,0,2.732-1.084l1.73-4.689,16.271,6.005a1.977,1.977,0,0,0,2.441-.955l9.5-18.6A15.715,15.715,0,0,0,487.539,692.261Zm3.317,19.322-8.706,17.036-16.478-6.081a1.976,1.976,0,0,0-2.536,1.169l-1.652,4.477-8.368-4.163a11.746,11.746,0,0,1,10.463-21.034l2.468,1.228a1.974,1.974,0,0,0,2.638-.87l1.254-2.452a11.745,11.745,0,1,1,20.917,10.69Z" fill="#1c3e58"/>
    </g>
    <g id="Grupo_15888" data-name="Grupo 15888">
      <path id="Trazado_34094" data-name="Trazado 34094" d="M539.8,707.382a12.262,12.262,0,1,0,12.263,12.262A12.263,12.263,0,0,0,539.8,707.382Z" fill="#4088da"/>
      <path id="Trazado_34095" data-name="Trazado 34095" d="M539.8,705.407a14.237,14.237,0,1,0,14.237,14.237A14.253,14.253,0,0,0,539.8,705.407Zm0,24.525a10.288,10.288,0,1,1,10.289-10.288A10.3,10.3,0,0,1,539.8,729.932Z" fill="#1c3e58"/>
    </g>
    <g id="Grupo_15889" data-name="Grupo 15889">
      <path id="Trazado_34096" data-name="Trazado 34096" d="M260.223,848.335c-9.953,0-17.828,3.17-23.4,9.423-11.224,12.583-9.029,33.005-8.929,33.869a1.973,1.973,0,0,0,1.959,1.749,2.192,2.192,0,0,0,.227-.013,1.974,1.974,0,0,0,1.736-2.187c-.022-.193-2.1-19.513,7.954-30.79,4.795-5.377,11.677-8.1,20.457-8.1a1.974,1.974,0,0,0,0-3.949Z" fill="#1c3e58"/>
    </g>
    <g id="Grupo_15890" data-name="Grupo 15890">
      <path id="Trazado_34097" data-name="Trazado 34097" d="M194.258,989.367H176.609a1.974,1.974,0,0,0-1.974,1.975v90.52a1.975,1.975,0,0,0,1.974,1.975h17.649a1.975,1.975,0,0,0,1.975-1.975v-90.52A1.975,1.975,0,0,0,194.258,989.367Zm-1.974,90.521h-13.7V993.316h13.7Z" fill="#1c3e58"/>
    </g>
    <g id="Grupo_15891" data-name="Grupo 15891">
      <path id="Trazado_34098" data-name="Trazado 34098" d="M110.289,1005.23H66.436a9.294,9.294,0,0,0-9.283,9.284v4.547a9.294,9.294,0,0,0,9.283,9.282h43.853a9.294,9.294,0,0,0,9.283-9.282v-4.547A9.293,9.293,0,0,0,110.289,1005.23Zm5.335,13.831a5.34,5.34,0,0,1-5.335,5.333H66.436a5.339,5.339,0,0,1-5.334-5.333v-4.547a5.341,5.341,0,0,1,5.334-5.336h43.853a5.342,5.342,0,0,1,5.335,5.336Z" fill="#1c3e58"/>
    </g>
    <g id="Grupo_15892" data-name="Grupo 15892">
      <path id="Trazado_34099" data-name="Trazado 34099" d="M110.289,1024.394h-47.1a9.294,9.294,0,0,0-9.283,9.284v4.547a9.293,9.293,0,0,0,9.283,9.284h47.1a9.293,9.293,0,0,0,9.283-9.284v-4.547A9.294,9.294,0,0,0,110.289,1024.394Zm5.335,13.831a5.342,5.342,0,0,1-5.335,5.336h-47.1a5.341,5.341,0,0,1-5.334-5.336v-4.547a5.341,5.341,0,0,1,5.334-5.335h47.1a5.341,5.341,0,0,1,5.335,5.335Z" fill="#1c3e58"/>
    </g>
    <g id="Grupo_15893" data-name="Grupo 15893">
      <path id="Trazado_34100" data-name="Trazado 34100" d="M110.289,1043.561h-47.1a9.293,9.293,0,0,0-9.283,9.282v4.549a9.293,9.293,0,0,0,9.283,9.282h47.1a9.293,9.293,0,0,0,9.283-9.282v-4.549A9.293,9.293,0,0,0,110.289,1043.561Zm5.335,13.831a5.34,5.34,0,0,1-5.335,5.333h-47.1a5.339,5.339,0,0,1-5.334-5.333v-4.549a5.34,5.34,0,0,1,5.334-5.334h47.1a5.34,5.34,0,0,1,5.335,5.334Z" fill="#1c3e58"/>
    </g>
    <g id="Grupo_15894" data-name="Grupo 15894">
      <path id="Trazado_34101" data-name="Trazado 34101" d="M104.605,1062.725H73.258a9.294,9.294,0,0,0-9.283,9.284v4.547a9.293,9.293,0,0,0,9.283,9.284h31.347a9.294,9.294,0,0,0,9.283-9.284v-4.547A9.3,9.3,0,0,0,104.605,1062.725Zm5.334,13.831a5.341,5.341,0,0,1-5.334,5.336H73.258a5.341,5.341,0,0,1-5.335-5.336v-4.547a5.341,5.341,0,0,1,5.335-5.335h31.347a5.341,5.341,0,0,1,5.334,5.335Z" fill="#1c3e58"/>
    </g>
    <g id="Grupo_15895" data-name="Grupo 15895">
      <path id="Trazado_34102" data-name="Trazado 34102" d="M176.938,996.7c-.739-.125-18.165-3.054-25.55-3.489-6.989-.412-10.2-1.132-13.84-6.689-3.955-6.039-6.236-15.823-7.053-22.964a57.216,57.216,0,0,1-.045-7.381c.209-6.472.424-13.164-2.695-16.385a6,6,0,0,0-4.418-1.806c-8.643,0-19.082,10.589-19.082,23.738a59.064,59.064,0,0,0,3.45,18.472,40.758,40.758,0,0,1,2.234,13.294v13.9a1.974,1.974,0,0,0,3.949,0v-13.9a44.694,44.694,0,0,0-2.45-14.58,55.1,55.1,0,0,1-3.235-17.186c0-10.658,8.322-19.789,15.134-19.789a2.03,2.03,0,0,1,1.581.6c1.955,2.02,1.75,8.392,1.585,13.511a59.155,59.155,0,0,0,.07,7.956c.42,3.685,2.218,16.353,7.673,24.679,4.749,7.251,9.556,8.036,16.911,8.47,7.171.421,24.945,3.41,25.124,3.439a1.974,1.974,0,0,0,.657-3.893Z" fill="#1c3e58"/>
    </g>
    <g id="Grupo_15896" data-name="Grupo 15896">
      <path id="Trazado_34103" data-name="Trazado 34103" d="M176.609,1070.738c-4.748,0-10.835,2.767-15.1,5.09a20.764,20.764,0,0,1-9.883,2.535H110.851a1.974,1.974,0,1,0,0,3.948h40.771a24.718,24.718,0,0,0,11.769-3.015c5.467-2.973,10.161-4.609,13.218-4.609a1.974,1.974,0,0,0,0-3.949Z" fill="#1c3e58"/>
    </g>
    <g id="Grupo_15897" data-name="Grupo 15897">
      <path id="Trazado_34104" data-name="Trazado 34104" d="M306.516,1376.857l-7.909,7.909a1.974,1.974,0,1,0,2.792,2.792l7.909-7.909a1.974,1.974,0,0,0-2.792-2.792Z" fill="#1c3e58"/>
      <path id="Trazado_34105" data-name="Trazado 34105" d="M304.892,1366.194a1.974,1.974,0,0,0-1.975-1.974H291.732a1.974,1.974,0,1,0,0,3.948h11.185A1.974,1.974,0,0,0,304.892,1366.194Z" fill="#1c3e58"/>
      <path id="Trazado_34106" data-name="Trazado 34106" d="M332.028,1356.111a1.967,1.967,0,0,0,1.395-.578l7.91-7.91a1.974,1.974,0,0,0-2.792-2.792l-7.909,7.91a1.974,1.974,0,0,0,1.4,3.37Z" fill="#1c3e58"/>
      <path id="Trazado_34107" data-name="Trazado 34107" d="M301.4,1344.831a1.974,1.974,0,0,0-2.792,2.792l7.909,7.91a1.974,1.974,0,0,0,2.792-2.792Z" fill="#1c3e58"/>
      <path id="Trazado_34108" data-name="Trazado 34108" d="M319.97,1381.273a1.975,1.975,0,0,0-1.975,1.974v11.186a1.975,1.975,0,0,0,3.949,0v-11.186A1.974,1.974,0,0,0,319.97,1381.273Z" fill="#1c3e58"/>
      <path id="Trazado_34109" data-name="Trazado 34109" d="M348.208,1364.22H337.023a1.974,1.974,0,1,0,0,3.948h11.185a1.974,1.974,0,0,0,0-3.948Z" fill="#1c3e58"/>
      <path id="Trazado_34110" data-name="Trazado 34110" d="M333.423,1376.857a1.974,1.974,0,0,0-2.791,2.792l7.909,7.909a1.974,1.974,0,0,0,2.792-2.792Z" fill="#1c3e58"/>
      <path id="Trazado_34111" data-name="Trazado 34111" d="M319.97,1335.982a1.975,1.975,0,0,0-1.975,1.975v11.184a1.975,1.975,0,0,0,3.949,0v-11.184A1.974,1.974,0,0,0,319.97,1335.982Z" fill="#1c3e58"/>
    </g>
    <g id="Grupo_15898" data-name="Grupo 15898">
      <path id="Trazado_34112" data-name="Trazado 34112" d="M442.628,1172.969a1.969,1.969,0,0,0-2.182.555l-16.071,18.516a1.974,1.974,0,0,0,2.982,2.588l12.605-14.524V1257a1.975,1.975,0,0,0,3.949,0v-82.184A1.974,1.974,0,0,0,442.628,1172.969Z" fill="#1c3e58"/>
    </g>
    <g id="Grupo_15899" data-name="Grupo 15899">
      <path id="Trazado_34113" data-name="Trazado 34113" d="M443.427,1173.524a1.974,1.974,0,0,0-3.465,1.294V1257a1.975,1.975,0,0,0,3.949,0v-76.9l12.6,14.522a1.974,1.974,0,0,0,2.981-2.588Z" fill="#1c3e58"/>
    </g>
    <g id="Grupo_15900" data-name="Grupo 15900">
      <path id="Trazado_34114" data-name="Trazado 34114" d="M742.306,626.733a1.975,1.975,0,0,0-2.152.43l-16.07,16.1a1.974,1.974,0,1,0,2.794,2.789l12.7-12.722v66.69a1.974,1.974,0,0,0,3.949,0V628.557A1.973,1.973,0,0,0,742.306,626.733Z" fill="#1c3e58"/>
    </g>
    <g id="Grupo_15901" data-name="Grupo 15901">
      <path id="Trazado_34115" data-name="Trazado 34115" d="M742.949,627.163a1.974,1.974,0,0,0-3.372,1.394V700.02a1.974,1.974,0,0,0,3.949,0V633.33l12.7,12.722a1.974,1.974,0,0,0,2.8-2.789Z" fill="#1c3e58"/>
    </g>
    <g id="Grupo_15902" data-name="Grupo 15902">
      <path id="Trazado_34116" data-name="Trazado 34116" d="M885.264,830.144H698.428c-20.149,0-36.541,17.042-36.541,37.991v129a1.973,1.973,0,0,0,1.974,1.974H919.832a1.974,1.974,0,0,0,1.974-1.974v-129C921.806,847.186,905.413,830.144,885.264,830.144Zm32.594,165.017H665.835V868.135c0-18.771,14.621-34.043,32.593-34.043H885.264c17.973,0,32.594,15.272,32.594,34.043Z" fill="#1c3e58"/>
    </g>
    <g id="Grupo_15903" data-name="Grupo 15903">
      <rect id="Rectángulo_3079" data-name="Rectángulo 3079" width="54.572" height="38.655" transform="translate(694.504 867.688)" fill="#ebf0f6"/>
      <path id="Trazado_34117" data-name="Trazado 34117" d="M749.077,865.714H694.5a1.974,1.974,0,0,0-1.974,1.974v38.655a1.974,1.974,0,0,0,1.974,1.974h54.573a1.974,1.974,0,0,0,1.974-1.974V867.688A1.974,1.974,0,0,0,749.077,865.714ZM747.1,904.369H696.479V869.662H747.1Z" fill="#1c3e58"/>
    </g>
    <g id="Grupo_15904" data-name="Grupo 15904">
      <rect id="Rectángulo_3080" data-name="Rectángulo 3080" width="54.572" height="38.655" transform="translate(765.372 867.688)" fill="#4088da"/>
      <path id="Trazado_34118" data-name="Trazado 34118" d="M819.944,865.714H765.373a1.974,1.974,0,0,0-1.975,1.974v38.655a1.974,1.974,0,0,0,1.975,1.974h54.571a1.974,1.974,0,0,0,1.974-1.974V867.688A1.974,1.974,0,0,0,819.944,865.714Zm-1.974,38.655H767.347V869.662H817.97Z" fill="#1c3e58"/>
    </g>
    <g id="Grupo_15905" data-name="Grupo 15905">
      <rect id="Rectángulo_3081" data-name="Rectángulo 3081" width="54.572" height="38.655" transform="translate(836.241 867.688)" fill="#ebf0f6"/>
      <path id="Trazado_34119" data-name="Trazado 34119" d="M890.813,865.714H836.24a1.974,1.974,0,0,0-1.975,1.974v38.655a1.974,1.974,0,0,0,1.975,1.974h54.573a1.974,1.974,0,0,0,1.974-1.974V867.688A1.974,1.974,0,0,0,890.813,865.714Zm-1.975,38.655H838.214V869.662h50.624Z" fill="#1c3e58"/>
    </g>
    <g id="Grupo_15906" data-name="Grupo 15906">
      <path id="Trazado_34120" data-name="Trazado 34120" d="M748.264,926.782H693.691a1.974,1.974,0,0,0-1.974,1.974v38.656a1.975,1.975,0,0,0,1.974,1.975h54.573a1.974,1.974,0,0,0,1.974-1.975V928.756A1.974,1.974,0,0,0,748.264,926.782Zm-1.974,38.656H695.666V930.73H746.29Z" fill="#1c3e58"/>
    </g>
    <g id="Grupo_15907" data-name="Grupo 15907">
      <rect id="Rectángulo_3082" data-name="Rectángulo 3082" width="54.572" height="38.655" transform="translate(764.56 928.757)" fill="#25ce9e"/>
      <path id="Trazado_34121" data-name="Trazado 34121" d="M819.133,926.782H764.56a1.974,1.974,0,0,0-1.974,1.974v38.656a1.974,1.974,0,0,0,1.974,1.975h54.573a1.974,1.974,0,0,0,1.974-1.975V928.756A1.974,1.974,0,0,0,819.133,926.782Zm-1.975,38.656H766.534V930.73h50.624Z" fill="#1c3e58"/>
    </g>
    <g id="Grupo_15908" data-name="Grupo 15908">
      <rect id="Rectángulo_3083" data-name="Rectángulo 3083" width="54.572" height="38.655" transform="translate(835.429 928.757)" fill="#fabf62"/>
      <path id="Trazado_34122" data-name="Trazado 34122" d="M890,926.782H835.429a1.975,1.975,0,0,0-1.975,1.974v38.656a1.975,1.975,0,0,0,1.975,1.975H890a1.975,1.975,0,0,0,1.975-1.975V928.756A1.975,1.975,0,0,0,890,926.782Zm-1.974,38.656H837.4V930.73h50.624Z" fill="#1c3e58"/>
    </g>
    <g id="Grupo_15909" data-name="Grupo 15909">
      <path id="Trazado_34123" data-name="Trazado 34123" d="M933.475,733.126H862.66a7.5,7.5,0,0,0-7.5,7.5v6.93a7.5,7.5,0,0,0,7.5,7.5h70.815a7.5,7.5,0,0,0,7.5-7.5v-6.93A7.505,7.505,0,0,0,933.475,733.126Zm3.547,14.427a3.551,3.551,0,0,1-3.547,3.547H862.66a3.552,3.552,0,0,1-3.548-3.547v-6.93a3.552,3.552,0,0,1,3.548-3.548h70.815a3.552,3.552,0,0,1,3.547,3.548Z" fill="#1c3e58"/>
    </g>
    <g id="Grupo_15910" data-name="Grupo 15910">
      <path id="Trazado_34124" data-name="Trazado 34124" d="M933.475,751.1H862.66a7.505,7.505,0,0,0-7.5,7.5v2.234a7.5,7.5,0,0,0,7.5,7.5h70.815a7.5,7.5,0,0,0,7.5-7.5V758.6A7.506,7.506,0,0,0,933.475,751.1Zm3.547,9.732a3.552,3.552,0,0,1-3.547,3.547H862.66a3.552,3.552,0,0,1-3.548-3.547V758.6a3.553,3.553,0,0,1,3.548-3.549h70.815a3.552,3.552,0,0,1,3.547,3.549Z" fill="#1c3e58"/>
    </g>
    <g id="Grupo_15911" data-name="Grupo 15911">
      <path id="Trazado_34125" data-name="Trazado 34125" d="M929.306,764.379H866.829a7.5,7.5,0,0,0-7.5,7.5v2.235a7.505,7.505,0,0,0,7.5,7.5h62.477a7.505,7.505,0,0,0,7.5-7.5v-2.235A7.5,7.5,0,0,0,929.306,764.379Zm3.547,9.731a3.552,3.552,0,0,1-3.547,3.548H866.829a3.552,3.552,0,0,1-3.547-3.548v-2.235a3.551,3.551,0,0,1,3.547-3.547h62.477a3.552,3.552,0,0,1,3.547,3.547Z" fill="#1c3e58"/>
    </g>
    <g id="Grupo_15912" data-name="Grupo 15912">
      <path id="Trazado_34126" data-name="Trazado 34126" d="M925.11,777.846H871.025a1.974,1.974,0,0,0-1.975,1.974c0,10.58,12.746,18.866,29.017,18.866s29.017-8.286,29.017-18.866A1.974,1.974,0,0,0,925.11,777.846Zm-27.043,16.891c-12.466,0-23.157-5.75-24.838-12.942h49.677C921.225,788.987,910.534,794.737,898.067,794.737Z" fill="#1c3e58"/>
    </g>
    <g id="Grupo_15913" data-name="Grupo 15913">
      <path id="Trazado_34127" data-name="Trazado 34127" d="M882.584,1377.165H817.291a1.974,1.974,0,0,0-1.974,1.975v31.987h3.948v-30.013h61.344v30.013h3.949V1379.14A1.974,1.974,0,0,0,882.584,1377.165Z" fill="#1c3e58"/>
    </g>
    <g id="Grupo_15914" data-name="Grupo 15914">
      <path id="Trazado_34128" data-name="Trazado 34128" d="M953.205,1354.911h45.314v-3.949H951.231a1.974,1.974,0,0,0-1.974,1.975v58.19h3.948Z" fill="#1c3e58"/>
    </g>
    <g id="Grupo_15915" data-name="Grupo 15915">
      <path id="Trazado_34129" data-name="Trazado 34129" d="M984.039,1325.247V1155.291h14.48v-3.948H982.064a1.974,1.974,0,0,0-1.974,1.974v173.9a1.975,1.975,0,0,0,1.974,1.975h16.455v-3.949Z" fill="#1c3e58"/>
    </g>
    <g id="Grupo_15916" data-name="Grupo 15916">
      <path id="Trazado_34130" data-name="Trazado 34130" d="M731.211,1191.035H674.365a1.975,1.975,0,0,0-1.975,1.975v99.4a1.974,1.974,0,0,0,3.949,0v-97.425h52.9v216.143h3.948V1193.01A1.974,1.974,0,0,0,731.211,1191.035Z" fill="#1c3e58"/>
    </g>
    <g id="Grupo_15917" data-name="Grupo 15917">
      <path id="Trazado_34131" data-name="Trazado 34131" d="M716.006,1163.893a1.975,1.975,0,0,0-1.692-.956H691.262a1.974,1.974,0,0,0-1.692.956l-16.9,28.1a1.974,1.974,0,0,0,1.692,2.992h56.846a1.975,1.975,0,0,0,1.692-2.992Zm-38.151,27.142,14.524-24.149H713.2l14.523,24.149Z" fill="#1c3e58"/>
    </g>
    <g id="Grupo_15918" data-name="Grupo 15918">
      <path id="Trazado_34132" data-name="Trazado 34132" d="M702.788,1146.4a11.525,11.525,0,0,0-11.526,11.525v6.99h23.051v-6.99A11.525,11.525,0,0,0,702.788,1146.4Z" fill="#2b71b5"/>
      <path id="Trazado_34133" data-name="Trazado 34133" d="M702.787,1144.422a13.514,13.514,0,0,0-13.5,13.5v6.99a1.974,1.974,0,0,0,1.974,1.975h23.052a1.975,1.975,0,0,0,1.974-1.975v-6.99A13.515,13.515,0,0,0,702.787,1144.422Zm9.552,18.515h-19.1v-5.016a9.551,9.551,0,0,1,19.1,0Z" fill="#1c3e58"/>
    </g>
    <g id="Grupo_15919" data-name="Grupo 15919">
      <path id="Trazado_34134" data-name="Trazado 34134" d="M659.495,1320.093a23.388,23.388,0,1,0,23.388,23.388A23.388,23.388,0,0,0,659.495,1320.093Z" fill="#fabf62"/>
      <path id="Trazado_34135" data-name="Trazado 34135" d="M659.494,1318.118a25.363,25.363,0,1,0,25.364,25.362A25.39,25.39,0,0,0,659.494,1318.118Zm0,46.777a21.414,21.414,0,1,1,21.415-21.415A21.438,21.438,0,0,1,659.494,1364.9Z" fill="#1c3e58"/>
    </g>
    <g id="Grupo_15920" data-name="Grupo 15920">
      <path id="Trazado_34136" data-name="Trazado 34136" d="M680.374,1378.117a43.682,43.682,0,0,1-55.947-8.069,1.974,1.974,0,0,0-2.958,2.616,47.633,47.633,0,0,0,61.009,8.794,1.974,1.974,0,0,0-2.1-3.341Z" fill="#1c3e58"/>
    </g>
    <g id="Grupo_15921" data-name="Grupo 15921">
      <path id="Trazado_34137" data-name="Trazado 34137" d="M702.787,1210.526a1.974,1.974,0,0,0-1.974,1.974v91.4a1.974,1.974,0,1,0,3.948,0v-91.4A1.973,1.973,0,0,0,702.787,1210.526Z" fill="#1c3e58"/>
    </g>
    <g id="Grupo_15922" data-name="Grupo 15922">
      <path id="Trazado_34138" data-name="Trazado 34138" d="M759.43,1137.438a21.748,21.748,0,1,0,21.75,21.748A21.773,21.773,0,0,0,759.43,1137.438Zm0,39.547a17.8,17.8,0,1,1,17.8-17.8A17.82,17.82,0,0,1,759.43,1176.985Z" fill="#1c3e58"/>
    </g>
    <g id="Grupo_15923" data-name="Grupo 15923">
      <path id="Trazado_34139" data-name="Trazado 34139" d="M661.046,1122.82h-30.86a1.974,1.974,0,0,0-1.974,1.974v30.86a1.974,1.974,0,0,0,1.974,1.974h30.86a1.974,1.974,0,0,0,1.974-1.974v-30.86A1.974,1.974,0,0,0,661.046,1122.82Zm-1.974,30.859H632.161v-26.91h26.911Z" fill="#1c3e58"/>
    </g>
    <g id="Grupo_15924" data-name="Grupo 15924">
      <circle id="Elipse_1380" data-name="Elipse 1380" cx="24.313" cy="24.313" r="24.313" transform="matrix(0.973, -0.23, 0.23, 0.973, 511.008, 1075.159)" fill="#fabf62"/>
      <path id="Trazado_34140" data-name="Trazado 34140" d="M540.257,1066.949a26.288,26.288,0,1,0,26.288,26.287A26.317,26.317,0,0,0,540.257,1066.949Zm0,48.626a22.339,22.339,0,1,1,22.339-22.339A22.365,22.365,0,0,1,540.257,1115.575Z" fill="#1c3e58"/>
    </g>
    <g id="Grupo_15925" data-name="Grupo 15925">
      <circle id="Elipse_1381" data-name="Elipse 1381" cx="29.722" cy="29.722" r="29.722" transform="matrix(0.997, -0.071, 0.071, 0.997, 475.32, 1126.976)" fill="#fabf62"/>
      <path id="Trazado_34141" data-name="Trazado 34141" d="M507.074,1122.82a31.7,31.7,0,1,0,31.7,31.7A31.733,31.733,0,0,0,507.074,1122.82Zm0,59.445a27.748,27.748,0,1,1,27.749-27.748A27.778,27.778,0,0,1,507.074,1182.265Z" fill="#1c3e58"/>
    </g>
    <g id="Grupo_15926" data-name="Grupo 15926">
      <rect id="Rectángulo_3084" data-name="Rectángulo 3084" width="77.999" height="149.424" transform="translate(443.651 1327.651) rotate(-73.819)" fill="#25ce9e"/>
      <path id="Trazado_34142" data-name="Trazado 34142" d="M609.442,1292.486l-143.5-41.641a1.975,1.975,0,0,0-2.447,1.345L441.755,1327.1a1.976,1.976,0,0,0,1.347,2.447l143.5,41.641a1.977,1.977,0,0,0,2.446-1.345l21.735-74.91A1.973,1.973,0,0,0,609.442,1292.486Zm-23.632,74.359L446.1,1326.3l20.636-71.117,139.711,40.541Z" fill="#1c3e58"/>
    </g>
    <g id="Grupo_15927" data-name="Grupo 15927">
      <path id="Trazado_34143" data-name="Trazado 34143" d="M630.493,1280.555l-42.725-12.4a1.974,1.974,0,1,0-1.1,3.791L627.5,1283.8l-16.951,58.417a1.974,1.974,0,1,0,3.791,1.1l17.5-60.314A1.973,1.973,0,0,0,630.493,1280.555Z" fill="#1c3e58"/>
    </g>
    <g id="Grupo_15928" data-name="Grupo 15928">
      <rect id="Rectángulo_3085" data-name="Rectángulo 3085" width="139.148" height="69.89" transform="translate(481.627 1218.636) rotate(-20.75)" fill="#25ce9e"/>
      <path id="Trazado_34144" data-name="Trazado 34144" d="M613.6,1168.638a1.971,1.971,0,0,0-2.545-1.148l-130.123,49.3a1.974,1.974,0,0,0-1.147,2.545l24.761,65.358a1.975,1.975,0,0,0,2.546,1.147l130.123-49.3a1.974,1.974,0,0,0,1.147-2.546Zm-106.061,112.81-23.362-61.666,126.431-47.9,23.363,61.666Z" fill="#1c3e58"/>
    </g>
    <g id="Grupo_15929" data-name="Grupo 15929">
      <path id="Trazado_34145" data-name="Trazado 34145" d="M917.936,498.08c-11.044,3.573-10.394,23.226,1.137,19.49s14.293-6.172,14.293-6.172S928.981,494.507,917.936,498.08Z" fill="#4088da"/>
      <path id="Trazado_34146" data-name="Trazado 34146" d="M925.946,496.917a10.548,10.548,0,0,0-8.618-.716,13.665,13.665,0,0,0-8.926,10.492c-.967,4.529.119,9,2.769,11.391a7.542,7.542,0,0,0,5.173,1.924,10.827,10.827,0,0,0,3.337-.56c11.586-3.753,14.678-6.292,14.992-6.569a1.977,1.977,0,0,0,.605-1.978C935.168,510.48,932.517,500.523,925.946,496.917Zm-7.481,18.775c-1.98.638-3.541.46-4.649-.54-1.6-1.44-2.219-4.508-1.551-7.634a9.764,9.764,0,0,1,6.279-7.559,7.68,7.68,0,0,1,2.38-.4,6.38,6.38,0,0,1,3.116.817c3.865,2.116,6.131,7.641,7,10.194C929.447,511.495,925.786,513.32,918.465,515.692Z" fill="#1c3e58"/>
    </g>
    <g id="Grupo_15930" data-name="Grupo 15930">
      <path id="Trazado_34147" data-name="Trazado 34147" d="M871.864,473.663l5.035,16.729,44.5-13.968-5.522-17.541Z" fill="#4088da"/>
      <path id="Trazado_34148" data-name="Trazado 34148" d="M917.762,458.291a1.975,1.975,0,0,0-2.511-1.279l-44.015,14.78a1.973,1.973,0,0,0-1.263,2.44l5.034,16.73a1.977,1.977,0,0,0,2.482,1.315l44.5-13.969a1.975,1.975,0,0,0,1.293-2.477Zm-39.55,29.62-3.906-12.985L914.6,461.4l4.323,13.736Z" fill="#1c3e58"/>
    </g>
    <g id="Grupo_15931" data-name="Grupo 15931">
      <path id="Trazado_34149" data-name="Trazado 34149" d="M923.268,475.785a1.974,1.974,0,1,0-3.735,1.279L931.5,512.037a1.974,1.974,0,0,0,3.736-1.278Z" fill="#1c3e58"/>
    </g>
    <g id="Grupo_15932" data-name="Grupo 15932">
      <path id="Trazado_34150" data-name="Trazado 34150" d="M868.507,512.806c-11.836,3.332-7.072,20.955,6.89,16.648,3.816-1.178,11.247-4.467,11.247-4.467l-.376-1.334C885.047,519.851,880.538,509.42,868.507,512.806Z" fill="#4088da"/>
      <path id="Trazado_34151" data-name="Trazado 34151" d="M886.644,524.987s-.114-.517-.376-1.334Z" fill="#4088da"/>
      <path id="Trazado_34152" data-name="Trazado 34152" d="M888.139,523.017l-9.34-33.16a1.975,1.975,0,0,0-3.8,1.071l6.14,21.8c-.294-.21-.6-.411-.917-.6-3.5-2.107-7.625-2.52-12.249-1.217a10.664,10.664,0,0,0-7.851,7.671,11.053,11.053,0,0,0,3.138,10.505,11.387,11.387,0,0,0,7.974,3.01,16.1,16.1,0,0,0,4.744-.751c3.8-1.171,10.841-4.272,11.436-4.535a1.934,1.934,0,0,0,.424-.245,1.977,1.977,0,0,0,.779-1.5,1.882,1.882,0,0,0-.054-.541C888.524,524.351,888.392,523.8,888.139,523.017Zm-13.324,4.55c-3.607,1.109-6.744.627-8.846-1.358a7.044,7.044,0,0,1-2.013-6.692,6.734,6.734,0,0,1,5.087-4.811,14.617,14.617,0,0,1,3.958-.587,9.873,9.873,0,0,1,5.165,1.376c3.518,2.108,5.329,6.163,6.091,8.376C881.888,524.889,877.427,526.761,874.815,527.567Z" fill="#1c3e58"/>
    </g>
    <g id="Grupo_15939" data-name="Grupo 15939">
      <g id="Grupo_15933" data-name="Grupo 15933">
        <path id="Trazado_34153" data-name="Trazado 34153" d="M82.246,1213.847H45.791a1.974,1.974,0,1,0,0,3.948H82.246a1.974,1.974,0,1,0,0-3.948Z" fill="#1c3e58"/>
      </g>
      <g id="Grupo_15934" data-name="Grupo 15934">
        <path id="Trazado_34154" data-name="Trazado 34154" d="M82.246,1238.387H45.791a1.974,1.974,0,0,0,0,3.948H82.246a1.974,1.974,0,1,0,0-3.948Z" fill="#1c3e58"/>
      </g>
      <g id="Grupo_15935" data-name="Grupo 15935">
        <path id="Trazado_34155" data-name="Trazado 34155" d="M82.246,1262.927H45.791a1.974,1.974,0,0,0,0,3.948H82.246a1.974,1.974,0,1,0,0-3.948Z" fill="#1c3e58"/>
      </g>
      <g id="Grupo_15936" data-name="Grupo 15936">
        <path id="Trazado_34156" data-name="Trazado 34156" d="M286.041,1213.847H249.585a1.974,1.974,0,1,0,0,3.948h36.456a1.974,1.974,0,1,0,0-3.948Z" fill="#1c3e58"/>
      </g>
      <g id="Grupo_15937" data-name="Grupo 15937">
        <path id="Trazado_34157" data-name="Trazado 34157" d="M286.041,1238.387H249.585a1.974,1.974,0,1,0,0,3.948h36.456a1.974,1.974,0,1,0,0-3.948Z" fill="#1c3e58"/>
      </g>
      <g id="Grupo_15938" data-name="Grupo 15938">
        <path id="Trazado_34158" data-name="Trazado 34158" d="M286.041,1262.927H249.585a1.974,1.974,0,1,0,0,3.948h36.456a1.974,1.974,0,1,0,0-3.948Z" fill="#1c3e58"/>
      </g>
    </g>
    <g id="Grupo_15940" data-name="Grupo 15940">
      <path id="Trazado_34159" data-name="Trazado 34159" d="M416.446,817.15H377.79a1.974,1.974,0,0,0,0,3.949h38.656a1.974,1.974,0,0,0,0-3.949Z" fill="#1c3e58"/>
    </g>
    <g id="Grupo_15941" data-name="Grupo 15941">
      <path id="Trazado_34160" data-name="Trazado 34160" d="M416.446,836.153H377.79a1.974,1.974,0,0,0,0,3.949h38.656a1.974,1.974,0,0,0,0-3.949Z" fill="#1c3e58"/>
    </g>
    <g id="Grupo_15942" data-name="Grupo 15942">
      <path id="Trazado_34161" data-name="Trazado 34161" d="M450.987,903.557H392.733a1.974,1.974,0,0,0,0,3.949h58.254a1.974,1.974,0,0,0,0-3.949Z" fill="#1c3e58"/>
    </g>
    <g id="Grupo_15943" data-name="Grupo 15943">
      <path id="Trazado_34162" data-name="Trazado 34162" d="M450.987,923.7H392.733a1.974,1.974,0,0,0,0,3.948h58.254a1.974,1.974,0,0,0,0-3.948Z" fill="#1c3e58"/>
    </g>
    <g id="Grupo_15944" data-name="Grupo 15944">
      <path id="Trazado_34163" data-name="Trazado 34163" d="M439.726,1004.255h-60.42a1.974,1.974,0,0,0,0,3.949h60.42a1.974,1.974,0,0,0,0-3.949Z" fill="#1c3e58"/>
    </g>
    <g id="Grupo_15945" data-name="Grupo 15945">
      <path id="Trazado_34164" data-name="Trazado 34164" d="M439.726,1023.529h-60.42a1.975,1.975,0,0,0,0,3.949h60.42a1.975,1.975,0,0,0,0-3.949Z" fill="#1c3e58"/>
    </g>
    <g id="Grupo_15946" data-name="Grupo 15946">
      <path id="Trazado_34165" data-name="Trazado 34165" d="M324.771,956.086a1.971,1.971,0,0,0-2.538,1.165l-20.361,54.912-13.413-13.6a1.973,1.973,0,0,0-3.034.272l-16.459,24.037a1.974,1.974,0,1,0,3.258,2.23l15.105-22.061,13.91,14.1a1.975,1.975,0,0,0,3.257-.7l21.439-57.821A1.974,1.974,0,0,0,324.771,956.086Z" fill="#1c3e58"/>
    </g>
    <g id="Grupo_15947" data-name="Grupo 15947">
      <path id="Trazado_34166" data-name="Trazado 34166" d="M309.832,952.329l28.506,9.977-6.044-28.443Z" fill="#4088da"/>
      <path id="Trazado_34167" data-name="Trazado 34167" d="M334.224,933.453a1.975,1.975,0,0,0-3.185-1.115L308.577,950.8a1.974,1.974,0,0,0,.6,3.388l28.505,9.977a1.974,1.974,0,0,0,2.584-2.274ZM313.8,951.626l17.241-14.175,4.639,21.831Z" fill="#1c3e58"/>
    </g>
    <g id="Grupo_15948" data-name="Grupo 15948">
      <path id="Trazado_34168" data-name="Trazado 34168" d="M694.554,1073.28a113.036,113.036,0,0,1-32.425,4.55c-34.973,0-63.426-14.353-63.426-32,0-10.359,10.183-20.158,27.237-26.211a1.974,1.974,0,0,0-1.32-3.72c-18.7,6.635-29.866,17.824-29.866,29.931,0,19.82,30.224,35.946,67.375,35.946a117.026,117.026,0,0,0,33.572-4.72,1.975,1.975,0,1,0-1.147-3.779Z" fill="#1c3e58"/>
    </g>
    <g id="Grupo_15949" data-name="Grupo 15949">
      <path id="Trazado_34169" data-name="Trazado 34169" d="M856.274,1064.041a1.973,1.973,0,0,0-1.6,2.284,25.893,25.893,0,0,1,.387,4.444c0,24.707-35.254,44.806-78.585,44.806s-78.584-20.1-78.584-44.806a26.331,26.331,0,0,1,1.524-8.773,1.974,1.974,0,0,0-3.724-1.311,30.253,30.253,0,0,0-1.749,10.084c0,26.883,37.025,48.755,82.533,48.755S859,1097.652,859,1070.769a29.825,29.825,0,0,0-.445-5.122A1.985,1.985,0,0,0,856.274,1064.041Z" fill="#1c3e58"/>
    </g>
    <g id="Grupo_15950" data-name="Grupo 15950">
      <path id="Trazado_34170" data-name="Trazado 34170" d="M965.3,1045.834a45.755,45.755,0,0,1-7.917-.694,1.977,1.977,0,0,0-2.255,2.437,26.186,26.186,0,0,1,.845,6.512c0,21.241-25.83,38.521-57.579,38.521-16.055,0-30.967-4.336-41.991-12.21a1.975,1.975,0,1,0-2.295,3.215c11.688,8.347,27.415,12.944,44.286,12.944,33.926,0,61.528-19.052,61.528-42.47a29.275,29.275,0,0,0-.375-4.642,49.788,49.788,0,0,0,5.753.336c14.052,0,26.386-5.867,33.221-14.635v-7.687C993.979,1038.1,980.822,1045.834,965.3,1045.834Z" fill="#1c3e58"/>
      <path id="Trazado_34171" data-name="Trazado 34171" d="M952.723,1019.331a1.974,1.974,0,0,0,1.974,1.974h43.822v-3.949H954.7A1.974,1.974,0,0,0,952.723,1019.331Z" fill="#1c3e58"/>
    </g>
    <g id="Grupo_15951" data-name="Grupo 15951">
      <path id="Trazado_34172" data-name="Trazado 34172" d="M909.408,1143.782a114.748,114.748,0,0,0-96,8.209,1.974,1.974,0,0,0,1.962,3.427,110.787,110.787,0,0,1,92.683-7.925,1.975,1.975,0,0,0,1.351-3.711Z" fill="#1c3e58"/>
    </g>
    <g id="Grupo_15952" data-name="Grupo 15952">
      <path id="Trazado_34173" data-name="Trazado 34173" d="M654.915,1100.624c-36.24,1.273-55.511-17.634-55.7-17.824a1.974,1.974,0,0,0-2.8,2.778c.794.8,19.272,19.055,54.974,19.055q1.806,0,3.668-.063a1.972,1.972,0,0,0,1.905-2.041A1.942,1.942,0,0,0,654.915,1100.624Z" fill="#1c3e58"/>
    </g>
    <g id="Grupo_15953" data-name="Grupo 15953">
      <path id="Trazado_34174" data-name="Trazado 34174" d="M512.022,875.957c-12-7.667-18.89-18.853-18.89-30.688,0-11.09,5.873-21.421,16.536-29.092a1.974,1.974,0,1,0-2.306-3.205c-11.553,8.309-18.178,20.081-18.178,32.3,0,13.209,7.549,25.607,20.712,34.017a1.975,1.975,0,0,0,2.126-3.329Z" fill="#1c3e58"/>
    </g>
    <g id="Grupo_15954" data-name="Grupo 15954">
      <path id="Trazado_34175" data-name="Trazado 34175" d="M578.285,814.3a1.973,1.973,0,1,0-2.435,3.106c9.607,7.532,14.9,17.427,14.9,27.863,0,13.579-9.005,26.147-24.089,33.62a1.975,1.975,0,0,0,1.754,3.539c16.458-8.155,26.284-22.046,26.284-37.159C594.7,833.593,588.869,822.595,578.285,814.3Z" fill="#1c3e58"/>
    </g>
    <g id="Grupo_15955" data-name="Grupo 15955">
      <path id="Trazado_34176" data-name="Trazado 34176" d="M545.215,843.381h-6.954a13.826,13.826,0,0,1,0-27.651H555a1.974,1.974,0,1,0,0-3.949H538.261a17.775,17.775,0,0,0,0,35.549h6.954a13.826,13.826,0,0,1,0,27.651H526.706a1.974,1.974,0,1,0,0,3.948h18.509a17.774,17.774,0,0,0,0-35.548Z" fill="#1c3e58"/>
    </g>
    <g id="Grupo_15956" data-name="Grupo 15956">
      <path id="Trazado_34177" data-name="Trazado 34177" d="M560.674,1226.137l-3.046.876a5.229,5.229,0,0,1-2.886-10.052l7.333-2.106a1.974,1.974,0,1,0-1.089-3.794l-7.334,2.1a9.177,9.177,0,0,0,5.067,17.641l3.045-.876a5.229,5.229,0,0,1,2.887,10.052l-8.11,2.329a1.974,1.974,0,0,0,.544,3.872,1.944,1.944,0,0,0,.546-.078l8.11-2.329a9.177,9.177,0,1,0-5.067-17.64Z" fill="#1c3e58"/>
    </g>
    <g id="Grupo_15957" data-name="Grupo 15957">
      <path id="Trazado_34178" data-name="Trazado 34178" d="M547.587,1081.346l-5.74-1.116a7.494,7.494,0,0,0-2.855,14.714l2.384.461a3.545,3.545,0,0,1,1.308,6.418,3.51,3.51,0,0,1-2.658.541l-6.347-1.232a1.975,1.975,0,0,0-.753,3.878l6.347,1.231a7.527,7.527,0,0,0,1.445.14,7.5,7.5,0,0,0,7.339-6.068,7.5,7.5,0,0,0-5.928-8.784l-2.385-.463a3.544,3.544,0,1,1,1.351-6.958l5.739,1.114a1.974,1.974,0,1,0,.753-3.876Z" fill="#1c3e58"/>
    </g>
    <g id="Grupo_15958" data-name="Grupo 15958">
      <path id="Trazado_34179" data-name="Trazado 34179" d="M509.837,1152.371l-3.842.36a6.791,6.791,0,0,1-1.265-13.524l9.246-.865a1.974,1.974,0,0,0-.369-3.931l-9.244.866a10.739,10.739,0,1,0,2,21.384l3.842-.359a6.792,6.792,0,0,1,1.265,13.525l-10.224.956a1.974,1.974,0,0,0,.182,3.94,1.661,1.661,0,0,0,.185-.01l10.224-.956a10.74,10.74,0,1,0-2-21.386Z" fill="#1c3e58"/>
    </g>
    <g id="Grupo_15959" data-name="Grupo 15959">
      <path id="Trazado_34180" data-name="Trazado 34180" d="M541.738,797.838a1.974,1.974,0,0,0-1.974,1.974v13.943a1.974,1.974,0,1,0,3.948,0V799.812A1.973,1.973,0,0,0,541.738,797.838Z" fill="#1c3e58"/>
    </g>
    <g id="Grupo_15960" data-name="Grupo 15960">
      <path id="Trazado_34181" data-name="Trazado 34181" d="M541.738,874.981a1.974,1.974,0,0,0-1.974,1.974V890.9a1.974,1.974,0,0,0,3.948,0V876.955A1.974,1.974,0,0,0,541.738,874.981Z" fill="#1c3e58"/>
    </g>
    <g id="Grupo_15961" data-name="Grupo 15961">
      <path id="Trazado_34182" data-name="Trazado 34182" d="M571.745,1206.716a24.869,24.869,0,1,0-12.085,46.635,24.905,24.905,0,0,0,23.939-31.743A24.711,24.711,0,0,0,571.745,1206.716Zm-6.274,41.863a20.92,20.92,0,1,1-11.548-40.214,21.046,21.046,0,0,1,5.8-.822,20.925,20.925,0,0,1,5.744,41.036Z" fill="#1c3e58"/>
    </g>
    <g id="Grupo_15962" data-name="Grupo 15962">
      <path id="Trazado_34183" data-name="Trazado 34183" d="M540.93,1297.84l-6.98-2.363a8.93,8.93,0,1,0-5.724,16.918l2.9.983a4.981,4.981,0,1,1-3.193,9.437l-7.719-2.612a1.974,1.974,0,1,0-1.265,3.739l7.718,2.611a8.929,8.929,0,1,0,5.724-16.915l-2.9-.981a4.983,4.983,0,0,1,3.194-9.44l6.98,2.361a1.973,1.973,0,1,0,1.265-3.738Z" fill="#1c3e58"/>
    </g>
    <g id="Grupo_15963" data-name="Grupo 15963">
      <path id="Trazado_34184" data-name="Trazado 34184" d="M538.027,1288.2a24.083,24.083,0,1,0,15.094,30.531A24.1,24.1,0,0,0,538.027,1288.2Zm-28.662,15.725h0Zm40.016,13.541a20.137,20.137,0,1,1-12.619-25.527A20,20,0,0,1,549.381,1317.47Z" fill="#1c3e58"/>
    </g>
    <g id="Grupo_15966" data-name="Grupo 15966">
      <g id="Grupo_15964" data-name="Grupo 15964">
        <path id="Trazado_34185" data-name="Trazado 34185" d="M897.525,635.244a79.007,79.007,0,0,1-8.181-.4c-1.849-9.411-5.958-20.389-15.071-20.389-5.892,0-10.169,3.591-10.169,8.538,0,4.165,2.991,8.218,8.2,11.123a40.81,40.81,0,0,0,13.621,4.265,78.712,78.712,0,0,1,.96,9.448V735.1a1.974,1.974,0,0,0,3.948,0V647.764a86.065,86.065,0,0,0-.812-8.894c2.379.214,4.884.322,7.5.322a1.974,1.974,0,0,0,0-3.948Zm-23.3-4.578c-3.867-2.155-6.176-5.024-6.176-7.674,0-2.745,2.5-4.589,6.221-4.589,5.8,0,9.11,7.86,10.874,15.854A34.954,34.954,0,0,1,874.228,630.666Z" fill="#1c3e58"/>
      </g>
      <g id="Grupo_15965" data-name="Grupo 15965">
        <path id="Trazado_34186" data-name="Trazado 34186" d="M921.862,614.454c-9.108,0-13.219,10.966-15.07,20.387a78.415,78.415,0,0,1-8.184.4,1.974,1.974,0,0,0,0,3.948c2.618,0,5.124-.108,7.5-.322a86.251,86.251,0,0,0-.816,8.958V735.1a1.974,1.974,0,0,0,3.949,0l0-87.208a78.927,78.927,0,0,1,.961-9.513,40.815,40.815,0,0,0,13.623-4.265c5.213-2.9,8.2-6.958,8.2-11.123C932.031,618.045,927.754,614.454,921.862,614.454Zm.043,16.21a34.873,34.873,0,0,1-10.92,3.593c1.762-8,5.071-15.854,10.877-15.854,3.72,0,6.22,1.844,6.22,4.589C928.082,625.642,925.773,628.511,921.905,630.664Z" fill="#1c3e58"/>
      </g>
    </g>
    <g id="Grupo_15967" data-name="Grupo 15967">
      <path id="Trazado_34187" data-name="Trazado 34187" d="M575.425,970.429,506.254,1001.4a1.974,1.974,0,1,0,1.614,3.6l69.17-30.967a1.974,1.974,0,1,0-1.613-3.6Z" fill="#1c3e58"/>
    </g>
    <g id="Grupo_15968" data-name="Grupo 15968">
      <path id="Trazado_34188" data-name="Trazado 34188" d="M575.425,992.193l-69.171,30.967a1.974,1.974,0,0,0,1.614,3.6l69.17-30.968a1.974,1.974,0,1,0-1.613-3.6Z" fill="#1c3e58"/>
    </g>
    <g id="Grupo_15970" data-name="Grupo 15970">
      <g id="Grupo_15969" data-name="Grupo 15969">
        <path id="Trazado_34189" data-name="Trazado 34189" d="M736.192,550.752a1.974,1.974,0,0,0-1.975,1.974v8.284a1.975,1.975,0,0,0,3.949,0v-8.284A1.974,1.974,0,0,0,736.192,550.752Z" fill="#1c3e58"/>
      </g>
    </g>
    <g id="Grupo_15973" data-name="Grupo 15973">
      <g id="Grupo_15971" data-name="Grupo 15971">
        <path id="Trazado_34190" data-name="Trazado 34190" d="M702,593.224h-8.283a1.974,1.974,0,0,0,0,3.949H702a1.974,1.974,0,0,0,0-3.949Z" fill="#1c3e58"/>
      </g>
      <g id="Grupo_15972" data-name="Grupo 15972">
        <path id="Trazado_34191" data-name="Trazado 34191" d="M778.664,593.224h-8.283a1.974,1.974,0,0,0,0,3.949h8.283a1.974,1.974,0,0,0,0-3.949Z" fill="#1c3e58"/>
      </g>
    </g>
    <g id="Grupo_15975" data-name="Grupo 15975">
      <g id="Grupo_15974" data-name="Grupo 15974">
        <path id="Trazado_34192" data-name="Trazado 34192" d="M716.666,557.43a1.975,1.975,0,0,0-3.421,1.974l4.141,7.173a1.975,1.975,0,0,0,3.421-1.974Z" fill="#1c3e58"/>
      </g>
    </g>
    <g id="Grupo_15977" data-name="Grupo 15977">
      <g id="Grupo_15976" data-name="Grupo 15976">
        <path id="Trazado_34193" data-name="Trazado 34193" d="M771.987,572.252l-7.174,4.143a1.974,1.974,0,1,0,1.974,3.419l7.174-4.142a1.974,1.974,0,0,0-1.974-3.42Z" fill="#1c3e58"/>
      </g>
    </g>
    <g id="Grupo_15979" data-name="Grupo 15979">
      <g id="Grupo_15978" data-name="Grupo 15978">
        <path id="Trazado_34194" data-name="Trazado 34194" d="M707.57,576.4l-7.174-4.143a1.974,1.974,0,0,0-1.974,3.42l7.174,4.142a1.974,1.974,0,0,0,1.974-3.419Z" fill="#1c3e58"/>
      </g>
    </g>
    <g id="Grupo_15981" data-name="Grupo 15981">
      <g id="Grupo_15980" data-name="Grupo 15980">
        <path id="Trazado_34195" data-name="Trazado 34195" d="M758.415,556.707a1.975,1.975,0,0,0-2.7.723l-4.141,7.173A1.975,1.975,0,0,0,755,566.577l4.141-7.173A1.975,1.975,0,0,0,758.415,556.707Z" fill="#1c3e58"/>
      </g>
    </g>
    <g id="Grupo_15982" data-name="Grupo 15982">
      <path id="Trazado_34196" data-name="Trazado 34196" d="M736.192,543.849a51.339,51.339,0,0,0-49.455,65.159,1.973,1.973,0,0,0,1.9,1.444h95.107a1.972,1.972,0,0,0,1.9-1.444,51.339,51.339,0,0,0-49.454-65.159ZM782.221,606.5H690.162a47.4,47.4,0,1,1,92.059,0Z" fill="#1c3e58"/>
    </g>
    <g id="Grupo_15983" data-name="Grupo 15983">
      <path id="Trazado_34197" data-name="Trazado 34197" d="M798.072,606.5H674.311a1.974,1.974,0,1,0,0,3.948H798.072a1.974,1.974,0,1,0,0-3.948Z" fill="#1c3e58"/>
    </g>
    <g id="Grupo_15984" data-name="Grupo 15984">
      <path id="Trazado_34198" data-name="Trazado 34198" d="M747.525,574.359a1.975,1.975,0,0,0-2.72.627l-17.543,28.052a1.974,1.974,0,1,0,3.348,2.093l17.542-28.052A1.974,1.974,0,0,0,747.525,574.359Z" fill="#1c3e58"/>
    </g>
    <g id="Grupo_15985" data-name="Grupo 15985">
      <path id="Trazado_34199" data-name="Trazado 34199" d="M898.067,537.955a1.974,1.974,0,0,0-1.975,1.974v8.933a1.975,1.975,0,1,0,3.949,0v-8.933A1.974,1.974,0,0,0,898.067,537.955Z" fill="#1c3e58"/>
    </g>
    <g id="Grupo_15986" data-name="Grupo 15986">
      <path id="Trazado_34200" data-name="Trazado 34200" d="M823.65,569.408a1.974,1.974,0,0,0-2.791,2.792l6.316,6.317a1.974,1.974,0,0,0,2.792-2.792Z" fill="#1c3e58"/>
    </g>
    <g id="Grupo_15987" data-name="Grupo 15987">
      <path id="Trazado_34201" data-name="Trazado 34201" d="M967.277,569.408l-6.316,6.317a1.974,1.974,0,0,0,2.792,2.792l6.316-6.317a1.974,1.974,0,0,0-2.792-2.792Z" fill="#1c3e58"/>
    </g>
    <g id="Grupo_15988" data-name="Grupo 15988">
      <path id="Trazado_34202" data-name="Trazado 34202" d="M805.192,630.7h-8.934a1.974,1.974,0,0,0,0,3.949h8.934a1.974,1.974,0,0,0,0-3.949Z" fill="#1c3e58"/>
    </g>
    <g id="Grupo_15989" data-name="Grupo 15989">
      <path id="Trazado_34203" data-name="Trazado 34203" d="M996.734,630.7H987.8a1.974,1.974,0,1,0,0,3.949h8.933a1.968,1.968,0,0,0,1.785-1.154v-1.641A1.967,1.967,0,0,0,996.734,630.7Z" fill="#1c3e58"/>
    </g>
    <g id="Grupo_15990" data-name="Grupo 15990">
      <path id="Trazado_34204" data-name="Trazado 34204" d="M195.441,1330.858H132.6a1.974,1.974,0,0,0-1.974,1.975v46.2a1.974,1.974,0,0,0,1.974,1.974h62.841a1.974,1.974,0,0,0,1.974-1.974v-46.2A1.974,1.974,0,0,0,195.441,1330.858Zm-1.975,46.2H134.574v-42.253h58.892Z" fill="#1c3e58"/>
    </g>
    <g id="Grupo_15991" data-name="Grupo 15991">
      <path id="Trazado_34205" data-name="Trazado 34205" d="M247.1,1114.506a2.2,2.2,0,0,0-.435.045,2.167,2.167,0,0,0,.431,4.29,2.195,2.195,0,0,0,.434-.045,2.166,2.166,0,0,0,1.691-2.556A2.175,2.175,0,0,0,247.1,1114.506Z" fill="#1c3e58"/>
    </g>
    <g id="Grupo_15992" data-name="Grupo 15992">
      <path id="Trazado_34206" data-name="Trazado 34206" d="M295.068,1090.144a2.2,2.2,0,0,0-.435.044,2.166,2.166,0,1,0,.865,4.245,2.167,2.167,0,0,0,1.692-2.556A2.176,2.176,0,0,0,295.068,1090.144Z" fill="#1c3e58"/>
    </g>
    <g id="Grupo_15993" data-name="Grupo 15993">
      <path id="Trazado_34207" data-name="Trazado 34207" d="M319.755,1090.144a2.211,2.211,0,0,0-.435.044,2.167,2.167,0,0,0,.431,4.29,2.2,2.2,0,0,0,.435-.045,2.166,2.166,0,0,0,1.691-2.556A2.175,2.175,0,0,0,319.755,1090.144Z" fill="#1c3e58"/>
    </g>
    <g id="Grupo_15994" data-name="Grupo 15994">
      <path id="Trazado_34208" data-name="Trazado 34208" d="M344.443,1090.144a2.2,2.2,0,0,0-.435.044,2.166,2.166,0,1,0,.865,4.245,2.166,2.166,0,0,0,1.691-2.556A2.171,2.171,0,0,0,344.443,1090.144Z" fill="#1c3e58"/>
    </g>
    <g id="Grupo_15995" data-name="Grupo 15995">
      <path id="Trazado_34209" data-name="Trazado 34209" d="M483.165,1294.812a2.093,2.093,0,0,0-.435.045,2.165,2.165,0,0,0-1.691,2.555,2.175,2.175,0,0,0,2.121,1.734,2.125,2.125,0,0,0,.435-.045,2.166,2.166,0,0,0-.43-4.289Z" fill="#1c3e58"/>
    </g>
    <g id="Grupo_15996" data-name="Grupo 15996">
      <path id="Trazado_34210" data-name="Trazado 34210" d="M573.807,1322.886a2.167,2.167,0,1,0,0,4.335,2.23,2.23,0,0,0,.434-.044,2.167,2.167,0,0,0-.431-4.291Z" fill="#1c3e58"/>
    </g>
    <g id="Grupo_15997" data-name="Grupo 15997">
      <path id="Trazado_34211" data-name="Trazado 34211" d="M691.725,1369.188a2.1,2.1,0,0,0-.434.045,2.165,2.165,0,0,0-1.689,2.554,2.173,2.173,0,0,0,2.121,1.737,2.087,2.087,0,0,0,.435-.045,2.168,2.168,0,0,0-.433-4.291Z" fill="#1c3e58"/>
    </g>
    <g id="Grupo_15998" data-name="Grupo 15998">
      <path id="Trazado_34212" data-name="Trazado 34212" d="M516.93,1236.267a2.087,2.087,0,0,0-.435.045,2.166,2.166,0,0,0-1.691,2.556,2.16,2.16,0,0,0,2.556,1.689,2.167,2.167,0,0,0,1.691-2.556A2.172,2.172,0,0,0,516.93,1236.267Z" fill="#1c3e58"/>
    </g>
    <g id="Grupo_15999" data-name="Grupo 15999">
      <path id="Trazado_34213" data-name="Trazado 34213" d="M597.054,1209.25a2.169,2.169,0,0,0-2.124,2.6,2.174,2.174,0,0,0,2.122,1.735,2.213,2.213,0,0,0,.435-.045,2.167,2.167,0,0,0-.433-4.291Z" fill="#1c3e58"/>
    </g>
    <g id="Grupo_16000" data-name="Grupo 16000">
      <path id="Trazado_34214" data-name="Trazado 34214" d="M668.357,1098.405a2.093,2.093,0,0,0-.435.045,2.167,2.167,0,0,0,.432,4.291,2.224,2.224,0,0,0,.433-.045,2.167,2.167,0,0,0-.43-4.291Z" fill="#1c3e58"/>
    </g>
    <g id="Grupo_16001" data-name="Grupo 16001">
      <path id="Trazado_34215" data-name="Trazado 34215" d="M835.43,1068.923a2.1,2.1,0,0,0-.435.045,2.165,2.165,0,0,0-1.689,2.555,2.174,2.174,0,0,0,2.123,1.736,2.1,2.1,0,0,0,.433-.045,2.168,2.168,0,0,0-.432-4.291Z" fill="#1c3e58"/>
    </g>
    <g id="Grupo_16002" data-name="Grupo 16002">
      <path id="Trazado_34216" data-name="Trazado 34216" d="M918.886,1147.195a2.133,2.133,0,0,0-.435.045,2.166,2.166,0,0,0,.431,4.289,2.133,2.133,0,0,0,.433-.044,2.167,2.167,0,0,0-.429-4.29Z" fill="#1c3e58"/>
    </g>
    <g id="Grupo_16003" data-name="Grupo 16003">
      <path id="Trazado_34217" data-name="Trazado 34217" d="M975.489,798.984a2.2,2.2,0,0,0-.435.044,2.167,2.167,0,0,0,.43,4.29,2.071,2.071,0,0,0,.434-.045,2.163,2.163,0,0,0,1.69-2.554A2.169,2.169,0,0,0,975.489,798.984Z" fill="#1c3e58"/>
    </g>
    <g id="Grupo_16007" data-name="Grupo 16007">
      <g id="Grupo_16004" data-name="Grupo 16004">
        <path id="Trazado_34218" data-name="Trazado 34218" d="M871.754,1157.828a93.544,93.544,0,1,0,93.541,93.549A93.539,93.539,0,0,0,871.754,1157.828Z" fill="#4088da"/>
        <path id="Trazado_34219" data-name="Trazado 34219" d="M871.754,1155.854a95.518,95.518,0,1,0,95.515,95.523A95.627,95.627,0,0,0,871.754,1155.854Zm0,187.086a91.568,91.568,0,1,1,91.567-91.563A91.667,91.667,0,0,1,871.754,1342.94Z" fill="#1c3e58"/>
      </g>
      <g id="Grupo_16005" data-name="Grupo 16005">
        <path id="Trazado_34220" data-name="Trazado 34220" d="M932.35,1180.139c3.705,3.958,8.646,9.846,10.337,15.484,2.3,7.657,2.689,14.26-4.028,17.735h-9.367c-10.338,0-18.709,5.338-18.709,15.664,0,10.346,8.371,15.666,18.709,15.666h4.733c12.539,3.483,9.669,20.889.043,20.889H890.414c-7.946,0-14.388,5.974-14.388,13.927s6.442,13.921,14.388,13.921h36.957c9.071,0,9.21,14.175-2.4,14.656l-12.473.6c-9.117.481-15.364,8.226-15.84,15.9-.4,6.457,4.386,12.184,8.205,14.284a93.525,93.525,0,0,0,27.489-158.728Z" fill="#25ce9e"/>
        <path id="Trazado_34221" data-name="Trazado 34221" d="M933.63,1178.636a1.974,1.974,0,0,0-2.72,2.853c5.346,5.71,8.673,10.655,9.885,14.7,2.517,8.366,1.786,12.685-2.636,15.193h-8.867c-12.371,0-20.683,7.087-20.683,17.636s8.312,17.641,20.683,17.641h4.454a9.032,9.032,0,0,1,6.577,10.269c-.438,3.213-2.582,6.671-6.255,6.671H890.415c-9.175,0-16.363,6.984-16.363,15.9s7.188,15.9,16.363,15.9h36.956a4.318,4.318,0,0,1,4.6,4.466c.062,2.96-2.107,6.037-7.1,6.244l-12.479.6c-10.43.551-17.194,9.457-17.707,17.749-.429,6.95,4.431,13.5,9.223,16.135a1.984,1.984,0,0,0,.952.244,1.962,1.962,0,0,0,.7-.128,95.5,95.5,0,0,0,28.07-162.077Zm11.336,17.766a91.549,91.549,0,0,1-39.908,140.273c-3.08-2.068-6.754-6.747-6.43-11.969.406-6.565,5.744-13.615,13.964-14.049l12.458-.6c7.271-.3,10.973-5.395,10.873-10.271a8.292,8.292,0,0,0-8.552-8.332H890.415a11.959,11.959,0,1,1,0-23.9h43.653c5.177,0,9.357-4.148,10.167-10.086a12.963,12.963,0,0,0-9.681-14.679,1.97,1.97,0,0,0-.529-.073h-4.733c-8.091,0-16.734-3.6-16.734-13.692s8.643-13.688,16.734-13.688h9.367a1.974,1.974,0,0,0,.907-.22C947.5,1211.007,946.823,1203.162,944.966,1196.4Z" fill="#1c3e58"/>
      </g>
      <g id="Grupo_16006" data-name="Grupo 16006">
        <path id="Trazado_34222" data-name="Trazado 34222" d="M848.718,1189.015H830.932c-3.08,0-5.826-2.165-5.429-4.609.547-3.451,2.142-5.112,5.435-5.028a88.821,88.821,0,0,0,13.088-.413c7.338-.669,11.93-13.241,5.478-18.452A93.522,93.522,0,0,0,810.569,1322.1c4.478-.393,9.782-2.374,12.711-6.606,3.336-4.816,3.683-17.84-4.822-19.266-6.663-1.1-8.886-3.7-8.886-7.77,0-8.155,7.406-7.412,7.406-7.412s4.076,0,8.152-.37c5.28-.485,12.968-3.33,12.968-13.707,0-6.29-4.065-10.949-12.6-11.479-5.926-.376-18.34.16-21.857,0-7.784-.376-7.035-13.708,2.223-13.708,1.408,0,39.439-.743,39.439-.743a24.744,24.744,0,0,0,24.745-24.7v-.984C870.05,1201.708,862.36,1189.015,848.718,1189.015Z" fill="#25ce9e"/>
        <path id="Trazado_34223" data-name="Trazado 34223" d="M848.718,1187.041H830.932a4.191,4.191,0,0,1-3.1-1.271,1.3,1.3,0,0,1-.376-1.054c.461-2.906,1.511-3.419,3.439-3.364a90.662,90.662,0,0,0,13.313-.421c4.259-.389,8.156-4.075,9.7-9.174,1.535-5.069.322-9.964-3.164-12.781a1.954,1.954,0,0,0-1.709-.381,95.5,95.5,0,0,0-39.757,165,1.973,1.973,0,0,0,1.292.481c.057,0,.116,0,.173-.007,6-.528,11.3-3.314,14.161-7.45,2.439-3.522,3.634-10.725,1.313-16.222a9.581,9.581,0,0,0-7.435-6.116c-6.676-1.106-7.235-3.586-7.235-5.823a4.686,4.686,0,0,1,5.235-5.446c.066.006.131.009.2.009.17,0,4.214,0,8.332-.378,3.463-.317,14.761-2.387,14.761-15.674,0-7.858-5.4-12.887-14.446-13.448-3.606-.23-9.338-.133-14.4-.045-3.289.056-6.13.108-7.489.042-2.619-.127-3.493-2.388-3.449-4.285a5.386,5.386,0,0,1,5.576-5.476c1.412,0,37.924-.714,39.439-.743a26.729,26.729,0,0,0,26.719-26.678v-.984C872.024,1201.282,864.019,1187.041,848.718,1187.041Zm19.358,29.292a22.785,22.785,0,0,1-22.81,22.729c-.379.008-38.027.744-39.4.744a9.283,9.283,0,0,0-9.523,9.328c-.112,4.691,2.849,8.115,7.211,8.326,1.485.068,4.385.019,7.742-.04,4.738-.08,10.629-.18,14.082.039,6.929.43,10.745,3.806,10.745,9.507,0,9.324-7,11.359-11.172,11.741-3.627.33-7.31.36-7.893.363a9.335,9.335,0,0,0-6.685,2.179c-1.841,1.668-2.776,4.091-2.776,7.206,0,7.147,6.015,8.97,10.535,9.718a5.735,5.735,0,0,1,4.446,3.757c1.668,3.949.889,9.824-.922,12.438-2.878,4.159-8.02,5.34-10.442,5.672a91.549,91.549,0,0,1,37.726-157.351c1.967,2.178,1.941,5.438,1.188,7.923-1.085,3.576-3.608,6.142-6.279,6.386a86.338,86.338,0,0,1-12.863.4c-4.163-.1-6.712,2.146-7.431,6.687a5.2,5.2,0,0,0,1.266,4.239,8.17,8.17,0,0,0,6.111,2.66h17.786c12.708,0,19.358,12.255,19.358,24.36Z" fill="#1c3e58"/>
      </g>
    </g>
    <g id="Grupo_16008" data-name="Grupo 16008">
      <path id="Trazado_34224" data-name="Trazado 34224" d="M29.612,1124.221V1061.34a1.974,1.974,0,0,0-1.974-1.974H-1.481v3.949H25.664v58.931H-1.481v3.949H27.638A1.974,1.974,0,0,0,29.612,1124.221Z" fill="#1c3e58"/>
    </g>
    <g id="Grupo_16009" data-name="Grupo 16009">
      <path id="Trazado_34225" data-name="Trazado 34225" d="M285.754,1162.937H132.6a1.974,1.974,0,0,0,0,3.949H285.754a1.974,1.974,0,0,0,0-3.949Z" fill="#1c3e58"/>
    </g>
    <g id="Grupo_16010" data-name="Grupo 16010">
      <path id="Trazado_34226" data-name="Trazado 34226" d="M64.019,1371.549h-65.5v3.949H62.044v35.629h3.949v-37.6A1.975,1.975,0,0,0,64.019,1371.549Z" fill="#1c3e58"/>
    </g>
    <g id="Grupo_16011" data-name="Grupo 16011">
      <path id="Trazado_34227" data-name="Trazado 34227" d="M687.32,777.658H453.265a1.974,1.974,0,0,0,0,3.949H687.32a1.974,1.974,0,0,0,0-3.949Z" fill="#1c3e58"/>
    </g>
    <g id="Grupo_16012" data-name="Grupo 16012">
      <path id="Trazado_34228" data-name="Trazado 34228" d="M229.639,905.4a1.975,1.975,0,0,0-1.974,1.975V1064.7a1.975,1.975,0,0,0,3.949,0V907.372A1.975,1.975,0,0,0,229.639,905.4Z" fill="#1c3e58"/>
    </g>
    <g id="Grupo_16013" data-name="Grupo 16013">
      <path id="Trazado_34229" data-name="Trazado 34229" d="M622.2,874.981a1.974,1.974,0,0,0-1.974,1.974v99.606a1.975,1.975,0,0,0,3.949,0V876.955A1.974,1.974,0,0,0,622.2,874.981Z" fill="#1c3e58"/>
    </g>
    <g id="Grupo_16014" data-name="Grupo 16014">
      <rect id="Rectángulo_3086" data-name="Rectángulo 3086" width="137.618" height="27.267" transform="translate(485.33 1383.859)" fill="#25ce9e"/>
      <path id="Trazado_34230" data-name="Trazado 34230" d="M622.948,1381.885H485.33a1.975,1.975,0,0,0-1.975,1.974v27.268H487.3v-25.293h133.67v25.293h3.948v-27.268A1.974,1.974,0,0,0,622.948,1381.885Z" fill="#1c3e58"/>
    </g>
    <g id="Grupo_16015" data-name="Grupo 16015">
      <path id="Trazado_34231" data-name="Trazado 34231" d="M753.95,1209.444a1.975,1.975,0,0,0-1.975,1.975v126.366a1.975,1.975,0,1,0,3.949,0V1211.419A1.975,1.975,0,0,0,753.95,1209.444Z" fill="#1c3e58"/>
    </g>
    <g id="Grupo_16016" data-name="Grupo 16016">
      <path id="Trazado_34232" data-name="Trazado 34232" d="M823.572,1080.493a83.582,83.582,0,0,1-104.029-2.211,1.975,1.975,0,0,0-2.515,3.045,87.513,87.513,0,0,0,108.925,2.315,1.974,1.974,0,1,0-2.381-3.149Z" fill="#1c3e58"/>
    </g>
    <g id="Grupo_16017" data-name="Grupo 16017">
      <path id="Trazado_34233" data-name="Trazado 34233" d="M916.716,1039.836H585.367a1.974,1.974,0,1,0,0,3.948H916.716a1.974,1.974,0,0,0,0-3.948Z" fill="#1c3e58"/>
    </g>
    <g id="Grupo_16018" data-name="Grupo 16018">
      <path id="Trazado_34234" data-name="Trazado 34234" d="M235.3,1114.7H197.283a31.767,31.767,0,0,1-20.623-7.61,35.726,35.726,0,0,0-23.188-8.558H73.724a1.974,1.974,0,0,0,0,3.949h79.748a31.774,31.774,0,0,1,20.623,7.61,35.714,35.714,0,0,0,23.188,8.558H235.3a1.974,1.974,0,1,0,0-3.949Z" fill="#1c3e58"/>
    </g>
  </g>
</svg>
