<svg xmlns="http://www.w3.org/2000/svg" width="194" height="194" viewBox="0 0 194 194">
  <g id="Grupo_15757" data-name="Grupo 15757" transform="translate(-495 -4352)">
    <circle id="Elipse_778" data-name="Elipse 778" cx="97" cy="97" r="97" transform="translate(495 4352)" fill="#efefef"/>
    <g id="Grupo_15249" data-name="Grupo 15249" transform="translate(401.589 4071.508)">
      <g id="Grupo_15222" data-name="Grupo 15222" transform="translate(130.406 406.59)">
        <path id="Rectángulo_2857" data-name="Rectángulo 2857" d="M0,0H44a0,0,0,0,1,0,0V20a2,2,0,0,1-2,2H2a2,2,0,0,1-2-2V0A0,0,0,0,1,0,0Z" transform="translate(0.006 -0.098)" fill="#fd6764"/>
      </g>
      <g id="Grupo_15223" data-name="Grupo 15223" transform="translate(204.096 406.59)">
        <path id="Rectángulo_2858" data-name="Rectángulo 2858" d="M0,0H44a0,0,0,0,1,0,0V20a2,2,0,0,1-2,2H2a2,2,0,0,1-2-2V0A0,0,0,0,1,0,0Z" transform="translate(0.315 -0.098)" fill="#fd6764"/>
      </g>
      <g id="Grupo_15224" data-name="Grupo 15224" transform="translate(138.75 309)">
        <path id="Trazado_25630" data-name="Trazado 25630" d="M215.9,322.65a19.37,19.37,0,0,0-4.544.544,25.329,25.329,0,0,0-42.778-4.372c-.491-.047-.965-.072-1.429-.072a15.611,15.611,0,0,0-13.568,7.917,18.17,18.17,0,0,0-2.032-.117,17.551,17.551,0,1,0,0,35.1H165.2v-3.9a3.9,3.9,0,0,1,3.9-3.9v-7.8a3.9,3.9,0,0,1-3.9-3.9v-3.9a3.9,3.9,0,0,1,3.9-3.9h31.2a3.9,3.9,0,0,1,3.9,3.9v3.9a3.9,3.9,0,0,1-3.9,3.9v7.8a3.9,3.9,0,0,1,3.9,3.9v3.9h11.7a19.5,19.5,0,1,0,0-39Z" transform="translate(-134 -309)" fill="#fd6764"/>
      </g>
      <g id="Grupo_15225" data-name="Grupo 15225" transform="translate(129 390.902)">
        <path id="Trazado_25631" data-name="Trazado 25631" d="M169.951,390h-35.1a5.857,5.857,0,0,1-5.85-5.85v-19.5a5.857,5.857,0,0,1,5.85-5.85h10.893l6.086-6.086A5.815,5.815,0,0,1,155.965,351h13.986a5.857,5.857,0,0,1,5.85,5.85v27.3A5.857,5.857,0,0,1,169.951,390Zm-35.1-27.3a1.951,1.951,0,0,0-1.95,1.95v19.5a1.951,1.951,0,0,0,1.95,1.95h35.1a1.951,1.951,0,0,0,1.95-1.95v-27.3a1.951,1.951,0,0,0-1.95-1.95H155.965a1.96,1.96,0,0,0-1.379.571l-7.229,7.229Z" transform="translate(-129 -351)" fill="#4a91d6"/>
      </g>
      <g id="Grupo_15226" data-name="Grupo 15226" transform="translate(155.301 398.623)">
        <rect id="Rectángulo_2859" data-name="Rectángulo 2859" width="13" height="5" transform="translate(0.11 -0.131)" fill="#4a91d6"/>
      </g>
      <g id="Grupo_15227" data-name="Grupo 15227" transform="translate(203.102 390.902)">
        <path id="Trazado_25632" data-name="Trazado 25632" d="M207.951,390h-35.1a5.857,5.857,0,0,1-5.85-5.85v-19.5a5.857,5.857,0,0,1,5.85-5.85h10.893l6.086-6.086A5.815,5.815,0,0,1,193.965,351h13.986a5.857,5.857,0,0,1,5.85,5.85v27.3A5.857,5.857,0,0,1,207.951,390Zm-35.1-27.3a1.951,1.951,0,0,0-1.95,1.95v19.5a1.951,1.951,0,0,0,1.95,1.95h35.1a1.951,1.951,0,0,0,1.95-1.95v-27.3a1.951,1.951,0,0,0-1.95-1.95H193.965a1.96,1.96,0,0,0-1.379.571l-7.229,7.229Z" transform="translate(-167 -351)" fill="#4a91d6"/>
      </g>
      <g id="Grupo_15228" data-name="Grupo 15228" transform="translate(230.983 398.623)">
        <rect id="Rectángulo_2860" data-name="Rectángulo 2860" width="11" height="5" transform="translate(0.428 -0.131)" fill="#4a91d6"/>
      </g>
      <g id="Grupo_15229" data-name="Grupo 15229" transform="translate(183.602 408.453)">
        <path id="Trazado_25633" data-name="Trazado 25633" d="M162.85,371.7a5.85,5.85,0,1,1,5.85-5.85A5.857,5.857,0,0,1,162.85,371.7Zm0-7.8a1.95,1.95,0,1,0,1.95,1.95A1.951,1.951,0,0,0,162.85,363.9Z" transform="translate(-157 -360)"/>
      </g>
      <g id="Grupo_15230" data-name="Grupo 15230" transform="translate(193.142 412.565)">
        <rect id="Rectángulo_2861" data-name="Rectángulo 2861" width="11" height="4" transform="translate(0.269 -0.073)"/>
      </g>
      <g id="Grupo_15231" data-name="Grupo 15231" transform="translate(174.222 412.565)">
        <rect id="Rectángulo_2862" data-name="Rectángulo 2862" width="11" height="4" transform="translate(0.19 -0.073)"/>
      </g>
      <g id="Grupo_15232" data-name="Grupo 15232" transform="translate(187.167 384.682)">
        <rect id="Rectángulo_2863" data-name="Rectángulo 2863" width="4" height="25" transform="translate(0.244 -0.19)"/>
      </g>
      <g id="Grupo_15233" data-name="Grupo 15233" transform="translate(220.653 330.451)">
        <path id="Trazado_25634" data-name="Trazado 25634" d="M176,343.4v-3.9a7.8,7.8,0,0,0,0-15.6V320a11.7,11.7,0,0,1,0,23.4Z" transform="translate(-176 -320)" fill="#fff"/>
      </g>
      <g id="Grupo_15234" data-name="Grupo 15234" transform="translate(146.551 334.351)">
        <path id="Trazado_25635" data-name="Trazado 25635" d="M141.9,331.75H138a9.761,9.761,0,0,1,9.75-9.75v3.9A5.857,5.857,0,0,0,141.9,331.75Z" transform="translate(-138 -322)" fill="#fff"/>
      </g>
      <g id="Grupo_15235" data-name="Grupo 15235" transform="translate(180.942 316.81)">
        <path id="Trazado_25636" data-name="Trazado 25636" d="M177.7,320.893a13.668,13.668,0,0,0-19.306,0l-2.757-2.757a17.574,17.574,0,0,1,24.82,0Z" transform="translate(-155.636 -313.005)" fill="#fff"/>
      </g>
      <g id="Grupo_15236" data-name="Grupo 15236" transform="translate(129.571 358.894)">
        <path id="Trazado_25637" data-name="Trazado 25637" d="M144.893,346.522l-6.422-6.421-6.422,6.421-2.757-2.757,9.179-9.179,9.179,9.179Z" transform="translate(-129.293 -334.586)" fill="#4a91d6"/>
      </g>
      <g id="Grupo_15237" data-name="Grupo 15237" transform="translate(136.38 360.782)">
        <rect id="Rectángulo_2864" data-name="Rectángulo 2864" width="5" height="24" transform="translate(0.031 -0.291)" fill="#4a91d6"/>
      </g>
      <g id="Grupo_15238" data-name="Grupo 15238" transform="translate(136.38 388.665)">
        <rect id="Rectángulo_2865" data-name="Rectángulo 2865" width="5" height="4" transform="translate(0.031 -0.173)" fill="#4a91d6"/>
      </g>
      <g id="Grupo_15239" data-name="Grupo 15239" transform="translate(230.974 375.873)">
        <path id="Trazado_25638" data-name="Trazado 25638" d="M190.472,355.229l-9.179-9.179,2.757-2.757,6.422,6.421,6.422-6.421,2.757,2.757Z" transform="translate(-181.293 -343.293)" fill="#4a91d6"/>
      </g>
      <g id="Grupo_15240" data-name="Grupo 15240" transform="translate(238.95 360.782)">
        <rect id="Rectángulo_2866" data-name="Rectángulo 2866" width="3" height="24" transform="translate(0.462 -0.291)" fill="#4a91d6"/>
      </g>
      <g id="Grupo_15241" data-name="Grupo 15241" transform="translate(238.95 354.807)">
        <rect id="Rectángulo_2867" data-name="Rectángulo 2867" width="3" height="3" transform="translate(0.462 -0.315)" fill="#4a91d6"/>
      </g>
      <g id="Grupo_15242" data-name="Grupo 15242" transform="translate(168.001 371.402)">
        <path id="Trazado_25639" data-name="Trazado 25639" d="M186.051,356.6h-31.2a5.857,5.857,0,0,1-5.85-5.85v-3.9a5.857,5.857,0,0,1,5.85-5.85h31.2a5.857,5.857,0,0,1,5.85,5.85v3.9A5.857,5.857,0,0,1,186.051,356.6Zm-31.2-11.7a1.951,1.951,0,0,0-1.95,1.95v3.9a1.951,1.951,0,0,0,1.95,1.95h31.2a1.951,1.951,0,0,0,1.95-1.95v-3.9a1.951,1.951,0,0,0-1.95-1.95Z" transform="translate(-149 -341)" fill="#4a91d6"/>
      </g>
      <g id="Grupo_15243" data-name="Grupo 15243" transform="translate(168.001 351.901)">
        <path id="Trazado_25640" data-name="Trazado 25640" d="M186.051,346.6h-31.2a5.857,5.857,0,0,1-5.85-5.85v-3.9a5.857,5.857,0,0,1,5.85-5.85h31.2a5.857,5.857,0,0,1,5.85,5.85v3.9A5.857,5.857,0,0,1,186.051,346.6Zm-31.2-11.7a1.951,1.951,0,0,0-1.95,1.95v3.9a1.951,1.951,0,0,0,1.95,1.95h31.2a1.951,1.951,0,0,0,1.95-1.95v-3.9a1.951,1.951,0,0,0-1.95-1.95Z" transform="translate(-149 -331)" fill="#4a91d6"/>
      </g>
      <g id="Grupo_15244" data-name="Grupo 15244" transform="translate(203.1 365.762)">
        <rect id="Rectángulo_2868" data-name="Rectángulo 2868" width="4" height="8" transform="translate(0.311 -0.27)" fill="#4a91d6"/>
      </g>
      <g id="Grupo_15245" data-name="Grupo 15245" transform="translate(171.234 365.762)">
        <rect id="Rectángulo_2869" data-name="Rectángulo 2869" width="5" height="8" transform="translate(0.177 -0.27)" fill="#4a91d6"/>
      </g>
      <g id="Grupo_15246" data-name="Grupo 15246" transform="translate(168.001 332.401)">
        <path id="Trazado_25641" data-name="Trazado 25641" d="M186.051,336.6h-31.2a5.857,5.857,0,0,1-5.85-5.85v-3.9a5.857,5.857,0,0,1,5.85-5.85h31.2a5.857,5.857,0,0,1,5.85,5.85v3.9A5.857,5.857,0,0,1,186.051,336.6Zm-31.2-11.7a1.951,1.951,0,0,0-1.95,1.95v3.9a1.951,1.951,0,0,0,1.95,1.95h31.2a1.951,1.951,0,0,0,1.95-1.95v-3.9a1.951,1.951,0,0,0-1.95-1.95Z" transform="translate(-149 -321)" fill="#4a91d6"/>
      </g>
      <g id="Grupo_15247" data-name="Grupo 15247" transform="translate(203.1 346.841)">
        <rect id="Rectángulo_2870" data-name="Rectángulo 2870" width="4" height="8" transform="translate(0.311 -0.349)" fill="#4a91d6"/>
      </g>
      <g id="Grupo_15248" data-name="Grupo 15248" transform="translate(171.234 346.841)">
        <rect id="Rectángulo_2871" data-name="Rectángulo 2871" width="5" height="8" transform="translate(0.177 -0.349)" fill="#4a91d6"/>
      </g>
    </g>
  </g>
</svg>
