<svg xmlns="http://www.w3.org/2000/svg" width="194" height="194" viewBox="0 0 194 194">
  <g id="Grupo_15755" data-name="Grupo 15755" transform="translate(-495 -3674)">
    <circle id="Elipse_776" data-name="Elipse 776" cx="97" cy="97" r="97" transform="translate(495 3674)" fill="#efefef"/>
    <g id="Grupo_15203" data-name="Grupo 15203" transform="translate(23.965 3594.206)">
      <g id="Grupo_15167" data-name="Grupo 15167" transform="translate(521.591 139.062)">
        <rect id="Rectángulo_2818" data-name="Rectángulo 2818" width="6.873" height="3.436" fill="#00f4cb"/>
      </g>
      <g id="Grupo_15168" data-name="Grupo 15168" transform="translate(555.955 142.499)">
        <rect id="Rectángulo_2819" data-name="Rectángulo 2819" width="6.873" height="3.436" fill="#00f4cb"/>
      </g>
      <g id="Grupo_15169" data-name="Grupo 15169" transform="translate(521.591 166.553)">
        <rect id="Rectángulo_2820" data-name="Rectángulo 2820" width="6.873" height="3.436" fill="#00f4cb"/>
      </g>
      <g id="Grupo_15170" data-name="Grupo 15170" transform="translate(555.955 169.989)">
        <rect id="Rectángulo_2821" data-name="Rectángulo 2821" width="6.873" height="3.436" fill="#00f4cb"/>
      </g>
      <g id="Grupo_15171" data-name="Grupo 15171" transform="translate(521.591 194.044)">
        <rect id="Rectángulo_2822" data-name="Rectángulo 2822" width="6.873" height="3.436" fill="#00f4cb"/>
      </g>
      <g id="Grupo_15172" data-name="Grupo 15172" transform="translate(555.955 197.48)">
        <rect id="Rectángulo_2823" data-name="Rectángulo 2823" width="6.873" height="3.436" fill="#00f4cb"/>
      </g>
      <g id="Grupo_15173" data-name="Grupo 15173" transform="translate(513 187.171)">
        <path id="Trazado_25616" data-name="Trazado 25616" d="M566.264,178.618H518.155A5.161,5.161,0,0,1,513,173.464V163.155A5.161,5.161,0,0,1,518.155,158h48.109a5.161,5.161,0,0,1,5.155,5.155v10.309A5.161,5.161,0,0,1,566.264,178.618Zm-48.109-17.182a1.719,1.719,0,0,0-1.718,1.718v10.309a1.719,1.719,0,0,0,1.718,1.718h48.109a1.719,1.719,0,0,0,1.718-1.718V163.155a1.719,1.719,0,0,0-1.718-1.718Z" transform="translate(-513 -158)" fill="#4a91d6"/>
      </g>
      <g id="Grupo_15174" data-name="Grupo 15174" transform="translate(519.873 178.58)">
        <rect id="Rectángulo_2824" data-name="Rectángulo 2824" width="3.436" height="10.309" fill="#4a91d6"/>
      </g>
      <g id="Grupo_15175" data-name="Grupo 15175" transform="translate(561.109 178.58)">
        <rect id="Rectángulo_2825" data-name="Rectángulo 2825" width="3.436" height="10.309" fill="#4a91d6"/>
      </g>
      <g id="Grupo_15176" data-name="Grupo 15176" transform="translate(519.873 194.044)">
        <rect id="Rectángulo_2826" data-name="Rectángulo 2826" width="3.436" height="3.436" fill="#4a91d6"/>
      </g>
      <g id="Grupo_15177" data-name="Grupo 15177" transform="translate(526.745 194.044)">
        <rect id="Rectángulo_2827" data-name="Rectángulo 2827" width="3.436" height="3.436" fill="#4a91d6"/>
      </g>
      <g id="Grupo_15178" data-name="Grupo 15178" transform="translate(561.109 197.48)">
        <rect id="Rectángulo_2828" data-name="Rectángulo 2828" width="3.436" height="3.436" fill="#4a91d6"/>
      </g>
      <g id="Grupo_15179" data-name="Grupo 15179" transform="translate(554.236 197.48)">
        <rect id="Rectángulo_2829" data-name="Rectángulo 2829" width="3.436" height="3.436" fill="#4a91d6"/>
      </g>
      <g id="Grupo_15180" data-name="Grupo 15180" transform="translate(513 159.68)">
        <path id="Trazado_25617" data-name="Trazado 25617" d="M566.264,162.618H518.155A5.161,5.161,0,0,1,513,157.464V147.155A5.161,5.161,0,0,1,518.155,142h48.109a5.161,5.161,0,0,1,5.155,5.155v10.309A5.161,5.161,0,0,1,566.264,162.618Zm-48.109-17.182a1.719,1.719,0,0,0-1.718,1.718v10.309a1.719,1.719,0,0,0,1.718,1.718h48.109a1.719,1.719,0,0,0,1.718-1.718V147.155a1.719,1.719,0,0,0-1.718-1.718Z" transform="translate(-513 -142)" fill="#4a91d6"/>
      </g>
      <g id="Grupo_15181" data-name="Grupo 15181" transform="translate(519.873 151.089)">
        <rect id="Rectángulo_2830" data-name="Rectángulo 2830" width="3.436" height="10.309" fill="#4a91d6"/>
      </g>
      <g id="Grupo_15182" data-name="Grupo 15182" transform="translate(561.109 151.089)">
        <rect id="Rectángulo_2831" data-name="Rectángulo 2831" width="3.436" height="10.309" fill="#4a91d6"/>
      </g>
      <g id="Grupo_15183" data-name="Grupo 15183" transform="translate(519.873 166.553)">
        <rect id="Rectángulo_2832" data-name="Rectángulo 2832" width="3.436" height="3.436" fill="#4a91d6"/>
      </g>
      <g id="Grupo_15184" data-name="Grupo 15184" transform="translate(526.745 166.553)">
        <rect id="Rectángulo_2833" data-name="Rectángulo 2833" width="3.436" height="3.436" fill="#4a91d6"/>
      </g>
      <g id="Grupo_15185" data-name="Grupo 15185" transform="translate(561.109 169.989)">
        <rect id="Rectángulo_2834" data-name="Rectángulo 2834" width="3.436" height="3.436" fill="#4a91d6"/>
      </g>
      <g id="Grupo_15186" data-name="Grupo 15186" transform="translate(554.236 169.989)">
        <rect id="Rectángulo_2835" data-name="Rectángulo 2835" width="3.436" height="3.436" fill="#4a91d6"/>
      </g>
      <g id="Grupo_15187" data-name="Grupo 15187" transform="translate(513 132.189)">
        <path id="Trazado_25618" data-name="Trazado 25618" d="M566.264,146.618H518.155A5.161,5.161,0,0,1,513,141.464V131.155A5.161,5.161,0,0,1,518.155,126h48.109a5.161,5.161,0,0,1,5.155,5.155v10.309A5.161,5.161,0,0,1,566.264,146.618Zm-48.109-17.182a1.719,1.719,0,0,0-1.718,1.718v10.309a1.719,1.719,0,0,0,1.718,1.718h48.109a1.719,1.719,0,0,0,1.718-1.718V131.155a1.719,1.719,0,0,0-1.718-1.718Z" transform="translate(-513 -126)" fill="#4a91d6"/>
      </g>
      <g id="Grupo_15188" data-name="Grupo 15188" transform="translate(519.873 139.062)">
        <rect id="Rectángulo_2836" data-name="Rectángulo 2836" width="3.436" height="3.436" fill="#4a91d6"/>
      </g>
      <g id="Grupo_15189" data-name="Grupo 15189" transform="translate(526.745 139.062)">
        <rect id="Rectángulo_2837" data-name="Rectángulo 2837" width="3.436" height="3.436" fill="#4a91d6"/>
      </g>
      <g id="Grupo_15190" data-name="Grupo 15190" transform="translate(561.109 142.499)">
        <rect id="Rectángulo_2838" data-name="Rectángulo 2838" width="3.436" height="3.436" fill="#4a91d6"/>
      </g>
      <g id="Grupo_15191" data-name="Grupo 15191" transform="translate(554.236 142.499)">
        <rect id="Rectángulo_2839" data-name="Rectángulo 2839" width="3.436" height="3.436" fill="#4a91d6"/>
      </g>
      <g id="Grupo_15192" data-name="Grupo 15192" transform="translate(569.7 140.78)">
        <path id="Trazado_25619" data-name="Trazado 25619" d="M590.673,189.418H546v-3.436h44.673a1.719,1.719,0,0,0,1.718-1.718V136.155a1.719,1.719,0,0,0-1.718-1.718H573.9l-6.873,3.436H546v-3.436h20.213L573.085,131h17.587a5.161,5.161,0,0,1,5.155,5.155v48.109A5.161,5.161,0,0,1,590.673,189.418Z" transform="translate(-546 -131)" fill="#4a91d6"/>
      </g>
      <g id="Grupo_15193" data-name="Grupo 15193" transform="translate(595.473 147.653)">
        <rect id="Rectángulo_2840" data-name="Rectángulo 2840" width="17.182" height="3.436" fill="#4a91d6"/>
      </g>
      <g id="Grupo_15194" data-name="Grupo 15194" transform="translate(574.855 154.526)">
        <rect id="Rectángulo_2841" data-name="Rectángulo 2841" width="42.955" height="3.436" fill="#4a91d6"/>
      </g>
      <g id="Grupo_15196" data-name="Grupo 15196" transform="translate(574.855 164.835)">
        <g id="Grupo_15195" data-name="Grupo 15195">
          <path id="Trazado_25620" data-name="Trazado 25620" d="M586.8,172.491H549V145h37.8Z" transform="translate(-549 -145)" fill="#fd6764"/>
        </g>
      </g>
      <g id="Grupo_15197" data-name="Grupo 15197" transform="translate(581.727 171.708)">
        <rect id="Rectángulo_2842" data-name="Rectángulo 2842" width="24.055" height="3.436" fill="#fff"/>
      </g>
      <g id="Grupo_15198" data-name="Grupo 15198" transform="translate(581.727 178.58)">
        <rect id="Rectángulo_2843" data-name="Rectángulo 2843" width="24.055" height="3.436" fill="#fff"/>
      </g>
      <g id="Grupo_15199" data-name="Grupo 15199" transform="translate(569.294 117.382)">
        <path id="Trazado_25621" data-name="Trazado 25621" d="M565.07,136.688l-19.306-9.653,19.306-9.653v4.5h22.336v3.436H561.633v-2.374l-8.185,4.092,8.185,4.092v-2.374h32.645v3.436H565.07Z" transform="translate(-545.764 -117.382)" fill="#fd6764"/>
      </g>
      <g id="Grupo_15200" data-name="Grupo 15200" transform="translate(614.373 121.88)">
        <rect id="Rectángulo_2844" data-name="Rectángulo 2844" width="3.436" height="3.436"/>
      </g>
      <g id="Grupo_15201" data-name="Grupo 15201" transform="translate(574.855 203.291)">
        <path id="Trazado_25622" data-name="Trazado 25622" d="M573.055,186.688v-4.5H555.873v-3.436h20.618v2.374l8.185-4.092-8.185-4.092v2.374H549V171.88h24.055v-4.5l19.306,9.653Z" transform="translate(-549 -167.382)" fill="#fd6764"/>
      </g>
      <g id="Grupo_15202" data-name="Grupo 15202" transform="translate(574.855 214.662)">
        <rect id="Rectángulo_2845" data-name="Rectángulo 2845" width="3.436" height="3.436" fill="#fd6764"/>
      </g>
    </g>
  </g>
</svg>
