<svg xmlns="http://www.w3.org/2000/svg" width="194" height="194" viewBox="0 0 194 194">
  <g id="Grupo_15808" data-name="Grupo 15808" transform="translate(-495 -4714)">
    <circle id="Elipse_779" data-name="Elipse 779" cx="97" cy="97" r="97" transform="translate(495 4714)" fill="#efefef"/>
    <g id="Grupo_15785" data-name="Grupo 15785" transform="translate(506 4442.641)">
      <g id="Grupo_15758" data-name="Grupo 15758" transform="translate(67.431 352.317)">
        <path id="Trazado_26847" data-name="Trazado 26847" d="M90.874,349.253l-4.228-1.408,1.994-3.985-6.623-6.625-3.987,1.994L76.621,335H67.253l-1.408,4.228-3.987-1.994-6.623,6.625,1.994,3.985L53,349.253v9.369l4.228,1.408-1.994,3.985,6.623,6.624,3.987-1.993,1.408,4.228h9.369l1.408-4.228,3.987,1.993,6.623-6.624-1.994-3.985,4.228-1.408Zm-18.937,11.57a6.886,6.886,0,1,1,6.886-6.886A6.886,6.886,0,0,1,71.937,360.823Z" transform="translate(-53 -335)" fill="#fd6764"/>
      </g>
      <g id="Grupo_15759" data-name="Grupo 15759" transform="translate(39.727 351.178)">
        <rect id="Rectángulo_2948" data-name="Rectángulo 2948" width="17" height="26" transform="translate(-0.495 0.181)" fill="#fd6764"/>
      </g>
      <g id="Grupo_15760" data-name="Grupo 15760" transform="translate(115.974 351.178)">
        <rect id="Rectángulo_2949" data-name="Rectángulo 2949" width="17" height="26" transform="translate(0.258 0.181)" fill="#fd6764"/>
      </g>
      <g id="Grupo_15761" data-name="Grupo 15761" transform="translate(33 311)">
        <path id="Trazado_26848" data-name="Trazado 26848" d="M139.735,397.077H110.469v-3.443h25.823v-79.19H36.443v79.19H62.266v3.443H33V311H139.735Z" transform="translate(-33 -311)" fill="#4a91d6"/>
      </g>
      <g id="Grupo_15762" data-name="Grupo 15762" transform="translate(39.727 318.027)">
        <rect id="Rectángulo_2950" data-name="Rectángulo 2950" width="5" height="3" transform="translate(-0.495 0.332)" fill="#4a91d6"/>
      </g>
      <g id="Grupo_15763" data-name="Grupo 15763" transform="translate(47.463 318.027)">
        <rect id="Rectángulo_2951" data-name="Rectángulo 2951" width="4" height="3" transform="translate(-0.231 0.332)" fill="#4a91d6"/>
      </g>
      <g id="Grupo_15764" data-name="Grupo 15764" transform="translate(54.093 318.027)">
        <rect id="Rectángulo_2952" data-name="Rectángulo 2952" width="2" height="3" transform="translate(0.139 0.332)" fill="#4a91d6"/>
      </g>
      <g id="Grupo_15765" data-name="Grupo 15765" transform="translate(34.202 324.658)">
        <rect id="Rectángulo_2953" data-name="Rectángulo 2953" width="104" height="4" transform="translate(0.03 -0.298)" fill="#4a91d6"/>
      </g>
      <g id="Grupo_15766" data-name="Grupo 15766" transform="translate(77.76 362.646)">
        <path id="Trazado_26849" data-name="Trazado 26849" d="M67.608,358.215a8.608,8.608,0,1,1,8.608-8.608A8.617,8.617,0,0,1,67.608,358.215Zm0-13.772a5.165,5.165,0,1,0,5.165,5.165A5.171,5.171,0,0,0,67.608,344.443Z" transform="translate(-59 -341)"/>
      </g>
      <g id="Grupo_15767" data-name="Grupo 15767" transform="translate(52.441 337.327)">
        <rect id="Rectángulo_2954" data-name="Rectángulo 2954" width="3.443" height="23.878" transform="translate(0 2.434) rotate(-45)" fill="#4a91d6"/>
      </g>
      <g id="Grupo_15768" data-name="Grupo 15768" transform="translate(46.772 331.658)">
        <path id="Trazado_26850" data-name="Trazado 26850" d="M46.165,333.329a5.165,5.165,0,1,1,5.165-5.165A5.171,5.171,0,0,1,46.165,333.329Zm0-6.886a1.722,1.722,0,1,0,1.722,1.722A1.722,1.722,0,0,0,46.165,326.443Z" transform="translate(-41 -323)" fill="#4a91d6"/>
      </g>
      <g id="Grupo_15769" data-name="Grupo 15769" transform="translate(52.441 385.862)">
        <rect id="Rectángulo_2955" data-name="Rectángulo 2955" width="23.878" height="3.443" transform="translate(0 16.884) rotate(-45)" fill="#4a91d6"/>
      </g>
      <g id="Grupo_15770" data-name="Grupo 15770" transform="translate(46.772 400.52)">
        <path id="Trazado_26851" data-name="Trazado 26851" d="M46.165,373.329a5.165,5.165,0,1,1,5.165-5.165A5.171,5.171,0,0,1,46.165,373.329Zm0-6.886a1.722,1.722,0,1,0,1.722,1.722A1.722,1.722,0,0,0,46.165,366.443Z" transform="translate(-41 -363)" fill="#4a91d6"/>
      </g>
      <g id="Grupo_15771" data-name="Grupo 15771" transform="translate(100.975 385.862)">
        <rect id="Rectángulo_2956" data-name="Rectángulo 2956" width="3.443" height="23.878" transform="translate(0 2.434) rotate(-45)" fill="#4a91d6"/>
      </g>
      <g id="Grupo_15772" data-name="Grupo 15772" transform="translate(115.634 400.52)">
        <path id="Trazado_26852" data-name="Trazado 26852" d="M86.165,373.329a5.165,5.165,0,1,1,5.165-5.165A5.171,5.171,0,0,1,86.165,373.329Zm0-6.886a1.722,1.722,0,1,0,1.722,1.722A1.722,1.722,0,0,0,86.165,366.443Z" transform="translate(-81 -363)" fill="#4a91d6"/>
      </g>
      <g id="Grupo_15773" data-name="Grupo 15773" transform="translate(100.975 337.327)">
        <rect id="Rectángulo_2957" data-name="Rectángulo 2957" width="23.878" height="3.443" transform="translate(0 16.884) rotate(-45)" fill="#4a91d6"/>
      </g>
      <g id="Grupo_15774" data-name="Grupo 15774" transform="translate(115.634 331.658)">
        <path id="Trazado_26853" data-name="Trazado 26853" d="M86.165,333.329a5.165,5.165,0,1,1,5.165-5.165A5.171,5.171,0,0,1,86.165,333.329Zm0-6.886a1.722,1.722,0,1,0,1.722,1.722A1.722,1.722,0,0,0,86.165,326.443Z" transform="translate(-81 -323)" fill="#4a91d6"/>
      </g>
      <g id="Grupo_15775" data-name="Grupo 15775" transform="translate(39.727 347.863)">
        <rect id="Rectángulo_2958" data-name="Rectángulo 2958" width="17" height="4" transform="translate(-0.495 0.497)" fill="#4a91d6"/>
      </g>
      <g id="Grupo_15776" data-name="Grupo 15776" transform="translate(39.727 355.598)">
        <rect id="Rectángulo_2959" data-name="Rectángulo 2959" width="17" height="4" transform="translate(-0.495 -0.238)" fill="#4a91d6"/>
      </g>
      <g id="Grupo_15777" data-name="Grupo 15777" transform="translate(39.727 362.228)">
        <rect id="Rectángulo_2960" data-name="Rectángulo 2960" width="17" height="3" transform="translate(-0.495 0.131)" fill="#4a91d6"/>
      </g>
      <g id="Grupo_15778" data-name="Grupo 15778" transform="translate(39.727 369.963)">
        <rect id="Rectángulo_2961" data-name="Rectángulo 2961" width="17" height="3" transform="translate(-0.495 0.396)" fill="#4a91d6"/>
      </g>
      <g id="Grupo_15779" data-name="Grupo 15779" transform="translate(39.727 376.593)">
        <rect id="Rectángulo_2962" data-name="Rectángulo 2962" width="17" height="4" transform="translate(-0.495 -0.234)" fill="#4a91d6"/>
      </g>
      <g id="Grupo_15780" data-name="Grupo 15780" transform="translate(115.974 347.863)">
        <rect id="Rectángulo_2963" data-name="Rectángulo 2963" width="17" height="4" transform="translate(0.258 0.497)" fill="#4a91d6"/>
      </g>
      <g id="Grupo_15781" data-name="Grupo 15781" transform="translate(115.974 355.598)">
        <rect id="Rectángulo_2964" data-name="Rectángulo 2964" width="17" height="4" transform="translate(0.258 -0.238)" fill="#4a91d6"/>
      </g>
      <g id="Grupo_15782" data-name="Grupo 15782" transform="translate(115.974 362.228)">
        <rect id="Rectángulo_2965" data-name="Rectángulo 2965" width="17" height="3" transform="translate(0.258 0.131)" fill="#4a91d6"/>
      </g>
      <g id="Grupo_15783" data-name="Grupo 15783" transform="translate(115.974 369.963)">
        <rect id="Rectángulo_2966" data-name="Rectángulo 2966" width="17" height="3" transform="translate(0.258 0.396)" fill="#4a91d6"/>
      </g>
      <g id="Grupo_15784" data-name="Grupo 15784" transform="translate(115.974 376.593)">
        <rect id="Rectángulo_2967" data-name="Rectángulo 2967" width="17" height="4" transform="translate(0.258 -0.234)" fill="#4a91d6"/>
      </g>
    </g>
  </g>
</svg>
