<svg xmlns="http://www.w3.org/2000/svg" width="545.709" height="225.575" viewBox="0 0 545.709 225.575">
  <g id="Grupo_15124" data-name="Grupo 15124" transform="translate(-687 -2413.807)">
    <g id="Grupo_14988" data-name="Grupo 14988" transform="translate(205.718 1918.881)">
      <g id="Color" transform="translate(489.362 504.341)">
        <g id="Grupo_14909" data-name="Grupo 14909" transform="translate(163.677 6.906)">
          <circle id="Elipse_769" data-name="Elipse 769" cx="37.522" cy="37.522" r="37.522" fill="#5ed45e"/>
        </g>
        <g id="Grupo_14911" data-name="Grupo 14911" transform="translate(26.228 69.245)">
          <g id="Grupo_14910" data-name="Grupo 14910" transform="translate(0 0)">
            <rect id="Rectángulo_2791" data-name="Rectángulo 2791" width="21.693" height="7.709" transform="translate(0 19.4) rotate(-63.421)" fill="#5ed45e"/>
          </g>
        </g>
        <g id="Grupo_14912" data-name="Grupo 14912" transform="translate(20.028 6.033)">
          <circle id="Elipse_770" data-name="Elipse 770" cx="34.152" cy="34.152" r="34.152" fill="#fcd118"/>
        </g>
        <g id="Grupo_14913" data-name="Grupo 14913" transform="translate(14.682 84.915)">
          <rect id="Rectángulo_2792" data-name="Rectángulo 2792" width="9.143" height="24.382" transform="translate(0 8.177) rotate(-63.421)" fill="#fcd118"/>
        </g>
        <g id="Grupo_14914" data-name="Grupo 14914" transform="translate(0 96.259)">
          <rect id="Rectángulo_2793" data-name="Rectángulo 2793" width="40.696" height="15.239" transform="translate(0 36.395) rotate(-63.421)" fill="#fcd118"/>
        </g>
        <g id="Grupo_14915" data-name="Grupo 14915" transform="translate(163.677 116.991)">
          <rect id="Rectángulo_2794" data-name="Rectángulo 2794" width="61.763" height="22.081" fill="#4a91d6"/>
        </g>
        <g id="Grupo_14916" data-name="Grupo 14916" transform="translate(170.186 39.067)">
          <path id="Trazado_25347" data-name="Trazado 25347" d="M1625.3,782.262l32.482-33.762h-62.4Z" transform="translate(-1595.382 -748.5)" fill="#4a91d6"/>
        </g>
        <g id="Grupo_14917" data-name="Grupo 14917" transform="translate(170.186 26.107)">
          <path id="Trazado_25348" data-name="Trazado 25348" d="M1602.1,667.5l-6.72,12.961h62.4l-6.72-12.961Z" transform="translate(-1595.382 -667.5)" fill="#4a91d6"/>
        </g>
        <g id="Grupo_14918" data-name="Grupo 14918" transform="translate(13.995 0)">
          <circle id="Elipse_771" data-name="Elipse 771" cx="28.415" cy="28.415" r="28.415" transform="translate(0 40.185) rotate(-45)" fill="#fff"/>
        </g>
        <g id="Grupo_14919" data-name="Grupo 14919" transform="translate(32.39 149.713)">
          <path id="Trazado_25349" data-name="Trazado 25349" d="M734.2,1446.8a7.443,7.443,0,0,0,7.443,7.443H893.008a7.443,7.443,0,0,0,7.443-7.443V1440H734.2Z" transform="translate(-734.203 -1440)" fill="#e1e1e5"/>
        </g>
        <g id="Grupo_14920" data-name="Grupo 14920" transform="translate(95.753 162.834)">
          <rect id="Rectángulo_2795" data-name="Rectángulo 2795" width="38.722" height="38.722" fill="#e1e1e5"/>
        </g>
        <g id="Grupo_14921" data-name="Grupo 14921" transform="translate(81.193 199.796)">
          <path id="Trazado_25350" data-name="Trazado 25350" d="M1101.186,1753H1045.7a6.5,6.5,0,0,0-6.5,6.5v4.86h68.484v-4.86A6.5,6.5,0,0,0,1101.186,1753Z" transform="translate(-1039.203 -1753)" fill="#e1e1e5"/>
        </g>
        <g id="Grupo_14922" data-name="Grupo 14922" transform="translate(171.917 128.752)">
          <rect id="Rectángulo_2796" data-name="Rectángulo 2796" width="52.963" height="10.401" fill="#e1e1e5"/>
        </g>
      </g>
      <g id="MONITOR" transform="translate(481.282 509.156)">
        <g id="Grupo_14923" data-name="Grupo 14923" transform="translate(225.452 180.203)">
          <path id="Trazado_25351" data-name="Trazado 25351" d="M1896.868,1680.909a1.6,1.6,0,1,0,.505,2.207A1.6,1.6,0,0,0,1896.868,1680.909Z" transform="translate(-1893.756 -1677.462)" fill="#148b91"/>
          <path id="Trazado_25352" data-name="Trazado 25352" d="M1962.052,1675.676a.012.012,0,0,1,.006.006,1.6,1.6,0,0,0,2.264-2.264.089.089,0,0,1-.018-.018,1.6,1.6,0,0,0-2.256,2.271S1962.05,1675.675,1962.052,1675.676Z" transform="translate(-1950.169 -1670.969)" fill="#148b91"/>
          <path id="Trazado_25353" data-name="Trazado 25353" d="M1918.976,1744.529a1.6,1.6,0,0,0-1.051,3.023,1.627,1.627,0,0,0,.525.088,1.6,1.6,0,0,0,.526-3.111Z" transform="translate(-1912.599 -1731.031)" fill="#148b91"/>
          <path id="Trazado_25354" data-name="Trazado 25354" d="M1891.354,1718.043a1.6,1.6,0,0,0,.53,3.11,1.6,1.6,0,0,0,1.509-2.131A1.6,1.6,0,0,0,1891.354,1718.043Z" transform="translate(-1890.282 -1708.782)" fill="#148b91"/>
          <path id="Trazado_25355" data-name="Trazado 25355" d="M1975.836,1708.436a1.6,1.6,0,0,0-1.768,1.411h0a1.6,1.6,0,0,0,1.413,1.767,1.351,1.351,0,0,0,.179.011,1.6,1.6,0,0,0,.176-3.191Z" transform="translate(-1960.653 -1700.78)" fill="#148b91"/>
          <path id="Trazado_25356" data-name="Trazado 25356" d="M1927.554,1660.654a1.6,1.6,0,0,0,.179,3.189,1.817,1.817,0,0,0,.186-.01,1.6,1.6,0,0,0-.365-3.179Z" transform="translate(-1920.399 -1660.644)" fill="#148b91"/>
          <path id="Trazado_25357" data-name="Trazado 25357" d="M1954.871,1740.448h0a1.6,1.6,0,0,0,.856,2.952,1.581,1.581,0,0,0,.851-.246,1.6,1.6,0,1,0-1.707-2.707Z" transform="translate(-1943.909 -1727.472)" fill="#148b91"/>
        </g>
        <g id="Grupo_14924" data-name="Grupo 14924" transform="translate(225.292 75.397)">
          <path id="Trazado_25358" data-name="Trazado 25358" d="M1917.976,1089.529a1.6,1.6,0,1,0-1.051,3.023,1.62,1.62,0,0,0,.525.088,1.6,1.6,0,0,0,.526-3.111Z" transform="translate(-1911.599 -1076.032)" fill="#148b91"/>
          <path id="Trazado_25359" data-name="Trazado 25359" d="M1890.355,1063.043a1.6,1.6,0,1,0,2.039.979A1.6,1.6,0,0,0,1890.355,1063.043Z" transform="translate(-1889.283 -1053.782)" fill="#148b91"/>
          <path id="Trazado_25360" data-name="Trazado 25360" d="M1961.052,1020.673a.028.028,0,0,1,.006.008,1.6,1.6,0,1,0,2.264-2.263v0a.175.175,0,0,1-.018-.016v0a1.6,1.6,0,1,0-2.256,2.271A0,0,0,0,0,1961.052,1020.673Z" transform="translate(-1949.169 -1015.968)" fill="#148b91"/>
          <path id="Trazado_25361" data-name="Trazado 25361" d="M1895.868,1025.909a1.6,1.6,0,1,0,.506,2.206A1.6,1.6,0,0,0,1895.868,1025.909Z" transform="translate(-1892.756 -1022.462)" fill="#148b91"/>
          <path id="Trazado_25362" data-name="Trazado 25362" d="M1974.836,1053.436a1.6,1.6,0,1,0-.355,3.179,1.716,1.716,0,0,0,.179.01,1.6,1.6,0,0,0,.176-3.189Z" transform="translate(-1959.653 -1045.781)" fill="#148b91"/>
          <path id="Trazado_25363" data-name="Trazado 25363" d="M1953.871,1085.452a1.6,1.6,0,0,0,.856,2.952,1.581,1.581,0,0,0,.851-.246,1.6,1.6,0,1,0-1.707-2.706Z" transform="translate(-1942.909 -1072.474)" fill="#148b91"/>
          <path id="Trazado_25364" data-name="Trazado 25364" d="M1926.552,1005.654a1.6,1.6,0,0,0,.181,3.189,1.813,1.813,0,0,0,.184-.01,1.6,1.6,0,0,0-.365-3.179Z" transform="translate(-1919.397 -1005.644)" fill="#148b91"/>
        </g>
        <g id="Grupo_14925" data-name="Grupo 14925" transform="translate(153.928 4.034)">
          <path id="Trazado_25365" data-name="Trazado 25365" d="M1449.868,579.909a1.6,1.6,0,1,0,.506,2.207A1.6,1.6,0,0,0,1449.868,579.909Z" transform="translate(-1446.756 -576.462)" fill="#148b91"/>
          <path id="Trazado_25366" data-name="Trazado 25366" d="M1444.354,617.043a1.6,1.6,0,1,0,2.038.979A1.6,1.6,0,0,0,1444.354,617.043Z" transform="translate(-1443.282 -607.782)" fill="#148b91"/>
          <path id="Trazado_25367" data-name="Trazado 25367" d="M1471.976,643.529a1.6,1.6,0,0,0-1.051,3.023,1.628,1.628,0,0,0,.525.088,1.6,1.6,0,0,0,.526-3.111Z" transform="translate(-1465.599 -630.032)" fill="#148b91"/>
          <path id="Trazado_25368" data-name="Trazado 25368" d="M1515.051,574.673a.031.031,0,0,1,.006.008,1.6,1.6,0,0,0,2.264-2.264l-.007,0a.085.085,0,0,1-.011-.013,1.6,1.6,0,0,0-2.258,2.271S1515.049,574.673,1515.051,574.673Z" transform="translate(-1503.167 -569.968)" fill="#148b91"/>
          <path id="Trazado_25369" data-name="Trazado 25369" d="M1528.836,607.436a1.6,1.6,0,1,0-.355,3.179,1.374,1.374,0,0,0,.179.011,1.6,1.6,0,0,0,.176-3.191Z" transform="translate(-1513.653 -599.78)" fill="#148b91"/>
          <path id="Trazado_25370" data-name="Trazado 25370" d="M1507.871,639.452a1.6,1.6,0,0,0,.856,2.952,1.568,1.568,0,0,0,.851-.246,1.6,1.6,0,1,0-1.707-2.706Z" transform="translate(-1496.909 -626.474)" fill="#148b91"/>
          <path id="Trazado_25371" data-name="Trazado 25371" d="M1480.554,559.654a1.6,1.6,0,0,0,.181,3.189,1.8,1.8,0,0,0,.184-.01,1.6,1.6,0,0,0-.365-3.179Z" transform="translate(-1473.399 -559.644)" fill="#148b91"/>
        </g>
        <g id="Grupo_14926" data-name="Grupo 14926" transform="translate(3.52 4.994)">
          <path id="Trazado_25372" data-name="Trazado 25372" d="M504.355,623.043a1.6,1.6,0,0,0,.53,3.111,1.618,1.618,0,0,0,.53-.091,1.6,1.6,0,0,0-1.059-3.019Z" transform="translate(-503.283 -613.782)" fill="#148b91"/>
          <path id="Trazado_25373" data-name="Trazado 25373" d="M509.868,585.909a1.6,1.6,0,1,0,.506,2.206A1.6,1.6,0,0,0,509.868,585.909Z" transform="translate(-506.756 -582.462)" fill="#148b91"/>
          <path id="Trazado_25374" data-name="Trazado 25374" d="M575.051,580.675a.013.013,0,0,1,.006.006l.006,0a1.6,1.6,0,0,0,2.258-2.269.094.094,0,0,1-.018-.018,1.6,1.6,0,1,0-2.258,2.271Z" transform="translate(-563.168 -575.968)" fill="#148b91"/>
          <path id="Trazado_25375" data-name="Trazado 25375" d="M540.554,565.654a1.6,1.6,0,0,0,.181,3.189,1.792,1.792,0,0,0,.184-.01,1.6,1.6,0,0,0-.365-3.179Z" transform="translate(-533.399 -565.644)" fill="#148b91"/>
          <path id="Trazado_25376" data-name="Trazado 25376" d="M588.836,613.436a1.6,1.6,0,1,0-.355,3.179,1.724,1.724,0,0,0,.179.011,1.6,1.6,0,0,0,.176-3.191Z" transform="translate(-573.653 -605.781)" fill="#148b91"/>
          <path id="Trazado_25377" data-name="Trazado 25377" d="M531.976,649.529a1.6,1.6,0,0,0-1.051,3.023,1.62,1.62,0,0,0,.525.088,1.6,1.6,0,0,0,.526-3.111Z" transform="translate(-525.599 -636.032)" fill="#148b91"/>
          <path id="Trazado_25378" data-name="Trazado 25378" d="M567.871,645.452v0a1.6,1.6,0,0,0,.856,2.955,1.583,1.583,0,0,0,.851-.248,1.6,1.6,0,1,0-1.707-2.706Z" transform="translate(-556.909 -632.474)" fill="#148b91"/>
        </g>
        <g id="Grupo_14927" data-name="Grupo 14927" transform="translate(0 70.917)">
          <path id="Trazado_25379" data-name="Trazado 25379" d="M482.354,1035.043a1.6,1.6,0,0,0-.981,2.038v0a1.6,1.6,0,1,0,.981-2.04Z" transform="translate(-481.282 -1025.782)" fill="#148b91"/>
          <path id="Trazado_25380" data-name="Trazado 25380" d="M566.836,1025.436a1.6,1.6,0,1,0-.355,3.179,1.724,1.724,0,0,0,.179.011,1.6,1.6,0,0,0,.176-3.191Z" transform="translate(-551.653 -1017.78)" fill="#148b91"/>
          <path id="Trazado_25381" data-name="Trazado 25381" d="M553.06,992.683a1.6,1.6,0,0,0,2.264-2.264l-.006,0a.081.081,0,0,1-.011-.013,1.6,1.6,0,0,0-2.264,2.263Z" transform="translate(-541.17 -987.969)" fill="#148b91"/>
          <path id="Trazado_25382" data-name="Trazado 25382" d="M487.868,997.909a1.6,1.6,0,0,0-2.207.507h0a1.6,1.6,0,1,0,2.2-.507Z" transform="translate(-484.756 -994.462)" fill="#148b91"/>
          <path id="Trazado_25383" data-name="Trazado 25383" d="M545.871,1057.452a1.6,1.6,0,0,0,.856,2.954,1.582,1.582,0,0,0,.851-.248,1.6,1.6,0,1,0-1.707-2.706Z" transform="translate(-534.909 -1044.474)" fill="#148b91"/>
          <path id="Trazado_25384" data-name="Trazado 25384" d="M509.976,1061.529a1.6,1.6,0,0,0-1.051,3.023,1.62,1.62,0,0,0,.525.088,1.6,1.6,0,0,0,.526-3.111Z" transform="translate(-503.599 -1048.032)" fill="#148b91"/>
          <path id="Trazado_25385" data-name="Trazado 25385" d="M518.554,977.654a1.6,1.6,0,0,0,.181,3.189,1.809,1.809,0,0,0,.184-.01,1.6,1.6,0,0,0-.365-3.179Z" transform="translate(-511.399 -977.644)" fill="#148b91"/>
        </g>
        <g id="Grupo_14928" data-name="Grupo 14928" transform="translate(31.042 167.082)">
          <path id="Trazado_25386" data-name="Trazado 25386" d="M703.976,1662.53a1.6,1.6,0,1,0-1.051,3.022,1.63,1.63,0,0,0,.525.088,1.6,1.6,0,0,0,.526-3.11Z" transform="translate(-697.599 -1649.032)" fill="#148b91"/>
          <path id="Trazado_25387" data-name="Trazado 25387" d="M681.868,1598.909a1.6,1.6,0,1,0,.506,2.207A1.6,1.6,0,0,0,681.868,1598.909Z" transform="translate(-678.756 -1595.462)" fill="#148b91"/>
          <path id="Trazado_25388" data-name="Trazado 25388" d="M676.354,1636.043a1.6,1.6,0,1,0,2.039.979A1.6,1.6,0,0,0,676.354,1636.043Z" transform="translate(-675.282 -1626.782)" fill="#148b91"/>
          <path id="Trazado_25389" data-name="Trazado 25389" d="M747.058,1593.682a1.6,1.6,0,0,0,2.264-2.264.193.193,0,0,1-.019-.018,1.6,1.6,0,0,0-2.264,2.263Z" transform="translate(-735.169 -1588.969)" fill="#148b91"/>
          <path id="Trazado_25390" data-name="Trazado 25390" d="M712.554,1578.654a1.6,1.6,0,0,0,.181,3.189,1.809,1.809,0,0,0,.184-.01,1.6,1.6,0,0,0-.365-3.179Z" transform="translate(-705.399 -1578.644)" fill="#148b91"/>
          <path id="Trazado_25391" data-name="Trazado 25391" d="M760.836,1626.436a1.6,1.6,0,1,0-.355,3.179,1.376,1.376,0,0,0,.179.011,1.6,1.6,0,0,0,.176-3.191Z" transform="translate(-745.653 -1618.78)" fill="#148b91"/>
          <path id="Trazado_25392" data-name="Trazado 25392" d="M739.871,1658.452a1.6,1.6,0,0,0,.856,2.954,1.582,1.582,0,0,0,.851-.248,1.6,1.6,0,1,0-1.707-2.706Z" transform="translate(-728.909 -1645.474)" fill="#148b91"/>
        </g>
        <g id="Grupo_14931" data-name="Grupo 14931" transform="translate(218.799 141.618)">
          <g id="Grupo_14929" data-name="Grupo 14929" transform="translate(3.76)">
            <path id="Trazado_25393" data-name="Trazado 25393" d="M1873.4,1419.5a1.2,1.2,0,0,0-1.2,1.2v7.68a1.2,1.2,0,1,0,2.4,0v-7.68A1.2,1.2,0,0,0,1873.4,1419.5Z" transform="translate(-1872.203 -1419.5)" fill="#148b91"/>
          </g>
          <g id="Grupo_14930" data-name="Grupo 14930" transform="translate(0 3.92)">
            <path id="Trazado_25394" data-name="Trazado 25394" d="M1857.583,1444h-7.68a1.2,1.2,0,1,0,0,2.4h7.68a1.2,1.2,0,1,0,0-2.4Z" transform="translate(-1848.703 -1444)" fill="#148b91"/>
          </g>
        </g>
        <g id="Grupo_14934" data-name="Grupo 14934" transform="translate(73.511 170.579)">
          <g id="Grupo_14932" data-name="Grupo 14932" transform="translate(3.76)">
            <path id="Trazado_25395" data-name="Trazado 25395" d="M965.4,1600.5a1.2,1.2,0,0,0-1.2,1.2v7.68a1.2,1.2,0,1,0,2.4,0v-7.68A1.2,1.2,0,0,0,965.4,1600.5Z" transform="translate(-964.203 -1600.5)" fill="#148b91"/>
          </g>
          <g id="Grupo_14933" data-name="Grupo 14933" transform="translate(0 3.92)">
            <path id="Trazado_25396" data-name="Trazado 25396" d="M949.583,1625H941.9a1.2,1.2,0,1,0,0,2.4h7.68a1.2,1.2,0,1,0,0-2.4Z" transform="translate(-940.703 -1625)" fill="#148b91"/>
          </g>
        </g>
        <g id="Grupo_14937" data-name="Grupo 14937" transform="translate(108.233 22.732)">
          <g id="Grupo_14935" data-name="Grupo 14935" transform="translate(3.76)">
            <path id="Trazado_25397" data-name="Trazado 25397" d="M1182.4,676.5a1.2,1.2,0,0,0-1.2,1.2v7.68a1.2,1.2,0,1,0,2.4,0V677.7A1.2,1.2,0,0,0,1182.4,676.5Z" transform="translate(-1181.203 -676.5)" fill="#148b91"/>
          </g>
          <g id="Grupo_14936" data-name="Grupo 14936" transform="translate(0 3.92)">
            <path id="Trazado_25398" data-name="Trazado 25398" d="M1166.583,701h-7.68a1.2,1.2,0,0,0,0,2.4h7.68a1.2,1.2,0,0,0,0-2.4Z" transform="translate(-1157.703 -701)" fill="#148b91"/>
          </g>
        </g>
        <g id="Grupo_14940" data-name="Grupo 14940" transform="translate(169.196 177.3)">
          <g id="Grupo_14938" data-name="Grupo 14938" transform="translate(3.76)">
            <path id="Trazado_25399" data-name="Trazado 25399" d="M1563.4,1642.5a1.2,1.2,0,0,0-1.2,1.2v7.68a1.2,1.2,0,1,0,2.4,0v-7.68A1.2,1.2,0,0,0,1563.4,1642.5Z" transform="translate(-1562.203 -1642.5)" fill="#148b91"/>
          </g>
          <g id="Grupo_14939" data-name="Grupo 14939" transform="translate(0 3.92)">
            <path id="Trazado_25400" data-name="Trazado 25400" d="M1547.583,1667h-7.68a1.2,1.2,0,1,0,0,2.4h7.68a1.2,1.2,0,1,0,0-2.4Z" transform="translate(-1538.703 -1667)" fill="#148b91"/>
          </g>
        </g>
        <g id="Grupo_14943" data-name="Grupo 14943" transform="translate(1.027 40.013)">
          <g id="Grupo_14941" data-name="Grupo 14941" transform="translate(3.76)">
            <path id="Trazado_25401" data-name="Trazado 25401" d="M512.4,784.5a1.2,1.2,0,0,0-1.2,1.2v7.68a1.2,1.2,0,0,0,2.4,0V785.7A1.2,1.2,0,0,0,512.4,784.5Z" transform="translate(-511.203 -784.5)" fill="#148b91"/>
          </g>
          <g id="Grupo_14942" data-name="Grupo 14942" transform="translate(0 3.92)">
            <path id="Trazado_25402" data-name="Trazado 25402" d="M496.583,809H488.9a1.2,1.2,0,1,0,0,2.4h7.68a1.2,1.2,0,1,0,0-2.4Z" transform="translate(-487.703 -809)" fill="#148b91"/>
          </g>
        </g>
        <g id="Grupo_14944" data-name="Grupo 14944" transform="translate(51.03 63.614)">
          <path id="Trazado_25403" data-name="Trazado 25403" d="M937.73,966.082h-16a7.449,7.449,0,0,1-7.44-7.44,13.2,13.2,0,1,0-26.4,0v.64a6.968,6.968,0,0,1-6.96,6.96,9.371,9.371,0,0,0-9.36,9.36v17.121a7.44,7.44,0,0,1-14.881,0V943.441a11.441,11.441,0,1,0-22.881,0v37.6a6.64,6.64,0,0,1-13.281,0v-6.4a9.051,9.051,0,0,0-9.04-9.04H801.4a1.2,1.2,0,1,0,0,2.4h10.081a6.648,6.648,0,0,1,6.64,6.64v6.4a9.04,9.04,0,0,0,18.081,0v-37.6a9.04,9.04,0,1,1,18.081,0v49.283a9.841,9.841,0,0,0,19.681,0V975.6a6.968,6.968,0,0,1,6.96-6.96,9.371,9.371,0,0,0,9.36-9.36v-.64a10.8,10.8,0,1,1,21.6,0,9.852,9.852,0,0,0,9.84,9.84h16a1.2,1.2,0,0,0,0-2.4Z" transform="translate(-800.203 -932)" fill="#148b91"/>
        </g>
        <g id="Grupo_14956" data-name="Grupo 14956" transform="translate(38.903 43.853)">
          <g id="Grupo_14953" data-name="Grupo 14953">
            <g id="Grupo_14949" data-name="Grupo 14949">
              <g id="Grupo_14945" data-name="Grupo 14945" transform="translate(56.316)">
                <path id="Trazado_25404" data-name="Trazado 25404" d="M1152.909,808.5h-75.337a1.2,1.2,0,1,0,0,2.4h75.337a1.2,1.2,0,0,0,0-2.4Z" transform="translate(-1076.372 -808.503)" fill="#148b91"/>
              </g>
              <g id="Grupo_14946" data-name="Grupo 14946" transform="translate(0 53.842)">
                <path id="Trazado_25405" data-name="Trazado 25405" d="M892.492,1181.562a1.2,1.2,0,0,0-1.2,1.2v15a7.439,7.439,0,0,1-7.439,7.439l-149.6,0a7.447,7.447,0,0,1-7.439-7.439V1146.2a1.2,1.2,0,0,0-2.4,0v51.561a9.85,9.85,0,0,0,9.839,9.839l149.6,0a9.839,9.839,0,0,0,9.839-9.84v-15A1.2,1.2,0,0,0,892.492,1181.562Z" transform="translate(-724.412 -1145)" fill="#148b91"/>
              </g>
              <g id="Grupo_14947" data-name="Grupo 14947" transform="translate(166.879 33.121)">
                <path id="Trazado_25406" data-name="Trazado 25406" d="M1768.55,1015.5a1.2,1.2,0,0,0-1.2,1.2v29.2a1.2,1.2,0,0,0,2.4,0v-29.2A1.2,1.2,0,0,0,1768.55,1015.5Z" transform="translate(-1767.35 -1015.5)" fill="#148b91"/>
              </g>
              <g id="Grupo_14948" data-name="Grupo 14948" transform="translate(0.338 99.785)">
                <path id="Trazado_25407" data-name="Trazado 25407" d="M893.929,1432.125l-166.2,0a1.2,1.2,0,0,0,0,2.4l166.2,0a1.2,1.2,0,1,0,0-2.4Z" transform="translate(-726.524 -1432.125)" fill="#148b91"/>
              </g>
            </g>
            <g id="Grupo_14950" data-name="Grupo 14950" transform="translate(49.227 149.964)">
              <path id="Trazado_25408" data-name="Trazado 25408" d="M1095.276,1745.729h-55.591a7.625,7.625,0,0,0-7.617,7.617v4.987a1.2,1.2,0,0,0,1.2,1.2h68.424a1.2,1.2,0,0,0,1.2-1.2v-4.987A7.625,7.625,0,0,0,1095.276,1745.729Zm5.217,11.4h-66.024v-3.787a5.222,5.222,0,0,1,5.216-5.216h55.591a5.222,5.222,0,0,1,5.217,5.216Z" transform="translate(-1032.068 -1745.729)" fill="#148b91"/>
            </g>
            <g id="Grupo_14951" data-name="Grupo 14951" transform="translate(63.768 114.896)">
              <path id="Trazado_25409" data-name="Trazado 25409" d="M1124.139,1526.568a1.2,1.2,0,0,0-1.2,1.2v35.068a1.2,1.2,0,0,0,2.4,0v-35.068A1.2,1.2,0,0,0,1124.139,1526.568Z" transform="translate(-1122.939 -1526.568)" fill="#148b91"/>
            </g>
            <g id="Grupo_14952" data-name="Grupo 14952" transform="translate(103.112 114.896)">
              <path id="Trazado_25410" data-name="Trazado 25410" d="M1370.026,1526.568a1.2,1.2,0,0,0-1.2,1.2v35.068a1.2,1.2,0,0,0,2.4,0v-35.068A1.2,1.2,0,0,0,1370.026,1526.568Z" transform="translate(-1368.826 -1526.568)" fill="#148b91"/>
            </g>
          </g>
          <g id="Grupo_14954" data-name="Grupo 14954" transform="translate(69.41 118.486)">
            <path id="Trazado_25411" data-name="Trazado 25411" d="M1159.4,1549a1.2,1.2,0,0,0-1.2,1.2v4.32a1.2,1.2,0,0,0,2.4,0v-4.32A1.2,1.2,0,0,0,1159.4,1549Z" transform="translate(-1158.203 -1549)" fill="#148b91"/>
          </g>
          <g id="Grupo_14955" data-name="Grupo 14955" transform="translate(69.41 130.486)">
            <path id="Trazado_25412" data-name="Trazado 25412" d="M1171.564,1638.721H1160.6V1625.2a1.2,1.2,0,0,0-2.4,0v14.721a1.2,1.2,0,0,0,1.2,1.2h12.161a1.2,1.2,0,1,0,0-2.4Z" transform="translate(-1158.203 -1624)" fill="#148b91"/>
          </g>
        </g>
        <g id="Grupo_14957" data-name="Grupo 14957" transform="translate(207.998 205.221)">
          <path id="Trazado_25413" data-name="Trazado 25413" d="M1795.364,1817H1782.4a1.2,1.2,0,0,0,0,2.4h12.961a1.2,1.2,0,1,0,0-2.4Z" transform="translate(-1781.203 -1817)" fill="#148b91"/>
        </g>
        <g id="Grupo_14958" data-name="Grupo 14958" transform="translate(142.014 205.221)">
          <path id="Trazado_25414" data-name="Trazado 25414" d="M1412.969,1817h-42.943a1.2,1.2,0,1,0,0,2.4h42.943a1.2,1.2,0,1,0,0-2.4Z" transform="translate(-1368.826 -1817)" fill="#148b91"/>
        </g>
        <g id="Grupo_14959" data-name="Grupo 14959" transform="translate(43.83 205.221)">
          <path id="Trazado_25415" data-name="Trazado 25415" d="M815.286,1817H756.4a1.2,1.2,0,0,0,0,2.4h58.883a1.2,1.2,0,1,0,0-2.4Z" transform="translate(-755.203 -1817)" fill="#148b91"/>
        </g>
        <g id="Grupo_14968" data-name="Grupo 14968" transform="translate(170.556 0.891)">
          <g id="Grupo_14966" data-name="Grupo 14966" transform="translate(6.509 19.201)">
            <g id="Grupo_14960" data-name="Grupo 14960" transform="translate(0 12.961)">
              <path id="Trazado_25416" data-name="Trazado 25416" d="M1651.486,741h-62.4a1.2,1.2,0,0,0-.9,2l29.921,33.762a1.2,1.2,0,0,0,.874.4H1619a1.2,1.2,0,0,0,.865-.368l32.482-33.762a1.2,1.2,0,0,0-.865-2.032Zm-32.446,33.193L1591.75,743.4h56.916Z" transform="translate(-1587.882 -741)" fill="#148b91"/>
            </g>
            <g id="Grupo_14961" data-name="Grupo 14961">
              <path id="Trazado_25417" data-name="Trazado 25417" d="M1645.829,660.648a1.2,1.2,0,0,0-1.065-.648H1595.8a1.2,1.2,0,0,0-1.065.648l-6.72,12.961a1.2,1.2,0,0,0,2.131,1.105l6.385-12.313h47.5l6.385,12.313a1.2,1.2,0,0,0,2.131-1.105Z" transform="translate(-1587.881 -660)" fill="#148b91"/>
            </g>
            <g id="Grupo_14962" data-name="Grupo 14962" transform="translate(7.361 1.12)">
              <path id="Trazado_25418" data-name="Trazado 25418" d="M1682.1,667.329l-11.609,11.014-10.375-10.968a1.2,1.2,0,0,0-1.709-.035l-11.318,11.02-11.163-11.014a1.2,1.2,0,1,0-1.686,1.709l12,11.841a1.2,1.2,0,0,0,1.68.005l11.288-10.991,10.364,10.956a1.2,1.2,0,0,0,.84.375h.032a1.2,1.2,0,0,0,.826-.329l12.481-11.841a1.2,1.2,0,1,0-1.652-1.741Z" transform="translate(-1633.882 -667)" fill="#148b91"/>
            </g>
            <g id="Grupo_14963" data-name="Grupo 14963" transform="translate(19.409 12.96)">
              <path id="Trazado_25419" data-name="Trazado 25419" d="M1733.958,741.556a1.2,1.2,0,0,0-1.548.7L1721,772.284l-9.48-30.443a1.2,1.2,0,1,0-2.292.714l10.513,33.762a1.2,1.2,0,0,0,1.109.843h.037a1.2,1.2,0,0,0,1.122-.774l12.641-33.282A1.2,1.2,0,0,0,1733.958,741.556Z" transform="translate(-1709.177 -740.997)" fill="#148b91"/>
            </g>
            <g id="Grupo_14964" data-name="Grupo 14964" transform="translate(0 12.961)">
              <path id="Trazado_25420" data-name="Trazado 25420" d="M1651.486,741h-62.4a1.2,1.2,0,0,0-.9,2l29.921,33.762a1.2,1.2,0,0,0,.874.4H1619a1.2,1.2,0,0,0,.865-.368l32.482-33.762a1.2,1.2,0,0,0-.865-2.032Zm-32.446,33.193L1591.75,743.4h56.916Z" transform="translate(-1587.882 -741)" fill="#148b91"/>
            </g>
            <g id="Grupo_14965" data-name="Grupo 14965">
              <path id="Trazado_25421" data-name="Trazado 25421" d="M1645.829,660.648a1.2,1.2,0,0,0-1.065-.648H1595.8a1.2,1.2,0,0,0-1.065.648l-6.72,12.961a1.2,1.2,0,0,0,2.131,1.105l6.385-12.313h47.5l6.385,12.313a1.2,1.2,0,0,0,2.131-1.105Z" transform="translate(-1587.881 -660)" fill="#148b91"/>
            </g>
          </g>
          <g id="Grupo_14967" data-name="Grupo 14967">
            <path id="Trazado_25422" data-name="Trazado 25422" d="M1585.925,540a38.722,38.722,0,1,0,27.381,11.341A38.468,38.468,0,0,0,1585.925,540Zm0,75.044a36.322,36.322,0,1,1,36.322-36.322A36.363,36.363,0,0,1,1585.925,615.044Z" transform="translate(-1547.203 -540)" fill="#148b91"/>
          </g>
        </g>
        <g id="Grupo_14980" data-name="Grupo 14980" transform="translate(6.879 0)">
          <g id="Grupo_14969" data-name="Grupo 14969" transform="translate(20.01)">
            <path id="Trazado_25423" data-name="Trazado 25423" d="M700.519,538.188a35.353,35.353,0,1,0,17.723,20.445A35.12,35.12,0,0,0,700.519,538.188Zm13.652,46.36a32.952,32.952,0,1,1,1.794-25.157A32.99,32.99,0,0,1,714.172,584.548Z" transform="translate(-649.331 -534.434)" fill="#148b91"/>
          </g>
          <g id="Grupo_14970" data-name="Grupo 14970" transform="translate(25.768 5.758)">
            <path id="Trazado_25424" data-name="Trazado 25424" d="M728.179,573.545a29.614,29.614,0,1,0,13.235,39.736A29.649,29.649,0,0,0,728.179,573.545Zm11.088,38.663A27.215,27.215,0,1,1,727.1,575.692,27.246,27.246,0,0,1,739.267,612.208Z" transform="translate(-685.315 -570.419)" fill="#148b91"/>
          </g>
          <g id="Grupo_14971" data-name="Grupo 14971" transform="translate(64.247 14.049)">
            <path id="Trazado_25425" data-name="Trazado 25425" d="M927.534,622.36a1.2,1.2,0,1,0-1.074,2.147,21.3,21.3,0,0,1,9.519,28.578,1.2,1.2,0,1,0,2.146,1.074A23.726,23.726,0,0,0,927.534,622.36Z" transform="translate(-925.797 -622.233)" fill="#148b91"/>
          </g>
          <g id="Grupo_14972" data-name="Grupo 14972" transform="translate(46.523 11.666)">
            <path id="Trazado_25426" data-name="Trazado 25426" d="M823.822,607.344h0a23.7,23.7,0,0,0-8,1.419,1.2,1.2,0,1,0,.816,2.257,21.3,21.3,0,0,1,7.188-1.276,1.2,1.2,0,0,0,0-2.4Z" transform="translate(-815.03 -607.344)" fill="#148b91"/>
          </g>
          <g id="Grupo_14973" data-name="Grupo 14973" transform="translate(14.682 78.9)">
            <path id="Trazado_25427" data-name="Trazado 25427" d="M643.661,1038.567l-21.8-10.909a1.2,1.2,0,0,0-1.61.536l-4.091,8.177a1.2,1.2,0,0,0,.536,1.61l21.8,10.909a1.2,1.2,0,0,0,1.61-.536l4.091-8.177a1.2,1.2,0,0,0-.536-1.61Zm-5.164,7.64-19.659-9.835,3.017-6.031,19.658,9.835Z" transform="translate(-616.028 -1027.531)" fill="#148b91"/>
          </g>
          <g id="Grupo_14974" data-name="Grupo 14974" transform="translate(0 90.244)">
            <path id="Trazado_25428" data-name="Trazado 25428" d="M557.847,1105.375a1.2,1.2,0,0,0-1.61.536l-17.672,35.322-11.482-5.744,17.671-35.322a1.2,1.2,0,0,0-2.146-1.074l-18.208,36.4a1.2,1.2,0,0,0,.536,1.61l13.628,6.818a1.2,1.2,0,0,0,1.61-.536l18.208-36.4A1.2,1.2,0,0,0,557.847,1105.375Z" transform="translate(-524.273 -1098.43)" fill="#148b91"/>
          </g>
          <g id="Grupo_14977" data-name="Grupo 14977" transform="translate(26.228 63.229)">
            <g id="Grupo_14975" data-name="Grupo 14975">
              <path id="Trazado_25429" data-name="Trazado 25429" d="M699.631,929.723a1.2,1.2,0,0,0-1.61.536l-9.706,19.4a1.2,1.2,0,1,0,2.147,1.074l9.706-19.4A1.2,1.2,0,0,0,699.631,929.723Z" transform="translate(-688.188 -929.596)" fill="#148b91"/>
            </g>
            <g id="Grupo_14976" data-name="Grupo 14976" transform="translate(6.894 3.449)">
              <path id="Trazado_25430" data-name="Trazado 25430" d="M742.718,951.278a1.2,1.2,0,0,0-1.61.536l-9.706,19.4a1.2,1.2,0,1,0,2.147,1.074l9.706-19.4A1.2,1.2,0,0,0,742.718,951.278Z" transform="translate(-731.275 -951.151)" fill="#148b91"/>
            </g>
          </g>
          <g id="Grupo_14978" data-name="Grupo 14978" transform="translate(15.556 98.183)">
            <path id="Trazado_25431" data-name="Trazado 25431" d="M633.337,1148.173a1.2,1.2,0,0,0-1.61.536l-10.107,20.2a1.2,1.2,0,0,0,2.146,1.074l10.107-20.2A1.2,1.2,0,0,0,633.337,1148.173Z" transform="translate(-621.493 -1148.046)" fill="#148b91"/>
          </g>
          <g id="Grupo_14979" data-name="Grupo 14979" transform="translate(11.545 122.874)">
            <path id="Trazado_25432" data-name="Trazado 25432" d="M599.929,1302.484a1.2,1.2,0,0,0-1.61.536l-1.765,3.527a1.2,1.2,0,1,0,2.147,1.074l1.765-3.527A1.2,1.2,0,0,0,599.929,1302.484Z" transform="translate(-596.427 -1302.357)" fill="#148b91"/>
          </g>
        </g>
        <g id="Grupo_14985" data-name="Grupo 14985" transform="translate(170.556 106.176)">
          <g id="Grupo_14981" data-name="Grupo 14981" transform="translate(0 4.8)">
            <path id="Trazado_25433" data-name="Trazado 25433" d="M1610.166,1228H1548.4a1.2,1.2,0,0,0-1.2,1.2v22.081a1.2,1.2,0,0,0,1.2,1.2h61.763a1.2,1.2,0,0,0,1.2-1.2V1229.2A1.2,1.2,0,0,0,1610.166,1228Zm-1.2,22.081H1549.6V1230.4h59.363Z" transform="translate(-1547.203 -1228)" fill="#148b91"/>
          </g>
          <g id="Grupo_14982" data-name="Grupo 14982" transform="translate(50.61 16.481)">
            <path id="Trazado_25434" data-name="Trazado 25434" d="M1874.573,1301H1864.7a1.2,1.2,0,0,0,0,2.4h9.873a1.2,1.2,0,1,0,0-2.4Z" transform="translate(-1863.5 -1301)" fill="#148b91"/>
          </g>
          <g id="Grupo_14983" data-name="Grupo 14983" transform="translate(8.16 16.481)">
            <path id="Trazado_25435" data-name="Trazado 25435" d="M1628.953,1301H1599.4a1.2,1.2,0,0,0-1.2,1.2v9.12a1.2,1.2,0,1,0,2.4,0v-7.92h28.35a1.2,1.2,0,1,0,0-2.4Z" transform="translate(-1598.203 -1301)" fill="#148b91"/>
          </g>
          <g id="Grupo_14984" data-name="Grupo 14984" transform="translate(3.2)">
            <path id="Trazado_25436" data-name="Trazado 25436" d="M1632.086,1198H1568.4a1.2,1.2,0,1,0,0,2.4h62.483v23.121a1.2,1.2,0,0,0,2.4,0V1199.2A1.2,1.2,0,0,0,1632.086,1198Z" transform="translate(-1567.203 -1198)" fill="#148b91"/>
          </g>
        </g>
        <g id="Grupo_14986" data-name="Grupo 14986" transform="translate(98.278 5.691)">
          <path id="Trazado_25437" data-name="Trazado 25437" d="M1240.087,578.333a14.381,14.381,0,0,0-3.734-2.224,1.2,1.2,0,0,0-.9,2.224,11.977,11.977,0,0,1,3.111,1.854,1.2,1.2,0,1,0,1.525-1.853Z" transform="translate(-1212.427 -575.057)" fill="#148b91"/>
          <path id="Trazado_25438" data-name="Trazado 25438" d="M1170.691,570h-4a1.2,1.2,0,0,0,0,2.4h4a1.2,1.2,0,1,0,0-2.4Z" transform="translate(-1154.29 -570)" fill="#148b91"/>
          <path id="Trazado_25439" data-name="Trazado 25439" d="M1283.542,631.486a1.2,1.2,0,0,0,1.159-1.24,14.362,14.362,0,0,0-.8-4.272,1.2,1.2,0,1,0-2.265.795,11.967,11.967,0,0,1,.667,3.559,1.2,1.2,0,0,0,1.2,1.159Z" transform="translate(-1251.794 -616.343)" fill="#148b91"/>
          <path id="Trazado_25440" data-name="Trazado 25440" d="M1100.691,570h-4a1.2,1.2,0,0,0,0,2.4h4a1.2,1.2,0,1,0,0-2.4Z" transform="translate(-1095.491 -570)" fill="#148b91"/>
          <path id="Trazado_25441" data-name="Trazado 25441" d="M1293.6,694.818a1.2,1.2,0,0,0-2.252.83,14.361,14.361,0,0,0,2.1,3.8,1.2,1.2,0,1,0,1.9-1.465A11.969,11.969,0,0,1,1293.6,694.818Z" transform="translate(-1259.943 -674.187)" fill="#148b91"/>
          <path id="Trazado_25442" data-name="Trazado 25442" d="M1413.4,748h-4a1.2,1.2,0,0,0,0,2.4h4a1.2,1.2,0,1,0,0-2.4Z" transform="translate(-1358.167 -719.519)" fill="#148b91"/>
          <path id="Trazado_25443" data-name="Trazado 25443" d="M1483.4,748h-4a1.2,1.2,0,0,0,0,2.4h4a1.2,1.2,0,0,0,0-2.4Z" transform="translate(-1416.966 -719.519)" fill="#148b91"/>
          <path id="Trazado_25444" data-name="Trazado 25444" d="M1344.065,743.312a11.933,11.933,0,0,1-3.535-.78,1.2,1.2,0,0,0-.867,2.238,14.331,14.331,0,0,0,4.245.937l.08,0a1.2,1.2,0,0,0,.078-2.4Z" transform="translate(-1299.949 -714.857)" fill="#148b91"/>
        </g>
        <g id="Grupo_14987" data-name="Grupo 14987" transform="translate(1.139 131.777)">
          <path id="Trazado_25445" data-name="Trazado 25445" d="M537.947,1738.074a11.9,11.9,0,0,1-3.429-1.159,1.2,1.2,0,1,0-1.105,2.13,14.3,14.3,0,0,0,4.119,1.393,1.2,1.2,0,1,0,.415-2.364Z" transform="translate(-525.667 -1676.172)" fill="#148b91"/>
          <path id="Trazado_25446" data-name="Trazado 25446" d="M606.475,1746h-4a1.2,1.2,0,1,0,0,2.4h4a1.2,1.2,0,0,0,0-2.4Z" transform="translate(-583.214 -1683.917)" fill="#148b91"/>
          <path id="Trazado_25447" data-name="Trazado 25447" d="M592.739,1552.6a1.2,1.2,0,0,0-1.628-.479,11.9,11.9,0,0,1-3.4,1.231,1.2,1.2,0,1,0,.464,2.355,14.294,14.294,0,0,0,4.089-1.479A1.2,1.2,0,0,0,592.739,1552.6Z" transform="translate(-571.005 -1520.936)" fill="#148b91"/>
          <path id="Trazado_25448" data-name="Trazado 25448" d="M489.519,1620.714c.028,0,.056,0,.084,0a1.2,1.2,0,0,0,1.2-1.117,11.937,11.937,0,0,1,.793-3.532,1.2,1.2,0,0,0-2.235-.875,14.338,14.338,0,0,0-.952,4.242A1.2,1.2,0,0,0,489.519,1620.714Z" transform="translate(-488.402 -1573.399)" fill="#148b91"/>
          <path id="Trazado_25449" data-name="Trazado 25449" d="M493.009,1684.419a1.2,1.2,0,0,0-2.329.58,14.314,14.314,0,0,0,1.68,4.011,1.2,1.2,0,1,0,2.048-1.252A11.914,11.914,0,0,1,493.009,1684.419Z" transform="translate(-490.286 -1631.424)" fill="#148b91"/>
          <path id="Trazado_25450" data-name="Trazado 25450" d="M526.42,1567.76a1.2,1.2,0,0,0-1.539-.716,14.358,14.358,0,0,0-3.811,2.091,1.2,1.2,0,0,0,1.459,1.906,11.967,11.967,0,0,1,3.175-1.742A1.2,1.2,0,0,0,526.42,1567.76Z" transform="translate(-515.448 -1533.534)" fill="#148b91"/>
          <path id="Trazado_25451" data-name="Trazado 25451" d="M644.946,1497.868a1.2,1.2,0,0,0-1.436.9,11.907,11.907,0,0,1-1.328,3.367,1.2,1.2,0,1,0,2.073,1.209,14.311,14.311,0,0,0,1.6-4.045A1.2,1.2,0,0,0,644.946,1497.868Z" transform="translate(-617.438 -1475.463)" fill="#148b91"/>
          <path id="Trazado_25452" data-name="Trazado 25452" d="M654.4,1428a1.2,1.2,0,0,0-1.2,1.2v4a1.2,1.2,0,1,0,2.4,0v-4A1.2,1.2,0,0,0,654.4,1428Z" transform="translate(-626.833 -1416.799)" fill="#148b91"/>
          <path id="Trazado_25453" data-name="Trazado 25453" d="M956.475,1746h-4a1.2,1.2,0,1,0,0,2.4h4a1.2,1.2,0,1,0,0-2.4Z" transform="translate(-877.212 -1683.917)" fill="#148b91"/>
          <path id="Trazado_25454" data-name="Trazado 25454" d="M816.475,1746h-4a1.2,1.2,0,1,0,0,2.4h4a1.2,1.2,0,0,0,0-2.4Z" transform="translate(-759.613 -1683.917)" fill="#148b91"/>
          <path id="Trazado_25455" data-name="Trazado 25455" d="M886.475,1746h-4a1.2,1.2,0,1,0,0,2.4h4a1.2,1.2,0,1,0,0-2.4Z" transform="translate(-818.412 -1683.917)" fill="#148b91"/>
          <path id="Trazado_25456" data-name="Trazado 25456" d="M746.475,1746h-4a1.2,1.2,0,1,0,0,2.4h4a1.2,1.2,0,1,0,0-2.4Z" transform="translate(-700.813 -1683.917)" fill="#148b91"/>
          <path id="Trazado_25457" data-name="Trazado 25457" d="M654.4,1358a1.2,1.2,0,0,0-1.2,1.2v4a1.2,1.2,0,1,0,2.4,0v-4A1.2,1.2,0,0,0,654.4,1358Z" transform="translate(-626.833 -1358)" fill="#148b91"/>
          <path id="Trazado_25458" data-name="Trazado 25458" d="M676.475,1746h-4a1.2,1.2,0,1,0,0,2.4h4a1.2,1.2,0,0,0,0-2.4Z" transform="translate(-642.014 -1683.917)" fill="#148b91"/>
        </g>
      </g>
    </g>
    <g id="Grupo_15123" data-name="Grupo 15123" transform="translate(-10126.321 1847.307)">
      <g id="Color-2" data-name="Color" transform="translate(11088.923 599.198)">
        <g id="Grupo_14989" data-name="Grupo 14989" transform="translate(113.016 88.142)">
          <rect id="Rectángulo_2797" data-name="Rectángulo 2797" width="30.565" height="95.427" fill="#fcd118"/>
        </g>
        <g id="Grupo_14990" data-name="Grupo 14990" transform="translate(14.798 20.364)">
          <path id="Trazado_25459" data-name="Trazado 25459" d="M11241.311,866.427a8.742,8.742,0,0,0-5.878-1.275c1.122,2.54,1.607,3.654,2.422,4.526.771.826-8.627-4.9-13.691-4.066a16.532,16.532,0,0,1,2.875,7.36c-3.245-3.659-10.636-2.8-14.949,3.795,2.88-1.1,5.646-2.019,7.245-1.035-5.159,3.54-7.878,6.932-7.245,10.119,2.813-.558,4.88-.162,5.635,1.917,2.5-4.526,5.8-6.589,9.659-7.091-2.314,1.826-3.216,4.651-3.795,7.7,8.967-1.4,13.768-4.333,16.214-8.049a20.07,20.07,0,0,0,7.13,7.244v5.29C11253.486,885.16,11249.576,871.821,11241.311,866.427Z" transform="translate(-11211.998 -865.095)" fill="#fcd118"/>
        </g>
        <g id="Grupo_14991" data-name="Grupo 14991" transform="translate(52.611 152.383)">
          <circle id="Elipse_772" data-name="Elipse 772" cx="19.636" cy="19.636" r="19.636" fill="#e1e1e5"/>
        </g>
        <g id="Grupo_15004" data-name="Grupo 15004" transform="translate(59.482 81.745)">
          <g id="Grupo_14994" data-name="Grupo 14994" transform="translate(0 79.042)">
            <g id="Grupo_14993" data-name="Grupo 14993">
              <g id="Grupo_14992" data-name="Grupo 14992">
                <path id="Trazado_25460" data-name="Trazado 25460" d="M11476.25,1659.689h-.066c-.545-7.525-16.277-5.363-11.994,6.426,3.8,7.539,12.027,11.651,12.027,11.651s8.225-4.112,12.027-11.651C11492.526,1654.326,11476.794,1652.165,11476.25,1659.689Z" transform="translate(-11463.451 -1655.302)" fill="#4a91d6"/>
              </g>
            </g>
          </g>
          <g id="Grupo_14997" data-name="Grupo 14997" transform="translate(14.762 44.771)">
            <g id="Grupo_14996" data-name="Grupo 14996">
              <g id="Grupo_14995" data-name="Grupo 14995">
                <path id="Trazado_25461" data-name="Trazado 25461" d="M11557.823,1468.594l-.049-.026c2.565-5.684-9.721-10.3-11.246-.05-.2,6.977,4.156,13.2,4.156,13.2s7.6.248,13.327-3.736C11571.765,1471.1,11561.18,1463.339,11557.823,1468.594Z" transform="translate(-11546.521 -1462.444)" fill="#5ed45e"/>
              </g>
            </g>
          </g>
          <g id="Grupo_15000" data-name="Grupo 15000" transform="translate(12.793 22.52)">
            <g id="Grupo_14999" data-name="Grupo 14999">
              <g id="Grupo_14998" data-name="Grupo 14998">
                <path id="Trazado_25462" data-name="Trazado 25462" d="M11543.176,1341.115l-.041.011c-1.652-4.611-11.113-.517-6.381,6.109,3.691,4.052,9.551,5.19,9.551,5.19s4.428-4,5.492-9.382C11552.42,1334.925,11542.205,1336.315,11543.176,1341.115Z" transform="translate(-11535.441 -1337.233)" fill="#fcd118"/>
              </g>
            </g>
          </g>
          <g id="Grupo_15003" data-name="Grupo 15003" transform="translate(25.998)">
            <g id="Grupo_15002" data-name="Grupo 15002">
              <g id="Grupo_15001" data-name="Grupo 15001">
                <path id="Trazado_25463" data-name="Trazado 25463" d="M11617.045,1214.76l-.029-.019c1.965-3.49-5.631-7.143-7.191-.671a6.388,6.388,0,0,0,10.646,7.049C11625.82,1217.157,11619.492,1211.59,11617.045,1214.76Z" transform="translate(-11609.75 -1210.505)" fill="#4a91d6"/>
              </g>
            </g>
          </g>
        </g>
        <g id="Grupo_15005" data-name="Grupo 15005" transform="translate(114.615 27.544)">
          <rect id="Rectángulo_2798" data-name="Rectángulo 2798" width="35.186" height="35.186" fill="#4a91d6"/>
        </g>
        <g id="Grupo_15006" data-name="Grupo 15006" transform="translate(0 77.568)">
          <path id="Trazado_25464" data-name="Trazado 25464" d="M11183.617,1187h-8.369c-3.964,1.174-7.857,12.1-11.7,12.173-4.348.077-8.623-10.864-12.812-12.173h-10.075a11.939,11.939,0,0,0-11.939,11.938v7.52c13.591,18.392,45.452,27.654,66.829,4.976v-12.5A11.938,11.938,0,0,0,11183.617,1187Z" transform="translate(-11128.726 -1187)" fill="#4a91d6"/>
        </g>
        <g id="Grupo_15007" data-name="Grupo 15007" transform="translate(154.066 92.051)">
          <rect id="Rectángulo_2799" data-name="Rectángulo 2799" width="61.841" height="11.373" fill="#5ed45e"/>
        </g>
        <g id="Grupo_15008" data-name="Grupo 15008" transform="translate(72.144)">
          <path id="Trazado_25465" data-name="Trazado 25465" d="M11706.538,750.5h-142.332a10.667,10.667,0,0,0-10.667,10.667v11.307l-18.836,22.807,18.836-8.535a10.667,10.667,0,0,0,10.667,10.667h2.217v-38.3h132.567v38.3h7.548a10.667,10.667,0,0,0,10.667-10.667v-25.58A10.667,10.667,0,0,0,11706.538,750.5Z" transform="translate(-11534.703 -750.5)" fill="#5ed45e"/>
        </g>
      </g>
      <g id="BLOG" transform="translate(11080.321 566.5)">
        <g id="Grupo_15009" data-name="Grupo 15009" transform="translate(250.379 113.223)">
          <path id="Trazado_25466" data-name="Trazado 25466" d="M12490.473,1261.053a1.777,1.777,0,0,0,.588,3.455,1.8,1.8,0,0,0,.588-.1,1.777,1.777,0,0,0-1.176-3.353Z" transform="translate(-12489.281 -1250.768)" fill="#148b91"/>
          <path id="Trazado_25467" data-name="Trazado 25467" d="M12496.137,1223.936a1.778,1.778,0,1,0,.562,2.451A1.78,1.78,0,0,0,12496.137,1223.936Z" transform="translate(-12492.681 -1220.107)" fill="#148b91"/>
          <path id="Trazado_25468" data-name="Trazado 25468" d="M12561.112,1218.987v0a1.776,1.776,0,1,0,2.514-2.511l-.007-.007-.013-.013a1.777,1.777,0,0,0-2.527,2.5C12561.09,1218.964,12561.1,1218.977,12561.112,1218.987Z" transform="translate(-12547.907 -1213.753)" fill="#148b91"/>
          <path id="Trazado_25469" data-name="Trazado 25469" d="M12575.031,1251.438a1.776,1.776,0,1,0-.395,3.531,1.516,1.516,0,0,0,.2.012,1.777,1.777,0,0,0,.2-3.543Z" transform="translate(-12558.169 -1242.935)" fill="#148b91"/>
          <path id="Trazado_25470" data-name="Trazado 25470" d="M12553.953,1283.475v0a1.777,1.777,0,1,0,2.451.554A1.774,1.774,0,0,0,12553.953,1283.477Z" transform="translate(-12541.778 -1269.064)" fill="#148b91"/>
          <path id="Trazado_25471" data-name="Trazado 25471" d="M12526.709,1203.656a1.777,1.777,0,0,0,.2,3.542,2.014,2.014,0,0,0,.2-.011,1.777,1.777,0,0,0-.405-3.531Z" transform="translate(-12518.763 -1203.644)" fill="#148b91"/>
          <path id="Trazado_25472" data-name="Trazado 25472" d="M12518.21,1287.539a1.777,1.777,0,1,0-1.167,3.357,1.8,1.8,0,0,0,.582.1,1.777,1.777,0,0,0,.585-3.454Z" transform="translate(-12511.127 -1272.549)" fill="#148b91"/>
        </g>
        <g id="Grupo_15010" data-name="Grupo 15010" transform="translate(254.288 185.727)">
          <path id="Trazado_25473" data-name="Trazado 25473" d="M12518.137,1631.936a1.778,1.778,0,1,0,.561,2.451A1.78,1.78,0,0,0,12518.137,1631.936Z" transform="translate(-12514.679 -1628.107)" fill="#148b91"/>
          <path id="Trazado_25474" data-name="Trazado 25474" d="M12583.111,1626.985v0a1.777,1.777,0,0,0,2.531-2.495.153.153,0,0,1-.016-.018l-.008-.005c0-.005-.01-.009-.012-.014a1.778,1.778,0,0,0-2.527,2.5A.281.281,0,0,1,12583.111,1626.985Z" transform="translate(-12569.906 -1621.751)" fill="#148b91"/>
          <path id="Trazado_25475" data-name="Trazado 25475" d="M12512.472,1669.053a1.777,1.777,0,1,0,2.264,1.087A1.776,1.776,0,0,0,12512.472,1669.053Z" transform="translate(-12511.281 -1658.768)" fill="#148b91"/>
          <path id="Trazado_25476" data-name="Trazado 25476" d="M12540.211,1695.533a1.778,1.778,0,1,0,1.094,2.262A1.777,1.777,0,0,0,12540.211,1695.533Z" transform="translate(-12533.128 -1680.545)" fill="#148b91"/>
          <path id="Trazado_25477" data-name="Trazado 25477" d="M12597.033,1659.437a1.775,1.775,0,0,0-1.963,1.568h0a1.778,1.778,0,0,0,1.568,1.964,1.537,1.537,0,0,0,.2.012,1.777,1.777,0,0,0,.2-3.543Z" transform="translate(-12580.17 -1650.935)" fill="#148b91"/>
          <path id="Trazado_25478" data-name="Trazado 25478" d="M12575.953,1691.475a1.777,1.777,0,0,0,.951,3.281,1.758,1.758,0,0,0,.945-.274,1.777,1.777,0,0,0-1.9-3.007Z" transform="translate(-12563.779 -1677.064)" fill="#148b91"/>
          <path id="Trazado_25479" data-name="Trazado 25479" d="M12548.71,1611.656a1.776,1.776,0,0,0,.2,3.542,2,2,0,0,0,.205-.011,1.777,1.777,0,0,0-.405-3.531Z" transform="translate(-12540.763 -1611.644)" fill="#148b91"/>
        </g>
        <g id="Grupo_15011" data-name="Grupo 15011" transform="translate(254.288 2.691)">
          <path id="Trazado_25480" data-name="Trazado 25480" d="M12512.472,639.053a1.777,1.777,0,1,0,2.264,1.088A1.775,1.775,0,0,0,12512.472,639.053Z" transform="translate(-12511.281 -628.768)" fill="#148b91"/>
          <path id="Trazado_25481" data-name="Trazado 25481" d="M12583.105,596.976s.006.005.006.009a1.778,1.778,0,1,0,2.516-2.515l-.008-.005c0-.005-.01-.009-.012-.014a1.777,1.777,0,1,0-2.506,2.522Z" transform="translate(-12569.907 -591.751)" fill="#148b91"/>
          <path id="Trazado_25482" data-name="Trazado 25482" d="M12597.033,629.439a1.777,1.777,0,0,0-1.963,1.569h0a1.777,1.777,0,0,0,1.568,1.962,1.547,1.547,0,0,0,.2.012,1.777,1.777,0,0,0,.2-3.543Z" transform="translate(-12580.17 -620.936)" fill="#148b91"/>
          <path id="Trazado_25483" data-name="Trazado 25483" d="M12518.137,601.934a1.778,1.778,0,1,0,.561,2.451A1.779,1.779,0,0,0,12518.137,601.934Z" transform="translate(-12514.679 -598.105)" fill="#148b91"/>
          <path id="Trazado_25484" data-name="Trazado 25484" d="M12540.211,665.539a1.777,1.777,0,1,0,1.094,2.262A1.774,1.774,0,0,0,12540.211,665.539Z" transform="translate(-12533.128 -650.549)" fill="#148b91"/>
          <path id="Trazado_25485" data-name="Trazado 25485" d="M12575.953,661.479a1.777,1.777,0,1,0,2.451.555A1.776,1.776,0,0,0,12575.953,661.479Z" transform="translate(-12563.779 -647.066)" fill="#148b91"/>
          <path id="Trazado_25486" data-name="Trazado 25486" d="M12548.71,581.656a1.776,1.776,0,0,0,.2,3.542,2.037,2.037,0,0,0,.206-.011,1.777,1.777,0,0,0-.405-3.531Z" transform="translate(-12540.763 -581.644)" fill="#148b91"/>
        </g>
        <g id="Grupo_15012" data-name="Grupo 15012" transform="translate(161.704 6.956)">
          <path id="Trazado_25487" data-name="Trazado 25487" d="M12019.21,689.539h0a1.778,1.778,0,1,0,1.094,2.262A1.775,1.775,0,0,0,12019.212,689.539Z" transform="translate(-12012.128 -674.549)" fill="#148b91"/>
          <path id="Trazado_25488" data-name="Trazado 25488" d="M11997.138,625.936a1.778,1.778,0,1,0,.562,2.451A1.777,1.777,0,0,0,11997.138,625.936Z" transform="translate(-11993.682 -622.107)" fill="#148b91"/>
          <path id="Trazado_25489" data-name="Trazado 25489" d="M12062.126,621a1.777,1.777,0,0,0,2.5-2.529l-.007-.005-.013-.014a1.778,1.778,0,0,0-2.508,2.522A.265.265,0,0,1,12062.126,621Z" transform="translate(-12048.905 -615.752)" fill="#148b91"/>
          <path id="Trazado_25490" data-name="Trazado 25490" d="M11991.471,663.053a1.777,1.777,0,1,0,2.265,1.088A1.775,1.775,0,0,0,11991.471,663.053Z" transform="translate(-11990.281 -652.768)" fill="#148b91"/>
          <path id="Trazado_25491" data-name="Trazado 25491" d="M12027.71,605.656a1.776,1.776,0,0,0,.2,3.542,1.959,1.959,0,0,0,.205-.011h0a1.777,1.777,0,0,0-.4-3.531Z" transform="translate(-12019.763 -605.644)" fill="#148b91"/>
          <path id="Trazado_25492" data-name="Trazado 25492" d="M12076.032,653.437a1.776,1.776,0,1,0-.395,3.531,1.95,1.95,0,0,0,.2.012,1.777,1.777,0,0,0,.193-3.543Z" transform="translate(-12059.171 -644.935)" fill="#148b91"/>
          <path id="Trazado_25493" data-name="Trazado 25493" d="M12054.955,685.479h0a1.778,1.778,0,0,0,.951,3.28,1.754,1.754,0,0,0,.944-.275,1.776,1.776,0,1,0-1.894-3.005Z" transform="translate(-12042.779 -671.066)" fill="#148b91"/>
        </g>
        <g id="Grupo_15013" data-name="Grupo 15013" transform="translate(63.967 25.615)">
          <path id="Trazado_25494" data-name="Trazado 25494" d="M11526.032,758.437a1.776,1.776,0,1,0-.395,3.531,1.511,1.511,0,0,0,.2.012,1.777,1.777,0,0,0,.2-3.543Z" transform="translate(-11509.17 -749.935)" fill="#148b91"/>
          <path id="Trazado_25495" data-name="Trazado 25495" d="M11441.471,768.053a1.777,1.777,0,0,0,.589,3.455,1.78,1.78,0,0,0,1.676-2.367A1.775,1.775,0,0,0,11441.471,768.053Z" transform="translate(-11440.28 -757.768)" fill="#148b91"/>
          <path id="Trazado_25496" data-name="Trazado 25496" d="M11512.1,725.978l.008.007a1.777,1.777,0,0,0,2.515-2.513l-.008-.005-.012-.012a1.777,1.777,0,0,0-2.507,2.52Z" transform="translate(-11498.907 -720.753)" fill="#148b91"/>
          <path id="Trazado_25497" data-name="Trazado 25497" d="M11447.139,730.936a1.778,1.778,0,1,0,.562,2.451A1.778,1.778,0,0,0,11447.139,730.936Z" transform="translate(-11443.682 -727.107)" fill="#148b91"/>
          <path id="Trazado_25498" data-name="Trazado 25498" d="M11469.211,794.539a1.777,1.777,0,0,0-1.167,3.357,1.8,1.8,0,0,0,.582.1,1.776,1.776,0,0,0,.585-3.455Z" transform="translate(-11462.128 -779.549)" fill="#148b91"/>
          <path id="Trazado_25499" data-name="Trazado 25499" d="M11504.953,790.475v0a1.778,1.778,0,0,0,.951,3.28,1.753,1.753,0,0,0,.944-.275,1.777,1.777,0,1,0-1.9-3.007Z" transform="translate(-11492.779 -776.064)" fill="#148b91"/>
          <path id="Trazado_25500" data-name="Trazado 25500" d="M11477.708,710.656a1.777,1.777,0,0,0,.2,3.542,2.037,2.037,0,0,0,.206-.011,1.777,1.777,0,0,0-.405-3.531Z" transform="translate(-11469.761 -710.644)" fill="#148b91"/>
        </g>
        <g id="Grupo_15014" data-name="Grupo 15014" transform="translate(3.547 25.615)">
          <path id="Trazado_25501" data-name="Trazado 25501" d="M11107.139,730.936a1.777,1.777,0,0,0-1.887,3.012,1.754,1.754,0,0,0,.941.272,1.778,1.778,0,0,0,.945-3.284Z" transform="translate(-11103.682 -727.107)" fill="#148b91"/>
          <path id="Trazado_25502" data-name="Trazado 25502" d="M11129.211,794.539a1.777,1.777,0,0,0-1.167,3.357,1.8,1.8,0,0,0,.583.1,1.776,1.776,0,0,0,.584-3.455Z" transform="translate(-11122.128 -779.549)" fill="#148b91"/>
          <path id="Trazado_25503" data-name="Trazado 25503" d="M11172.109,725.985a1.778,1.778,0,1,0,2.515-2.515l-.008-.005a.075.075,0,0,1-.012-.014,1.778,1.778,0,0,0-2.508,2.522A.04.04,0,0,1,11172.109,725.985Z" transform="translate(-11158.904 -720.751)" fill="#148b91"/>
          <path id="Trazado_25504" data-name="Trazado 25504" d="M11101.471,768.053a1.777,1.777,0,0,0,.589,3.455,1.8,1.8,0,0,0,.588-.1,1.777,1.777,0,0,0-1.177-3.353Z" transform="translate(-11100.28 -757.768)" fill="#148b91"/>
          <path id="Trazado_25505" data-name="Trazado 25505" d="M11137.709,710.656a1.777,1.777,0,0,0,.2,3.542,2.018,2.018,0,0,0,.205-.011,1.777,1.777,0,0,0-.405-3.531Z" transform="translate(-11129.762 -710.644)" fill="#148b91"/>
          <path id="Trazado_25506" data-name="Trazado 25506" d="M11186.031,758.439a1.776,1.776,0,1,0-.395,3.531,1.934,1.934,0,0,0,.2.012,1.777,1.777,0,0,0,.193-3.543Z" transform="translate(-11169.17 -749.936)" fill="#148b91"/>
          <path id="Trazado_25507" data-name="Trazado 25507" d="M11164.953,790.475a1.777,1.777,0,0,0,.95,3.28,1.755,1.755,0,0,0,.945-.274,1.777,1.777,0,1,0-1.9-3.007Z" transform="translate(-11152.779 -776.064)" fill="#148b91"/>
        </g>
        <g id="Grupo_15015" data-name="Grupo 15015" transform="translate(48.506 159.071)">
          <path id="Trazado_25508" data-name="Trazado 25508" d="M11360.139,1481.936a1.778,1.778,0,1,0,.562,2.45A1.778,1.778,0,0,0,11360.139,1481.936Z" transform="translate(-11356.683 -1478.107)" fill="#148b91"/>
          <path id="Trazado_25509" data-name="Trazado 25509" d="M11354.472,1519.053a1.777,1.777,0,1,0,2.264,1.088A1.776,1.776,0,0,0,11354.472,1519.053Z" transform="translate(-11353.281 -1508.768)" fill="#148b91"/>
          <path id="Trazado_25510" data-name="Trazado 25510" d="M11425.111,1476.985a1.778,1.778,0,0,0,2.516-2.515.1.1,0,0,1-.02-.02,1.777,1.777,0,1,0-2.506,2.522A.074.074,0,0,1,11425.111,1476.985Z" transform="translate(-11411.906 -1471.751)" fill="#148b91"/>
          <path id="Trazado_25511" data-name="Trazado 25511" d="M11382.211,1545.539a1.777,1.777,0,0,0-1.168,3.357,1.756,1.756,0,0,0,.584.1,1.777,1.777,0,0,0,.584-3.454Z" transform="translate(-11375.128 -1530.549)" fill="#148b91"/>
          <path id="Trazado_25512" data-name="Trazado 25512" d="M11439.032,1509.439a1.777,1.777,0,1,0-.4,3.531,1.537,1.537,0,0,0,.2.012,1.777,1.777,0,0,0,.2-3.543Z" transform="translate(-11422.169 -1500.936)" fill="#148b91"/>
          <path id="Trazado_25513" data-name="Trazado 25513" d="M11390.71,1461.656a1.776,1.776,0,0,0,.2,3.542,2,2,0,0,0,.206-.011,1.777,1.777,0,0,0-.405-3.531Z" transform="translate(-11382.763 -1461.644)" fill="#148b91"/>
          <path id="Trazado_25514" data-name="Trazado 25514" d="M11417.953,1541.475a1.777,1.777,0,0,0,.951,3.28,1.776,1.776,0,0,0,1.5-2.724A1.777,1.777,0,0,0,11417.953,1541.475Z" transform="translate(-11405.779 -1527.064)" fill="#148b91"/>
        </g>
        <g id="Grupo_15016" data-name="Grupo 15016" transform="translate(3.547 195.323)">
          <path id="Trazado_25515" data-name="Trazado 25515" d="M11101.471,1723.053a1.778,1.778,0,0,0,.589,3.455,1.8,1.8,0,0,0,.588-.1,1.777,1.777,0,0,0-1.177-3.353Z" transform="translate(-11100.28 -1712.768)" fill="#148b91"/>
          <path id="Trazado_25516" data-name="Trazado 25516" d="M11172.109,1680.985a1.778,1.778,0,0,0,2.515-2.515l-.008-.005a.075.075,0,0,1-.012-.014,1.778,1.778,0,0,0-2.508,2.522A.041.041,0,0,1,11172.109,1680.985Z" transform="translate(-11158.904 -1675.751)" fill="#148b91"/>
          <path id="Trazado_25517" data-name="Trazado 25517" d="M11107.139,1685.936a1.778,1.778,0,1,0,.562,2.451A1.779,1.779,0,0,0,11107.139,1685.936Z" transform="translate(-11103.682 -1682.107)" fill="#148b91"/>
          <path id="Trazado_25518" data-name="Trazado 25518" d="M11186.031,1713.437a1.776,1.776,0,1,0-.395,3.531,1.537,1.537,0,0,0,.2.012,1.777,1.777,0,0,0,.2-3.543Z" transform="translate(-11169.17 -1704.935)" fill="#148b91"/>
          <path id="Trazado_25519" data-name="Trazado 25519" d="M11164.953,1745.475v0a1.776,1.776,0,1,0,2.452.554A1.775,1.775,0,0,0,11164.953,1745.477Z" transform="translate(-11152.779 -1731.064)" fill="#148b91"/>
          <path id="Trazado_25520" data-name="Trazado 25520" d="M11129.211,1749.539a1.777,1.777,0,0,0-1.167,3.357,1.8,1.8,0,0,0,.583.1,1.777,1.777,0,0,0,.584-3.455Z" transform="translate(-11122.128 -1734.549)" fill="#148b91"/>
          <path id="Trazado_25521" data-name="Trazado 25521" d="M11137.709,1665.656a1.776,1.776,0,0,0,.2,3.542,2.018,2.018,0,0,0,.205-.011,1.777,1.777,0,0,0-.405-3.531Z" transform="translate(-11129.762 -1665.644)" fill="#148b91"/>
        </g>
        <g id="Grupo_15019" data-name="Grupo 15019" transform="translate(267.513 73.392)">
          <g id="Grupo_15017" data-name="Grupo 15017" transform="translate(4.176)">
            <path id="Trazado_25522" data-name="Trazado 25522" d="M12610.536,979.5a1.333,1.333,0,0,0-1.333,1.333v8.53a1.333,1.333,0,0,0,2.666,0v-8.53A1.333,1.333,0,0,0,12610.536,979.5Z" transform="translate(-12609.203 -979.5)" fill="#148b91"/>
          </g>
          <g id="Grupo_15018" data-name="Grupo 15018" transform="translate(0 4.354)">
            <path id="Trazado_25523" data-name="Trazado 25523" d="M12595.565,1004h-8.529a1.333,1.333,0,1,0,0,2.666h8.529a1.333,1.333,0,1,0,0-2.666Z" transform="translate(-12585.703 -1004)" fill="#148b91"/>
          </g>
        </g>
        <g id="Grupo_15022" data-name="Grupo 15022" transform="translate(106.868 6.575)">
          <g id="Grupo_15020" data-name="Grupo 15020" transform="translate(4.176)">
            <path id="Trazado_25524" data-name="Trazado 25524" d="M11706.536,603.5a1.332,1.332,0,0,0-1.333,1.333v8.53a1.333,1.333,0,1,0,2.665,0v-8.53A1.332,1.332,0,0,0,11706.536,603.5Z" transform="translate(-11705.203 -603.5)" fill="#148b91"/>
          </g>
          <g id="Grupo_15021" data-name="Grupo 15021" transform="translate(0 4.354)">
            <path id="Trazado_25525" data-name="Trazado 25525" d="M11691.564,628h-8.529a1.333,1.333,0,1,0,0,2.666h8.529a1.333,1.333,0,1,0,0-2.666Z" transform="translate(-11681.702 -628)" fill="#148b91"/>
          </g>
        </g>
        <g id="Grupo_15025" data-name="Grupo 15025" transform="translate(6.998 159.401)">
          <g id="Grupo_15023" data-name="Grupo 15023" transform="translate(4.176)">
            <path id="Trazado_25526" data-name="Trazado 25526" d="M11144.536,1463.5a1.333,1.333,0,0,0-1.333,1.333v8.53a1.333,1.333,0,0,0,2.666,0v-8.53A1.334,1.334,0,0,0,11144.536,1463.5Z" transform="translate(-11143.203 -1463.5)" fill="#148b91"/>
          </g>
          <g id="Grupo_15024" data-name="Grupo 15024" transform="translate(0 4.354)">
            <path id="Trazado_25527" data-name="Trazado 25527" d="M11129.566,1488h-8.53a1.333,1.333,0,1,0,0,2.666h8.53a1.333,1.333,0,0,0,0-2.666Z" transform="translate(-11119.703 -1488)" fill="#148b91"/>
          </g>
        </g>
        <g id="Grupo_15028" data-name="Grupo 15028" transform="translate(208.515 0)">
          <g id="Grupo_15026" data-name="Grupo 15026" transform="translate(4.176)">
            <path id="Trazado_25528" data-name="Trazado 25528" d="M12278.535,566.5a1.333,1.333,0,0,0-1.333,1.333v8.53a1.333,1.333,0,0,0,2.666,0v-8.53A1.333,1.333,0,0,0,12278.535,566.5Z" transform="translate(-12277.202 -566.5)" fill="#148b91"/>
          </g>
          <g id="Grupo_15027" data-name="Grupo 15027" transform="translate(0 4.354)">
            <path id="Trazado_25529" data-name="Trazado 25529" d="M12263.566,591h-8.531a1.333,1.333,0,0,0,0,2.666h8.531a1.333,1.333,0,0,0,0-2.666Z" transform="translate(-12253.703 -591)" fill="#148b91"/>
          </g>
        </g>
        <g id="Grupo_15031" data-name="Grupo 15031" transform="translate(23.703 2.31)">
          <g id="Grupo_15029" data-name="Grupo 15029" transform="translate(4.176)">
            <path id="Trazado_25530" data-name="Trazado 25530" d="M11238.535,579.5a1.332,1.332,0,0,0-1.332,1.333v8.53a1.333,1.333,0,1,0,2.665,0v-8.53A1.333,1.333,0,0,0,11238.535,579.5Z" transform="translate(-11237.203 -579.5)" fill="#148b91"/>
          </g>
          <g id="Grupo_15030" data-name="Grupo 15030" transform="translate(0 4.354)">
            <path id="Trazado_25531" data-name="Trazado 25531" d="M11223.564,604h-8.529a1.333,1.333,0,1,0,0,2.666h8.529a1.333,1.333,0,1,0,0-2.666Z" transform="translate(-11213.702 -604)" fill="#148b91"/>
          </g>
        </g>
        <g id="Grupo_15034" data-name="Grupo 15034" transform="translate(258.806 156.025)">
          <g id="Grupo_15032" data-name="Grupo 15032" transform="translate(4.176)">
            <path id="Trazado_25532" data-name="Trazado 25532" d="M12561.536,1444.5a1.333,1.333,0,0,0-1.333,1.333v8.53a1.333,1.333,0,0,0,2.666,0v-8.53A1.333,1.333,0,0,0,12561.536,1444.5Z" transform="translate(-12560.203 -1444.5)" fill="#148b91"/>
          </g>
          <g id="Grupo_15033" data-name="Grupo 15033" transform="translate(0 4.354)">
            <path id="Trazado_25533" data-name="Trazado 25533" d="M12546.566,1469h-8.53a1.333,1.333,0,1,0,0,2.666h8.53a1.333,1.333,0,0,0,0-2.666Z" transform="translate(-12536.703 -1469)" fill="#148b91"/>
          </g>
        </g>
        <g id="Grupo_15049" data-name="Grupo 15049" transform="translate(0 51.929)">
          <g id="Grupo_15047" data-name="Grupo 15047" transform="translate(7.468)">
            <g id="Grupo_15042" data-name="Grupo 15042">
              <g id="Grupo_15040" data-name="Grupo 15040" transform="translate(14.795)">
                <g id="Grupo_15035" data-name="Grupo 15035" transform="translate(6.762 41.653)">
                  <path id="Trazado_25534" data-name="Trazado 25534" d="M11249.355,1093.131a1.134,1.134,0,0,0-.948,1.294c1.494,9.678-2.87,13.4-4.243,14.309a1.134,1.134,0,1,0,1.252,1.891c1.657-1.1,6.933-5.536,5.233-16.546A1.135,1.135,0,0,0,11249.355,1093.131Z" transform="translate(-11243.656 -1093.118)" fill="#148b91"/>
                </g>
                <g id="Grupo_15036" data-name="Grupo 15036" transform="translate(28.291 42.009)">
                  <path id="Trazado_25535" data-name="Trazado 25535" d="M11372.307,1110.378c-1.945-1.289-6.324-5.228-4.977-13.953a1.134,1.134,0,1,0-2.241-.346c-1.548,10.021,3.656,14.661,5.965,16.19a1.134,1.134,0,1,0,1.253-1.891Z" transform="translate(-11364.806 -1095.118)" fill="#148b91"/>
                </g>
                <g id="Grupo_15037" data-name="Grupo 15037">
                  <path id="Trazado_25536" data-name="Trazado 25536" d="M11236.669,860.236a9.847,9.847,0,0,0-6.6-1.455,1.134,1.134,0,0,0-.935,1.588l.055.123c.252.571.474,1.073.676,1.519-3.185-1.457-7.845-3.3-11.147-2.759a1.133,1.133,0,0,0-.743,1.771,15.237,15.237,0,0,1,2.053,4.1,8.936,8.936,0,0,0-4.164-.649,13.543,13.543,0,0,0-9.983,6.43,1.134,1.134,0,0,0,1.354,1.68,26.547,26.547,0,0,1,3.753-1.217c-4.141,3.346-5.868,6.457-5.271,9.463a1.133,1.133,0,0,0,1.333.891c3.651-.725,4.14.618,4.348,1.192a1.135,1.135,0,0,0,2.06.161,12.519,12.519,0,0,1,5.5-5.558,18.537,18.537,0,0,0-1.745,5.413,1.134,1.134,0,0,0,1.29,1.331c7.627-1.192,12.878-3.556,15.981-7.208a19.8,19.8,0,0,0,6.6,6.252,1.134,1.134,0,0,0,1.176-1.94,17.81,17.81,0,0,1-6.274-6.157c-.178-.27-.345-.525-.512-.765a1.121,1.121,0,0,0-.944-.487,1.137,1.137,0,0,0-.935.51c-2.355,3.58-6.881,5.966-13.8,7.271a9.466,9.466,0,0,1,3.036-5.412,1.135,1.135,0,0,0-.849-2.015,13.119,13.119,0,0,0-9.554,6.1,5.577,5.577,0,0,0-4.528-1.112c.237-2.285,2.523-4.928,6.82-7.876a1.134,1.134,0,0,0-.047-1.9,5.7,5.7,0,0,0-4.279-.343,10.029,10.029,0,0,1,5.641-2.444,5.866,5.866,0,0,1,4.9,1.746,1.134,1.134,0,0,0,1.972-.91,17.75,17.75,0,0,0-1.982-6.1c3.344.353,7.764,2.473,9.849,3.473.427.2.764.367,1.017.478a1.352,1.352,0,0,0,1.766-.238,1.165,1.165,0,0,0-.127-1.52,9.7,9.7,0,0,1-1.523-2.66,6.937,6.937,0,0,1,3.53,1.133,19.646,19.646,0,0,1,8.219,13.4,14.1,14.1,0,0,1-2.841,11.354,1.134,1.134,0,0,0,1.728,1.47,16.325,16.325,0,0,0,3.358-13.148A21.974,21.974,0,0,0,11236.669,860.236Z" transform="translate(-11205.602 -858.721)" fill="#148b91"/>
                </g>
                <g id="Grupo_15038" data-name="Grupo 15038" transform="translate(18.597 13.363)">
                  <path id="Trazado_25537" data-name="Trazado 25537" d="M11316.177,934.107a1.135,1.135,0,0,0-1.571.325,19.428,19.428,0,0,1-3.936,4,1.134,1.134,0,0,0,1.431,1.76,21.259,21.259,0,0,0,4.4-4.517A1.135,1.135,0,0,0,11316.177,934.107Z" transform="translate(-11310.251 -933.921)" fill="#148b91"/>
                </g>
                <g id="Grupo_15039" data-name="Grupo 15039" transform="translate(5.979 22.228)">
                  <path id="Trazado_25538" data-name="Trazado 25538" d="M11268.472,983.807a1.134,1.134,0,0,0-1.134,1.134v8.045a12.911,12.911,0,1,1-25.822,0v-8.045a1.134,1.134,0,1,0-2.268,0v8.045a15.179,15.179,0,1,0,30.358,0v-8.045A1.135,1.135,0,0,0,11268.472,983.807Z" transform="translate(-11239.248 -983.807)" fill="#148b91"/>
                </g>
              </g>
              <g id="Grupo_15041" data-name="Grupo 15041" transform="translate(0 57.203)">
                <path id="Trazado_25539" data-name="Trazado 25539" d="M11178.371,1180.618H11170a1.127,1.127,0,0,0-.322.047c-2.285.677-4.213,3.538-6.254,6.568-1.66,2.465-3.727,5.533-5.141,5.558h-.027c-1.75,0-4.008-3.069-6-5.779-2.129-2.894-4.139-5.628-6.426-6.343a1.13,1.13,0,0,0-.338-.052h-10.076a13.087,13.087,0,0,0-13.072,13.072v7.52a1.134,1.134,0,1,0,2.268,0v-7.52a10.817,10.817,0,0,1,10.8-10.8h9.885c1.547.6,3.365,3.074,5.129,5.47,2.533,3.447,4.928,6.7,7.826,6.7h.068c2.6-.046,4.727-3.209,6.982-6.558,1.6-2.371,3.4-5.049,4.877-5.614h8.186a10.817,10.817,0,0,1,10.8,10.8v12.5a1.134,1.134,0,1,0,2.268,0v-12.5A13.088,13.088,0,0,0,11178.371,1180.618Z" transform="translate(-11122.346 -1180.618)" fill="#148b91"/>
              </g>
            </g>
            <g id="Grupo_15045" data-name="Grupo 15045" transform="translate(26.662 26.549)">
              <g id="Grupo_15043" data-name="Grupo 15043">
                <path id="Trazado_25540" data-name="Trazado 25540" d="M11277.525,1008.435c-1.16,1.117-2.064,1.117-3.225,0a1.134,1.134,0,1,0-1.572,1.634,4.2,4.2,0,0,0,6.371,0,1.134,1.134,0,0,0-1.574-1.634Z" transform="translate(-11272.38 -1008.118)" fill="#148b91"/>
              </g>
              <g id="Grupo_15044" data-name="Grupo 15044" transform="translate(11.551)">
                <path id="Trazado_25541" data-name="Trazado 25541" d="M11342.525,1008.435c-1.16,1.117-2.064,1.117-3.225,0a1.134,1.134,0,1,0-1.573,1.634,4.2,4.2,0,0,0,6.371,0,1.134,1.134,0,1,0-1.573-1.634Z" transform="translate(-11337.38 -1008.118)" fill="#148b91"/>
              </g>
            </g>
            <g id="Grupo_15046" data-name="Grupo 15046" transform="translate(30.838 37.744)">
              <path id="Trazado_25542" data-name="Trazado 25542" d="M11304.476,1071.25a6.9,6.9,0,0,1-6.93,0,1.134,1.134,0,1,0-1.066,2,9.138,9.138,0,0,0,9.063,0,1.134,1.134,0,0,0-1.067-2Z" transform="translate(-11295.878 -1071.116)" fill="#148b91"/>
            </g>
          </g>
          <g id="Grupo_15048" data-name="Grupo 15048" transform="translate(0 12.646)">
            <path id="Trazado_25543" data-name="Trazado 25543" d="M11142.463,930.6a1.134,1.134,0,0,0-.933,2.067,41.781,41.781,0,1,1-32.92-.6,1.134,1.134,0,1,0-.855-2.1,44.051,44.051,0,1,0,34.708.634Z" transform="translate(-11080.321 -929.886)" fill="#148b91"/>
          </g>
        </g>
        <g id="Grupo_15050" data-name="Grupo 15050" transform="translate(42.294 122.015)">
          <path id="Trazado_25544" data-name="Trazado 25544" d="M11319.455,1253.118a1.134,1.134,0,0,0-1.135,1.134v25.228a1.135,1.135,0,0,0,2.27,0v-25.228A1.136,1.136,0,0,0,11319.455,1253.118Z" transform="translate(-11318.32 -1253.118)" fill="#148b91"/>
        </g>
        <g id="Grupo_15105" data-name="Grupo 15105" transform="translate(79.612 31.564)">
          <g id="Grupo_15051" data-name="Grupo 15051">
            <path id="Trazado_25545" data-name="Trazado 25545" d="M11701.289,744.118h-142.331a11.815,11.815,0,0,0-11.8,11.8v10.9l-18.577,22.493a1.134,1.134,0,0,0,1.343,1.755l17.356-7.864a11.822,11.822,0,0,0,11.68,10.1h1.291a1.134,1.134,0,1,0,0-2.268h-1.291a9.544,9.544,0,0,1-9.533-9.533,1.134,1.134,0,0,0-1.6-1.033l-14.375,6.513,15.717-19.031a1.134,1.134,0,0,0,.26-.722V755.919a9.544,9.544,0,0,1,9.533-9.533h142.331a9.544,9.544,0,0,1,9.533,9.533V781.5a9.544,9.544,0,0,1-9.533,9.533h-6.694a1.134,1.134,0,0,0,0,2.268h6.694a11.815,11.815,0,0,0,11.8-11.8V755.919A11.815,11.815,0,0,0,11701.289,744.118Z" transform="translate(-11528.319 -744.118)" fill="#148b91"/>
          </g>
          <g id="Grupo_15052" data-name="Grupo 15052" transform="translate(31.809 15.105)">
            <path id="Trazado_25546" data-name="Trazado 25546" d="M11834.271,829.118h-125.814a1.134,1.134,0,0,0-1.134,1.134v176.638a1.134,1.134,0,0,0,1.134,1.134h125.814a1.135,1.135,0,0,0,1.135-1.134V830.252A1.135,1.135,0,0,0,11834.271,829.118Zm-1.134,176.639h-123.546V831.386h123.546Z" transform="translate(-11707.322 -829.118)" fill="#148b91"/>
          </g>
          <g id="Grupo_15053" data-name="Grupo 15053" transform="translate(35.719 7.641)">
            <path id="Trazado_25547" data-name="Trazado 25547" d="M11859.113,787.118h-128.658a1.134,1.134,0,0,0,0,2.268h127.524V966.312a1.134,1.134,0,1,0,2.268,0V788.252A1.134,1.134,0,0,0,11859.113,787.118Z" transform="translate(-11729.321 -787.118)" fill="#148b91"/>
          </g>
          <g id="Grupo_15054" data-name="Grupo 15054" transform="translate(42.472 27.544)">
            <path id="Trazado_25548" data-name="Trazado 25548" d="M11803.641,899.118h-35.186a1.134,1.134,0,0,0-1.134,1.134v35.186a1.134,1.134,0,0,0,1.134,1.134h35.186a1.134,1.134,0,0,0,1.134-1.134V900.252A1.134,1.134,0,0,0,11803.641,899.118Zm-1.134,35.186h-32.918V901.386h32.918Z" transform="translate(-11767.321 -899.118)" fill="#148b91"/>
          </g>
          <g id="Grupo_15055" data-name="Grupo 15055" transform="translate(44.426 23.457)">
            <path id="Trazado_25549" data-name="Trazado 25549" d="M11816.951,876.118h-37.5a1.134,1.134,0,0,0,0,2.268h36.362v34.407a1.134,1.134,0,0,0,2.269,0V877.252A1.135,1.135,0,0,0,11816.951,876.118Z" transform="translate(-11778.32 -876.118)" fill="#148b91"/>
          </g>
          <g id="Grupo_15059" data-name="Grupo 15059" transform="translate(94.717 31.454)">
            <g id="Grupo_15056" data-name="Grupo 15056">
              <path id="Trazado_25550" data-name="Trazado 25550" d="M12070.629,921.118h-8.174a1.134,1.134,0,1,0,0,2.268h8.174a1.134,1.134,0,0,0,0-2.268Z" transform="translate(-12061.32 -921.118)" fill="#148b91"/>
            </g>
            <g id="Grupo_15057" data-name="Grupo 15057" transform="translate(18.304)">
              <path id="Trazado_25551" data-name="Trazado 25551" d="M12181.8,921.118h-16.35a1.134,1.134,0,0,0,0,2.268h16.35a1.134,1.134,0,0,0,0-2.268Z" transform="translate(-12164.321 -921.118)" fill="#148b91"/>
            </g>
            <g id="Grupo_15058" data-name="Grupo 15058" transform="translate(41.583)">
              <path id="Trazado_25552" data-name="Trazado 25552" d="M12301.431,921.118h-4.976a1.134,1.134,0,0,0,0,2.268h4.976a1.134,1.134,0,0,0,0-2.268Z" transform="translate(-12295.321 -921.118)" fill="#148b91"/>
            </g>
          </g>
          <g id="Grupo_15062" data-name="Grupo 15062" transform="translate(94.717 38.088)">
            <g id="Grupo_15060" data-name="Grupo 15060" transform="translate(30.565)">
              <path id="Trazado_25553" data-name="Trazado 25553" d="M12250.448,958.452h-15.993a1.134,1.134,0,0,0,0,2.268h15.993a1.134,1.134,0,1,0,0-2.268Z" transform="translate(-12233.321 -958.452)" fill="#148b91"/>
            </g>
            <g id="Grupo_15061" data-name="Grupo 15061">
              <path id="Trazado_25554" data-name="Trazado 25554" d="M12085.023,958.452h-22.568a1.134,1.134,0,1,0,0,2.268h22.568a1.134,1.134,0,0,0,0-2.268Z" transform="translate(-12061.32 -958.452)" fill="#148b91"/>
            </g>
          </g>
          <g id="Grupo_15066" data-name="Grupo 15066" transform="translate(94.717 44.722)">
            <g id="Grupo_15063" data-name="Grupo 15063">
              <path id="Trazado_25555" data-name="Trazado 25555" d="M12070.629,995.785h-8.174a1.134,1.134,0,1,0,0,2.268h8.174a1.134,1.134,0,0,0,0-2.268Z" transform="translate(-12061.32 -995.785)" fill="#148b91"/>
            </g>
            <g id="Grupo_15064" data-name="Grupo 15064" transform="translate(18.304)">
              <path id="Trazado_25556" data-name="Trazado 25556" d="M12181.8,995.785h-16.35a1.134,1.134,0,0,0,0,2.268h16.35a1.134,1.134,0,0,0,0-2.268Z" transform="translate(-12164.321 -995.785)" fill="#148b91"/>
            </g>
            <g id="Grupo_15065" data-name="Grupo 15065" transform="translate(41.583)">
              <path id="Trazado_25557" data-name="Trazado 25557" d="M12301.431,995.785h-4.976a1.134,1.134,0,0,0,0,2.268h4.976a1.134,1.134,0,0,0,0-2.268Z" transform="translate(-12295.321 -995.785)" fill="#148b91"/>
            </g>
          </g>
          <g id="Grupo_15069" data-name="Grupo 15069" transform="translate(94.717 51.357)">
            <g id="Grupo_15067" data-name="Grupo 15067" transform="translate(30.565)">
              <path id="Trazado_25558" data-name="Trazado 25558" d="M12250.448,1033.118h-15.993a1.134,1.134,0,0,0,0,2.268h15.993a1.134,1.134,0,1,0,0-2.268Z" transform="translate(-12233.321 -1033.118)" fill="#148b91"/>
            </g>
            <g id="Grupo_15068" data-name="Grupo 15068">
              <path id="Trazado_25559" data-name="Trazado 25559" d="M12085.023,1033.118h-22.568a1.134,1.134,0,1,0,0,2.268h22.568a1.134,1.134,0,0,0,0-2.268Z" transform="translate(-12061.32 -1033.118)" fill="#148b91"/>
            </g>
          </g>
          <g id="Grupo_15070" data-name="Grupo 15070" transform="translate(31.809 79.015)">
            <path id="Trazado_25560" data-name="Trazado 25560" d="M11733.513,1188.758h-25.057a1.134,1.134,0,0,0,0,2.268h25.057a1.134,1.134,0,0,0,0-2.268Z" transform="translate(-11707.322 -1188.758)" fill="#148b91"/>
          </g>
          <g id="Grupo_15071" data-name="Grupo 15071" transform="translate(64.922 79.079)">
            <path id="Trazado_25561" data-name="Trazado 25561" d="M11919.845,1189.118h-25.057a1.134,1.134,0,0,0,0,2.268h25.057a1.134,1.134,0,1,0,0-2.268Z" transform="translate(-11893.654 -1189.118)" fill="#148b91"/>
          </g>
          <g id="Grupo_15072" data-name="Grupo 15072" transform="translate(98.034 79.079)">
            <path id="Trazado_25562" data-name="Trazado 25562" d="M12106.179,1189.118h-25.057a1.134,1.134,0,0,0,0,2.268h25.057a1.134,1.134,0,0,0,0-2.268Z" transform="translate(-12079.988 -1189.118)" fill="#148b91"/>
          </g>
          <g id="Grupo_15073" data-name="Grupo 15073" transform="translate(131.146 79.079)">
            <path id="Trazado_25563" data-name="Trazado 25563" d="M12292.512,1189.118h-25.057a1.134,1.134,0,0,0,0,2.268h25.057a1.134,1.134,0,0,0,0-2.268Z" transform="translate(-12266.321 -1189.118)" fill="#148b91"/>
          </g>
          <g id="Grupo_15074" data-name="Grupo 15074" transform="translate(40.872 88.142)">
            <path id="Trazado_25564" data-name="Trazado 25564" d="M11790.021,1240.118h-30.565a1.134,1.134,0,0,0-1.134,1.134v95.427a1.134,1.134,0,0,0,1.134,1.134h30.565a1.134,1.134,0,0,0,1.134-1.134v-95.427A1.134,1.134,0,0,0,11790.021,1240.118Zm-1.134,95.427h-28.3v-93.159h28.3Z" transform="translate(-11758.321 -1240.118)" fill="#148b91"/>
          </g>
          <g id="Grupo_15075" data-name="Grupo 15075" transform="translate(81.922 92.051)">
            <path id="Trazado_25565" data-name="Trazado 25565" d="M12052.3,1262.118h-61.841a1.134,1.134,0,0,0-1.135,1.134v11.373a1.134,1.134,0,0,0,1.135,1.134h61.841a1.134,1.134,0,0,0,1.134-1.134v-11.373A1.134,1.134,0,0,0,12052.3,1262.118Zm-1.134,11.373h-59.573v-9.1h59.573Z" transform="translate(-11989.32 -1262.118)" fill="#148b91"/>
          </g>
          <g id="Grupo_15076" data-name="Grupo 15076" transform="translate(81.922 87.253)">
            <path id="Trazado_25566" data-name="Trazado 25566" d="M12057.271,1235.118h-66.816a1.134,1.134,0,1,0,0,2.268h65.683v14.326a1.134,1.134,0,1,0,2.268,0v-15.46A1.134,1.134,0,0,0,12057.271,1235.118Z" transform="translate(-11989.32 -1235.118)" fill="#148b91"/>
          </g>
          <g id="Grupo_15080" data-name="Grupo 15080" transform="translate(77.657 114.264)">
            <g id="Grupo_15077" data-name="Grupo 15077">
              <path id="Trazado_25567" data-name="Trazado 25567" d="M11979.961,1387.118h-13.506a1.134,1.134,0,0,0,0,2.268h13.506a1.134,1.134,0,1,0,0-2.268Z" transform="translate(-11965.321 -1387.118)" fill="#148b91"/>
            </g>
            <g id="Grupo_15078" data-name="Grupo 15078" transform="translate(22.391)">
              <path id="Trazado_25568" data-name="Trazado 25568" d="M12115.557,1387.118h-23.1a1.134,1.134,0,0,0,0,2.268h23.1a1.134,1.134,0,0,0,0-2.268Z" transform="translate(-12091.32 -1387.118)" fill="#148b91"/>
            </g>
            <g id="Grupo_15079" data-name="Grupo 15079" transform="translate(53.489)">
              <path id="Trazado_25569" data-name="Trazado 25569" d="M12287.181,1387.118h-19.726a1.134,1.134,0,0,0,0,2.268h19.726a1.134,1.134,0,0,0,0-2.268Z" transform="translate(-12266.321 -1387.118)" fill="#148b91"/>
            </g>
          </g>
          <g id="Grupo_15083" data-name="Grupo 15083" transform="translate(77.657 120.255)">
            <g id="Grupo_15081" data-name="Grupo 15081" transform="translate(41.761)">
              <path id="Trazado_25570" data-name="Trazado 25570" d="M12232.909,1420.833h-31.454a1.134,1.134,0,0,0,0,2.268h31.454a1.134,1.134,0,1,0,0-2.268Z" transform="translate(-12200.321 -1420.833)" fill="#148b91"/>
            </g>
            <g id="Grupo_15082" data-name="Grupo 15082">
              <path id="Trazado_25571" data-name="Trazado 25571" d="M12000.4,1420.833h-33.942a1.134,1.134,0,0,0,0,2.268h33.942a1.134,1.134,0,0,0,0-2.268Z" transform="translate(-11965.321 -1420.833)" fill="#148b91"/>
            </g>
          </g>
          <g id="Grupo_15087" data-name="Grupo 15087" transform="translate(77.657 126.247)">
            <g id="Grupo_15084" data-name="Grupo 15084">
              <path id="Trazado_25572" data-name="Trazado 25572" d="M11979.961,1454.547h-13.506a1.134,1.134,0,0,0,0,2.268h13.506a1.134,1.134,0,1,0,0-2.268Z" transform="translate(-11965.321 -1454.547)" fill="#148b91"/>
            </g>
            <g id="Grupo_15085" data-name="Grupo 15085" transform="translate(22.391)">
              <path id="Trazado_25573" data-name="Trazado 25573" d="M12115.557,1454.547h-23.1a1.134,1.134,0,0,0,0,2.268h23.1a1.134,1.134,0,0,0,0-2.268Z" transform="translate(-12091.32 -1454.547)" fill="#148b91"/>
            </g>
            <g id="Grupo_15086" data-name="Grupo 15086" transform="translate(53.489)">
              <path id="Trazado_25574" data-name="Trazado 25574" d="M12287.181,1454.547h-19.726a1.134,1.134,0,0,0,0,2.268h19.726a1.134,1.134,0,0,0,0-2.268Z" transform="translate(-12266.321 -1454.547)" fill="#148b91"/>
            </g>
          </g>
          <g id="Grupo_15090" data-name="Grupo 15090" transform="translate(77.657 132.238)">
            <g id="Grupo_15088" data-name="Grupo 15088" transform="translate(41.761)">
              <path id="Trazado_25575" data-name="Trazado 25575" d="M12232.909,1488.261h-31.454a1.134,1.134,0,0,0,0,2.268h31.454a1.134,1.134,0,1,0,0-2.268Z" transform="translate(-12200.321 -1488.261)" fill="#148b91"/>
            </g>
            <g id="Grupo_15089" data-name="Grupo 15089">
              <path id="Trazado_25576" data-name="Trazado 25576" d="M12000.4,1488.261h-33.942a1.134,1.134,0,0,0,0,2.268h33.942a1.134,1.134,0,0,0,0-2.268Z" transform="translate(-11965.321 -1488.261)" fill="#148b91"/>
            </g>
          </g>
          <g id="Grupo_15094" data-name="Grupo 15094" transform="translate(77.657 138.229)">
            <g id="Grupo_15091" data-name="Grupo 15091">
              <path id="Trazado_25577" data-name="Trazado 25577" d="M11979.961,1521.975h-13.506a1.134,1.134,0,0,0,0,2.268h13.506a1.134,1.134,0,1,0,0-2.268Z" transform="translate(-11965.321 -1521.975)" fill="#148b91"/>
            </g>
            <g id="Grupo_15092" data-name="Grupo 15092" transform="translate(22.391)">
              <path id="Trazado_25578" data-name="Trazado 25578" d="M12115.557,1521.975h-23.1a1.134,1.134,0,0,0,0,2.268h23.1a1.134,1.134,0,0,0,0-2.268Z" transform="translate(-12091.32 -1521.975)" fill="#148b91"/>
            </g>
            <g id="Grupo_15093" data-name="Grupo 15093" transform="translate(53.489)">
              <path id="Trazado_25579" data-name="Trazado 25579" d="M12287.181,1521.975h-19.726a1.134,1.134,0,0,0,0,2.268h19.726a1.134,1.134,0,0,0,0-2.268Z" transform="translate(-12266.321 -1521.975)" fill="#148b91"/>
            </g>
          </g>
          <g id="Grupo_15097" data-name="Grupo 15097" transform="translate(77.657 144.22)">
            <g id="Grupo_15095" data-name="Grupo 15095" transform="translate(41.761)">
              <path id="Trazado_25580" data-name="Trazado 25580" d="M12232.909,1555.69h-31.454a1.134,1.134,0,0,0,0,2.268h31.454a1.134,1.134,0,1,0,0-2.268Z" transform="translate(-12200.321 -1555.69)" fill="#148b91"/>
            </g>
            <g id="Grupo_15096" data-name="Grupo 15096">
              <path id="Trazado_25581" data-name="Trazado 25581" d="M12000.4,1555.69h-33.942a1.134,1.134,0,0,0,0,2.268h33.942a1.134,1.134,0,0,0,0-2.268Z" transform="translate(-11965.321 -1555.69)" fill="#148b91"/>
            </g>
          </g>
          <g id="Grupo_15101" data-name="Grupo 15101" transform="translate(77.657 150.211)">
            <g id="Grupo_15098" data-name="Grupo 15098">
              <path id="Trazado_25582" data-name="Trazado 25582" d="M11979.961,1589.4h-13.506a1.134,1.134,0,0,0,0,2.268h13.506a1.134,1.134,0,1,0,0-2.268Z" transform="translate(-11965.321 -1589.404)" fill="#148b91"/>
            </g>
            <g id="Grupo_15099" data-name="Grupo 15099" transform="translate(22.391)">
              <path id="Trazado_25583" data-name="Trazado 25583" d="M12115.557,1589.4h-23.1a1.134,1.134,0,0,0,0,2.268h23.1a1.134,1.134,0,0,0,0-2.268Z" transform="translate(-12091.32 -1589.404)" fill="#148b91"/>
            </g>
            <g id="Grupo_15100" data-name="Grupo 15100" transform="translate(53.489)">
              <path id="Trazado_25584" data-name="Trazado 25584" d="M12287.181,1589.4h-19.726a1.134,1.134,0,0,0,0,2.268h19.726a1.134,1.134,0,0,0,0-2.268Z" transform="translate(-12266.321 -1589.404)" fill="#148b91"/>
            </g>
          </g>
          <g id="Grupo_15104" data-name="Grupo 15104" transform="translate(77.657 156.202)">
            <g id="Grupo_15102" data-name="Grupo 15102" transform="translate(41.761)">
              <path id="Trazado_25585" data-name="Trazado 25585" d="M12232.909,1623.118h-31.454a1.134,1.134,0,0,0,0,2.268h31.454a1.134,1.134,0,1,0,0-2.268Z" transform="translate(-12200.321 -1623.118)" fill="#148b91"/>
            </g>
            <g id="Grupo_15103" data-name="Grupo 15103">
              <path id="Trazado_25586" data-name="Trazado 25586" d="M12000.4,1623.118h-33.942a1.134,1.134,0,0,0,0,2.268h33.942a1.134,1.134,0,0,0,0-2.268Z" transform="translate(-11965.321 -1623.118)" fill="#148b91"/>
            </g>
          </g>
        </g>
        <g id="Grupo_15118" data-name="Grupo 15118" transform="translate(66.946 113.309)">
          <g id="Grupo_15108" data-name="Grupo 15108" transform="translate(0 79.033)">
            <g id="Grupo_15107" data-name="Grupo 15107">
              <g id="Grupo_15106" data-name="Grupo 15106">
                <path id="Trazado_25587" data-name="Trazado 25587" d="M11473.636,1649.365a2.825,2.825,0,0,1-5.372,0,8.732,8.732,0,0,0-8.935,1.954c-1.393,1.377-3.435,4.493-1.473,9.892a.981.981,0,0,0,.054.123c3.927,7.785,12.184,11.98,12.532,12.155a1.135,1.135,0,0,0,1.015,0c.349-.175,8.605-4.37,12.532-12.155a1.148,1.148,0,0,0,.054-.123c1.961-5.4-.081-8.515-1.473-9.892A8.732,8.732,0,0,0,11473.636,1649.365Zm8.3,11.008c-3.062,6.015-9.185,9.8-10.984,10.812-1.8-1.015-7.922-4.8-10.983-10.812-1.124-3.137-.793-5.709.959-7.442a6.482,6.482,0,0,1,6.541-1.443,3.329,3.329,0,0,1,2.319,2.991,1.134,1.134,0,0,0,1.131,1.052h.067a1.135,1.135,0,0,0,1.131-1.052,3.328,3.328,0,0,1,2.318-2.991,6.485,6.485,0,0,1,6.542,1.443C11482.726,1654.664,11483.057,1657.236,11481.934,1660.373Z" transform="translate(-11457.046 -1648.867)" fill="#148b91"/>
              </g>
            </g>
          </g>
          <g id="Grupo_15111" data-name="Grupo 15111" transform="translate(14.766 44.769)">
            <g id="Grupo_15110" data-name="Grupo 15110">
              <g id="Grupo_15109" data-name="Grupo 15109">
                <path id="Trazado_25588" data-name="Trazado 25588" d="M11556.511,1460.532a2.3,2.3,0,0,1-3.783-2.048,7.42,7.42,0,0,0-7.467-2.156c-1.6.466-4.387,1.966-5.1,6.77a1.027,1.027,0,0,0-.012.134c-.211,7.268,4.175,13.619,4.361,13.886a1.138,1.138,0,0,0,.893.483c.034,0,.151,0,.342,0,1.6,0,8.332-.232,13.67-3.943a1.163,1.163,0,0,0,.105-.083c3.633-3.225,3.363-6.38,2.88-7.974A7.419,7.419,0,0,0,11556.511,1460.532Zm1.552,11.307c-4.455,3.066-10.193,3.45-12.011,3.492-.959-1.542-3.772-6.543-3.64-11.965.407-2.634,1.611-4.314,3.483-4.86a5.228,5.228,0,0,1,5.12,1.465,2.57,2.57,0,0,1,.479,2.877,1.132,1.132,0,0,0,.492,1.464l.049.026a1.134,1.134,0,0,0,1.5-.387,2.564,2.564,0,0,1,2.67-1.172,5.224,5.224,0,0,1,4.025,3.485C11560.794,1468.131,11560.044,1470.057,11558.063,1471.839Z" transform="translate(-11540.139 -1456.055)" fill="#148b91"/>
              </g>
            </g>
          </g>
          <g id="Grupo_15114" data-name="Grupo 15114" transform="translate(12.793 22.517)">
            <g id="Grupo_15113" data-name="Grupo 15113">
              <g id="Grupo_15112" data-name="Grupo 15112">
                <path id="Trazado_25589" data-name="Trazado 25589" d="M11544.813,1331.562a6.08,6.08,0,0,0-6.356.361,1.767,1.767,0,0,1-3.09.861,6.078,6.078,0,0,0-5.627,2.978c-.678,1.186-1.473,3.656.824,6.871a1.187,1.187,0,0,0,.085.1c3.9,4.28,9.919,5.49,10.174,5.54a1.119,1.119,0,0,0,.217.021,1.136,1.136,0,0,0,.761-.293c.191-.174,4.718-4.323,5.843-10a1.219,1.219,0,0,0,.018-.133C11547.963,1333.93,11546.006,1332.227,11544.813,1331.562Zm.591,6.067a6.765,6.765,0,0,1-13.032,3.632c-1.141-1.623-1.37-3.134-.663-4.373a3.848,3.848,0,0,1,3.46-1.843,1.753,1.753,0,0,1,1.632,1.2,1.135,1.135,0,0,0,1.371.71l.041-.012a1.134,1.134,0,0,0,.809-1.318,1.752,1.752,0,0,1,.774-1.875,3.845,3.845,0,0,1,3.913-.211C11544.956,1334.238,11545.541,1335.65,11545.4,1337.628Z" transform="translate(-11529.037 -1330.835)" fill="#148b91"/>
              </g>
            </g>
          </g>
          <g id="Grupo_15117" data-name="Grupo 15117" transform="translate(26.002)">
            <g id="Grupo_15116" data-name="Grupo 15116">
              <g id="Grupo_15115" data-name="Grupo 15115">
                <path id="Trazado_25590" data-name="Trazado 25590" d="M11614.564,1207.546a1.4,1.4,0,0,1-2.066-1.368,5.181,5.181,0,0,0-5.06-1.964c-1.145.226-3.182,1.091-3.965,4.343a1.212,1.212,0,0,0-.023.132,17.022,17.022,0,0,0,2.051,9.38,1.133,1.133,0,0,0,.846.56,14.851,14.851,0,0,0,1.654.081,16.108,16.108,0,0,0,7.782-1.854,1.16,1.16,0,0,0,.112-.073c2.688-1.991,2.69-4.2,2.452-5.345A5.184,5.184,0,0,0,11614.564,1207.546Zm.035,7.375a5.34,5.34,0,0,1-8.905-5.9c.372-1.482,1.127-2.375,2.184-2.584a2.928,2.928,0,0,1,2.784,1.068,1.218,1.218,0,0,1,.117,1.43,1.133,1.133,0,0,0,.36,1.5l.029.019a1.134,1.134,0,0,0,1.524-.252,1.214,1.214,0,0,1,1.363-.45,2.924,2.924,0,0,1,2.07,2.146C11616.347,1212.957,11615.819,1214,11614.6,1214.921Z" transform="translate(-11603.367 -1204.126)" fill="#148b91"/>
              </g>
            </g>
          </g>
        </g>
        <g id="Grupo_15119" data-name="Grupo 15119" transform="translate(60.079 183.947)">
          <path id="Trazado_25591" data-name="Trazado 25591" d="M11439.175,1601.627a20.771,20.771,0,1,0,20.771,20.771A20.794,20.794,0,0,0,11439.175,1601.627Zm0,39.273a18.5,18.5,0,1,1,18.5-18.5A18.524,18.524,0,0,1,11439.175,1640.9Z" transform="translate(-11418.404 -1601.627)" fill="#148b91"/>
        </g>
        <g id="Grupo_15120" data-name="Grupo 15120" transform="translate(257.494 223.307)">
          <path id="Trazado_25592" data-name="Trazado 25592" d="M12542.183,1823.118h-11.728a1.134,1.134,0,1,0,0,2.268h11.728a1.134,1.134,0,1,0,0-2.268Z" transform="translate(-12529.32 -1823.118)" fill="#148b91"/>
        </g>
        <g id="Grupo_15121" data-name="Grupo 15121" transform="translate(228.351 223.307)">
          <path id="Trazado_25593" data-name="Trazado 25593" d="M12382.094,1823.118h-15.639a1.134,1.134,0,1,0,0,2.268h15.639a1.134,1.134,0,0,0,0-2.268Z" transform="translate(-12365.32 -1823.118)" fill="#148b91"/>
        </g>
        <g id="Grupo_15122" data-name="Grupo 15122" transform="translate(53.489 223.307)">
          <path id="Trazado_25594" data-name="Trazado 25594" d="M11444.3,1823.118h-61.841a1.134,1.134,0,0,0,0,2.268h61.841a1.134,1.134,0,1,0,0-2.268Z" transform="translate(-11381.321 -1823.118)" fill="#148b91"/>
        </g>
      </g>
    </g>
  </g>
</svg>
