<svg xmlns="http://www.w3.org/2000/svg" width="326.314" height="260.915" viewBox="0 0 326.314 260.915">
  <g id="Grupo_15624" data-name="Grupo 15624" transform="translate(-4722.65 -323.085)">
    <g id="Color" transform="translate(4830.628 386.095)">
      <g id="Grupo_15561" data-name="Grupo 15561" transform="translate(0 108.555)">
        <rect id="Rectángulo_2912" data-name="Rectángulo 2912" width="32.984" height="52.608" fill="#e1e1e5"/>
        <rect id="Rectángulo_2913" data-name="Rectángulo 2913" width="32.984" height="52.608" transform="translate(74.736)" fill="#e1e1e5"/>
      </g>
      <g id="Grupo_15562" data-name="Grupo 15562" transform="translate(38.385 112.731)">
        <path id="Trazado_26682" data-name="Trazado 26682" d="M5090.739,749.01h-15.031a2.5,2.5,0,0,1-2.5-2.505h0a2.5,2.5,0,0,1,2.5-2.505h15.031a2.5,2.5,0,0,1,2.5,2.505h0A2.5,2.5,0,0,1,5090.739,749.01Z" transform="translate(-5073.203 -744)" fill="#5ed45e"/>
        <path id="Trazado_26683" data-name="Trazado 26683" d="M5138.378,749.01h-1.67a2.5,2.5,0,0,1-2.5-2.505h0a2.5,2.5,0,0,1,2.5-2.505h1.67a2.505,2.505,0,0,1,2.505,2.505h0A2.505,2.505,0,0,1,5138.378,749.01Z" transform="translate(-5108.734 -744)" fill="#5ed45e"/>
      </g>
      <g id="Grupo_15563" data-name="Grupo 15563" transform="translate(38.385 122.751)">
        <path id="Trazado_26684" data-name="Trazado 26684" d="M5108.708,768h13.361a2.5,2.5,0,0,1,2.5,2.505h0a2.5,2.5,0,0,1-2.5,2.505h-13.361a2.505,2.505,0,0,1-2.505-2.505h0A2.505,2.505,0,0,1,5108.708,768Z" transform="translate(-5092.425 -768)" fill="#5ed45e"/>
        <path id="Trazado_26685" data-name="Trazado 26685" d="M5075.708,768h3.34a2.505,2.505,0,0,1,2.505,2.505h0a2.505,2.505,0,0,1-2.505,2.505h-3.34a2.5,2.5,0,0,1-2.5-2.505h0A2.5,2.5,0,0,1,5075.708,768Z" transform="translate(-5073.203 -768)" fill="#5ed45e"/>
      </g>
      <g id="Grupo_15564" data-name="Grupo 15564" transform="translate(38.385 132.772)">
        <path id="Trazado_26686" data-name="Trazado 26686" d="M5090.739,797.01h-15.031a2.5,2.5,0,0,1-2.5-2.505h0a2.5,2.5,0,0,1,2.5-2.505h15.031a2.5,2.5,0,0,1,2.5,2.505h0A2.5,2.5,0,0,1,5090.739,797.01Z" transform="translate(-5073.203 -792)" fill="#5ed45e"/>
        <path id="Trazado_26687" data-name="Trazado 26687" d="M5138.378,797.01h-1.67a2.5,2.5,0,0,1-2.5-2.505h0a2.5,2.5,0,0,1,2.5-2.505h1.67a2.505,2.505,0,0,1,2.505,2.505h0A2.505,2.505,0,0,1,5138.378,797.01Z" transform="translate(-5108.734 -792)" fill="#5ed45e"/>
      </g>
      <g id="Grupo_15565" data-name="Grupo 15565" transform="translate(38.385 142.792)">
        <path id="Trazado_26688" data-name="Trazado 26688" d="M5108.708,816h13.361a2.5,2.5,0,0,1,2.5,2.505h0a2.5,2.5,0,0,1-2.5,2.505h-13.361a2.505,2.505,0,0,1-2.505-2.505h0A2.505,2.505,0,0,1,5108.708,816Z" transform="translate(-5092.425 -816)" fill="#5ed45e"/>
        <path id="Trazado_26689" data-name="Trazado 26689" d="M5075.708,816h3.34a2.505,2.505,0,0,1,2.505,2.505h0a2.505,2.505,0,0,1-2.505,2.505h-3.34a2.5,2.5,0,0,1-2.5-2.505h0A2.5,2.5,0,0,1,5075.708,816Z" transform="translate(-5073.203 -816)" fill="#5ed45e"/>
      </g>
      <g id="Grupo_15566" data-name="Grupo 15566" transform="translate(38.385 152.813)">
        <path id="Trazado_26690" data-name="Trazado 26690" d="M5090.739,845.01h-15.031a2.5,2.5,0,0,1-2.5-2.505h0a2.5,2.5,0,0,1,2.5-2.505h15.031a2.5,2.5,0,0,1,2.5,2.505h0A2.5,2.5,0,0,1,5090.739,845.01Z" transform="translate(-5073.203 -840)" fill="#5ed45e"/>
        <path id="Trazado_26691" data-name="Trazado 26691" d="M5138.378,845.01h-1.67a2.5,2.5,0,0,1-2.5-2.505h0a2.5,2.5,0,0,1,2.5-2.505h1.67a2.505,2.505,0,0,1,2.505,2.505h0A2.505,2.505,0,0,1,5138.378,845.01Z" transform="translate(-5108.734 -840)" fill="#5ed45e"/>
      </g>
      <rect id="Rectángulo_2914" data-name="Rectángulo 2914" width="82.252" height="32.149" transform="matrix(0.919, -0.394, 0.394, 0.919, 4.383, 55.854)" fill="#fcd118"/>
      <path id="Trazado_26692" data-name="Trazado 26692" d="M5368.231,474a34.028,34.028,0,1,0,34.027,34.028A34.028,34.028,0,0,0,5368.231,474Zm19.337,45.1-8.266,8.267-11.071-11.071-11.072,11.071-8.266-8.267,11.071-11.071-11.071-11.071,8.266-8.266,11.072,11.071L5379.3,488.69l8.266,8.266L5376.5,508.028Z" transform="translate(-5186.845 -474)" fill="#4a91d6"/>
    </g>
    <g id="FAKE" transform="translate(4722.65 323.085)">
      <g id="Grupo_15570" data-name="Grupo 15570" transform="translate(294.481 10.438)">
        <g id="Grupo_15568" data-name="Grupo 15568" transform="translate(5.503)">
          <path id="Trazado_26697" data-name="Trazado 26697" d="M5442.393,361.83a1.253,1.253,0,0,1-1.252-1.253v-11.24a1.253,1.253,0,0,1,2.505,0v11.24A1.253,1.253,0,0,1,5442.393,361.83Z" transform="translate(-5441.14 -348.085)" fill="#c36967"/>
        </g>
        <g id="Grupo_15569" data-name="Grupo 15569" transform="translate(0 5.737)">
          <path id="Trazado_26698" data-name="Trazado 26698" d="M5440.453,364.331h-11.24a1.253,1.253,0,1,1,0-2.505h11.24a1.253,1.253,0,0,1,0,2.505Z" transform="translate(-5427.96 -361.826)" fill="#c36967"/>
        </g>
      </g>
      <g id="Grupo_15573" data-name="Grupo 15573" transform="translate(26.016)">
        <g id="Grupo_15571" data-name="Grupo 15571" transform="translate(5.503)">
          <path id="Trazado_26699" data-name="Trazado 26699" d="M4799.393,336.83a1.252,1.252,0,0,1-1.252-1.253v-11.24a1.253,1.253,0,0,1,2.505,0v11.24A1.253,1.253,0,0,1,4799.393,336.83Z" transform="translate(-4798.14 -323.085)" fill="#c36967"/>
        </g>
        <g id="Grupo_15572" data-name="Grupo 15572" transform="translate(0 5.737)">
          <path id="Trazado_26700" data-name="Trazado 26700" d="M4797.453,339.331h-11.24a1.253,1.253,0,1,1,0-2.505h11.24a1.253,1.253,0,0,1,0,2.505Z" transform="translate(-4784.96 -336.826)" fill="#c36967"/>
        </g>
      </g>
      <g id="Grupo_15574" data-name="Grupo 15574" transform="translate(152.813 4.973)">
        <path id="Trazado_26701" data-name="Trazado 26701" d="M5102.591,359.931a2.482,2.482,0,0,1,1.75-3.04h0a2.481,2.481,0,0,1,3.039,1.754h0a2.481,2.481,0,0,1-1.753,3.04h0a2.645,2.645,0,0,1-.643.083h0A2.48,2.48,0,0,1,5102.591,359.931Zm-10.267-1.8a2.474,2.474,0,0,1,0-3.5h0a2.479,2.479,0,0,1,3.507-.008h0a2.484,2.484,0,0,1,0,3.507h0a2.486,2.486,0,0,1-1.758.731h0A2.462,2.462,0,0,1,5092.325,358.132Zm20-4.438a2.48,2.48,0,0,1-1.757-3.035h0a2.477,2.477,0,0,1,3.035-1.754h0a2.477,2.477,0,0,1,1.758,3.031h0a2.481,2.481,0,0,1-2.4,1.841h0A2.421,2.421,0,0,1,5112.324,353.694Zm-21.828-5.82a2.479,2.479,0,0,1-1.762-3.031h0a2.479,2.479,0,0,1,3.031-1.762h0a2.476,2.476,0,0,1,1.763,3.031h0a2.477,2.477,0,0,1-2.393,1.845h0A2.61,2.61,0,0,1,5090.5,347.873Zm17.787-5.728h0l-.017-.017h0a2.479,2.479,0,0,1-.013-3.507h0a2.479,2.479,0,0,1,3.507-.008h0c.009,0,.013.013.021.017h0a.009.009,0,0,0,.008.008h0v0h0a2.474,2.474,0,0,1,0,3.5h0a2.471,2.471,0,0,1-1.753.726h0A2.473,2.473,0,0,1,5108.282,342.145ZM5096.7,338.12a2.479,2.479,0,0,1,1.75-3.04h0a2.479,2.479,0,0,1,3.04,1.749h0a2.483,2.483,0,0,1-1.749,3.04h0a2.484,2.484,0,0,1-.647.083h0A2.48,2.48,0,0,1,5096.7,338.12Z" transform="translate(-5088.65 -334.995)" fill="#c36967"/>
      </g>
      <g id="Grupo_15575" data-name="Grupo 15575" transform="translate(0 125.636)">
        <path id="Trazado_26702" data-name="Trazado 26702" d="M4736.591,648.931a2.482,2.482,0,0,1,1.75-3.04h0a2.487,2.487,0,0,1,3.039,1.754h0a2.484,2.484,0,0,1-1.753,3.039h0a2.639,2.639,0,0,1-.643.084h0A2.48,2.48,0,0,1,4736.591,648.931Zm-10.267-1.8a2.476,2.476,0,0,1,0-3.507h0a2.483,2.483,0,0,1,3.507,0h0a2.483,2.483,0,0,1,0,3.507h0a2.486,2.486,0,0,1-1.758.731h0A2.464,2.464,0,0,1,4726.324,647.132Zm20-4.438a2.481,2.481,0,0,1-1.758-3.035h0a2.483,2.483,0,0,1,3.036-1.758h0a2.483,2.483,0,0,1,1.757,3.035h0a2.48,2.48,0,0,1-2.4,1.841h0A2.422,2.422,0,0,1,4746.324,642.694Zm-21.828-5.82a2.479,2.479,0,0,1-1.762-3.031h0a2.479,2.479,0,0,1,3.031-1.762h0a2.476,2.476,0,0,1,1.762,3.031h0a2.476,2.476,0,0,1-2.392,1.845h0A2.4,2.4,0,0,1,4724.5,636.873Zm17.787-5.728a.256.256,0,0,1-.034-.038h0a2.477,2.477,0,0,1,0-3.486h0a2.475,2.475,0,0,1,3.507-.008h0c.009,0,.013.013.021.017h0s0,.008.008.013h0a2.474,2.474,0,0,1,0,3.5h0a2.471,2.471,0,0,1-1.753.727h0A2.471,2.471,0,0,1,4742.282,631.145ZM4730.7,627.12a2.479,2.479,0,0,1,1.75-3.04h0a2.479,2.479,0,0,1,3.04,1.749h0a2.481,2.481,0,0,1-1.75,3.039h0a2.478,2.478,0,0,1-.647.084h0A2.48,2.48,0,0,1,4730.7,627.12Z" transform="translate(-4722.65 -623.995)" fill="#c36967"/>
      </g>
      <g id="Grupo_15576" data-name="Grupo 15576" transform="translate(288.091 187.429)">
        <path id="Trazado_26703" data-name="Trazado 26703" d="M5426.593,796.931a2.482,2.482,0,0,1,1.75-3.04h0a2.484,2.484,0,0,1,3.039,1.754h0a2.481,2.481,0,0,1-1.753,3.039h0a2.646,2.646,0,0,1-.644.084h0A2.48,2.48,0,0,1,5426.593,796.931Zm-10.267-1.8a2.471,2.471,0,0,1,0-3.5h0a2.475,2.475,0,0,1,3.5-.008h0a2.48,2.48,0,0,1,.008,3.507h0a2.486,2.486,0,0,1-1.757.731h0A2.464,2.464,0,0,1,5416.326,795.132Zm20-4.438a2.481,2.481,0,0,1-1.758-3.035h0a2.477,2.477,0,0,1,3.036-1.754h0a2.477,2.477,0,0,1,1.758,3.031h0a2.48,2.48,0,0,1-2.393,1.841h0A2.431,2.431,0,0,1,5436.326,790.694Zm-21.828-5.82a2.482,2.482,0,0,1-1.762-3.031h0a2.482,2.482,0,0,1,3.036-1.762h0a2.48,2.48,0,0,1,1.757,3.031h0a2.476,2.476,0,0,1-2.392,1.845h0A2.608,2.608,0,0,1,5414.5,784.873Zm17.787-5.728h0l-.038-.038h0a2.477,2.477,0,0,1,.012-3.486h0a2.471,2.471,0,0,1,3.5-.008h0c.009,0,.013.013.021.017h0a.009.009,0,0,0,.008.008h0a2.479,2.479,0,0,1,0,3.507h0a2.471,2.471,0,0,1-1.753.727h0A2.472,2.472,0,0,1,5432.284,779.145Zm-11.578-4.025a2.479,2.479,0,0,1,1.75-3.04h0a2.479,2.479,0,0,1,3.04,1.749h0a2.481,2.481,0,0,1-1.749,3.039h0a2.484,2.484,0,0,1-.647.084h0A2.48,2.48,0,0,1,5420.706,775.12Z" transform="translate(-5412.654 -771.995)" fill="#c36967"/>
      </g>
      <g id="Grupo_15583" data-name="Grupo 15583" transform="translate(31.565 109.772)">
        <g id="Grupo_15577" data-name="Grupo 15577" transform="translate(0 134.405)">
          <path id="Trazado_26704" data-name="Trazado 26704" d="M5047.948,924.626H4809.1a10.862,10.862,0,0,1-10.85-10.85v-4.613a1.253,1.253,0,0,1,1.252-1.253h258.041a1.253,1.253,0,0,1,1.253,1.253v4.613A10.862,10.862,0,0,1,5047.948,924.626Zm-247.191-14.21v3.361a8.354,8.354,0,0,0,8.345,8.345h238.846a8.354,8.354,0,0,0,8.345-8.345v-3.361Z" transform="translate(-4798.252 -907.911)" fill="#c36967"/>
        </g>
        <g id="Grupo_15578" data-name="Grupo 15578" transform="translate(110.539 134.722)">
          <path id="Trazado_26705" data-name="Trazado 26705" d="M5100.885,917.951h-36.628A1.253,1.253,0,0,1,5063,916.7v-6.774a1.253,1.253,0,0,1,2.505,0v5.521h34.124v-5.521a1.252,1.252,0,1,1,2.5,0V916.7A1.252,1.252,0,0,1,5100.885,917.951Z" transform="translate(-5063.004 -908.672)" fill="#c36967"/>
        </g>
        <g id="Grupo_15579" data-name="Grupo 15579" transform="translate(240.495 16.701)">
          <path id="Trazado_26706" data-name="Trazado 26706" d="M5375.512,744.52a1.253,1.253,0,0,1-1.252-1.253V627.253a1.252,1.252,0,1,1,2.5,0V743.267A1.252,1.252,0,0,1,5375.512,744.52Z" transform="translate(-5374.26 -626)" fill="#c36967"/>
        </g>
        <g id="Grupo_15580" data-name="Grupo 15580" transform="translate(194.32)">
          <path id="Trazado_26707" data-name="Trazado 26707" d="M5294.98,588.505h-30.062a1.253,1.253,0,1,1,0-2.505h30.062a1.253,1.253,0,0,1,0,2.505Z" transform="translate(-5263.666 -586)" fill="#c36967"/>
        </g>
        <g id="Grupo_15581" data-name="Grupo 15581" transform="translate(17.212)">
          <path id="Trazado_26708" data-name="Trazado 26708" d="M4840.729,722.224a1.252,1.252,0,0,1-1.252-1.253V597.344c0-6.255,5.366-11.344,11.961-11.344h20.491a1.253,1.253,0,0,1,0,2.505h-20.491c-5.214,0-9.456,3.966-9.456,8.839V720.972A1.253,1.253,0,0,1,4840.729,722.224Z" transform="translate(-4839.477 -586)" fill="#c36967"/>
        </g>
        <g id="Grupo_15582" data-name="Grupo 15582" transform="translate(32.265 14.551)">
          <path id="Trazado_26709" data-name="Trazado 26709" d="M4876.782,731.255A1.253,1.253,0,0,1,4875.53,730V622.1a1.253,1.253,0,0,1,1.252-1.253h17.4a1.253,1.253,0,1,1,0,2.505h-16.146V728.749l191.174-.111V623.356h-30.372a1.253,1.253,0,0,1,0-2.505h31.625a1.253,1.253,0,0,1,1.252,1.253V729.89a1.253,1.253,0,0,1-1.252,1.253l-193.679.113Z" transform="translate(-4875.53 -620.851)" fill="#c36967"/>
        </g>
      </g>
      <g id="Grupo_15584" data-name="Grupo 15584" transform="translate(254.189 258.41)">
        <path id="Trazado_26710" data-name="Trazado 26710" d="M5391.891,944.505h-59.182a1.253,1.253,0,1,1,0-2.505h59.182a1.253,1.253,0,0,1,0,2.505Z" transform="translate(-5331.456 -942)" fill="#c36967"/>
      </g>
      <g id="Grupo_15585" data-name="Grupo 15585" transform="translate(300.428 251.312)">
        <path id="Trazado_26711" data-name="Trazado 26711" d="M5466.837,927.505h-23.381a1.253,1.253,0,1,1,0-2.505h23.381a1.253,1.253,0,0,1,0,2.505Z" transform="translate(-5442.203 -925)" fill="#c36967"/>
      </g>
      <g id="Grupo_15586" data-name="Grupo 15586" transform="translate(12.027 258.41)">
        <path id="Trazado_26712" data-name="Trazado 26712" d="M4811.891,944.505h-59.182a1.253,1.253,0,1,1,0-2.505h59.182a1.253,1.253,0,0,1,0,2.505Z" transform="translate(-4751.456 -942)" fill="#c36967"/>
      </g>
      <g id="Grupo_15587" data-name="Grupo 15587" transform="translate(1.589 251.312)">
        <path id="Trazado_26713" data-name="Trazado 26713" d="M4751.09,927.505h-23.381a1.253,1.253,0,0,1,0-2.505h23.381a1.253,1.253,0,0,1,0,2.505Z" transform="translate(-4726.456 -925)" fill="#c36967"/>
      </g>
      <g id="Grupo_15616" data-name="Grupo 15616" transform="translate(73.224 43.99)">
        <g id="Grupo_15588" data-name="Grupo 15588" transform="translate(23.481 25.7)">
          <path id="Trazado_26714" data-name="Trazado 26714" d="M5083.281,654.921H4955.52a1.252,1.252,0,0,1-1.252-1.253V491.253A1.252,1.252,0,0,1,4955.52,490h127.762a1.252,1.252,0,0,1,1.252,1.253V653.668A1.252,1.252,0,0,1,5083.281,654.921Zm-126.509-2.505h125.256V492.505H4956.772Z" transform="translate(-4954.267 -490)" fill="#c36967"/>
        </g>
        <g id="Grupo_15589" data-name="Grupo 15589" transform="translate(89.468)">
          <path id="Trazado_26715" data-name="Trazado 26715" d="M5154.3,456.652a1.253,1.253,0,0,1-1.237-1.067l-3.671-24.462-35.64,5.349a1.253,1.253,0,1,1-.371-2.478l36.878-5.535a1.253,1.253,0,0,1,1.425,1.053l3.857,25.7a1.253,1.253,0,0,1-1.053,1.425A1.309,1.309,0,0,1,5154.3,456.652Z" transform="translate(-5112.312 -428.446)" fill="#c36967"/>
        </g>
        <g id="Grupo_15590" data-name="Grupo 15590" transform="translate(0 6.92)">
          <path id="Trazado_26716" data-name="Trazado 26716" d="M4922.733,616.2a1.254,1.254,0,0,1-1.237-1.068L4898.042,458.5a1.252,1.252,0,0,1,1.053-1.425l80.236-12.042a1.252,1.252,0,1,1,.372,2.477l-79,11.857,23.269,155.389a1.252,1.252,0,0,1-1.053,1.424A1.3,1.3,0,0,1,4922.733,616.2Z" transform="translate(-4898.028 -445.021)" fill="#c36967"/>
        </g>
        <g id="Grupo_15597" data-name="Grupo 15597" transform="translate(36.241 33.916)">
          <g id="Grupo_15591" data-name="Grupo 15591" transform="translate(1.643 7.292)">
            <path id="Trazado_26717" data-name="Trazado 26717" d="M5002.687,591.609a1.252,1.252,0,0,1-1.151-.759L4988.866,561.3a1.252,1.252,0,0,1,.658-1.645l75.6-32.414a1.253,1.253,0,0,1,1.645.658l12.669,29.547a1.252,1.252,0,0,1-.657,1.645l-75.6,32.414A1.252,1.252,0,0,1,5002.687,591.609Zm-11.024-30.143,11.682,27.245,73.293-31.426-11.682-27.245Z" transform="translate(-4988.764 -527.142)" fill="#c36967"/>
          </g>
          <g id="Grupo_15592" data-name="Grupo 15592" transform="translate(50.156 11.682)">
            <path id="Trazado_26718" data-name="Trazado 26718" d="M5106.212,541.478a1.253,1.253,0,0,1-.494-2.4l3.07-1.316a1.253,1.253,0,0,1,.987,2.3l-3.07,1.316A1.251,1.251,0,0,1,5106.212,541.478Z" transform="translate(-5104.958 -537.656)" fill="#c36967"/>
          </g>
          <g id="Grupo_15593" data-name="Grupo 15593" transform="translate(60.517)">
            <path id="Trazado_26719" data-name="Trazado 26719" d="M5158.385,529.45a1.253,1.253,0,0,1-1.152-.759l-6.91-16.117-18.8,8.062a1.253,1.253,0,1,1-.988-2.3l19.955-8.556a1.252,1.252,0,0,1,1.645.658l7.4,17.268a1.254,1.254,0,0,1-1.151,1.746Z" transform="translate(-5129.773 -509.677)" fill="#c36967"/>
          </g>
          <g id="Grupo_15594" data-name="Grupo 15594" transform="translate(0 51.767)">
            <path id="Trazado_26720" data-name="Trazado 26720" d="M4986.906,638.088a1.252,1.252,0,0,1-1.151-.759l-.823-1.919a1.252,1.252,0,1,1,2.3-.988l.823,1.919a1.253,1.253,0,0,1-1.151,1.747Z" transform="translate(-4984.83 -633.664)" fill="#c36967"/>
          </g>
          <g id="Grupo_15595" data-name="Grupo 15595" transform="translate(37.056 47.314)">
            <path id="Trazado_26721" data-name="Trazado 26721" d="M5074.837,643.985a1.253,1.253,0,0,1-.5-2.4l42.846-18.48a1.253,1.253,0,1,1,.992,2.3l-42.846,18.48A1.25,1.25,0,0,1,5074.837,643.985Z" transform="translate(-5073.583 -622.999)" fill="#c36967"/>
          </g>
          <g id="Grupo_15596" data-name="Grupo 15596" transform="translate(3.126 59.058)">
            <path id="Trazado_26722" data-name="Trazado 26722" d="M5001.3,671.667a1.252,1.252,0,0,1-1.15-.759l-7.733-18.035a1.253,1.253,0,0,1,2.3-.987l7.238,16.882,16.849-7.267a1.253,1.253,0,1,1,.992,2.3l-18,7.764A1.253,1.253,0,0,1,5001.3,671.667Z" transform="translate(-4992.317 -651.126)" fill="#c36967"/>
          </g>
        </g>
        <g id="Grupo_15600" data-name="Grupo 15600" transform="translate(33.501 126.323)">
          <g id="Grupo_15598" data-name="Grupo 15598">
            <path id="Trazado_26723" data-name="Trazado 26723" d="M5012.5,786.113H4979.52a1.252,1.252,0,0,1-1.252-1.253V732.253A1.252,1.252,0,0,1,4979.52,731H5012.5a1.253,1.253,0,0,1,1.252,1.253V784.86A1.253,1.253,0,0,1,5012.5,786.113Zm-31.731-2.505h30.479v-50.1h-30.479Z" transform="translate(-4978.267 -731)" fill="#c36967"/>
          </g>
          <g id="Grupo_15599" data-name="Grupo 15599" transform="translate(74.736)">
            <path id="Trazado_26724" data-name="Trazado 26724" d="M5191.5,786.113H5158.52a1.253,1.253,0,0,1-1.252-1.253V732.253A1.253,1.253,0,0,1,5158.52,731H5191.5a1.253,1.253,0,0,1,1.252,1.253V784.86A1.253,1.253,0,0,1,5191.5,786.113Zm-31.731-2.505h30.479v-50.1h-30.479Z" transform="translate(-5157.267 -731)" fill="#c36967"/>
          </g>
        </g>
        <g id="Grupo_15603" data-name="Grupo 15603" transform="translate(71.887 130.498)">
          <g id="Grupo_15601" data-name="Grupo 15601">
            <path id="Trazado_26725" data-name="Trazado 26725" d="M5088.992,748.515h-15.031a3.758,3.758,0,1,1,0-7.515h15.031a3.758,3.758,0,1,1,0,7.515Zm-15.031-5.01a1.253,1.253,0,0,0,0,2.505h15.031a1.253,1.253,0,0,0,0-2.505Z" transform="translate(-5070.203 -741)" fill="#c36967"/>
          </g>
          <g id="Grupo_15602" data-name="Grupo 15602" transform="translate(25.469)">
            <path id="Trazado_26726" data-name="Trazado 26726" d="M5136.631,748.515h-1.67a3.758,3.758,0,1,1,0-7.515h1.67a3.758,3.758,0,1,1,0,7.515Zm-1.67-5.01a1.253,1.253,0,0,0,0,2.505h1.67a1.253,1.253,0,1,0,0-2.505Z" transform="translate(-5131.203 -741)" fill="#c36967"/>
          </g>
        </g>
        <g id="Grupo_15606" data-name="Grupo 15606" transform="translate(71.887 140.518)">
          <g id="Grupo_15604" data-name="Grupo 15604" transform="translate(13.778)">
            <path id="Trazado_26727" data-name="Trazado 26727" d="M5120.321,772.515h-13.36a3.758,3.758,0,1,1,0-7.515h13.36a3.758,3.758,0,1,1,0,7.515Zm-13.36-5.01a1.253,1.253,0,1,0,0,2.505h13.36a1.253,1.253,0,1,0,0-2.505Z" transform="translate(-5103.203 -765)" fill="#c36967"/>
          </g>
          <g id="Grupo_15605" data-name="Grupo 15605">
            <path id="Trazado_26728" data-name="Trazado 26728" d="M5077.3,772.515h-3.34a3.758,3.758,0,1,1,0-7.515h3.34a3.758,3.758,0,1,1,0,7.515Zm-3.34-5.01a1.253,1.253,0,0,0,0,2.505h3.34a1.253,1.253,0,1,0,0-2.505Z" transform="translate(-5070.203 -765)" fill="#c36967"/>
          </g>
        </g>
        <g id="Grupo_15609" data-name="Grupo 15609" transform="translate(71.887 150.539)">
          <g id="Grupo_15607" data-name="Grupo 15607">
            <path id="Trazado_26729" data-name="Trazado 26729" d="M5088.992,796.515h-15.031a3.758,3.758,0,1,1,0-7.515h15.031a3.758,3.758,0,1,1,0,7.515Zm-15.031-5.01a1.253,1.253,0,0,0,0,2.505h15.031a1.253,1.253,0,0,0,0-2.505Z" transform="translate(-5070.203 -789)" fill="#c36967"/>
          </g>
          <g id="Grupo_15608" data-name="Grupo 15608" transform="translate(25.469)">
            <path id="Trazado_26730" data-name="Trazado 26730" d="M5136.631,796.515h-1.67a3.758,3.758,0,1,1,0-7.515h1.67a3.758,3.758,0,1,1,0,7.515Zm-1.67-5.01a1.253,1.253,0,0,0,0,2.505h1.67a1.253,1.253,0,1,0,0-2.505Z" transform="translate(-5131.203 -789)" fill="#c36967"/>
          </g>
        </g>
        <g id="Grupo_15612" data-name="Grupo 15612" transform="translate(71.887 160.559)">
          <g id="Grupo_15610" data-name="Grupo 15610" transform="translate(13.778)">
            <path id="Trazado_26731" data-name="Trazado 26731" d="M5120.321,820.515h-13.36a3.758,3.758,0,1,1,0-7.515h13.36a3.758,3.758,0,1,1,0,7.515Zm-13.36-5.01a1.253,1.253,0,1,0,0,2.505h13.36a1.253,1.253,0,1,0,0-2.505Z" transform="translate(-5103.203 -813)" fill="#c36967"/>
          </g>
          <g id="Grupo_15611" data-name="Grupo 15611">
            <path id="Trazado_26732" data-name="Trazado 26732" d="M5077.3,820.515h-3.34a3.758,3.758,0,1,1,0-7.515h3.34a3.758,3.758,0,1,1,0,7.515Zm-3.34-5.01a1.253,1.253,0,0,0,0,2.505h3.34a1.253,1.253,0,1,0,0-2.505Z" transform="translate(-5070.203 -813)" fill="#c36967"/>
          </g>
        </g>
        <g id="Grupo_15615" data-name="Grupo 15615" transform="translate(71.887 170.58)">
          <g id="Grupo_15613" data-name="Grupo 15613">
            <path id="Trazado_26733" data-name="Trazado 26733" d="M5088.992,844.515h-15.031a3.758,3.758,0,1,1,0-7.515h15.031a3.758,3.758,0,1,1,0,7.515Zm-15.031-5.01a1.253,1.253,0,0,0,0,2.505h15.031a1.253,1.253,0,0,0,0-2.505Z" transform="translate(-5070.203 -837)" fill="#c36967"/>
          </g>
          <g id="Grupo_15614" data-name="Grupo 15614" transform="translate(25.469)">
            <path id="Trazado_26734" data-name="Trazado 26734" d="M5136.631,844.515h-1.67a3.758,3.758,0,1,1,0-7.515h1.67a3.758,3.758,0,1,1,0,7.515Zm-1.67-5.01a1.253,1.253,0,0,0,0,2.505h1.67a1.253,1.253,0,1,0,0-2.505Z" transform="translate(-5131.203 -837)" fill="#c36967"/>
          </g>
        </g>
      </g>
      <g id="Grupo_15617" data-name="Grupo 15617" transform="translate(41.983 103.092)">
        <path id="Trazado_26735" data-name="Trazado 26735" d="M4824.456,612.17a1.252,1.252,0,0,1-1.253-1.253V587.981A18,18,0,0,1,4841.184,570h14.586a1.253,1.253,0,0,1,0,2.505h-14.586a15.493,15.493,0,0,0-15.475,15.475v22.937A1.253,1.253,0,0,1,4824.456,612.17Z" transform="translate(-4823.203 -570)" fill="#c36967"/>
      </g>
      <g id="Grupo_15618" data-name="Grupo 15618" transform="translate(41.983 150.69)">
        <path id="Trazado_26736" data-name="Trazado 26736" d="M4824.456,692.35a1.252,1.252,0,0,1-1.253-1.253v-5.845a1.253,1.253,0,0,1,2.505,0V691.1A1.253,1.253,0,0,1,4824.456,692.35Z" transform="translate(-4823.203 -684)" fill="#c36967"/>
      </g>
      <g id="Grupo_15621" data-name="Grupo 15621" transform="translate(254.083 61.758)">
        <g id="Grupo_15619" data-name="Grupo 15619">
          <path id="Trazado_26737" data-name="Trazado 26737" d="M5366.483,541.561a35.281,35.281,0,1,1,35.281-35.281A35.321,35.321,0,0,1,5366.483,541.561Zm0-68.056a32.775,32.775,0,1,0,32.775,32.775A32.813,32.813,0,0,0,5366.483,473.505Z" transform="translate(-5331.203 -471)" fill="#c36967"/>
        </g>
        <g id="Grupo_15620" data-name="Grupo 15620" transform="translate(14.69 14.69)">
          <path id="Trazado_26738" data-name="Trazado 26738" d="M5398.049,547.365a1.247,1.247,0,0,1-.886-.367l-10.185-10.185L5376.793,547a1.252,1.252,0,0,1-1.771,0l-8.267-8.266a1.252,1.252,0,0,1,0-1.771l10.186-10.185-10.186-10.185a1.253,1.253,0,0,1,0-1.772l8.267-8.266a1.252,1.252,0,0,1,1.771,0l10.186,10.185,10.185-10.185a1.252,1.252,0,0,1,1.771,0l8.267,8.266a1.253,1.253,0,0,1,0,1.772l-10.185,10.185L5407.2,536.96a1.253,1.253,0,0,1,0,1.771L5398.935,547A1.247,1.247,0,0,1,5398.049,547.365Zm-11.071-13.576a1.253,1.253,0,0,1,.886.367l10.185,10.185,6.5-6.495-10.185-10.186a1.252,1.252,0,0,1,0-1.771l10.185-10.186-6.5-6.495-10.185,10.185a1.288,1.288,0,0,1-1.771,0l-10.186-10.185-6.5,6.495,10.185,10.186a1.252,1.252,0,0,1,0,1.771l-10.185,10.186,6.5,6.495,10.186-10.185A1.252,1.252,0,0,1,5386.979,533.789Z" transform="translate(-5366.388 -506.185)" fill="#c36967"/>
        </g>
      </g>
      <g id="Grupo_15622" data-name="Grupo 15622" transform="translate(277.882 131.483)">
        <path id="Trazado_26739" data-name="Trazado 26739" d="M5389.456,675.159a1.252,1.252,0,0,1-1.253-1.253V642.175a1.252,1.252,0,0,1,1.612-1.2c9.47,2.84,19.546,1.8,26.955-2.788a1.253,1.253,0,0,1,1.318,2.13c-7.586,4.7-17.711,5.97-27.381,3.5v30.085A1.252,1.252,0,0,1,5389.456,675.159Z" transform="translate(-5388.203 -637.999)" fill="#c36967"/>
      </g>
      <g id="Grupo_15623" data-name="Grupo 15623" transform="translate(277.882 171.566)">
        <path id="Trazado_26740" data-name="Trazado 26740" d="M5389.456,739.428a1.252,1.252,0,0,1-1.253-1.253v-2.923a1.252,1.252,0,1,1,2.5,0v2.923A1.252,1.252,0,0,1,5389.456,739.428Z" transform="translate(-5388.203 -734)" fill="#c36967"/>
      </g>
    </g>
  </g>
</svg>
