<svg xmlns="http://www.w3.org/2000/svg" xmlns:xlink="http://www.w3.org/1999/xlink" width="1012.073" height="870.156" viewBox="0 0 1012.073 870.156">
  <defs>
    <linearGradient id="linear-gradient" y1="0.5" x2="1" y2="0.5" gradientUnits="objectBoundingBox">
      <stop offset="0.011" stop-color="#605fde"/>
      <stop offset="0.712" stop-color="#8578ff"/>
    </linearGradient>
  </defs>
  <g id="Grupo_16160" data-name="Grupo 16160" transform="translate(-216.172 -1174.242)">
    <ellipse id="Elipse_1430" data-name="Elipse 1430" cx="39.799" cy="19.772" rx="39.799" ry="19.772" transform="translate(550.988 1653.361) rotate(-0.379)" fill="#a8c4e5" opacity="0.4" style="mix-blend-mode: multiply;isolation: isolate"/>
    <line id="Línea_56" data-name="Línea 56" x1="145.311" y1="90.366" transform="translate(845.298 1811.322)" fill="none" stroke="#d9e9ff" stroke-linecap="round" stroke-linejoin="round" stroke-width="2.686"/>
    <g id="Grupo_16105" data-name="Grupo 16105">
      <g id="Grupo_16101" data-name="Grupo 16101">
        <path id="Trazado_36803" data-name="Trazado 36803" d="M938.341,1949.332l-54.475-31.452c-6.664-3.847-5.821-10.631,1.875-15.074l73.811-42.614c7.7-4.443,19.444-4.93,26.109-1.083l54.475,31.452c6.664,3.847,5.821,10.631-1.875,15.074l-73.811,42.614C956.755,1952.692,945.006,1953.179,938.341,1949.332Z" fill="#d9e9ff" style="mix-blend-mode: multiply;isolation: isolate"/>
        <path id="Trazado_36804" data-name="Trazado 36804" d="M935.469,1937.491l-54.475-31.451c-6.664-3.847-5.821-10.631,1.875-15.074l73.811-42.615c7.7-4.443,19.444-4.93,26.109-1.082l54.475,31.451c6.664,3.848,5.82,10.631-1.875,15.074l-73.811,42.615C953.882,1940.852,942.133,1941.339,935.469,1937.491Z" fill="#9ec2ff"/>
        <path id="Trazado_36805" data-name="Trazado 36805" d="M984.531,1877.756l-26.575-15.343,10.218-5.9,26.575,15.343Z" fill="#fff"/>
      </g>
      <g id="Grupo_16102" data-name="Grupo 16102">
        <path id="Trazado_36806" data-name="Trazado 36806" d="M937.252,1919.614l-52-30.023,17.727-10.353,55.484-48.764c7.7-4.443,19.445-4.93,26.109-1.083l29.176,35.408,21.042,12.493-71.429,41.239C955.665,1922.974,943.916,1923.461,937.252,1919.614Z" fill="#d9e9ff" style="mix-blend-mode: multiply;isolation: isolate"/>
        <path id="Trazado_36807" data-name="Trazado 36807" d="M937.252,1912.752,882.777,1881.3c-6.665-3.848-5.821-10.631,1.874-15.074l73.811-42.615c7.7-4.443,19.445-4.93,26.109-1.082l54.475,31.451c6.665,3.848,5.821,10.631-1.874,15.074L963.36,1911.67C955.665,1916.113,943.916,1916.6,937.252,1912.752Z" fill="#bad4ff"/>
        <path id="Trazado_36808" data-name="Trazado 36808" d="M986.314,1853.016l-26.575-15.343,10.218-5.9,26.575,15.343Z" fill="#fff"/>
        <path id="Trazado_36809" data-name="Trazado 36809" d="M987.573,1885.413l-55.26-31.9,10.218-5.9,55.261,31.9Z" fill="#fff"/>
        <path id="Trazado_36810" data-name="Trazado 36810" d="M967.336,1897.1l-55.261-31.9,10.218-5.9,55.261,31.9Z" fill="#fff"/>
      </g>
      <g id="Grupo_16104" data-name="Grupo 16104">
        <g id="Grupo_16103" data-name="Grupo 16103">
          <path id="Trazado_36811" data-name="Trazado 36811" d="M1061.718,1833.949c-12.838-7.7-33.856-8.048-46.943-.779s-13.29,19.4-.452,27.1,33.627,8.054,46.957.933C1075.933,1853.378,1074.557,1841.648,1061.718,1833.949Z" fill="#e655be"/>
          <path id="Trazado_36812" data-name="Trazado 36812" d="M1033.527,1837.433l-5.359,12.55,30.962-3.9" fill="none" stroke="#fff" stroke-linecap="round" stroke-linejoin="round" stroke-width="5.372"/>
        </g>
      </g>
    </g>
    <line id="Línea_57" data-name="Línea 57" x1="145.311" y1="90.366" transform="translate(696.266 1903.792)" fill="none" stroke="#d9e9ff" stroke-linecap="round" stroke-linejoin="round" stroke-width="2.686"/>
    <line id="Línea_58" data-name="Línea 58" x1="145.311" y1="90.366" transform="translate(450.911 1769.882)" fill="none" stroke="#d9e9ff" stroke-linecap="round" stroke-linejoin="round" stroke-width="2.686"/>
    <path id="Trazado_36813" data-name="Trazado 36813" d="M708.746,1459.494l.954,188.59,66.324,37.509" fill="none" stroke="#d9e9ff" stroke-linecap="round" stroke-linejoin="round" stroke-width="3"/>
    <line id="Línea_59" data-name="Línea 59" y1="100.241" x2="162.745" transform="translate(826.047 1639.096)" fill="none" stroke="#d9e9ff" stroke-linecap="round" stroke-linejoin="round" stroke-width="3"/>
    <g id="Grupo_16106" data-name="Grupo 16106">
      <path id="Trazado_36814" data-name="Trazado 36814" d="M647.075,1952.108,525.9,1863.739c-8.438-4.889-7.366-13.405,2.4-19.021l255.493-146.989c9.762-5.616,24.516-6.2,32.955-1.315l140.877,81.623c8.439,4.889,7.366,13.406-2.4,19.022L699.729,1944.047C689.967,1949.663,676.127,1951.408,647.075,1952.108Z" fill="#d9e9ff"/>
      <path id="Trazado_36815" data-name="Trazado 36815" d="M921.937,1781.5,781.06,1699.878c-8.439-4.89-23.193-4.3-32.955,1.315L501.515,1843.06c2.192-6.037,4.422-12.485,4.422-12.485l-21.515,5.167.394,21.135c-1.006,3.815.738,7.624,5.4,10.326l140.877,81.623c8.439,4.89,23.193,4.3,32.955-1.315l255.493-146.988C929.3,1794.907,930.376,1786.39,921.937,1781.5Z" fill="#ebf1f7"/>
      <path id="Trazado_36816" data-name="Trazado 36816" d="M927.651,1766.635l-27.193,2.421-119.4-69.178c-8.439-4.89-23.193-4.3-32.955,1.315L646.563,1870.61l.512,81.5a37.808,37.808,0,0,0,16.974-4.6l255.493-146.988c5.588-3.215,8.314-7.379,8.053-11.27Z" fill="#a8c9ed"/>
      <path id="Trazado_36817" data-name="Trazado 36817" d="M623.432,1932.032c0,2.45-1.736,3.434-3.868,2.2a8.52,8.52,0,0,1-3.856-6.673c0-2.449,1.736-3.433,3.869-2.2A8.517,8.517,0,0,1,623.432,1932.032Z" fill="#2964d6"/>
      <path id="Trazado_36818" data-name="Trazado 36818" d="M631.119,1925.132l-140.877-81.623c-8.439-4.89-7.366-13.406,2.395-19.022L748.13,1677.5c9.762-5.616,24.516-6.205,32.955-1.316l140.876,81.624c8.439,4.889,7.367,13.405-2.4,19.021L664.073,1923.817C654.312,1929.432,639.558,1930.021,631.119,1925.132Z" fill="#fff"/>
      <path id="Trazado_36819" data-name="Trazado 36819" d="M631.119,1920.594l-140.877-81.623c-8.439-4.89-7.366-13.406,2.395-19.022L748.13,1672.961c9.762-5.616,24.516-6.205,32.955-1.316l140.876,81.624c8.439,4.889,7.367,13.4-2.4,19.021L664.073,1919.279C654.312,1924.9,639.558,1925.484,631.119,1920.594Z" fill="#3b2ad1"/>
      <path id="Trazado_36820" data-name="Trazado 36820" d="M856.225,1733.777l-38.9-22.537c-1.6-.93-1.4-2.563.457-3.631h0a7.016,7.016,0,0,1,6.29-.25l38.9,22.537c1.6.93,1.4,2.563-.458,3.631h0A7.016,7.016,0,0,1,856.225,1733.777Z" fill="#5141d9"/>
      <path id="Trazado_36821" data-name="Trazado 36821" d="M573.246,1906.526,542,1888.423a5.788,5.788,0,0,1-2.4-4.6h0c0-1.766,1.087-2.583,2.411-1.817l31.244,18.1a5.792,5.792,0,0,1,2.4,4.6h0C575.654,1906.475,574.569,1907.293,573.246,1906.526Z" fill="#2964d6"/>
      <path id="Trazado_36822" data-name="Trazado 36822" d="M756.064,1685.944l-214.845,123.6a7.5,7.5,0,0,0-.02,12.987l130.21,75.443a7.5,7.5,0,0,0,7.5.012l214.845-123.6a7.5,7.5,0,0,0,.02-12.988l-130.21-75.443A7.5,7.5,0,0,0,756.064,1685.944Z" fill="url(#linear-gradient)"/>
      <path id="Trazado_36823" data-name="Trazado 36823" d="M869.97,1816.555h0c.325,2.63,2.452,3.7,4.728,2.384l15.343-8.892a7.889,7.889,0,0,0,3.547-7.18h0c-.325-2.63-2.453-3.7-4.728-2.384l-15.343,8.892A7.886,7.886,0,0,0,869.97,1816.555Z" fill="#e6f0ff"/>
      <path id="Trazado_36824" data-name="Trazado 36824" d="M871.218,1817.94h0c.325,2.63,2.453,3.7,4.728,2.384l15.343-8.892a7.886,7.886,0,0,0,3.547-7.18h0c-.325-2.63-2.453-3.7-4.728-2.384l-15.343,8.892A7.885,7.885,0,0,0,871.218,1817.94Z" fill="#6899e3"/>
      <path id="Trazado_36825" data-name="Trazado 36825" d="M842.14,1833.021h0c.325,2.63,2.453,3.7,4.729,2.384l15.342-8.892a7.883,7.883,0,0,0,3.547-7.179h0c-.325-2.631-2.452-3.7-4.728-2.385l-15.343,8.892A7.89,7.89,0,0,0,842.14,1833.021Z" fill="#e6f0ff"/>
      <path id="Trazado_36826" data-name="Trazado 36826" d="M843.291,1834.125h0c.324,2.63,2.452,3.7,4.728,2.384l15.343-8.892a7.887,7.887,0,0,0,3.546-7.18h0c-.325-2.63-2.452-3.7-4.728-2.384l-15.343,8.892A7.886,7.886,0,0,0,843.291,1834.125Z" fill="#6899e3"/>
    </g>
    <g id="Grupo_16117" data-name="Grupo 16117">
      <path id="Trazado_36827" data-name="Trazado 36827" d="M1154.712,1553.021c-53.738-32.228-141.711-33.688-196.493-3.262s-55.627,81.217-1.888,113.445,140.75,33.713,196.545,3.906C1214.21,1634.344,1208.451,1585.249,1154.712,1553.021Z" fill="#d9e9ff"/>
      <path id="Trazado_36828" data-name="Trazado 36828" d="M1171.465,1572.028l-52.71-12.57c-52.562-25.824-129.976-26.1-181.441,0l-46.235,8.088.065,52.737c.669,19.754,13.851,39.544,39.692,55.041,53.739,32.228,140.751,33.713,196.546,3.906,31.52-16.838,45.279-37.989,43.954-58.947Z" fill="#9ec2ff"/>
      <path id="Trazado_36829" data-name="Trazado 36829" d="M1129.218,1511.447c-53.739-32.227-141.712-33.688-196.493-3.262S877.1,1589.4,930.836,1621.63s140.751,33.713,196.546,3.906C1188.716,1592.771,1182.956,1543.675,1129.218,1511.447Z" fill="#467de4"/>
      <path id="Trazado_36830" data-name="Trazado 36830" d="M1171.465,1491.726l-52.71-12.569c-52.562-25.825-129.976-26.1-181.441,0l-46.235,8.088.065,52.737c.669,19.753,13.851,39.543,39.692,55.041,53.739,32.228,140.751,33.713,196.546,3.906,31.52-16.838,45.279-37.989,43.954-58.947Z" fill="#9ec2ff"/>
      <path id="Trazado_36831" data-name="Trazado 36831" d="M1129.218,1431.146c-53.739-32.228-141.712-33.688-196.493-3.262s-55.627,81.217-1.889,113.445,140.751,33.713,196.546,3.906C1188.716,1512.469,1182.956,1463.374,1129.218,1431.146Z" fill="#467de4"/>
      <path id="Trazado_36832" data-name="Trazado 36832" d="M1171.465,1411.425l-52.71-12.569c-52.562-25.825-129.976-26.1-181.441,0l-46.235,8.087.065,52.737c.669,19.754,13.851,39.544,39.692,55.042,53.739,32.227,140.751,33.713,196.546,3.906,31.52-16.839,45.279-37.989,43.954-58.948Z" fill="#9ec2ff"/>
      <path id="Trazado_36833" data-name="Trazado 36833" d="M1129.218,1350.845c-53.739-32.228-141.712-33.689-196.493-3.262s-55.627,81.217-1.889,113.445,140.751,33.713,196.546,3.906C1188.716,1432.168,1182.956,1383.073,1129.218,1350.845Z" fill="#d9e9ff"/>
      <path id="Trazado_36834" data-name="Trazado 36834" d="M921.242,1480.506c0,4.357-3.074,6.113-6.87,3.922a15.152,15.152,0,0,1-6.874-11.857c0-4.357,3.075-6.113,6.87-3.921A15.147,15.147,0,0,1,921.242,1480.506Z" fill="#467de4"/>
      <g id="Grupo_16108" data-name="Grupo 16108">
        <g id="Grupo_16107" data-name="Grupo 16107">
          <ellipse id="Elipse_1431" data-name="Elipse 1431" cx="5.594" cy="9.691" rx="5.594" ry="9.691" transform="matrix(0.863, -0.504, 0.504, 0.863, 927.81, 1485.855)" fill="#fff"/>
        </g>
      </g>
      <g id="Grupo_16110" data-name="Grupo 16110">
        <g id="Grupo_16109" data-name="Grupo 16109">
          <path id="Trazado_36835" data-name="Trazado 36835" d="M967.559,1510.231c0,4.357-3.075,6.112-6.871,3.921a15.15,15.15,0,0,1-6.874-11.856c0-4.357,3.075-6.113,6.87-3.922A15.153,15.153,0,0,1,967.559,1510.231Z" fill="#fff"/>
        </g>
      </g>
      <g id="Grupo_16112" data-name="Grupo 16112">
        <g id="Grupo_16111" data-name="Grupo 16111">
          <path id="Trazado_36836" data-name="Trazado 36836" d="M921.242,1559.16c0,4.357-3.074,6.112-6.87,3.921a15.15,15.15,0,0,1-6.874-11.856c0-4.357,3.075-6.113,6.87-3.922A15.149,15.149,0,0,1,921.242,1559.16Z" fill="#fff"/>
        </g>
      </g>
      <path id="Trazado_36837" data-name="Trazado 36837" d="M944.4,1574.022c0,4.357-3.074,6.113-6.87,3.921a15.15,15.15,0,0,1-6.874-11.856c0-4.357,3.075-6.113,6.87-3.922A15.149,15.149,0,0,1,944.4,1574.022Z" fill="#467de4"/>
      <g id="Grupo_16114" data-name="Grupo 16114">
        <g id="Grupo_16113" data-name="Grupo 16113">
          <path id="Trazado_36838" data-name="Trazado 36838" d="M967.559,1588.884c0,4.357-3.075,6.113-6.871,3.922a15.152,15.152,0,0,1-6.874-11.857c0-4.357,3.075-6.112,6.87-3.921A15.151,15.151,0,0,1,967.559,1588.884Z" fill="#fff"/>
        </g>
      </g>
      <path id="Trazado_36839" data-name="Trazado 36839" d="M921.242,1637.813c0,4.357-3.074,6.113-6.87,3.922a15.152,15.152,0,0,1-6.874-11.857c0-4.357,3.075-6.113,6.87-3.921A15.147,15.147,0,0,1,921.242,1637.813Z" fill="#467de4"/>
      <path id="Trazado_36840" data-name="Trazado 36840" d="M944.4,1652.675c0,4.357-3.074,6.113-6.87,3.922a15.15,15.15,0,0,1-6.874-11.856c0-4.357,3.075-6.113,6.87-3.922A15.147,15.147,0,0,1,944.4,1652.675Z" fill="#467de4"/>
      <g id="Grupo_16116" data-name="Grupo 16116">
        <g id="Grupo_16115" data-name="Grupo 16115">
          <path id="Trazado_36841" data-name="Trazado 36841" d="M967.559,1667.538c0,4.357-3.075,6.112-6.871,3.921a15.15,15.15,0,0,1-6.874-11.856c0-4.357,3.075-6.113,6.87-3.922A15.153,15.153,0,0,1,967.559,1667.538Z" fill="#fff"/>
        </g>
      </g>
    </g>
    <path id="Trazado_36842" data-name="Trazado 36842" d="M1134.052,1306.881c-53.739-32.228-141.712-33.689-196.493-3.263s-55.627,81.217-1.889,113.445,140.751,33.714,196.546,3.907C1193.55,1388.2,1187.79,1339.108,1134.052,1306.881Z" fill="none" stroke="#9ec2ff" stroke-linecap="round" stroke-linejoin="round" stroke-width="6.407" opacity="0.27"/>
    <g id="Grupo_16120" data-name="Grupo 16120">
      <g id="Grupo_16118" data-name="Grupo 16118">
        <path id="Trazado_36843" data-name="Trazado 36843" d="M1105.389,1420.919l-118.965-61.528-1.335-88.927,123.771,62.005Z" fill="#6457de"/>
        <path id="Trazado_36844" data-name="Trazado 36844" d="M1080.56,1433.934l-119.332-66.046,15.833-19.618,128.328,72.65Z" fill="#e68143"/>
        <path id="Trazado_36845" data-name="Trazado 36845" d="M1100.6,1422.474l-115.97-47.382-4.019-99.6,122.309,62.956Z" fill="#d3dae3"/>
        <path id="Trazado_36846" data-name="Trazado 36846" d="M1094.821,1426.545,979.176,1361.89l-6.386-81.547L1095.1,1343.3Z" fill="#e6f0ff"/>
        <path id="Trazado_36847" data-name="Trazado 36847" d="M1089.344,1427.234l-116.9-59.763-6.386-81.547,122.309,62.956Z" fill="#f5f9ff"/>
        <path id="Trazado_36848" data-name="Trazado 36848" d="M1078.791,1428.849l26.872-14.884-.208,6.924-24.894,13.045Z" fill="#9a8fff"/>
        <path id="Trazado_36849" data-name="Trazado 36849" d="M995.585,1299.448l-5.634-12.937-30.312-18.4-6.32,2.324,10.7,96.8,111.111,63.687,9.883-3.484V1347.6Z" fill="#9a8fff"/>
        <path id="Trazado_36850" data-name="Trazado 36850" d="M954.389,1283.628l-1.071-13.19,34.206,21.236,6.466,14.848Z" fill="#8578ff"/>
        <path id="Trazado_36851" data-name="Trazado 36851" d="M1080.56,1433.934,961.6,1372.405l-7.206-88.777,126.3,68.358Z" fill="#8578ff"/>
      </g>
      <g id="Grupo_16119" data-name="Grupo 16119">
        <path id="Trazado_36852" data-name="Trazado 36852" d="M1032.882,1409.272l-24.429-12.632.7-48.635,24.42,13.216Z" fill="#fff"/>
        <path id="Trazado_36853" data-name="Trazado 36853" d="M1001.2,1358.331l38.715,18.892c2.413,1.178,5.07-1.6,3.706-3.878l-21.683-36.159a3.239,3.239,0,0,0-5.09-.413l-16.331,16.512A3.109,3.109,0,0,0,1001.2,1358.331Z" fill="#fff"/>
      </g>
    </g>
    <g id="Grupo_16125" data-name="Grupo 16125">
      <path id="Trazado_36854" data-name="Trazado 36854" d="M779.793,1751.215l-63.754,21.266c-14.542-3.931-32.147-2.692-44.232,3.925-11.127,6.091-14.608,15.116-10.379,23.209-2.018,7,1.571,14.517,10.835,20.15l.05.029a18.814,18.814,0,0,1-12.6,6.353c-4.487.286-8.73,1.336-12.215-1.468-.632-.508-3.083,2.269-3.475,3.809-6.541,5.562-13.767,15.252,5.381,21.253,28.089,8.8,50.425,2.106,56.273,17.61l2.694-14.829s16.694,5.182,15.275,4.189-6.5-16-35.255-15.691c-24.236.259-44.548-.3-42.2-10.238,10.1,6.318,24.486,3.138,32.094-6.156a2.785,2.785,0,0,0,.588-1.6c15.408,6.13,36.362,5.573,50.141-1.97,11.126-6.092,14.607-15.117,10.378-23.21a13.748,13.748,0,0,0,.518-3.045l42.942-23.509,7.976-13.844.037-5.03Z" fill="#91b3db" opacity="0.4" style="mix-blend-mode: multiply;isolation: isolate"/>
      <g id="Grupo_16124" data-name="Grupo 16124">
        <path id="Trazado_36855" data-name="Trazado 36855" d="M790.865,1738.173l-101.241,54.608,20.888,12.7,71.4-39.087,7.976-13.844Z" fill="#9ec2ff"/>
        <path id="Trazado_36856" data-name="Trazado 36856" d="M728.815,1783.394c-15.466-9.4-40.874-9.982-56.75-1.29s-16.21,23.361-.744,32.765,40.874,9.982,56.751,1.29S744.281,1792.8,728.815,1783.394Z" fill="#9ec2ff"/>
        <path id="Trazado_36857" data-name="Trazado 36857" d="M779.207,1732.487l-90.783,49.7,20.888,12.7,71.4-39.087,10.156-17.628Z" fill="#fff"/>
        <path id="Trazado_36858" data-name="Trazado 36858" d="M727.615,1772.8c-15.466-9.4-40.874-9.982-56.751-1.29s-16.209,23.361-.743,32.765,40.874,9.981,56.751,1.29S743.081,1782.2,727.615,1772.8Z" fill="#fff"/>
        <path id="Trazado_36859" data-name="Trazado 36859" d="M718.033,1775.91c-10.988-6.682-29.041-7.092-40.321-.917s-11.517,16.6-.528,23.279,29.04,7.092,40.321.917S729.021,1782.591,718.033,1775.91Z" fill="#bfd7ff"/>
        <path id="Trazado_36860" data-name="Trazado 36860" d="M691.757,1796.507c-.083,3.64-5.271,6.475-11.588,6.332s-11.371-3.212-11.289-6.852,5.271-6.476,11.588-6.332S691.84,1792.866,691.757,1796.507Z" fill="#9ec2ff"/>
        <path id="Trazado_36861" data-name="Trazado 36861" d="M690.3,1799.617c-1.984,2.011-5.793,3.32-10.136,3.222-4.46-.1-8.291-1.661-10.129-3.85C674.477,1794.761,687.815,1796.119,690.3,1799.617Z" fill="#c9d5f5"/>
        <g id="Grupo_16121" data-name="Grupo 16121">
          <path id="Trazado_36862" data-name="Trazado 36862" d="M712.744,1774.6l-.938-1.676,69-39.662,2.062,1.005Z" fill="#bfd7ff"/>
        </g>
        <g id="Grupo_16122" data-name="Grupo 16122">
          <path id="Trazado_36863" data-name="Trazado 36863" d="M702.751,1785.037l-.959-1.664,83.307-48.012,2.084,1.016Z" fill="#bfd7ff"/>
        </g>
        <g id="Grupo_16123" data-name="Grupo 16123">
          <rect id="Rectángulo_3092" data-name="Rectángulo 3092" width="84.857" height="1.921" transform="translate(714.434 1783.657) rotate(-29.847)" fill="#bfd7ff"/>
        </g>
      </g>
      <path id="Trazado_36864" data-name="Trazado 36864" d="M648.981,1823.7a.554.554,0,0,0-.778-.761c-6.4,4.519-20.488,16.725,2.088,23.8,28.089,8.8,50.425,2.106,56.273,17.61l2.694-14.829s16.694,5.182,15.275,4.189-6.5-16-35.255-15.691C662.073,1838.314,639.787,1837.582,648.981,1823.7Z" fill="#e655be"/>
      <path id="Trazado_36865" data-name="Trazado 36865" d="M673.721,1819.506a22.385,22.385,0,1,1,4.415-18.85" fill="none" stroke="#3b2ad1" stroke-linecap="round" stroke-linejoin="round" stroke-width="6"/>
    </g>
    <g id="Grupo_16130" data-name="Grupo 16130">
      <g id="Grupo_16126" data-name="Grupo 16126">
        <path id="Trazado_36866" data-name="Trazado 36866" d="M789.308,2041.8l-54.475-31.451c-6.664-3.848-5.821-10.632,1.875-15.074l73.811-42.615c7.7-4.443,19.444-4.93,26.109-1.083l54.475,31.452c6.664,3.847,5.821,10.631-1.875,15.074l-73.811,42.614C807.722,2045.162,795.973,2045.649,789.308,2041.8Z" fill="#d9e9ff" style="mix-blend-mode: multiply;isolation: isolate"/>
        <path id="Trazado_36867" data-name="Trazado 36867" d="M786.436,2029.961l-54.475-31.451c-6.664-3.847-5.821-10.631,1.875-15.074l73.811-42.615c7.7-4.443,19.444-4.93,26.109-1.082l54.475,31.451c6.664,3.848,5.821,10.631-1.875,15.074l-73.811,42.615C804.85,2033.322,793.1,2033.809,786.436,2029.961Z" fill="#9ec2ff"/>
        <path id="Trazado_36868" data-name="Trazado 36868" d="M835.5,1970.226l-26.574-15.343,10.218-5.9,26.575,15.343Z" fill="#fff"/>
      </g>
      <g id="Grupo_16127" data-name="Grupo 16127">
        <path id="Trazado_36869" data-name="Trazado 36869" d="M788.219,2012.084l-52-30.023,17.727-10.353,55.484-48.764c7.7-4.443,19.445-4.93,26.109-1.083l29.176,35.408,21.043,12.493L814.328,2011C806.632,2015.444,794.883,2015.931,788.219,2012.084Z" fill="#d9e9ff" style="mix-blend-mode: multiply;isolation: isolate"/>
        <path id="Trazado_36870" data-name="Trazado 36870" d="M788.219,2005.222l-54.475-31.451c-6.665-3.848-5.821-10.631,1.874-15.074l73.811-42.615c7.7-4.443,19.445-4.93,26.109-1.082l54.475,31.451c6.665,3.848,5.821,10.631-1.874,15.074l-73.811,42.615C806.632,2008.583,794.883,2009.07,788.219,2005.222Z" fill="#bad4ff"/>
        <path id="Trazado_36871" data-name="Trazado 36871" d="M837.281,1945.486l-26.575-15.343,10.218-5.9,26.575,15.343Z" fill="#fff"/>
        <path id="Trazado_36872" data-name="Trazado 36872" d="M838.54,1977.883l-55.261-31.9,10.218-5.9,55.261,31.9Z" fill="#fff"/>
        <path id="Trazado_36873" data-name="Trazado 36873" d="M818.3,1989.567l-55.261-31.9,10.218-5.9,55.261,31.9Z" fill="#fff"/>
      </g>
      <g id="Grupo_16129" data-name="Grupo 16129">
        <g id="Grupo_16128" data-name="Grupo 16128">
          <path id="Trazado_36874" data-name="Trazado 36874" d="M912.686,1926.419c-12.839-7.7-33.856-8.048-46.944-.779s-13.29,19.4-.451,27.1,33.626,8.054,46.956.933C926.9,1945.848,925.524,1934.119,912.686,1926.419Z" fill="#e655be"/>
          <path id="Trazado_36875" data-name="Trazado 36875" d="M884.494,1929.9l-5.359,12.55,30.962-3.9" fill="none" stroke="#fff" stroke-linecap="round" stroke-linejoin="round" stroke-width="5.372"/>
        </g>
      </g>
    </g>
    <g id="Grupo_16135" data-name="Grupo 16135">
      <g id="Grupo_16131" data-name="Grupo 16131">
        <path id="Trazado_36876" data-name="Trazado 36876" d="M412.358,1815.613l-54.475-31.451c-6.665-3.848-5.821-10.631,1.874-15.074l73.811-42.615c7.7-4.443,19.445-4.93,26.109-1.082l54.475,31.451c6.665,3.848,5.821,10.631-1.874,15.074l-73.812,42.615C430.771,1818.974,419.022,1819.461,412.358,1815.613Z" fill="#d9e9ff" style="mix-blend-mode: multiply;isolation: isolate"/>
        <path id="Trazado_36877" data-name="Trazado 36877" d="M409.486,1803.773l-54.475-31.451c-6.665-3.848-5.821-10.631,1.874-15.074l73.811-42.615c7.7-4.443,19.445-4.93,26.109-1.082L511.28,1745c6.664,3.848,5.821,10.631-1.874,15.074l-73.812,42.615C427.9,1807.134,416.15,1807.621,409.486,1803.773Z" fill="#9ec2ff"/>
        <path id="Trazado_36878" data-name="Trazado 36878" d="M458.548,1744.037l-26.575-15.343,10.218-5.9,26.575,15.343Z" fill="#fff"/>
      </g>
      <g id="Grupo_16132" data-name="Grupo 16132">
        <path id="Trazado_36879" data-name="Trazado 36879" d="M411.268,1785.9l-52-30.023,17.728-10.353,55.484-48.764c7.7-4.443,19.444-4.93,26.109-1.082l29.175,35.407,21.043,12.493-71.429,41.24C429.681,1789.256,417.932,1789.743,411.268,1785.9Z" fill="#d9e9ff" style="mix-blend-mode: multiply;isolation: isolate"/>
        <path id="Trazado_36880" data-name="Trazado 36880" d="M411.268,1779.034l-54.475-31.451c-6.664-3.848-5.821-10.632,1.875-15.074l73.811-42.615c7.7-4.443,19.444-4.93,26.109-1.083l54.475,31.452c6.664,3.847,5.82,10.631-1.875,15.074l-73.811,42.614C429.681,1782.394,417.932,1782.881,411.268,1779.034Z" fill="#bad4ff"/>
        <path id="Trazado_36881" data-name="Trazado 36881" d="M460.33,1719.3l-26.575-15.343,10.218-5.9,26.574,15.343Z" fill="#fff"/>
        <path id="Trazado_36882" data-name="Trazado 36882" d="M461.59,1751.695l-55.261-31.9,10.218-5.9,55.261,31.9Z" fill="#fff"/>
        <path id="Trazado_36883" data-name="Trazado 36883" d="M441.352,1763.379l-55.26-31.9,10.218-5.9,55.261,31.9Z" fill="#fff"/>
      </g>
      <g id="Grupo_16134" data-name="Grupo 16134">
        <g id="Grupo_16133" data-name="Grupo 16133">
          <path id="Trazado_36884" data-name="Trazado 36884" d="M535.735,1700.231c-12.839-7.7-33.856-8.049-46.944-.78s-13.29,19.4-.451,27.1,33.626,8.054,46.956.933C549.95,1719.659,548.574,1707.93,535.735,1700.231Z" fill="#e655be"/>
          <path id="Trazado_36885" data-name="Trazado 36885" d="M507.543,1703.715l-5.359,12.55,30.962-3.9" fill="none" stroke="#fff" stroke-linecap="round" stroke-linejoin="round" stroke-width="5.372"/>
        </g>
      </g>
    </g>
    <g id="Grupo_16138" data-name="Grupo 16138">
      <g id="Grupo_16136" data-name="Grupo 16136">
        <path id="Trazado_36886" data-name="Trazado 36886" d="M806.291,1598.167c7.165,3.67,12.973,11.313,15.026,18.946l8.169-5.416c-4.467-10.2-12.671-19.623-22.391-24.6s-18.656-4.33-24.23.721l6.825,13.1C792.665,1595.854,799.126,1594.5,806.291,1598.167Z" fill="#f2b02e"/>
        <path id="Trazado_36887" data-name="Trazado 36887" d="M770.99,1565.028l6.45,12.377c7.438-5.34,18.43-5.629,30.325.464s22.058,17.218,28.216,29.523l7.72-5.119c-.831-1.526-1.721-3.028-2.643-4.514-8.043-12.966-19.468-24.292-32.489-30.962C794.055,1559.362,780.56,1559.236,770.99,1565.028Z" fill="#f2b02e"/>
        <path id="Trazado_36888" data-name="Trazado 36888" d="M799.222,1619.15c.117.17.231.341.355.508.208.277.427.542.654.806q.3.356.625.691c.2.208.4.411.61.607.286.266.586.511.89.752.175.138.342.283.52.408a12.348,12.348,0,0,0,1.548.959,10.161,10.161,0,0,0,1.572.64c.182.059.358.089.539.134a7.96,7.96,0,0,0,.932.181,6.378,6.378,0,0,0,.652.039,6,6,0,0,0,.676-.023,5.351,5.351,0,0,0,.72-.1c.139-.031.268-.078.4-.12a4.71,4.71,0,0,0,3.011-2.821v-.005a7.619,7.619,0,0,0,.513-2.109,9.368,9.368,0,0,0-.047-1.8,15.218,15.218,0,0,0-7.737-10.995c-4.061-2.081-7.658-.906-8.722,2.564a7.359,7.359,0,0,0-.295,1.623,8.122,8.122,0,0,0,.036,1.391,10.794,10.794,0,0,0,.146,1.074v0a12.815,12.815,0,0,0,.648,2.239A15.428,15.428,0,0,0,799.222,1619.15Z" fill="#e8a82c"/>
      </g>
      <path id="Trazado_36889" data-name="Trazado 36889" d="M763.064,1570.853l49.24,12.268,23.471,24.977,1.362-4.783-6.584-16.071s-17.505-12.2-18.383-13.019-36.658-9.437-36.658-9.437l-4.522.24Z" fill="#f2b02e"/>
      <path id="Trazado_36890" data-name="Trazado 36890" d="M774.94,1593.642l7.926-5.825,15.617,2.055L815.3,1601.1l8.891,14.1-2.635,2.318-18.743-20.4Z" fill="#f2b02e"/>
      <path id="Trazado_36891" data-name="Trazado 36891" d="M791.41,1612.277l6.765-4.97,13.807,16.01-7.771,5.645Z" fill="#e8a82c"/>
      <g id="Grupo_16137" data-name="Grupo 16137">
        <path id="Trazado_36892" data-name="Trazado 36892" d="M798.366,1603.993c7.165,3.67,12.973,11.312,15.026,18.945l8.168-5.416c-4.467-10.194-12.671-19.623-22.391-24.6s-18.655-4.33-24.229.722l6.825,13.1C784.739,1601.68,791.2,1600.322,798.366,1603.993Z" fill="#ffc248"/>
        <path id="Trazado_36893" data-name="Trazado 36893" d="M763.064,1570.853l6.45,12.378c7.439-5.341,18.43-5.63,30.325.463s22.058,17.219,28.216,29.523l7.72-5.119c-.831-1.526-1.72-3.028-2.642-4.514-8.044-12.966-19.468-24.292-32.49-30.962C786.129,1565.188,772.634,1565.062,763.064,1570.853Z" fill="#ffc248"/>
        <path id="Trazado_36894" data-name="Trazado 36894" d="M791.3,1624.975c.118.171.231.342.356.508.207.277.427.542.653.807q.3.354.625.69c.2.208.4.411.611.607.285.266.586.512.89.752.175.138.342.284.519.409a12.491,12.491,0,0,0,1.549.958,10.066,10.066,0,0,0,1.571.64c.183.059.358.089.54.134a7.785,7.785,0,0,0,.931.181,6.078,6.078,0,0,0,.652.039,5.807,5.807,0,0,0,.677-.023,5.5,5.5,0,0,0,.719-.1c.139-.032.268-.079.4-.121a4.711,4.711,0,0,0,3.012-2.821v0h0a7.565,7.565,0,0,0,.514-2.109,9.545,9.545,0,0,0-.047-1.8,15.223,15.223,0,0,0-7.737-10.995c-4.062-2.08-7.658-.905-8.722,2.564a7.314,7.314,0,0,0-.3,1.623,8.142,8.142,0,0,0,.036,1.392c.028.356.082.713.146,1.073v0a12.7,12.7,0,0,0,.647,2.239A15.468,15.468,0,0,0,791.3,1624.975Z" fill="#ffc248"/>
      </g>
    </g>
    <path id="Trazado_36895" data-name="Trazado 36895" d="M727.692,1367.319c25.866,14.356,46.4,49.674,45.856,78.876-.011.6-.044,1.191-.069,1.781a33.03,33.03,0,0,1,3.9,1.852c15.5,8.6,27.8,29.756,27.473,47.256-.314,16.91-12.31,24.212-27.112,16.911l-104.109-58.157c-17.492-9.618-31.322-33.473-30.955-53.21.371-19.922,14.806-28.228,32.453-18.434a46.873,46.873,0,0,1,5.27,3.431C683.841,1363.273,703.864,1354.095,727.692,1367.319Z" fill="#6457de"/>
    <path id="Trazado_36896" data-name="Trazado 36896" d="M717.455,1375.288c25.866,14.356,46.4,49.674,45.856,78.875-.011.6-.044,1.192-.069,1.781a33.2,33.2,0,0,1,3.9,1.853c15.5,8.6,27.8,29.756,27.473,47.256-.314,16.91-12.31,24.212-27.113,16.911L663.39,1463.807c-17.491-9.618-31.321-33.473-30.954-53.21.371-19.922,14.806-28.228,32.453-18.434a46.873,46.873,0,0,1,5.27,3.431C673.6,1371.242,693.627,1362.064,717.455,1375.288Z" fill="#fff"/>
    <path id="Trazado_36897" data-name="Trazado 36897" d="M712.488,1376.552c25.867,14.356,46.4,49.674,45.857,78.876-.011.6-.044,1.191-.07,1.781a33.042,33.042,0,0,1,3.9,1.853c15.5,8.6,27.8,29.755,27.474,47.255-.315,16.91-12.31,24.213-27.113,16.911l-104.109-58.157c-17.491-9.618-31.321-33.473-30.954-53.209.37-19.923,14.805-28.229,32.453-18.435a47,47,0,0,1,5.269,3.431C668.637,1372.506,688.661,1363.328,712.488,1376.552Z" fill="#9ec2ff"/>
    <path id="Trazado_36898" data-name="Trazado 36898" d="M703.354,1380.521c25.867,14.356,46.4,49.674,45.857,78.875-.012.6-.044,1.192-.07,1.781a33.279,33.279,0,0,1,3.9,1.853c15.5,8.6,27.8,29.756,27.473,47.255C780.2,1527.2,768.2,1534.5,753.4,1527.2L649.29,1469.04c-17.491-9.618-31.321-33.473-30.954-53.21.37-19.922,14.8-28.228,32.453-18.434a46.988,46.988,0,0,1,5.269,3.43C659.5,1376.475,679.527,1367.3,703.354,1380.521Z" fill="#d9e9ff" opacity="0.39"/>
    <path id="Trazado_36899" data-name="Trazado 36899" d="M632.949,1395.045c5.833-6.745,15.75-7.847,26.974-1.618a47,47,0,0,1,5.269,3.431c1.27-8.975,4.8-15.88,9.93-20.371,5.444,8.114,8.48,17.766,7.638,26.425-1.495,15.384-14.663,21.81-29.411,14.351C644.528,1412.8,637.143,1404.383,632.949,1395.045Z" fill="#9ec2ff"/>
    <ellipse id="Elipse_1432" data-name="Elipse 1432" cx="23.029" cy="33.888" rx="23.029" ry="33.888" transform="matrix(0.832, -0.554, 0.554, 0.832, 615.608, 1363.165)" fill="#e655be"/>
    <g id="Grupo_16139" data-name="Grupo 16139">
      <path id="Trazado_36900" data-name="Trazado 36900" d="M660.278,1399.195l-14.727-7.3c-2.483-1.23-4.575-4.875-4.65-8.1l-.271-11.635c-.075-3.226,1.9-4.859,4.377-3.629l14.728,7.3c2.482,1.23,4.575,4.875,4.65,8.1l.27,11.635C664.73,1398.792,662.761,1400.425,660.278,1399.195Z" fill="none" stroke="#fff" stroke-linecap="round" stroke-linejoin="round" stroke-width="2.721"/>
      <path id="Trazado_36901" data-name="Trazado 36901" d="M645.47,1362.831l-.1-4.281c-.069-2.993,2.063-4.357,4.739-3.031l3.685,1.825a9.909,9.909,0,0,1,4.992,7.852l.108,4.641" fill="none" stroke="#fff" stroke-linecap="round" stroke-linejoin="round" stroke-width="2.721"/>
      <path id="Trazado_36902" data-name="Trazado 36902" d="M655.284,1383.873c.039,1.683-1.149,2.443-2.655,1.7a5.53,5.53,0,0,1-2.8-4.4c-.039-1.683,1.149-2.443,2.655-1.7A5.53,5.53,0,0,1,655.284,1383.873Z" fill="#fff"/>
      <line id="Línea_60" data-name="Línea 60" x2="0.149" y2="6.422" transform="translate(652.541 1381.78)" fill="none" stroke="#fff" stroke-linecap="round" stroke-linejoin="round" stroke-width="2.721"/>
    </g>
    <path id="Trazado_36903" data-name="Trazado 36903" d="M557.781,1664.691l13-11.65c1.71-.877,5.469-1.1,7.993-.636a2.444,2.444,0,0,1,1.977,2.357l.06,2.485c.212,3.579-.134,4.079-2.391,5.237l-13.4,6.875c-2.257,1.158-5.614,1.131-7.46-.06l-.523-.338C555.188,1667.77,555.524,1665.849,557.781,1664.691Z" fill="#3b2ad1"/>
    <path id="Trazado_36904" data-name="Trazado 36904" d="M562.2,1581.757l9.573,70.909c.632,6.341,7.54,4.106,8.058.23l.756-91.5Z" fill="#ffc2b0"/>
    <path id="Trazado_36905" data-name="Trazado 36905" d="M609.948,1681.746l-.881-17.432c.393-1.881,2.586-4.942,4.533-6.614a2.443,2.443,0,0,1,3.076-.054l1.969,1.515c2.916,2.088,3.087,2.671,2.568,5.153l-3.085,14.743c-.519,2.483-2.651,5.076-4.738,5.762l-.592.194C610.711,1685.7,609.429,1684.229,609.948,1681.746Z" fill="#3b2ad1"/>
    <path id="Trazado_36906" data-name="Trazado 36906" d="M585.86,1561.914l3.052,43.909a86.57,86.57,0,0,0,7.122,28.864l13.033,29.627c.512,6.606,7.03-2.651,7.609-6.668l-9.347-35.208a17.373,17.373,0,0,1-.576-4.878l1.1-44.651Z" fill="#ffc2b0"/>
    <g id="Grupo_16141" data-name="Grupo 16141">
      <path id="Trazado_36907" data-name="Trazado 36907" d="M630.29,1994.147,540.013,1941.9c-.212-.147-.423-.294-.66-.431l-100.722-58.294c-5.113-2.959-14.218-2.511-20.337,1l-52.715,30.269c-4.4,2.526-4.592,8.755-.347,11.212l81.429,47.128-.043.024,110.288,63.831a18.256,18.256,0,0,0,18.226-.146l53.339-30.627C634.589,2002.353,635.4,1997.107,630.29,1994.147Z" fill="#8578ff"/>
      <ellipse id="Elipse_1433" data-name="Elipse 1433" cx="41.394" cy="23.845" rx="41.394" ry="23.845" transform="translate(402.165 1903.833) rotate(-1.255)" fill="#fff"/>
      <path id="Trazado_36908" data-name="Trazado 36908" d="M447.707,1936.355c-.431-.74-1.066-1.4-1.536-2.146-.261-.412-.528-.83-.813-1.232h0l-.03-.037a9.593,9.593,0,0,0-.721-.91l-.095-.1-.017,0-.37-.449h-.011l-.066-.652c-.007-.061.025-.32-.045-.3.081-.051.232-.105.3-.142l2.6-1.286c.015-.007.017-.016.026-.024a11.435,11.435,0,0,0,2.81-.176,12.005,12.005,0,0,0,1.875-.532c1.389.748,3.439.1,4.763-.4,1.062-.4,3.6-1.471,2.186-2.289.162-.054.319-.106.465-.15a16.739,16.739,0,0,0,2.651-.986,3.741,3.741,0,0,0,1.723-1.475.417.417,0,0,0-.1-.576,2.2,2.2,0,0,0,.784-.253c1.848-1.05,1.118-2.577.31-3.588a10.76,10.76,0,0,0-2.369-2.194,21.01,21.01,0,0,0-3.8-1.374c-1.752-.47-4.4-.9-6.225.165a.984.984,0,0,0-.442.451,1.829,1.829,0,0,0-1-.059,6.618,6.618,0,0,0-2.566.988,8.974,8.974,0,0,0-1.721,1.524c-.077.084-.168.174-.263.268-1.413-.819-3.28.64-3.979,1.251-.871.761-2.008,1.94-.715,2.744a4.66,4.66,0,0,0-.931,1.079,2.353,2.353,0,0,0-.315,1.619.2.2,0,0,0-.043.014q-1.12.747-2.242,1.493a2.635,2.635,0,0,1-.247.176c.027-.041-.422-.023-.529-.027l-1.13-.041v-.007l-.776-.214.005-.01-.18-.055c-.49-.151-1.026-.288-1.577-.42L433.3,1926h0c-.7-.165-1.42-.321-2.134-.473-1.286-.274-2.435-.642-3.717-.894a23.432,23.432,0,0,0-13.532,1.653c-2.122,1.047-2.2,2.451-.195,3.629l12.53,7.081,12.234,7.252a5.989,5.989,0,0,0,6.3-.1C448.68,1941.548,448.784,1938.2,447.707,1936.355Z" fill="#fd67c1"/>
      <g id="Grupo_16140" data-name="Grupo 16140">
        <path id="Trazado_36909" data-name="Trazado 36909" d="M493.935,1923.515c-6.166-3.949-16.613-4.32-23.334-.828s-7.169,9.524-1,13.473,16.5,4.32,23.336.9C500.449,1933.309,500.1,1927.464,493.935,1923.515Z" fill="#e655be"/>
        <path id="Trazado_36910" data-name="Trazado 36910" d="M479.809,1924.983l-3.027,6.191,15.517-1.649" fill="none" stroke="#fff" stroke-linecap="round" stroke-linejoin="round" stroke-width="2.44"/>
      </g>
      <path id="Trazado_36911" data-name="Trazado 36911" d="M593.452,2006.326l-96.059-55.172c-1.7-.976-1.489-2.705.469-3.841h0a7.418,7.418,0,0,1,6.65-.29l96.059,55.171c1.7.976,1.489,2.705-.469,3.841h0A7.421,7.421,0,0,1,593.452,2006.326Z" fill="#3b2ad1"/>
      <path id="Trazado_36912" data-name="Trazado 36912" d="M548.271,2001.753l-66.348-38.107c-1.7-.976-1.489-2.7.468-3.841h0a7.422,7.422,0,0,1,6.651-.291l66.349,38.108c1.7.976,1.489,2.7-.469,3.841h0A7.42,7.42,0,0,1,548.271,2001.753Z" fill="#3b2ad1"/>
    </g>
    <g id="Grupo_16142" data-name="Grupo 16142">
      <path id="Trazado_36913" data-name="Trazado 36913" d="M696.978,1435.976c-.034-5.457,4.26-7.354,9.592-4.238s9.681,10.066,9.715,15.522-4.26,7.354-9.592,4.238S697.012,1441.432,696.978,1435.976Z" fill="#3629a6"/>
      <path id="Trazado_36914" data-name="Trazado 36914" d="M705.293,1435.4l.691.273c2.549,1.007,4.628,5.314,4.621,9.571l-.024,13.205c-.007,4.257-2.1,6.916-4.647,5.91l-.692-.273c-2.548-1.007-4.627-5.314-4.62-9.572l.023-13.2C700.653,1437.05,702.744,1434.39,705.293,1435.4Z" fill="#3629a6"/>
      <path id="Trazado_36915" data-name="Trazado 36915" d="M706.1,1454.226l.015-8.726a18.078,18.078,0,0,1-3.659-9.81c-.015-2.331.765-4,2.074-4.924-4.344-1.583-7.582.466-7.552,5.2a18.072,18.072,0,0,0,3.66,9.81l-.016,8.726c-.007,4.257,2.072,8.564,4.621,9.571l.691.273a2.79,2.79,0,0,0,3.532-1.348C707.523,1461.315,706.093,1457.756,706.1,1454.226Z" fill="#4a39e3"/>
    </g>
    <path id="Trazado_36916" data-name="Trazado 36916" d="M241.581,1202.86a9.536,9.536,0,1,1-9.537-9.537A9.537,9.537,0,0,1,241.581,1202.86Z" fill="#dbefff"/>
    <circle id="Elipse_1434" data-name="Elipse 1434" cx="9.537" cy="9.537" r="9.537" transform="translate(1063.15 1174.242)" fill="#dbefff"/>
    <circle id="Elipse_1435" data-name="Elipse 1435" cx="9.537" cy="9.537" r="9.537" transform="translate(652.34 1238.392)" fill="#dbefff"/>
    <circle id="Elipse_1436" data-name="Elipse 1436" cx="9.537" cy="9.537" r="9.537" transform="translate(1209.172 1739.411)" fill="#dbefff"/>
    <g id="Grupo_16149" data-name="Grupo 16149">
      <ellipse id="Elipse_1437" data-name="Elipse 1437" cx="54.652" cy="31.549" rx="54.652" ry="31.549" transform="translate(217.73 1834.366)" fill="#a8c4e5" opacity="0.4" style="mix-blend-mode: multiply;isolation: isolate"/>
      <path id="Trazado_36917" data-name="Trazado 36917" d="M249.017,1870.1c-.373-.213-5.772-2.542-9.5-2.542-1.838,0-15.188,8.188-15.957,9.322-1.724,2.541.8,5.334.8,5.334h0c.6,1.138,1.991,2.054,5.005,1.785l22.176-5.858v-7.465A16.337,16.337,0,0,1,249.017,1870.1Z" fill="#3b2ad1"/>
      <path id="Trazado_36918" data-name="Trazado 36918" d="M258.339,1869.2c.441-.007,6.443.565,9.792,2.4,1.652.907,9.6,14.854,9.735,16.252.293,3.135-3.355,4.4-3.355,4.4v0c-1.105.725-2.8.863-5.38-.866L252.1,1875.178l3.688-6.709A16.791,16.791,0,0,0,258.339,1869.2Z" fill="#3b2ad1"/>
      <path id="Trazado_36919" data-name="Trazado 36919" d="M265.572,1828.2s-27.126-15.639-36.736-14.568-11.8,5.205-12.651,7.88,39.656,37.329,60.578,37.086l7.907,2.31s32.924,10.277,33.914,2.341c1.04-8.337-12.683-21.176-19.373-24.823S265.572,1828.2,265.572,1828.2Z" fill="#3b2ad1"/>
      <path id="Trazado_36920" data-name="Trazado 36920" d="M217.662,1821.645s10.705-9.971,29.924,20.671,21.166,34.289,21.166,34.289l-19.706-3.891S207.931,1828.94,217.662,1821.645Z" fill="#3b2ad1"/>
      <path id="Trazado_36921" data-name="Trazado 36921" d="M318.224,1859.574s-3.9-6.595-20.181-1.886c-18.728,5.418-50.874,10.512-50.874,10.512s-1.62,11.362,1.091,13.755c9.834,1.416,63.171.72,70.324-10.919C320.924,1867.229,318.224,1859.574,318.224,1859.574Z" fill="#3b2ad1"/>
      <path id="Trazado_36922" data-name="Trazado 36922" d="M248.864,1780.137l-7.326,19.712a6.524,6.524,0,0,1-9.94,3.634l-8.009-5.426-.715,10.658,11.641,7.967a8.833,8.833,0,0,0,12.755-3.078c4.384-8.087,10.268-19,10.268-19.31C257.538,1793.8,248.864,1780.137,248.864,1780.137Z" fill="#ffc2b0"/>
      <path id="Trazado_36923" data-name="Trazado 36923" d="M253.1,1768.452l-12.9,24.175c2.105,8.411,6.664,12.691,12.422,14.95l4.894-32.7Z" fill="#8578ff"/>
      <path id="Trazado_36924" data-name="Trazado 36924" d="M244.355,1788.014s1.828,8.723,15.646,13.45" fill="none" stroke="#fff" stroke-linecap="round" stroke-linejoin="round" stroke-width="3.574"/>
      <path id="Trazado_36925" data-name="Trazado 36925" d="M252.178,1826.234c3-19.678-1.5-19.93-3.314-35.546,0-24.887,9.4-34.1,25.082-28.377l6.478,1.721c18.924,10.194,28.535,9.682,25.15,29.709l-2.922,38.7C302.652,1855.045,250.973,1852.8,252.178,1826.234Z" fill="#8578ff"/>
      <path id="Trazado_36926" data-name="Trazado 36926" d="M293.093,1801.316l8.158,33.878.977,3.3,1.2-16.328Z" fill="#6055d4"/>
      <path id="Trazado_36927" data-name="Trazado 36927" d="M303.121,1777.36s13.609,16.905,17.4,52.546a14.185,14.185,0,0,1-17.48,15.323l-25.227-6.6.054-6.266s31.922,8.384,29.529-2C304.7,1818.672,283.367,1786.854,303.121,1777.36Z" fill="#ffc2b0"/>
      <path id="Trazado_36928" data-name="Trazado 36928" d="M237.193,1815.668l-11.224-3.662a2.315,2.315,0,0,1-1.516-1.787l-3.729-21.554c-.143-.824.305-1.359,1-1.2l11.6,2.723a2.312,2.312,0,0,1,1.516,1.787l3.712,21.452a1.314,1.314,0,0,1-.465,1.228Z" fill="#aec7e6"/>
      <path id="Trazado_36929" data-name="Trazado 36929" d="M227.312,1796.405s-2.725,14.618-2.867,13.794l-4.691-21.314,1.239-1.3a.806.806,0,0,1,.722-.136l11.6,2.723a1.885,1.885,0,0,1,.946.623Z" fill="#bad4f5"/>
      <g id="Grupo_16144" data-name="Grupo 16144">
        <g id="Grupo_16143" data-name="Grupo 16143">
          <path id="Trazado_36930" data-name="Trazado 36930" d="M236.4,1815.887l-11.574-2.731a2.294,2.294,0,0,1-1.49-1.794l-3.73-21.555c-.142-.823.292-1.354.987-1.191l11.568,2.732a2.292,2.292,0,0,1,1.484,1.8l3.73,21.554C237.513,1815.523,237.091,1816.05,236.4,1815.887Z" fill="#fff"/>
        </g>
      </g>
      <path id="Trazado_36931" data-name="Trazado 36931" d="M235.74,1815.738l-11.224-2.648a2.227,2.227,0,0,1-1.445-1.741l-3.617-20.9c-.139-.8.283-1.314.957-1.156l11.218,2.651a2.224,2.224,0,0,1,1.44,1.742l3.617,20.9C236.824,1815.385,236.414,1815.9,235.74,1815.738Z" fill="#3b2ad1"/>
      <g id="Grupo_16145" data-name="Grupo 16145">
        <path id="Trazado_36932" data-name="Trazado 36932" d="M233.536,1807.577" fill="none" stroke="#fff" stroke-miterlimit="10" stroke-width="0.123"/>
      </g>
      <path id="Trazado_36933" data-name="Trazado 36933" d="M223.921,1808.28h0a3.307,3.307,0,0,1-3.826-2.668l-.935-5.244a3.307,3.307,0,0,1,2.668-3.826h0a3.309,3.309,0,0,1,3.827,2.668l.935,5.244A3.308,3.308,0,0,1,223.921,1808.28Z" fill="#ffc2b0"/>
      <path id="Trazado_36934" data-name="Trazado 36934" d="M291.626,1795.792l9.458,26.806c1.341,2.08,20.685-7.709,19.033-10.9-.291-.564-10.589-32.941-21.662-38.168C289.461,1769.281,286.656,1783.58,291.626,1795.792Z" fill="#8578ff"/>
      <rect id="Rectángulo_3093" data-name="Rectángulo 3093" width="9.322" height="12.667" rx="4.052" transform="matrix(-0.234, -0.972, 0.972, -0.234, 272.23, 1842.92)" fill="#ffc2b0"/>
      <path id="Trazado_36935" data-name="Trazado 36935" d="M235.019,1796.678h0a.318.318,0,0,1-.369-.257l-.293-1.635a.318.318,0,0,1,.257-.369h0a.319.319,0,0,1,.369.257l.293,1.635A.318.318,0,0,1,235.019,1796.678Z" fill="#3b2ad1"/>
      <path id="Trazado_36936" data-name="Trazado 36936" d="M235.5,1799.349h0a.319.319,0,0,1-.37-.257l-.293-1.635a.319.319,0,0,1,.257-.369h0a.319.319,0,0,1,.369.257l.294,1.635A.319.319,0,0,1,235.5,1799.349Z" fill="#3b2ad1"/>
      <g id="Grupo_16147" data-name="Grupo 16147">
        <g id="Grupo_16146" data-name="Grupo 16146">
          <path id="Trazado_36937" data-name="Trazado 36937" d="M231.388,1796.741h0a1.372,1.372,0,0,1-.849-1.012l-.419-2.344c-.079-.446.172-.719.56-.608h0a1.375,1.375,0,0,1,.848,1.012l.419,2.345C232.027,1796.579,231.775,1796.852,231.388,1796.741Z" fill="#fff"/>
        </g>
      </g>
      <path id="Trazado_36938" data-name="Trazado 36938" d="M231.232,1793.9c0,.294-.21.449-.468.345a.826.826,0,0,1-.468-.719c0-.294.21-.449.468-.346A.828.828,0,0,1,231.232,1793.9Z" fill="#3b2ad1"/>
      <path id="Trazado_36939" data-name="Trazado 36939" d="M298.429,1815.074s10.67-.1,19.275-10.457" fill="none" stroke="#fff" stroke-linecap="round" stroke-linejoin="round" stroke-width="3.574"/>
      <g id="Grupo_16148" data-name="Grupo 16148">
        <path id="Trazado_36940" data-name="Trazado 36940" d="M272.8,1764.144s3.194,1.394,4.5,1.225,10.327-12.678,1.439-22.935c-5.628-6.5-17.388,1.685-17.388,1.685Z" fill="#3b2ad1"/>
        <path id="Trazado_36941" data-name="Trazado 36941" d="M273.2,1758.679c.926,7.17-3.041,11.015-8.861,8.587s-11.287-10.208-12.213-17.378,3.042-11.015,8.861-8.587S272.274,1751.509,273.2,1758.679Z" fill="#ffc2b0"/>
        <path id="Trazado_36942" data-name="Trazado 36942" d="M279.047,1753.749c.926,7.17-4.916,12.433-10.735,10.005s-11.287-10.208-12.213-17.378,3.042-11.015,8.861-8.587S278.122,1746.579,279.047,1753.749Z" fill="#ffc2b0"/>
        <path id="Trazado_36943" data-name="Trazado 36943" d="M277.08,1775.243l-.7.293a4.7,4.7,0,0,1-6.128-2.525l-5.586-13.418a4.7,4.7,0,0,1,2.525-6.128l.7-.293a4.7,4.7,0,0,1,6.128,2.525l7.263,12.1C282.273,1770.18,279.459,1774.252,277.08,1775.243Z" fill="#ffc2b0"/>
        <path id="Trazado_36944" data-name="Trazado 36944" d="M280.523,1756.257a3.183,3.183,0,1,1-3.564-2.749A3.184,3.184,0,0,1,280.523,1756.257Z" fill="#ffc2b0"/>
        <path id="Trazado_36945" data-name="Trazado 36945" d="M260.321,1744.252s3.431,16.471,19.794,8.849c0,0,7.136-11.752-6.693-18.8-12.19-6.211-18.889,7.268-18.889,7.268Z" fill="#3b2ad1"/>
        <path id="Trazado_36946" data-name="Trazado 36946" d="M252.855,1753.2s.81-5.826,7.466-8.949l-5.788-2.682S249.1,1743.425,252.855,1753.2Z" fill="#3b2ad1"/>
        <path id="Trazado_36947" data-name="Trazado 36947" d="M268.3,1768.1a12.833,12.833,0,0,0,8.616-7.9s-1.756,9.641-7.054,11.651Z" fill="#f09a82"/>
      </g>
    </g>
    <path id="Trazado_36948" data-name="Trazado 36948" d="M606.437,1456.388c3.044,3.52,7.609,5.766,10.433,9.935,2.13,3.145,3.024,7.245,4.471,10.932a17.453,17.453,0,0,0,3.277,5.514,12.392,12.392,0,0,1,2.834,10.156c-.593,4.045-1.787,10.283-2.883,15.745-1.453,7.236-8.8,10.082-13.137,4.893a6.681,6.681,0,0,1-.81-1.195c-1.811-3.493-2.82-2.52-4.655-5.882-3.249-5.949-10.83-10.658-16.67-10.682-5.125-.022-9.728-2.717-14.009-6.076-3.221-2.528-6.37-8.386-6.906-13.04-.593-5.16-2.512-10.712-1.56-15.782.926-4.93,6.529-10.31,7.785-15.131.6-2.3,10.246-7.735,13.238-7.535.957.064-8.8,4.185-7.938,4.706l1.579.956c4.5,2.728,7.4-8.706,12.17-7C602.078,1439.911,600.032,1448.978,606.437,1456.388Z" fill="#4852db"/>
    <path id="Trazado_36949" data-name="Trazado 36949" d="M537.376,1507.338s13.676,2.7,19.528-18.727c5.726-20.968,16.9-22.641,20.82-19.472s-10.352,21.565-10.352,21.565-.81,22.9-24,31.785C534,1526.081,537.376,1507.338,537.376,1507.338Z" fill="#fd67c1"/>
    <path id="Trazado_36950" data-name="Trazado 36950" d="M604.77,1538.052c7.42,9.291,3.037,36.852,5.951,63.726,0,0-18.3,23.344-48.523-1.383l1.822-60.207Z" fill="#3b2ad1"/>
    <path id="Trazado_36951" data-name="Trazado 36951" d="M564.162,1539.288c-1.058-13.419-.274-28.875-1.568-45.432.808-19.828,1.03-25.291,16.458-26.141l4.08,1.263a28.36,28.36,0,0,1,5.6,2.424c18.922,10.745,22.814,13.051,21.5,24.556-.215,5.955-3.374-.489-4.4,3.381-1.96,7.427-1.162,24.191,1.532,37.72a7.868,7.868,0,0,1-2.822,7.663C594.649,1551.627,567.633,1547.538,564.162,1539.288Z" fill="#fd67c1"/>
    <path id="Trazado_36952" data-name="Trazado 36952" d="M582.44,1468.257s1.673,3.072,2.816,3.744,17.986-5.539,17.254-19.142c-.463-8.616-16.816-7.523-16.816-7.523Z" fill="#4852db"/>
    <path id="Trazado_36953" data-name="Trazado 36953" d="M587.462,1480.072l-.68.088a4.223,4.223,0,0,1-4.711-3.641l-1.66-12.949a4.222,4.222,0,0,1,3.64-4.71l.68-.088a4.222,4.222,0,0,1,4.711,3.641l3.425,12.208C593.161,1476.917,589.759,1479.778,587.462,1480.072Z" fill="#ffc2b0"/>
    <path id="Trazado_36954" data-name="Trazado 36954" d="M581.219,1471.12a11.525,11.525,0,0,0,9.336-4.8s-3.8,7.937-8.872,8.423Z" fill="#f09a82"/>
    <path id="Trazado_36955" data-name="Trazado 36955" d="M592.453,1442.54c-2.139-3.776-5.4-4.677-8.429-2.855-2.967-1.507-6.552.054-9.2,4.545-3.68,6.254-4.135,15.789-1.016,21.3,2.179,3.848,2.279,6.141,9.351,5.432,3.686,1.723,7.919-2.483,10.631-7.093C597.476,1457.611,595.572,1448.047,592.453,1442.54Z" fill="#ffc2b0"/>
    <path id="Trazado_36956" data-name="Trazado 36956" d="M588.675,1446.409s-3.621,12.962,6.366,17.6c0,0,12.892-4.924,6.266-19.024-5.84-12.428-19.448-5.867-19.448-5.867Z" fill="#4852db"/>
    <path id="Trazado_36957" data-name="Trazado 36957" d="M592.9,1455.042c-1.9-3.659-12.609-5.145-20.724-3.4-3.856-.376-2.693-3.7.045-7.066a22.654,22.654,0,0,1,13.651-7.856l3.681-.658c6.6-.67,12.88,8.966,13.311,13.446l-4.281-.369C599.018,1453.615,597.384,1454.611,592.9,1455.042Z" fill="#4852db"/>
    <path id="Trazado_36958" data-name="Trazado 36958" d="M595.192,1466.023a3.195,3.195,0,1,1-1.133-4.373A3.195,3.195,0,0,1,595.192,1466.023Z" fill="#ffc2b0"/>
    <path id="Trazado_36959" data-name="Trazado 36959" d="M597.514,1499.734l10.739,26.2-13.02,7.445Z" fill="#d6409a"/>
    <path id="Rectángulo_3094" data-name="Rectángulo 3094" d="M4.122,0H5.357A4.122,4.122,0,0,1,9.479,4.122V8.774A4.123,4.123,0,0,1,5.357,12.9H4.122A4.122,4.122,0,0,1,0,8.774V4.122A4.122,4.122,0,0,1,4.122,0Z" transform="matrix(-0.058, 0.998, -0.998, -0.058, 584.419, 1530.317)" fill="#ffc2b0"/>
    <path id="Trazado_36960" data-name="Trazado 36960" d="M580.464,1539.632s27.914,4.341,31.839-14.981l-6.4-6.344s3.147,14.571-27.373,14.749Z" fill="#ffc2b0"/>
    <path id="Trazado_36961" data-name="Trazado 36961" d="M598.332,1491.75l2.217,35.244,6.27,8.842s10.221-2.768,9.545-18.152c-.85-19.351-7.715-32.29-7.715-32.29Z" fill="#fd67c1"/>
    <g id="Grupo_16155" data-name="Grupo 16155">
      <g id="Grupo_16154" data-name="Grupo 16154">
        <path id="Trazado_36962" data-name="Trazado 36962" d="M544.492,1526.339l-10.916-5.623a2.4,2.4,0,0,1-1.26-2.086l-.251-22.75c-.01-.869.539-1.344,1.225-1.061l11.458,4.721a2.4,2.4,0,0,1,1.26,2.086l.25,22.643a1.37,1.37,0,0,1-.681,1.183Z" fill="#97cbff"/>
        <path id="Trazado_36963" data-name="Trazado 36963" d="M537.545,1504.921s-5.225,14.557-5.235,13.688l-1.277-22.663,1.488-1.129a.837.837,0,0,1,.764-.02l11.458,4.722a1.957,1.957,0,0,1,.867.8Z" fill="#97cbff"/>
        <g id="Grupo_16151" data-name="Grupo 16151">
          <g id="Grupo_16150" data-name="Grupo 16150">
            <path id="Trazado_36964" data-name="Trazado 36964" d="M543.637,1526.432l-11.43-4.725a2.385,2.385,0,0,1-1.232-2.09l-.251-22.75c-.01-.869.524-1.342,1.21-1.059l11.424,4.726a2.383,2.383,0,0,1,1.226,2.091l.251,22.749C544.845,1526.244,544.323,1526.715,543.637,1526.432Z" fill="#fff"/>
          </g>
        </g>
        <path id="Trazado_36965" data-name="Trazado 36965" d="M542.988,1526.17l-11.085-4.582a2.318,2.318,0,0,1-1.2-2.027l-.243-22.062c-.009-.843.509-1.3,1.174-1.028l11.079,4.583a2.315,2.315,0,0,1,1.189,2.028l.243,22.062C544.16,1525.987,543.654,1526.445,542.988,1526.17Z" fill="#7363ff"/>
        <g id="Grupo_16153" data-name="Grupo 16153">
          <g id="Grupo_16152" data-name="Grupo 16152">
            <path id="Trazado_36966" data-name="Trazado 36966" d="M541.673,1505.943h0a1.426,1.426,0,0,1-.7-1.18l-.041-2.477c-.008-.47.3-.709.675-.53h0a1.426,1.426,0,0,1,.7,1.179l.041,2.477C542.356,1505.883,542.052,1506.121,541.673,1505.943Z" fill="#fff"/>
          </g>
        </g>
        <path id="Trazado_36967" data-name="Trazado 36967" d="M541.985,1503a.34.34,0,0,1-.538.277.859.859,0,0,1-.361-.816.34.34,0,0,1,.538-.277A.86.86,0,0,1,541.985,1503Z" fill="#7363ff"/>
      </g>
      <path id="Trazado_36968" data-name="Trazado 36968" d="M531.553,1516.551h0a2.942,2.942,0,0,1-2.981-2.886l-.077-4.738a2.944,2.944,0,0,1,2.887-2.982h0a2.943,2.943,0,0,1,2.981,2.887l.077,4.738A2.943,2.943,0,0,1,531.553,1516.551Z" fill="#ffc2b0"/>
    </g>
    <g id="Grupo_16159" data-name="Grupo 16159">
      <g id="Grupo_16157" data-name="Grupo 16157">
        <g id="Grupo_16156" data-name="Grupo 16156">
          <path id="Trazado_36969" data-name="Trazado 36969" d="M1162.025,1786.433c-7.471,9.005-11.658,13.4-23.43,14.736-16.286,1.854-27.8-19.884-37.743-31.769-4.453-5.322,2.985-13.331,7.5-7.937,8.05,9.62,18.9,18.94,32.333,17.193,8.976-1.169,10.8-.979,16.435-7.775,4.487-5.408,11.446,6.894,6.967,12.291Z" fill="#fd67c1"/>
        </g>
      </g>
      <path id="Trazado_36970" data-name="Trazado 36970" d="M1100.561,1766.434l-3.927-3.844a5.208,5.208,0,0,1-.08-7.344h0a5.21,5.21,0,0,1,7.344-.08l3.928,3.844a5.209,5.209,0,0,1,.079,7.344h0A5.209,5.209,0,0,1,1100.561,1766.434Z" fill="#ffc2b0"/>
      <path id="Trazado_36971" data-name="Trazado 36971" d="M1128.392,1783.543l-23.675,23.932a7.87,7.87,0,0,1-13.175-3.417l-10.574-37.849,8.435.614,10.109,24.585s15.252-19.319,20.315-20.183S1128.392,1783.543,1128.392,1783.543Z" fill="#fd67c1"/>
      <g id="Grupo_16158" data-name="Grupo 16158">
        <path id="Trazado_36972" data-name="Trazado 36972" d="M1091.338,1777.31l13.518-5.921a2.1,2.1,0,0,0,1.04-2.385l-5.977-25.537a1.389,1.389,0,0,0-1.867-1.148l-13.4,5.7a2.1,2.1,0,0,0-1.04,2.385l5.949,25.416c.15.642.424.782.977,1.06Z" fill="#97cbff"/>
        <path id="Trazado_36973" data-name="Trazado 36973" d="M1095.387,1753.829s10.738,16.151,10.509,15.175l-5.8-26.329-1.056-.361a1.23,1.23,0,0,0-.986.005l-13.4,5.7a1.781,1.781,0,0,0-.893.924Z" fill="#97cbff"/>
        <path id="Trazado_36974" data-name="Trazado 36974" d="M1092.547,1777.443l13.365-5.7a2.09,2.09,0,0,0,1-2.388l-5.977-25.537a1.373,1.373,0,0,0-1.848-1.147l-13.357,5.7a2.087,2.087,0,0,0-.995,2.389l5.977,25.537A1.357,1.357,0,0,0,1092.547,1777.443Z" fill="#4a39e3"/>
        <path id="Trazado_36975" data-name="Trazado 36975" d="M1091.628,1773.25l13.157-5.6-5.206-22.512L1086.5,1750.7l5.428,22C1091.975,1772.9,1091.449,1773.326,1091.628,1773.25Z" fill="#dbedff"/>
      </g>
      <path id="Trazado_36976" data-name="Trazado 36976" d="M1085.216,1774.279h0a4.946,4.946,0,0,0,4.4-5.413l-1.2-11.587a4.946,4.946,0,0,0-5.413-4.4h0a4.947,4.947,0,0,0-4.4,5.413l1.2,11.586A4.947,4.947,0,0,0,1085.216,1774.279Z" fill="#ffc2b0"/>
      <ellipse id="Elipse_1438" data-name="Elipse 1438" cx="16.872" cy="33.962" rx="16.872" ry="33.962" transform="matrix(0.018, -1, 1, 0.018, 1106.771, 1980.734)" fill="#a8c4e5" opacity="0.4" style="mix-blend-mode: multiply;isolation: isolate"/>
      <path id="Trazado_36977" data-name="Trazado 36977" d="M1166.45,1950.512l-7.954-1c-5.324-2.412-7.812-4.224-10.182-2.855l-.672.387c-2.371,1.369-2.071,3.782.666,5.363l11.7,9.291a7.717,7.717,0,0,0,8.611-.836s1.308-1.181.372-6.151C1168.454,1951.879,1168.64,1951.776,1166.45,1950.512Z" fill="#3b2ad1"/>
      <path id="Trazado_36978" data-name="Trazado 36978" d="M1132.12,1968.748l-8.469,1.595c-6.242-.717-9.384-1.753-11.36.428l-.56.618c-1.977,2.181-.876,4.552,2.446,5.269l17.248,6.265c3.322.717,6.486.57,6.316-4.293,0,0,.951-1.639-1.642-6.418C1134.62,1969.487,1134.777,1969.321,1132.12,1968.748Z" fill="#3b2ad1"/>
      <path id="Trazado_36979" data-name="Trazado 36979" d="M1126,1971.228c0,3.981,9.684,3.981,9.684,0v-12.939H1126Z" fill="#c6d2f2"/>
      <path id="Trazado_36980" data-name="Trazado 36980" d="M1124.778,1963.052c1.221,5.043,11.291,4.675,13.251,1.415-.639-43.529,4.665-88.732,15.642-134.771H1118.72A1259.747,1259.747,0,0,0,1124.778,1963.052Z" fill="#3b2ad1"/>
      <path id="Trazado_36981" data-name="Trazado 36981" d="M1158.963,1952.094c.221,3.6,9.905,3.6,9.684,0l-.717-11.717h-9.684Z" fill="#c6d2f2"/>
      <path id="Trazado_36982" data-name="Trazado 36982" d="M1157.064,1946.889c3.869,3.981,11.479,2.281,12.944-.594l-5.129-116.716-24.338,3.6Z" fill="#3b2ad1"/>
      <path id="Trazado_36983" data-name="Trazado 36983" d="M1131.482,1742.906c2.4,8.364,8.618,10.718,13.89,5.258s7.6-16.667,5.2-25.031-8.618-10.719-13.89-5.259S1129.082,1734.541,1131.482,1742.906Z" fill="#ffc2b0"/>
      <path id="Trazado_36984" data-name="Trazado 36984" d="M1122.667,1740.25c2.4,8.364,11.366,11.39,16.637,5.93s7.6-16.667,5.2-25.031-8.618-10.719-13.89-5.259S1120.267,1731.885,1122.667,1740.25Z" fill="#ffc2b0"/>
      <path id="Trazado_36985" data-name="Trazado 36985" d="M1142.952,1764.387l.9-.2a5.658,5.658,0,0,0,4.278-6.734l-3.809-17.074a5.657,5.657,0,0,0-6.734-4.277l-.9.2a5.658,5.658,0,0,0-4.278,6.734l1.248,16.944C1134.333,1763.008,1139.924,1765.062,1142.952,1764.387Z" fill="#ffc2b0"/>
      <path id="Trazado_36986" data-name="Trazado 36986" d="M1153.129,1741.508s-.907,7.88-12.1,6.3c-8.032-1.131-5.692-14.2-13.722-15.508-8.833-1.44-10.433-12.352-6.952-16.54s13.208-6.377,20.254-3.27S1158.516,1715.415,1153.129,1741.508Z" fill="#4432db"/>
      <path id="Trazado_36987" data-name="Trazado 36987" d="M1127.272,1736.839a3.831,3.831,0,1,0,2.626-4.739A3.831,3.831,0,0,0,1127.272,1736.839Z" fill="#ffc2b0"/>
      <path id="Trazado_36988" data-name="Trazado 36988" d="M1165.9,1828.061c-2.859-15.672.215-28.058-.034-44.72,1.356-27.809-2.969-35.451-14.4-32.708,0,0-8.686,2.561-10.657,3.577-20.878,10.756-26.45,14.074-25.534,26.551-.094,20.553,2.935,43.6,3.367,53.713C1122.945,1848.686,1161.125,1838.231,1165.9,1828.061Z" fill="#fd67c1"/>
      <path id="Trazado_36989" data-name="Trazado 36989" d="M1132.844,1748.93l.908-2.1a5.751,5.751,0,0,1-4.694,1.223A7.378,7.378,0,0,0,1132.844,1748.93Z" fill="#f09a82"/>
    </g>
  </g>
</svg>
