<svg xmlns="http://www.w3.org/2000/svg" width="194" height="194" viewBox="0 0 194 194">
  <g id="Grupo_15749" data-name="Grupo 15749" transform="translate(-457 -4520)">
    <circle id="Elipse_1301" data-name="Elipse 1301" cx="97" cy="97" r="97" transform="translate(457 4520)" fill="#efefef"/>
    <g id="Grupo_15748" data-name="Grupo 15748" transform="translate(403.331 4184.781)">
      <rect id="Rectángulo_2947" data-name="Rectángulo 2947" width="97" height="13" transform="translate(96.669 376.219)" fill="none" stroke="#4a91d6" stroke-miterlimit="10" stroke-width="3"/>
      <line id="Línea_42" data-name="Línea 42" x2="17" transform="translate(102.669 383.219)" fill="none" stroke="#4a91d6" stroke-miterlimit="10" stroke-width="3" stroke-dasharray="2 2"/>
      <line id="Línea_43" data-name="Línea 43" x2="63" transform="translate(125.669 383.219)" fill="none" stroke="#4a91d6" stroke-miterlimit="10" stroke-width="3"/>
      <circle id="Elipse_1299" data-name="Elipse 1299" cx="29.339" cy="29.339" r="29.339" transform="translate(145.059 424.323)" fill="none" stroke="#fd6764" stroke-miterlimit="10" stroke-width="3"/>
      <ellipse id="Elipse_1300" data-name="Elipse 1300" cx="16.287" cy="29.339" rx="16.287" ry="29.339" transform="translate(158.11 424.323)" fill="none" stroke="#fd6764" stroke-miterlimit="10" stroke-width="3"/>
      <line id="Línea_44" data-name="Línea 44" x2="48.97" transform="translate(150.19 438.129)" fill="none" stroke="#fd6764" stroke-miterlimit="10" stroke-width="3"/>
      <line id="Línea_45" data-name="Línea 45" x2="48.97" transform="translate(149.913 469.194)" fill="none" stroke="#fd6764" stroke-miterlimit="10" stroke-width="3"/>
      <line id="Línea_46" data-name="Línea 46" x2="58.03" transform="translate(145.244 453.662)" fill="none" stroke="#fd6764" stroke-miterlimit="10" stroke-width="3"/>
      <path id="Trazado_26840" data-name="Trazado 26840" d="M193.708,425.419V384H97.062v63.855h48.323" transform="translate(-0.111 5.806)" fill="none" stroke="#4a91d6" stroke-miterlimit="10" stroke-width="3"/>
      <path id="Trazado_26841" data-name="Trazado 26841" d="M111.417,389v10.355a5.177,5.177,0,0,1-5.177,5.177h0a5.178,5.178,0,0,1-5.177-5.177V389" transform="translate(2.792 9.436)" fill="none" stroke="#4a91d6" stroke-miterlimit="10" stroke-width="3"/>
      <path id="Trazado_26842" data-name="Trazado 26842" d="M117.417,389v10.355a5.177,5.177,0,0,1-5.177,5.177h0a5.178,5.178,0,0,1-5.177-5.177V389" transform="translate(7.147 9.436)" fill="none" stroke="#4a91d6" stroke-miterlimit="10" stroke-width="3"/>
      <path id="Trazado_26843" data-name="Trazado 26843" d="M129.417,389v10.355a5.177,5.177,0,0,1-5.177,5.177h0a5.178,5.178,0,0,1-5.177-5.177V389" transform="translate(15.857 9.436)" fill="none" stroke="#4a91d6" stroke-miterlimit="10" stroke-width="3"/>
      <path id="Trazado_26844" data-name="Trazado 26844" d="M135.417,389v10.355a5.177,5.177,0,0,1-5.177,5.177h0a5.178,5.178,0,0,1-5.177-5.177V389" transform="translate(20.212 9.436)" fill="none" stroke="#4a91d6" stroke-miterlimit="10" stroke-width="3"/>
      <path id="Trazado_26845" data-name="Trazado 26845" d="M147.417,389v10.355a5.177,5.177,0,0,1-5.177,5.177h0a5.178,5.178,0,0,1-5.177-5.177V389" transform="translate(28.922 9.436)" fill="none" stroke="#4a91d6" stroke-miterlimit="10" stroke-width="3"/>
      <path id="Trazado_26846" data-name="Trazado 26846" d="M153.417,389v10.355a5.177,5.177,0,0,1-5.177,5.177h0a5.178,5.178,0,0,1-5.177-5.177V389" transform="translate(33.276 9.436)" fill="none" stroke="#4a91d6" stroke-miterlimit="10" stroke-width="3"/>
      <line id="Línea_47" data-name="Línea 47" x2="3" transform="translate(128.669 414.219)" fill="none" stroke="#4a91d6" stroke-miterlimit="10" stroke-width="3"/>
      <line id="Línea_48" data-name="Línea 48" x2="3" transform="translate(159.669 414.219)" fill="none" stroke="#4a91d6" stroke-miterlimit="10" stroke-width="3"/>
      <line id="Línea_49" data-name="Línea 49" x2="36" transform="translate(102.669 445.219)" fill="none" stroke="#4a91d6" stroke-miterlimit="10" stroke-width="3"/>
      <line id="Línea_50" data-name="Línea 50" y2="58.678" transform="translate(174.398 424.323)" fill="none" stroke="#fd6764" stroke-miterlimit="10" stroke-width="3"/>
    </g>
  </g>
</svg>
