<svg xmlns="http://www.w3.org/2000/svg" width="297.539" height="246.56" viewBox="0 0 297.539 246.56">
  <g id="Grupo_15737" data-name="Grupo 15737" transform="translate(-4752.282 -547.644)">
    <g id="Color" transform="translate(4753.424 551.921)">
      <g id="Grupo_15630" data-name="Grupo 15630" transform="translate(59.106 150.547)">
        <rect id="Rect치ngulo_2918" data-name="Rect치ngulo 2918" width="24.298" height="47.246" fill="#fcd118"/>
      </g>
      <g id="Grupo_15631" data-name="Grupo 15631" transform="translate(188.503 152.862)">
        <circle id="Elipse_1291" data-name="Elipse 1291" cx="25.262" cy="25.262" r="25.262" fill="#5ed45e"/>
      </g>
      <g id="Grupo_15632" data-name="Grupo 15632" transform="translate(9.587 225.63)">
        <path id="Trazado_26741" data-name="Trazado 26741" d="M5073.782,1755.054h-255.6a10.27,10.27,0,0,1-10.27-10.27v-4.937h276.137v4.937A10.27,10.27,0,0,1,5073.782,1755.054Z" transform="translate(-4807.915 -1739.847)" fill="#e1e1e5"/>
      </g>
      <g id="Grupo_15633" data-name="Grupo 15633" transform="translate(28.006 81.799)">
        <path id="Trazado_26742" data-name="Trazado 26742" d="M5141.2,999.932,5026.806,994h-37.172c-3.489,20.981-13.464,35.838-26.653,44.548q18.8-9.617,24.28-28.977H5126.8v115.345l-207.262.121v-77.028q3.553-.132,6.928-.395a70.617,70.617,0,0,1-23.037-5.86V1137.1l238.942-1.074V1004.8A10.513,10.513,0,0,0,5141.2,999.932Z" transform="translate(-4903.431 -994)" fill="#e1e1e5"/>
      </g>
      <g id="Grupo_15634" data-name="Grupo 15634" transform="translate(0 22.211)">
        <path id="Trazado_26743" data-name="Trazado 26743" d="M4815,685a56.792,56.792,0,1,0,56.792,56.792A56.792,56.792,0,0,0,4815,685Zm-.091,104.872a48,48,0,0,1-13.379-94.086l28.4.509a48,48,0,0,1-15.025,93.576Z" transform="translate(-4758.203 -685)" fill="#5ed45e"/>
      </g>
      <g id="Grupo_15635" data-name="Grupo 15635" transform="translate(20.387 17.68)">
        <path id="Trazado_26744" data-name="Trazado 26744" d="M4863.922,712.024l37.129,56.021,37.323-56.021H4914.31V661.5h-26.323v50.525Z" transform="translate(-4863.922 -661.5)" fill="#fcd118"/>
      </g>
      <g id="Grupo_15636" data-name="Grupo 15636" transform="translate(44.693 6.302)">
        <rect id="Rect치ngulo_2919" data-name="Rect치ngulo 2919" width="25.841" height="6.557" fill="#fcd118"/>
      </g>
      <g id="Grupo_15638" data-name="Grupo 15638" transform="translate(141.631 0)">
        <g id="Grupo_15637" data-name="Grupo 15637">
          <path id="Trazado_26745" data-name="Trazado 26745" d="M5540.991,615.329a26.432,26.432,0,1,0-21.917,41.209h93.1a33.707,33.707,0,1,0-13.3-64.688l6.662-3.734a43.369,43.369,0,0,0-77.7,15.56Z" transform="translate(-5492.643 -569.821)" fill="#4a91d6"/>
        </g>
      </g>
    </g>
    <g id="FILE" transform="translate(4752.282 547.644)">
      <g id="Grupo_15639" data-name="Grupo 15639" transform="translate(118.791 26.034)">
        <path id="Trazado_26746" data-name="Trazado 26746" d="M5374.7,702.554a1.928,1.928,0,0,1-1.188-2.455h0a1.926,1.926,0,0,1,2.455-1.188h0a1.93,1.93,0,0,1,1.188,2.455h0a1.932,1.932,0,0,1-1.822,1.294h0A1.961,1.961,0,0,1,5374.7,702.554Zm6.19-1.61a1.927,1.927,0,0,1,.6-2.659h0a1.93,1.93,0,0,1,2.661.6h0a1.93,1.93,0,0,1-.6,2.659h0a1.906,1.906,0,0,1-1.026.3h0A1.929,1.929,0,0,1,5380.893,700.944Zm-12.5-4.68a1.93,1.93,0,0,1,1.182-2.459h0a1.927,1.927,0,0,1,2.457,1.18h0a1.928,1.928,0,0,1-1.18,2.459h0a1.94,1.94,0,0,1-.638.11h0A1.933,1.933,0,0,1,5368.393,696.264Zm17.761-.561a1.929,1.929,0,0,1-1.7-2.131h0a1.929,1.929,0,0,1,2.131-1.7h0a1.927,1.927,0,0,1,1.7,2.129h0a1.93,1.93,0,0,1-1.915,1.716h0A1.649,1.649,0,0,1,5386.153,695.7Zm-16.167-5.635a1.928,1.928,0,0,1-.611-2.657h0a1.931,1.931,0,0,1,2.659-.611h0a1.931,1.931,0,0,1,.609,2.659h0a1.926,1.926,0,0,1-1.635.9h0A1.905,1.905,0,0,1,5369.986,690.068Zm12.627-1.743a.032.032,0,0,0-.007-.01h0l-.006,0h0a1.932,1.932,0,0,1-.008-2.729h0a1.932,1.932,0,0,1,2.729-.008h0a.044.044,0,0,0,.013.014h0a.015.015,0,0,0,.008.008h0a1.931,1.931,0,0,1,0,2.729h0a1.928,1.928,0,0,1-1.364.563h0A1.929,1.929,0,0,1,5382.613,688.324Zm-7.4-3.533a1.927,1.927,0,0,1,1.7-2.135h0a1.928,1.928,0,0,1,2.135,1.7h0a1.93,1.93,0,0,1-1.7,2.137h0a2.169,2.169,0,0,1-.221.012h0A1.93,1.93,0,0,1,5375.21,684.791Z" transform="translate(-5368.284 -682.644)" fill="#ff9452"/>
      </g>
      <g id="Grupo_15640" data-name="Grupo 15640" transform="translate(3.471 3.664)">
        <path id="Trazado_26747" data-name="Trazado 26747" d="M4776.7,586.554a1.928,1.928,0,0,1-1.188-2.455h0a1.926,1.926,0,0,1,2.455-1.188h0a1.93,1.93,0,0,1,1.188,2.455h0a1.93,1.93,0,0,1-1.822,1.294h0A1.9,1.9,0,0,1,4776.7,586.554Zm6.19-1.61a1.927,1.927,0,0,1,.6-2.659h0a1.93,1.93,0,0,1,2.661.6h0a1.93,1.93,0,0,1-.6,2.659h0a1.908,1.908,0,0,1-1.026.3h0A1.931,1.931,0,0,1,4782.892,584.944Zm-12.5-4.682v0h0a1.928,1.928,0,0,1,1.182-2.459h0a1.927,1.927,0,0,1,2.457,1.18h0a1.929,1.929,0,0,1-1.18,2.459h0a1.955,1.955,0,0,1-.639.11h0A1.932,1.932,0,0,1,4770.392,580.262Zm17.761-.559a1.928,1.928,0,0,1-1.7-2.131h0a1.929,1.929,0,0,1,2.131-1.7h0a1.928,1.928,0,0,1,1.7,2.129h0a1.93,1.93,0,0,1-1.915,1.716h0A1.649,1.649,0,0,1,4788.152,579.7Zm-16.167-5.635a1.926,1.926,0,0,1-.609-2.657h0a1.928,1.928,0,0,1,2.657-.611h0a1.929,1.929,0,0,1,.609,2.659h0a1.925,1.925,0,0,1-1.635.9h0A1.923,1.923,0,0,1,4771.985,574.068Zm12.627-1.743a.18.18,0,0,0-.021-.023h0a1.931,1.931,0,0,1,0-2.719h0a1.933,1.933,0,0,1,2.729-.008h0a.123.123,0,0,0,.013.015h0l.008.006h0a1.931,1.931,0,0,1,0,2.729h0a1.931,1.931,0,0,1-1.365.565h0A1.93,1.93,0,0,1,4784.612,572.324Zm-7.4-3.533a1.929,1.929,0,0,1,1.7-2.135h0a1.928,1.928,0,0,1,2.135,1.7h0a1.93,1.93,0,0,1-1.7,2.137h0a2.188,2.188,0,0,1-.224.012h0A1.929,1.929,0,0,1,4777.209,568.791Z" transform="translate(-4770.282 -566.644)" fill="#ff9452"/>
      </g>
      <g id="Grupo_15641" data-name="Grupo 15641" transform="translate(277.114 91.214)">
        <path id="Trazado_26748" data-name="Trazado 26748" d="M6195.7,1040.554h0a1.928,1.928,0,0,1-1.187-2.455h0a1.926,1.926,0,0,1,2.455-1.188h0a1.929,1.929,0,0,1,1.188,2.455h0a1.929,1.929,0,0,1-1.822,1.294h0A1.957,1.957,0,0,1,6195.7,1040.554Zm6.19-1.61a1.93,1.93,0,0,1,.6-2.661h0a1.931,1.931,0,0,1,2.661.6h0a1.929,1.929,0,0,1-.6,2.659h0a1.888,1.888,0,0,1-1.025.3h0A1.929,1.929,0,0,1,6201.893,1038.944Zm-12.5-4.68a1.93,1.93,0,0,1,1.182-2.459h0a1.927,1.927,0,0,1,2.457,1.18h0a1.928,1.928,0,0,1-1.18,2.459h0a1.941,1.941,0,0,1-.639.11h0A1.933,1.933,0,0,1,6189.393,1034.264Zm17.761-.561a1.929,1.929,0,0,1-1.7-2.129h0a1.931,1.931,0,0,1,2.131-1.7h0a1.928,1.928,0,0,1,1.7,2.129h0a1.929,1.929,0,0,1-1.915,1.716h0A1.642,1.642,0,0,1,6207.153,1033.7Zm-16.168-5.635a1.928,1.928,0,0,1-.611-2.657h0a1.932,1.932,0,0,1,2.66-.611h0a1.929,1.929,0,0,1,.608,2.659h0a1.924,1.924,0,0,1-1.635.9h0A1.91,1.91,0,0,1,6190.985,1028.068Zm12.627-1.743h0a.17.17,0,0,0-.016-.014h0a1.931,1.931,0,0,1-.008-2.729h0a1.93,1.93,0,0,1,2.727-.008h0a.238.238,0,0,0,.023.021h0a1.932,1.932,0,0,1,0,2.729h0a1.929,1.929,0,0,1-1.365.563h0A1.925,1.925,0,0,1,6203.612,1026.324Zm2.706-2.75Zm-10.108-.783a1.927,1.927,0,0,1,1.7-2.135h0a1.928,1.928,0,0,1,2.135,1.7h0a1.929,1.929,0,0,1-1.7,2.137h0a2.159,2.159,0,0,1-.223.012h0A1.928,1.928,0,0,1,6196.21,1022.791Z" transform="translate(-6189.284 -1020.644)" fill="#ff9452"/>
      </g>
      <g id="Grupo_15642" data-name="Grupo 15642" transform="translate(277.114 189.756)">
        <path id="Trazado_26749" data-name="Trazado 26749" d="M6195.7,1551.554h0a1.929,1.929,0,0,1-1.187-2.455h0a1.927,1.927,0,0,1,2.455-1.188h0a1.93,1.93,0,0,1,1.188,2.455h0a1.929,1.929,0,0,1-1.822,1.294h0A1.96,1.96,0,0,1,6195.7,1551.554Zm6.19-1.61a1.93,1.93,0,0,1,.6-2.661h0a1.931,1.931,0,0,1,2.661.6h0a1.929,1.929,0,0,1-.6,2.659h0a1.9,1.9,0,0,1-1.025.3h0A1.928,1.928,0,0,1,6201.893,1549.944Zm-12.5-4.68a1.931,1.931,0,0,1,1.182-2.459h0a1.927,1.927,0,0,1,2.457,1.18h0a1.928,1.928,0,0,1-1.18,2.459h0a1.944,1.944,0,0,1-.639.11h0A1.933,1.933,0,0,1,6189.393,1545.264Zm17.761-.561a1.929,1.929,0,0,1-1.7-2.129h0a1.931,1.931,0,0,1,2.131-1.7h0a1.928,1.928,0,0,1,1.7,2.129h0a1.929,1.929,0,0,1-1.915,1.716h0A2.1,2.1,0,0,1,6207.153,1544.7Zm-16.168-5.635a1.928,1.928,0,0,1-.611-2.657h0a1.932,1.932,0,0,1,2.66-.611h0a1.929,1.929,0,0,1,.608,2.659h0a1.924,1.924,0,0,1-1.635.9h0A1.909,1.909,0,0,1,6190.985,1539.068Zm12.627-1.743h0a.191.191,0,0,0-.016-.014h0a1.931,1.931,0,0,1-.008-2.729h0a1.93,1.93,0,0,1,2.727-.008h0a.217.217,0,0,0,.023.021h0a1.932,1.932,0,0,1,0,2.729h0a1.93,1.93,0,0,1-1.365.563h0A1.926,1.926,0,0,1,6203.612,1537.324Zm2.706-2.75Zm-10.108-.783a1.927,1.927,0,0,1,1.7-2.135h0a1.928,1.928,0,0,1,2.135,1.7h0a1.929,1.929,0,0,1-1.7,2.137h0a2.159,2.159,0,0,1-.223.012h0A1.928,1.928,0,0,1,6196.21,1533.791Z" transform="translate(-6189.284 -1531.644)" fill="#ff9452"/>
      </g>
      <g id="Grupo_15643" data-name="Grupo 15643" transform="translate(0 164.687)">
        <path id="Trazado_26750" data-name="Trazado 26750" d="M4758.7,1421.554a1.928,1.928,0,0,1-1.187-2.455h0a1.926,1.926,0,0,1,2.455-1.188h0a1.929,1.929,0,0,1,1.188,2.455h0a1.928,1.928,0,0,1-1.822,1.294h0A1.908,1.908,0,0,1,4758.7,1421.554Zm6.19-1.61a1.927,1.927,0,0,1,.6-2.659h0a1.93,1.93,0,0,1,2.662.6h0a1.93,1.93,0,0,1-.6,2.659h0a1.9,1.9,0,0,1-1.026.3h0A1.928,1.928,0,0,1,4764.892,1419.944Zm-12.5-4.682v0h0a1.927,1.927,0,0,1,1.182-2.459h0a1.927,1.927,0,0,1,2.457,1.18h0a1.929,1.929,0,0,1-1.181,2.459h0a1.948,1.948,0,0,1-.638.11h0A1.931,1.931,0,0,1,4752.392,1415.262Zm17.761-.559a1.928,1.928,0,0,1-1.7-2.129h0a1.929,1.929,0,0,1,2.131-1.7h0a1.928,1.928,0,0,1,1.7,2.129h0a1.929,1.929,0,0,1-1.915,1.716h0A1.647,1.647,0,0,1,4770.152,1414.7Zm-16.168-5.635a1.928,1.928,0,0,1-.611-2.657h0a1.931,1.931,0,0,1,2.659-.611h0a1.929,1.929,0,0,1,.61,2.659h0a1.927,1.927,0,0,1-1.635.9h0A1.925,1.925,0,0,1,4753.984,1409.068Zm12.627-1.743-.023-.023h0a1.933,1.933,0,0,1,0-2.719h0a1.932,1.932,0,0,1,2.729-.008h0a.278.278,0,0,0,.027.029h0a1.93,1.93,0,0,1-.006,2.721h0a1.929,1.929,0,0,1-1.365.563h0A1.928,1.928,0,0,1,4766.612,1407.324Zm-7.4-3.533a1.926,1.926,0,0,1,1.7-2.135h0a1.928,1.928,0,0,1,2.135,1.7h0a1.929,1.929,0,0,1-1.7,2.137h0a2.144,2.144,0,0,1-.222.012h0A1.929,1.929,0,0,1,4759.208,1403.791Z" transform="translate(-4752.282 -1401.644)" fill="#ff9452"/>
      </g>
      <g id="Grupo_15644" data-name="Grupo 15644" transform="translate(91.022 0)">
        <path id="Trazado_26751" data-name="Trazado 26751" d="M5230.7,567.554a1.929,1.929,0,0,1-1.187-2.455h0a1.927,1.927,0,0,1,2.455-1.188h0a1.929,1.929,0,0,1,1.188,2.455h0a1.928,1.928,0,0,1-1.822,1.294h0A1.959,1.959,0,0,1,5230.7,567.554Zm6.19-1.61a1.928,1.928,0,0,1,.6-2.659h0a1.93,1.93,0,0,1,2.661.6h0a1.928,1.928,0,0,1-.6,2.659h0a1.9,1.9,0,0,1-1.025.3h0A1.929,1.929,0,0,1,5236.893,565.944Zm-12.5-4.68h0a1.929,1.929,0,0,1,1.183-2.459h0a1.927,1.927,0,0,1,2.457,1.18h0a1.929,1.929,0,0,1-1.181,2.459h0a1.948,1.948,0,0,1-.639.11h0A1.933,1.933,0,0,1,5224.393,561.264Zm17.761-.561a1.928,1.928,0,0,1-1.7-2.131h0a1.928,1.928,0,0,1,2.131-1.7h0a1.927,1.927,0,0,1,1.7,2.129h0a1.928,1.928,0,0,1-1.915,1.716h0A1.642,1.642,0,0,1,5242.153,560.7Zm-16.168-5.635a1.927,1.927,0,0,1-.609-2.657h0a1.929,1.929,0,0,1,2.658-.611h0a1.929,1.929,0,0,1,.609,2.659h0a1.926,1.926,0,0,1-1.636.9h0A1.929,1.929,0,0,1,5225.985,555.068Zm12.628-1.743a.034.034,0,0,0-.008-.01h0l-.006,0h0a1.932,1.932,0,0,1-.008-2.729h0a1.932,1.932,0,0,1,2.729-.008h0a.045.045,0,0,0,.014.013h0a.015.015,0,0,0,.008.008h0l0,.006h0a1.931,1.931,0,0,1,0,2.723h0a1.93,1.93,0,0,1-1.365.565h0A1.929,1.929,0,0,1,5238.613,553.324Zm-7.4-3.533a1.926,1.926,0,0,1,1.7-2.135h0a1.925,1.925,0,0,1,2.134,1.7h0a1.928,1.928,0,0,1-1.694,2.137h0a2.152,2.152,0,0,1-.222.012h0A1.93,1.93,0,0,1,5231.21,549.791Z" transform="translate(-5224.284 -547.644)" fill="#ff9452"/>
      </g>
      <g id="Grupo_15647" data-name="Grupo 15647" transform="translate(143.363 4.215)">
        <g id="Grupo_15645" data-name="Grupo 15645" transform="translate(4.532)">
          <path id="Trazado_26752" data-name="Trazado 26752" d="M5520.649,581.649a1.447,1.447,0,0,1-1.447-1.446v-9.256a1.447,1.447,0,0,1,2.893,0V580.2A1.446,1.446,0,0,1,5520.649,581.649Z" transform="translate(-5519.203 -569.5)" fill="#ff9452"/>
        </g>
        <g id="Grupo_15646" data-name="Grupo 15646" transform="translate(0 4.725)">
          <path id="Trazado_26753" data-name="Trazado 26753" d="M5506.406,596.893h-9.256a1.446,1.446,0,0,1,0-2.893h9.256a1.446,1.446,0,0,1,0,2.893Z" transform="translate(-5495.703 -594)" fill="#ff9452"/>
        </g>
      </g>
      <g id="Grupo_15650" data-name="Grupo 15650" transform="translate(4.709 203.613)">
        <g id="Grupo_15648" data-name="Grupo 15648" transform="translate(4.532)">
          <path id="Trazado_26754" data-name="Trazado 26754" d="M4801.649,1615.649a1.446,1.446,0,0,1-1.446-1.446v-9.256a1.446,1.446,0,0,1,2.893,0v9.256A1.446,1.446,0,0,1,4801.649,1615.649Z" transform="translate(-4800.203 -1603.5)" fill="#ff9452"/>
        </g>
        <g id="Grupo_15649" data-name="Grupo 15649" transform="translate(0 4.725)">
          <path id="Trazado_26755" data-name="Trazado 26755" d="M4787.405,1630.893h-9.256a1.446,1.446,0,1,1,0-2.893h9.256a1.446,1.446,0,1,1,0,2.893Z" transform="translate(-4776.703 -1628)" fill="#ff9452"/>
        </g>
      </g>
      <g id="Grupo_15653" data-name="Grupo 15653" transform="translate(3.745 133.997)">
        <g id="Grupo_15651" data-name="Grupo 15651" transform="translate(4.532)">
          <path id="Trazado_26756" data-name="Trazado 26756" d="M4796.649,1254.649a1.446,1.446,0,0,1-1.446-1.446v-9.256a1.446,1.446,0,1,1,2.893,0v9.256A1.446,1.446,0,0,1,4796.649,1254.649Z" transform="translate(-4795.203 -1242.5)" fill="#ff9452"/>
        </g>
        <g id="Grupo_15652" data-name="Grupo 15652" transform="translate(0 4.725)">
          <path id="Trazado_26757" data-name="Trazado 26757" d="M4782.405,1269.893h-9.256a1.446,1.446,0,1,1,0-2.893h9.256a1.446,1.446,0,1,1,0,2.893Z" transform="translate(-4771.703 -1267)" fill="#ff9452"/>
        </g>
      </g>
      <g id="Grupo_15656" data-name="Grupo 15656" transform="translate(282.209 140.94)">
        <g id="Grupo_15654" data-name="Grupo 15654" transform="translate(4.532)">
          <path id="Trazado_26758" data-name="Trazado 26758" d="M6240.649,1290.649a1.446,1.446,0,0,1-1.446-1.446v-9.256a1.446,1.446,0,1,1,2.893,0v9.256A1.446,1.446,0,0,1,6240.649,1290.649Z" transform="translate(-6239.203 -1278.5)" fill="#ff9452"/>
        </g>
        <g id="Grupo_15655" data-name="Grupo 15655" transform="translate(0 4.725)">
          <path id="Trazado_26759" data-name="Trazado 26759" d="M6226.406,1305.893h-9.257a1.446,1.446,0,0,1,0-2.893h9.257a1.446,1.446,0,1,1,0,2.893Z" transform="translate(-6215.703 -1303)" fill="#ff9452"/>
        </g>
      </g>
      <g id="Grupo_15659" data-name="Grupo 15659" transform="translate(275.459 4.215)">
        <g id="Grupo_15657" data-name="Grupo 15657" transform="translate(4.532)">
          <path id="Trazado_26760" data-name="Trazado 26760" d="M6205.649,581.649a1.446,1.446,0,0,1-1.446-1.446v-9.256a1.446,1.446,0,0,1,2.893,0V580.2A1.446,1.446,0,0,1,6205.649,581.649Z" transform="translate(-6204.203 -569.5)" fill="#ff9452"/>
        </g>
        <g id="Grupo_15658" data-name="Grupo 15658" transform="translate(0 4.725)">
          <path id="Trazado_26761" data-name="Trazado 26761" d="M6191.406,596.893h-9.257a1.446,1.446,0,0,1,0-2.893h9.257a1.446,1.446,0,0,1,0,2.893Z" transform="translate(-6180.703 -594)" fill="#ff9452"/>
        </g>
      </g>
      <g id="Grupo_15662" data-name="Grupo 15662" transform="translate(120.8 58.403)">
        <g id="Grupo_15660" data-name="Grupo 15660" transform="translate(4.532)">
          <path id="Trazado_26762" data-name="Trazado 26762" d="M5403.649,862.649a1.446,1.446,0,0,1-1.446-1.446v-9.256a1.446,1.446,0,1,1,2.893,0V861.2A1.446,1.446,0,0,1,5403.649,862.649Z" transform="translate(-5402.203 -850.5)" fill="#ff9452"/>
        </g>
        <g id="Grupo_15661" data-name="Grupo 15661" transform="translate(0 4.725)">
          <path id="Trazado_26763" data-name="Trazado 26763" d="M5389.405,877.893h-9.256a1.446,1.446,0,0,1,0-2.893h9.256a1.446,1.446,0,1,1,0,2.893Z" transform="translate(-5378.703 -875)" fill="#ff9452"/>
        </g>
      </g>
      <g id="Grupo_15669" data-name="Grupo 15669" transform="translate(9.282 84.63)">
        <g id="Grupo_15663" data-name="Grupo 15663" transform="translate(0 143.83)">
          <path id="Trazado_26764" data-name="Trazado 26764" d="M5067.729,1750.447h-255.6a11.73,11.73,0,0,1-11.716-11.716v-4.937a1.446,1.446,0,0,1,1.446-1.446H5078a1.447,1.447,0,0,1,1.447,1.446v4.937A11.73,11.73,0,0,1,5067.729,1750.447Zm-264.421-15.207v3.491a8.834,8.834,0,0,0,8.824,8.824h255.6a8.834,8.834,0,0,0,8.823-8.824v-3.491Z" transform="translate(-4800.415 -1732.347)" fill="#ff9452"/>
        </g>
        <g id="Grupo_15664" data-name="Grupo 15664" transform="translate(118.292 144.171)">
          <path id="Trazado_26765" data-name="Trazado 26765" d="M5454.473,1744.253h-39.2a1.446,1.446,0,0,1-1.446-1.446v-7.249a1.446,1.446,0,0,1,2.893,0v5.8h36.3v-5.8a1.447,1.447,0,0,1,2.893,0v7.249A1.446,1.446,0,0,1,5454.473,1744.253Z" transform="translate(-5413.829 -1734.112)" fill="#ff9452"/>
        </g>
        <g id="Grupo_15665" data-name="Grupo 15665" transform="translate(256.184 5.931)">
          <path id="Trazado_26766" data-name="Trazado 26766" d="M6131.508,1156.242a1.447,1.447,0,0,1-1.447-1.446V1023.572a9.026,9.026,0,0,0-1.014-4.2,1.447,1.447,0,0,1,2.568-1.333,11.9,11.9,0,0,1,1.339,5.534V1154.8A1.446,1.446,0,0,1,6131.508,1156.242Z" transform="translate(-6128.884 -1017.258)" fill="#ff9452"/>
        </g>
        <g id="Grupo_15666" data-name="Grupo 15666" transform="translate(104.622)">
          <path id="Trazado_26767" data-name="Trazado 26767" d="M5381.562,989.393H5344.39a1.446,1.446,0,0,1,0-2.893h37.172a1.446,1.446,0,0,1,0,2.893Z" transform="translate(-5342.944 -986.5)" fill="#ff9452"/>
        </g>
        <g id="Grupo_15667" data-name="Grupo 15667" transform="translate(18.419 47.754)">
          <path id="Trazado_26768" data-name="Trazado 26768" d="M4897.377,1332.369a1.446,1.446,0,0,1-1.446-1.446v-95.343a1.446,1.446,0,0,1,2.893,0v95.343A1.446,1.446,0,0,1,4897.377,1332.369Z" transform="translate(-4895.931 -1234.133)" fill="#ff9452"/>
        </g>
        <g id="Grupo_15668" data-name="Grupo 15668" transform="translate(34.528 15.572)">
          <path id="Trazado_26769" data-name="Trazado 26769" d="M4980.908,1185.606a1.447,1.447,0,0,1-1.446-1.446v-77.028a1.447,1.447,0,0,1,2.893,0v75.581l204.37-.119V1070.141h-138.1a1.446,1.446,0,1,1,0-2.893H5188.17a1.446,1.446,0,0,1,1.446,1.446V1184.04a1.446,1.446,0,0,1-1.446,1.446l-207.262.121Z" transform="translate(-4979.461 -1067.248)" fill="#ff9452"/>
        </g>
      </g>
      <g id="Grupo_15678" data-name="Grupo 15678" transform="translate(1.508 3.376)">
        <g id="Grupo_15674" data-name="Grupo 15674" transform="translate(0 24.554)">
          <g id="Grupo_15670" data-name="Grupo 15670" transform="translate(1.088 71.988)">
            <path id="Trazado_26770" data-name="Trazado 26770" d="M4820.992,1107.389a58.182,58.182,0,0,1-55.171-39.709,1.446,1.446,0,1,1,2.743-.917,55.206,55.206,0,0,0,52.428,37.733,1.446,1.446,0,1,1,0,2.893Z" transform="translate(-4765.746 -1065.775)" fill="#ff9452"/>
          </g>
          <g id="Grupo_15671" data-name="Grupo 15671" transform="translate(76.128 1.395)">
            <path id="Trazado_26771" data-name="Trazado 26771" d="M5168.272,801.193a1.447,1.447,0,0,1-.849-2.618,55.284,55.284,0,0,0-11.648-96.077,1.446,1.446,0,1,1,1.084-2.682,58.16,58.16,0,0,1,12.259,101.1A1.439,1.439,0,0,1,5168.272,801.193Z" transform="translate(-5154.871 -699.709)" fill="#ff9452"/>
          </g>
          <g id="Grupo_15672" data-name="Grupo 15672">
            <path id="Trazado_26772" data-name="Trazado 26772" d="M4761.55,735.039a1.447,1.447,0,0,1-1.4-1.811,58.277,58.277,0,0,1,38.452-40.683,1.446,1.446,0,1,1,.887,2.754,55.7,55.7,0,0,0-36.54,38.658A1.446,1.446,0,0,1,4761.55,735.039Z" transform="translate(-4760.102 -692.475)" fill="#ff9452"/>
          </g>
          <g id="Grupo_15673" data-name="Grupo 15673" transform="translate(6.901 7.899)">
            <path id="Trazado_26773" data-name="Trazado 26773" d="M4845.32,830.412a49.437,49.437,0,0,1-39.33-79.385,49.8,49.8,0,0,1,25.549-17.536,1.446,1.446,0,1,1,.805,2.779,46.54,46.54,0,1,0,27.549.494,1.446,1.446,0,1,1,.905-2.747,49.441,49.441,0,0,1-15.478,96.4Z" transform="translate(-4795.886 -733.433)" fill="#ff9452"/>
          </g>
        </g>
        <g id="Grupo_15675" data-name="Grupo 15675" transform="translate(18.603 17.163)">
          <path id="Trazado_26774" data-name="Trazado 26774" d="M4895.118,763.529h0a1.417,1.417,0,0,1-1.18-.635l-37.13-56.021a1.418,1.418,0,0,1,1.182-2.2h22.646V655.566a1.418,1.418,0,0,1,1.418-1.418h26.323a1.418,1.418,0,0,1,1.418,1.418v49.107h22.646a1.418,1.418,0,0,1,1.18,2.2L4896.3,762.9A1.418,1.418,0,0,1,4895.118,763.529Zm-34.49-56.021,34.493,52.041,34.672-52.041h-21.417a1.418,1.418,0,0,1-1.418-1.418V656.984H4883.47V706.09a1.418,1.418,0,0,1-1.418,1.418Z" transform="translate(-4856.57 -654.148)" fill="#ff9452"/>
        </g>
        <g id="Grupo_15676" data-name="Grupo 15676" transform="translate(42.909 5.785)">
          <path id="Trazado_26775" data-name="Trazado 26775" d="M5009.868,604.54h-25.841a1.418,1.418,0,0,1-1.418-1.418v-6.557a1.418,1.418,0,0,1,1.418-1.418h25.841a1.418,1.418,0,0,1,1.418,1.418v6.557A1.418,1.418,0,0,1,5009.868,604.54Zm-24.423-2.836h23.006v-3.721h-23.006Z" transform="translate(-4982.609 -595.148)" fill="#ff9452"/>
        </g>
        <g id="Grupo_15677" data-name="Grupo 15677" transform="translate(42.859)">
          <path id="Trazado_26776" data-name="Trazado 26776" d="M5009.61,567.984H4983.77a1.418,1.418,0,1,1,0-2.836h25.841a1.418,1.418,0,1,1,0,2.836Z" transform="translate(-4982.352 -565.148)" fill="#ff9452"/>
        </g>
      </g>
      <g id="Grupo_15706" data-name="Grupo 15706" transform="translate(113.904 105.499)">
        <g id="Grupo_15679" data-name="Grupo 15679" transform="translate(29.94 20.496)">
          <path id="Trazado_26777" data-name="Trazado 26777" d="M5557.5,1284.115h-57.852a1.446,1.446,0,0,1-1.447-1.446v-80.222a1.446,1.446,0,0,1,1.447-1.446H5557.5a1.446,1.446,0,0,1,1.446,1.446v31.94a1.446,1.446,0,1,1-2.892,0v-30.493H5501.1v77.329h54.96v-.45a1.446,1.446,0,1,1,2.892,0v1.9A1.446,1.446,0,0,1,5557.5,1284.115Z" transform="translate(-5498.203 -1201)" fill="#ff9452"/>
        </g>
        <g id="Grupo_15680" data-name="Grupo 15680">
          <path id="Trazado_26778" data-name="Trazado 26778" d="M5373.8,1186.6a1.447,1.447,0,0,1-1.32-.852l-29.409-65.2a1.446,1.446,0,0,1,.723-1.913l52.736-23.788a1.446,1.446,0,0,1,1.913.724l9.245,20.5a1.446,1.446,0,0,1-2.637,1.19l-8.65-19.177-50.1,22.6,28.815,63.88a1.447,1.447,0,0,1-1.317,2.041Z" transform="translate(-5342.944 -1094.718)" fill="#ff9452"/>
        </g>
        <g id="Grupo_15681" data-name="Grupo 15681" transform="translate(74.294 50.193)">
          <path id="Trazado_26779" data-name="Trazado 26779" d="M5754.912,1408.417a26.709,26.709,0,1,1,26.708-26.708A26.739,26.739,0,0,1,5754.912,1408.417Zm0-50.525a23.816,23.816,0,1,0,23.816,23.816A23.843,23.843,0,0,0,5754.912,1357.892Z" transform="translate(-5728.203 -1355)" fill="#ff9452"/>
        </g>
        <g id="Grupo_15682" data-name="Grupo 15682" transform="translate(83.55 53.086)">
          <path id="Trazado_26780" data-name="Trazado 26780" d="M5792.111,1416.861a1.447,1.447,0,0,1-1.227-.68l-14.463-23.141a1.446,1.446,0,0,1,2.453-1.533l12.843,20.549c6.257-18.155,13.554-31.775,22.261-41.57a1.446,1.446,0,0,1,2.162,1.922c-8.9,10.01-16.31,24.226-22.655,43.46a1.446,1.446,0,0,1-1.2.983A1.469,1.469,0,0,1,5792.111,1416.861Z" transform="translate(-5776.202 -1370.001)" fill="#ff9452"/>
        </g>
        <g id="Grupo_15686" data-name="Grupo 15686" transform="translate(35.533 28.016)">
          <g id="Grupo_15683" data-name="Grupo 15683">
            <path id="Trazado_26781" data-name="Trazado 26781" d="M5531.928,1242.893h-3.279a1.446,1.446,0,0,1,0-2.893h3.279a1.446,1.446,0,0,1,0,2.893Z" transform="translate(-5527.203 -1240)" fill="#ff9452"/>
          </g>
          <g id="Grupo_15684" data-name="Grupo 15684" transform="translate(8.871)">
            <path id="Trazado_26782" data-name="Trazado 26782" d="M5600.683,1242.893h-26.034a1.446,1.446,0,0,1,0-2.893h26.034a1.446,1.446,0,0,1,0,2.893Z" transform="translate(-5573.203 -1240)" fill="#ff9452"/>
          </g>
          <g id="Grupo_15685" data-name="Grupo 15685" transform="translate(40.882)">
            <path id="Trazado_26783" data-name="Trazado 26783" d="M5747.785,1242.893h-7.135a1.446,1.446,0,0,1,0-2.893h7.135a1.446,1.446,0,0,1,0,2.893Z" transform="translate(-5739.203 -1240)" fill="#ff9452"/>
          </g>
        </g>
        <g id="Grupo_15689" data-name="Grupo 15689" transform="translate(35.533 33.994)">
          <g id="Grupo_15687" data-name="Grupo 15687">
            <path id="Trazado_26784" data-name="Trazado 26784" d="M5546.2,1273.893h-17.549a1.446,1.446,0,0,1,0-2.893H5546.2a1.446,1.446,0,0,1,0,2.893Z" transform="translate(-5527.203 -1271)" fill="#ff9452"/>
          </g>
          <g id="Grupo_15688" data-name="Grupo 15688" transform="translate(26.419)">
            <path id="Trazado_26785" data-name="Trazado 26785" d="M5687.247,1273.893h-21.6a1.446,1.446,0,0,1,0-2.893h21.6a1.446,1.446,0,0,1,0,2.893Z" transform="translate(-5664.203 -1271)" fill="#ff9452"/>
          </g>
        </g>
        <g id="Grupo_15693" data-name="Grupo 15693" transform="translate(35.533 39.973)">
          <g id="Grupo_15690" data-name="Grupo 15690">
            <path id="Trazado_26786" data-name="Trazado 26786" d="M5531.928,1304.893h-3.279a1.446,1.446,0,0,1,0-2.893h3.279a1.446,1.446,0,0,1,0,2.893Z" transform="translate(-5527.203 -1302)" fill="#ff9452"/>
          </g>
          <g id="Grupo_15691" data-name="Grupo 15691" transform="translate(8.871)">
            <path id="Trazado_26787" data-name="Trazado 26787" d="M5600.683,1304.893h-26.034a1.446,1.446,0,0,1,0-2.893h26.034a1.446,1.446,0,0,1,0,2.893Z" transform="translate(-5573.203 -1302)" fill="#ff9452"/>
          </g>
          <g id="Grupo_15692" data-name="Grupo 15692" transform="translate(40.882)">
            <path id="Trazado_26788" data-name="Trazado 26788" d="M5747.785,1304.893h-7.135a1.446,1.446,0,0,1,0-2.893h7.135a1.446,1.446,0,0,1,0,2.893Z" transform="translate(-5739.203 -1302)" fill="#ff9452"/>
          </g>
        </g>
        <g id="Grupo_15696" data-name="Grupo 15696" transform="translate(35.533 45.951)">
          <g id="Grupo_15694" data-name="Grupo 15694">
            <path id="Trazado_26789" data-name="Trazado 26789" d="M5546.2,1335.893h-17.549a1.446,1.446,0,0,1,0-2.893H5546.2a1.446,1.446,0,0,1,0,2.893Z" transform="translate(-5527.203 -1333)" fill="#ff9452"/>
          </g>
          <g id="Grupo_15695" data-name="Grupo 15695" transform="translate(26.419)">
            <path id="Trazado_26790" data-name="Trazado 26790" d="M5687.247,1335.893h-21.6a1.446,1.446,0,0,1,0-2.893h21.6a1.446,1.446,0,0,1,0,2.893Z" transform="translate(-5664.203 -1333)" fill="#ff9452"/>
          </g>
        </g>
        <g id="Grupo_15700" data-name="Grupo 15700" transform="translate(35.533 51.929)">
          <g id="Grupo_15697" data-name="Grupo 15697">
            <path id="Trazado_26791" data-name="Trazado 26791" d="M5531.928,1366.893h-3.279a1.446,1.446,0,1,1,0-2.893h3.279a1.446,1.446,0,0,1,0,2.893Z" transform="translate(-5527.203 -1364)" fill="#ff9452"/>
          </g>
          <g id="Grupo_15698" data-name="Grupo 15698" transform="translate(8.871)">
            <path id="Trazado_26792" data-name="Trazado 26792" d="M5600.683,1366.893h-26.034a1.446,1.446,0,1,1,0-2.893h26.034a1.446,1.446,0,1,1,0,2.893Z" transform="translate(-5573.203 -1364)" fill="#ff9452"/>
          </g>
          <g id="Grupo_15699" data-name="Grupo 15699" transform="translate(40.882)">
            <path id="Trazado_26793" data-name="Trazado 26793" d="M5747.785,1366.893h-7.135a1.446,1.446,0,1,1,0-2.893h7.135a1.446,1.446,0,0,1,0,2.893Z" transform="translate(-5739.203 -1364)" fill="#ff9452"/>
          </g>
        </g>
        <g id="Grupo_15703" data-name="Grupo 15703" transform="translate(35.533 57.907)">
          <g id="Grupo_15701" data-name="Grupo 15701">
            <path id="Trazado_26794" data-name="Trazado 26794" d="M5546.2,1397.893h-17.549a1.446,1.446,0,0,1,0-2.893H5546.2a1.446,1.446,0,0,1,0,2.893Z" transform="translate(-5527.203 -1395)" fill="#ff9452"/>
          </g>
          <g id="Grupo_15702" data-name="Grupo 15702" transform="translate(26.419)">
            <path id="Trazado_26795" data-name="Trazado 26795" d="M5683.776,1397.893h-18.127a1.446,1.446,0,0,1,0-2.893h18.127a1.446,1.446,0,0,1,0,2.893Z" transform="translate(-5664.203 -1395)" fill="#ff9452"/>
          </g>
        </g>
        <g id="Grupo_15704" data-name="Grupo 15704" transform="translate(47.489 65.808)">
          <path id="Trazado_26796" data-name="Trazado 26796" d="M5619.364,1438.866h-28.714a1.446,1.446,0,0,1,0-2.893h28.714a1.446,1.446,0,0,1,0,2.893Z" transform="translate(-5589.203 -1435.973)" fill="#ff9452"/>
        </g>
        <g id="Grupo_15705" data-name="Grupo 15705" transform="translate(35.533 65.813)">
          <path id="Trazado_26797" data-name="Trazado 26797" d="M5559.89,1466.083h-31.241a1.446,1.446,0,0,1-1.446-1.446v-27.191a1.446,1.446,0,0,1,1.446-1.446h4.628a1.446,1.446,0,0,1,0,2.893H5530.1v24.3h29.794a1.446,1.446,0,0,1,0,2.893Z" transform="translate(-5527.203 -1436)" fill="#ff9452"/>
        </g>
      </g>
      <g id="Grupo_15707" data-name="Grupo 15707" transform="translate(186.656 198.503)">
        <path id="Trazado_26798" data-name="Trazado 26798" d="M5728.334,1579.893h-6.686a1.446,1.446,0,0,1,0-2.893h6.686a1.446,1.446,0,1,1,0,2.893Z" transform="translate(-5720.203 -1577)" fill="#ff9452"/>
      </g>
      <g id="Grupo_15711" data-name="Grupo 15711" transform="translate(141.326 2.83)">
        <g id="Grupo_15708" data-name="Grupo 15708" transform="translate(0 33.855)">
          <path id="Trazado_26799" data-name="Trazado 26799" d="M5513.021,793.634a27.877,27.877,0,1,1,23.115-43.465,1.447,1.447,0,0,1-2.4,1.619,24.985,24.985,0,1,0-20.718,38.953,1.446,1.446,0,0,1,0,2.893Z" transform="translate(-5485.143 -737.88)" fill="#ff9452"/>
        </g>
        <g id="Grupo_15709" data-name="Grupo 15709" transform="translate(35.197)">
          <path id="Trazado_26800" data-name="Trazado 26800" d="M5669.106,599.068a1.447,1.447,0,0,1-1.413-1.762,44.807,44.807,0,0,1,80.29-16.082,1.446,1.446,0,0,1-2.359,1.674,41.923,41.923,0,0,0-75.107,15.039A1.446,1.446,0,0,1,5669.106,599.068Z" transform="translate(-5667.658 -562.321)" fill="#ff9452"/>
        </g>
        <g id="Grupo_15710" data-name="Grupo 15710" transform="translate(26.431 19.303)">
          <path id="Trazado_26801" data-name="Trazado 26801" d="M5716.751,732.726h-93.1a1.446,1.446,0,0,1,0-2.893h93.1a32.261,32.261,0,1,0-12.728-61.913,1.446,1.446,0,1,1-1.143-2.658,35.157,35.157,0,1,1,13.87,67.463Z" transform="translate(-5622.203 -662.42)" fill="#ff9452"/>
        </g>
      </g>
      <g id="Grupo_15735" data-name="Grupo 15735" transform="translate(54.173 148.364)">
        <g id="Grupo_15712" data-name="Grupo 15712">
          <path id="Trazado_26802" data-name="Trazado 26802" d="M5092.5,1377.745h-57.853a1.446,1.446,0,0,1-1.446-1.446v-57.853a1.446,1.446,0,0,1,1.446-1.446H5092.5a1.446,1.446,0,0,1,1.446,1.446V1376.3A1.446,1.446,0,0,1,5092.5,1377.745Zm-56.406-2.893h54.959v-54.96H5036.1Z" transform="translate(-5033.203 -1317)" fill="#ff9452"/>
        </g>
        <g id="Grupo_15713" data-name="Grupo 15713" transform="translate(4.628 5.014)">
          <path id="Trazado_26803" data-name="Trazado 26803" d="M5082.947,1393.139h-24.3a1.447,1.447,0,0,1-1.447-1.446v-47.246a1.447,1.447,0,0,1,1.447-1.446h24.3a1.446,1.446,0,0,1,1.446,1.446v47.246A1.446,1.446,0,0,1,5082.947,1393.139Zm-22.852-2.893H5081.5v-44.354H5060.1Z" transform="translate(-5057.203 -1343)" fill="#ff9452"/>
        </g>
        <g id="Grupo_15716" data-name="Grupo 15716" transform="translate(34.326 6.364)">
          <g id="Grupo_15714" data-name="Grupo 15714">
            <path id="Trazado_26804" data-name="Trazado 26804" d="M5215.928,1352.893h-3.278a1.446,1.446,0,0,1,0-2.893h3.278a1.446,1.446,0,0,1,0,2.893Z" transform="translate(-5211.203 -1350)" fill="#ff9452"/>
          </g>
          <g id="Grupo_15715" data-name="Grupo 15715" transform="translate(9.064)">
            <path id="Trazado_26805" data-name="Trazado 26805" d="M5269.87,1352.893h-10.221a1.446,1.446,0,0,1,0-2.893h10.221a1.446,1.446,0,0,1,0,2.893Z" transform="translate(-5258.203 -1350)" fill="#ff9452"/>
          </g>
        </g>
        <g id="Grupo_15717" data-name="Grupo 15717" transform="translate(34.326 11.571)">
          <path id="Trazado_26806" data-name="Trazado 26806" d="M5225.377,1379.892h-12.728a1.446,1.446,0,1,1,0-2.892h12.728a1.446,1.446,0,1,1,0,2.892Z" transform="translate(-5211.203 -1377)" fill="#ff9452"/>
        </g>
        <g id="Grupo_15720" data-name="Grupo 15720" transform="translate(34.326 17.741)">
          <g id="Grupo_15718" data-name="Grupo 15718">
            <path id="Trazado_26807" data-name="Trazado 26807" d="M5223.449,1411.893h-10.8a1.446,1.446,0,0,1,0-2.893h10.8a1.446,1.446,0,0,1,0,2.893Z" transform="translate(-5211.203 -1409)" fill="#ff9452"/>
          </g>
          <g id="Grupo_15719" data-name="Grupo 15719" transform="translate(15.813)">
            <path id="Trazado_26808" data-name="Trazado 26808" d="M5298.121,1411.893h-3.471a1.446,1.446,0,0,1,0-2.893h3.471a1.446,1.446,0,0,1,0,2.893Z" transform="translate(-5293.203 -1409)" fill="#ff9452"/>
          </g>
        </g>
        <g id="Grupo_15723" data-name="Grupo 15723" transform="translate(34.326 23.912)">
          <g id="Grupo_15721" data-name="Grupo 15721">
            <path id="Trazado_26809" data-name="Trazado 26809" d="M5215.928,1443.893h-3.278a1.446,1.446,0,0,1,0-2.893h3.278a1.446,1.446,0,0,1,0,2.893Z" transform="translate(-5211.203 -1441)" fill="#ff9452"/>
          </g>
          <g id="Grupo_15722" data-name="Grupo 15722" transform="translate(9.064)">
            <path id="Trazado_26810" data-name="Trazado 26810" d="M5269.87,1443.893h-10.221a1.446,1.446,0,0,1,0-2.893h10.221a1.446,1.446,0,0,1,0,2.893Z" transform="translate(-5258.203 -1441)" fill="#ff9452"/>
          </g>
        </g>
        <g id="Grupo_15724" data-name="Grupo 15724" transform="translate(34.326 29.119)">
          <path id="Trazado_26811" data-name="Trazado 26811" d="M5225.377,1470.893h-12.728a1.446,1.446,0,1,1,0-2.893h12.728a1.446,1.446,0,1,1,0,2.893Z" transform="translate(-5211.203 -1468)" fill="#ff9452"/>
        </g>
        <g id="Grupo_15727" data-name="Grupo 15727" transform="translate(34.326 35.29)">
          <g id="Grupo_15725" data-name="Grupo 15725">
            <path id="Trazado_26812" data-name="Trazado 26812" d="M5223.449,1502.893h-10.8a1.446,1.446,0,0,1,0-2.893h10.8a1.446,1.446,0,0,1,0,2.893Z" transform="translate(-5211.203 -1500)" fill="#ff9452"/>
          </g>
          <g id="Grupo_15726" data-name="Grupo 15726" transform="translate(15.813)">
            <path id="Trazado_26813" data-name="Trazado 26813" d="M5298.121,1502.893h-3.471a1.446,1.446,0,0,1,0-2.893h3.471a1.446,1.446,0,0,1,0,2.893Z" transform="translate(-5293.203 -1500)" fill="#ff9452"/>
          </g>
        </g>
        <g id="Grupo_15730" data-name="Grupo 15730" transform="translate(34.326 41.461)">
          <g id="Grupo_15728" data-name="Grupo 15728">
            <path id="Trazado_26814" data-name="Trazado 26814" d="M5215.928,1534.892h-3.278a1.446,1.446,0,0,1,0-2.893h3.278a1.446,1.446,0,0,1,0,2.893Z" transform="translate(-5211.203 -1532)" fill="#ff9452"/>
          </g>
          <g id="Grupo_15729" data-name="Grupo 15729" transform="translate(9.064)">
            <path id="Trazado_26815" data-name="Trazado 26815" d="M5269.87,1534.892h-10.221a1.446,1.446,0,0,1,0-2.893h10.221a1.446,1.446,0,0,1,0,2.893Z" transform="translate(-5258.203 -1532)" fill="#ff9452"/>
          </g>
        </g>
        <g id="Grupo_15731" data-name="Grupo 15731" transform="translate(34.326 46.668)">
          <path id="Trazado_26816" data-name="Trazado 26816" d="M5225.377,1561.893h-12.728a1.446,1.446,0,0,1,0-2.893h12.728a1.446,1.446,0,0,1,0,2.893Z" transform="translate(-5211.203 -1559)" fill="#ff9452"/>
        </g>
        <g id="Grupo_15734" data-name="Grupo 15734" transform="translate(34.326 52.839)">
          <g id="Grupo_15732" data-name="Grupo 15732">
            <path id="Trazado_26817" data-name="Trazado 26817" d="M5223.449,1593.892h-10.8a1.446,1.446,0,1,1,0-2.892h10.8a1.446,1.446,0,1,1,0,2.892Z" transform="translate(-5211.203 -1591)" fill="#ff9452"/>
          </g>
          <g id="Grupo_15733" data-name="Grupo 15733" transform="translate(15.813)">
            <path id="Trazado_26818" data-name="Trazado 26818" d="M5298.121,1593.892h-3.471a1.446,1.446,0,1,1,0-2.892h3.471a1.446,1.446,0,1,1,0,2.892Z" transform="translate(-5293.203 -1591)" fill="#ff9452"/>
          </g>
        </g>
      </g>
      <g id="Grupo_15736" data-name="Grupo 15736" transform="translate(265.528 243.628)">
        <path id="Trazado_26819" data-name="Trazado 26819" d="M6159.769,1813.893h-29.12a1.446,1.446,0,0,1,0-2.893h29.12a1.446,1.446,0,0,1,0,2.893Z" transform="translate(-6129.203 -1811)" fill="#ff9452"/>
      </g>
    </g>
  </g>
</svg>
