<svg xmlns="http://www.w3.org/2000/svg" width="301.371" height="242.836" viewBox="0 0 301.371 242.836">
  <g id="Grupo_15555" data-name="Grupo 15555" transform="translate(-3601.203 -304.995)">
    <g id="Color" transform="translate(3623.107 331.433)">
      <g id="Grupo_15486" data-name="Grupo 15486" transform="translate(77.821 46.074)">
        <rect id="Rect치ngulo_2908" data-name="Rect치ngulo 2908" width="11" height="14" transform="translate(-0.137 24.722)" fill="#fcd118"/>
        <rect id="Rect치ngulo_2909" data-name="Rect치ngulo 2909" width="10" height="14" transform="translate(20.863 24.722)" fill="#fcd118"/>
        <path id="Trazado_26614" data-name="Trazado 26614" d="M3877.708,497h18.708v6.8H3866.2V497h11.5Z" transform="translate(-3865.849 -497)" fill="#fcd118"/>
      </g>
      <path id="Trazado_26615" data-name="Trazado 26615" d="M3878.756,721.84H3871.2V709h51.739v12.84h-44.186Z" transform="translate(-3791.139 -582.862)" fill="#e1e1e5"/>
      <ellipse id="Elipse_1288" data-name="Elipse 1288" cx="5.5" cy="5" rx="5.5" ry="5" transform="translate(87.684 160.796)" fill="#5ed45e"/>
      <g id="Grupo_15487" data-name="Grupo 15487" transform="translate(0 107.633)">
        <path id="Trazado_26616" data-name="Trazado 26616" d="M3693.381,665.665h-31.346a2.832,2.832,0,0,1-2.833-2.832h0a2.832,2.832,0,0,1,2.833-2.832h31.346a2.833,2.833,0,0,1,2.833,2.832h0A2.833,2.833,0,0,1,3693.381,665.665Z" transform="translate(-3659.203 -660)" fill="#5ed45e"/>
        <path id="Trazado_26617" data-name="Trazado 26617" d="M3785.365,665.665h-11.33a2.832,2.832,0,0,1-2.832-2.832h0a2.832,2.832,0,0,1,2.832-2.832h11.33a2.832,2.832,0,0,1,2.832,2.832h0A2.832,2.832,0,0,1,3785.365,665.665Z" transform="translate(-3728.906 -660)" fill="#5ed45e"/>
      </g>
      <g id="Grupo_15488" data-name="Grupo 15488" transform="translate(0 119.34)">
        <path id="Trazado_26618" data-name="Trazado 26618" d="M3670.721,696.665h-8.686a2.832,2.832,0,0,1-2.833-2.833h0a2.832,2.832,0,0,1,2.833-2.832h8.686a2.833,2.833,0,0,1,2.833,2.832h0A2.833,2.833,0,0,1,3670.721,696.665Z" transform="translate(-3659.203 -691)" fill="#5ed45e"/>
        <path id="Trazado_26619" data-name="Trazado 26619" d="M3748.024,696.665h-33.989a2.832,2.832,0,0,1-2.832-2.833h0a2.832,2.832,0,0,1,2.832-2.832h33.989a2.832,2.832,0,0,1,2.833,2.832h0A2.832,2.832,0,0,1,3748.024,696.665Z" transform="translate(-3691.565 -691)" fill="#5ed45e"/>
      </g>
      <circle id="Elipse_1289" data-name="Elipse 1289" cx="5.5" cy="5.5" r="5.5" transform="translate(146.684 147.796)" fill="#5ed45e"/>
      <ellipse id="Elipse_1290" data-name="Elipse 1290" cx="4.5" cy="5" rx="4.5" ry="5" transform="translate(117.684 174.796)" fill="#5ed45e"/>
      <path id="Trazado_26620" data-name="Trazado 26620" d="M4026.9,504.931h-14.729a3.966,3.966,0,0,1-3.966-3.965h0a3.966,3.966,0,0,1,3.966-3.965H4026.9a3.965,3.965,0,0,1,3.965,3.965h0A3.965,3.965,0,0,1,4026.9,504.931Z" transform="translate(-3876.4 -450.926)" fill="#4a91d6"/>
      <path id="Trazado_26621" data-name="Trazado 26621" d="M4098.1,504.931h-7.931a3.965,3.965,0,0,1-3.965-3.965h0a3.965,3.965,0,0,1,3.965-3.965h7.931a3.965,3.965,0,0,1,3.965,3.965h0A3.965,3.965,0,0,1,4098.1,504.931Z" transform="translate(-3924.943 -450.926)" fill="#4a91d6"/>
      <path id="Trazado_26622" data-name="Trazado 26622" d="M4026.9,572.931h-14.729a3.966,3.966,0,0,1-3.966-3.965h0a3.966,3.966,0,0,1,3.966-3.965H4026.9a3.965,3.965,0,0,1,3.965,3.965h0A3.965,3.965,0,0,1,4026.9,572.931Z" transform="translate(-3876.4 -493.245)" fill="#4a91d6"/>
      <path id="Trazado_26623" data-name="Trazado 26623" d="M4098.1,572.931h-7.931a3.965,3.965,0,0,1-3.965-3.965h0a3.965,3.965,0,0,1,3.965-3.965h7.931a3.965,3.965,0,0,1,3.965,3.965h0A3.965,3.965,0,0,1,4098.1,572.931Z" transform="translate(-3924.943 -493.245)" fill="#4a91d6"/>
      <path id="Trazado_26624" data-name="Trazado 26624" d="M4061.168,531h18.883a3.965,3.965,0,0,1,3.965,3.965h0a3.965,3.965,0,0,1-3.965,3.965h-18.883a3.966,3.966,0,0,1-3.966-3.965h0A3.965,3.965,0,0,1,4061.168,531Z" transform="translate(-3906.895 -472.085)" fill="#4a91d6"/>
      <path id="Trazado_26625" data-name="Trazado 26625" d="M4012.168,531h3.776a3.965,3.965,0,0,1,3.965,3.965h0a3.965,3.965,0,0,1-3.965,3.965h-3.776a3.966,3.966,0,0,1-3.966-3.965h0A3.966,3.966,0,0,1,4012.168,531Z" transform="translate(-3876.4 -472.085)" fill="#4a91d6"/>
      <path id="Trazado_26626" data-name="Trazado 26626" d="M3962.142,404l-2.419,4.463a15.282,15.282,0,0,1-13.435,8h-28.675a15.282,15.282,0,0,1-13.435-8L3901.76,404Z" transform="translate(-3810.156 -393.048)" fill="#e1e1e5"/>
      <path id="Trazado_26627" data-name="Trazado 26627" d="M4288.9,375.36l-6.487-.048-7.552-.056L4240.478,375a4.535,4.535,0,0,0-4.535,4.535v36.358a4.535,4.535,0,0,0,4.535,4.535h16.958l7.371,12.464,7.225-12.464h16.939a4.535,4.535,0,0,0,4.535-4.535V379.535A4.3,4.3,0,0,0,4288.9,375.36Zm-8.061,23.558c-5.12,10.151-16.194,15.688-16.194,15.688a42.793,42.793,0,0,1-13.915-11.939l13.915,11.939-16.195-15.688c-5.767-15.873,15.417-18.784,16.15-8.652h.089C4265.426,380.134,4286.609,383.044,4280.842,398.917Z" transform="translate(-4018.132 -375)" fill="#fcd118"/>
    </g>
    <g id="CAPTION" transform="translate(3601.203 326.146)">
      <g id="Grupo_15489" data-name="Grupo 15489" transform="translate(10.952 219.419)">
        <path id="Trazado_26628" data-name="Trazado 26628" d="M3897.962,944.266H3631.336a1.133,1.133,0,0,1,0-2.266h266.626a1.133,1.133,0,1,1,0,2.266Z" transform="translate(-3630.203 -942)" fill="#367276"/>
      </g>
      <g id="Grupo_15490" data-name="Grupo 15490" transform="translate(255.675 209.6)">
        <path id="Trazado_26629" data-name="Trazado 26629" d="M4322.767,918.266h-43.431a1.133,1.133,0,0,1,0-2.266h43.431a1.133,1.133,0,0,1,0,2.266Z" transform="translate(-4278.203 -916)" fill="#367276"/>
      </g>
      <g id="Grupo_15491" data-name="Grupo 15491" transform="translate(0 209.6)">
        <path id="Trazado_26630" data-name="Trazado 26630" d="M3645.767,918.266h-43.431a1.133,1.133,0,0,1,0-2.266h43.431a1.133,1.133,0,0,1,0,2.266Z" transform="translate(-3601.203 -916)" fill="#367276"/>
      </g>
      <g id="Grupo_15527" data-name="Grupo 15527" transform="translate(80.441 15.106)">
        <g id="Grupo_15492" data-name="Grupo 15492" transform="translate(0 0)">
          <path id="Trazado_26631" data-name="Trazado 26631" d="M3930.939,607.579H3823.983a9.791,9.791,0,0,1-9.78-9.779V523.739a1.133,1.133,0,0,1,2.266,0V597.8a7.522,7.522,0,0,0,7.514,7.514h106.956a7.522,7.522,0,0,0,7.514-7.514V410.779a7.522,7.522,0,0,0-7.514-7.513H3823.983a7.522,7.522,0,0,0-7.514,7.513v81.076a1.133,1.133,0,0,1-2.266,0V410.779a9.791,9.791,0,0,1,9.78-9.779h106.956a9.791,9.791,0,0,1,9.78,9.779V597.8A9.791,9.791,0,0,1,3930.939,607.579Z" transform="translate(-3814.203 -401)" fill="#367276"/>
        </g>
        <g id="Grupo_15493" data-name="Grupo 15493" transform="translate(31.934)">
          <path id="Trazado_26632" data-name="Trazado 26632" d="M3944.421,415.729h-28.674a16.4,16.4,0,0,1-14.432-8.593l-2.418-4.463a1.133,1.133,0,0,1,1.992-1.08l2.419,4.463a14.135,14.135,0,0,0,12.438,7.407h28.674a14.137,14.137,0,0,0,12.439-7.407l2.419-4.463a1.133,1.133,0,1,1,1.992,1.08l-2.419,4.463A16.4,16.4,0,0,1,3944.421,415.729Z" transform="translate(-3898.76 -401)" fill="#367276"/>
        </g>
        <g id="Grupo_15494" data-name="Grupo 15494" transform="translate(12.84 107.633)">
          <path id="Trazado_26633" data-name="Trazado 26633" d="M3948.282,768.707h-98.947a1.133,1.133,0,0,1-1.133-1.133V687.133a1.133,1.133,0,0,1,1.133-1.133h98.947a1.133,1.133,0,0,1,1.133,1.133v80.441A1.133,1.133,0,0,1,3948.282,768.707Zm-97.813-2.266h96.68V688.266h-96.68Z" transform="translate(-3848.203 -686)" fill="#367276"/>
        </g>
        <g id="Grupo_15495" data-name="Grupo 15495" transform="translate(54.383 67.223)">
          <path id="Trazado_26634" data-name="Trazado 26634" d="M3965.567,595.617a7.372,7.372,0,0,1-7.364-7.364v-8.12a1.133,1.133,0,0,1,1.132-1.133H3971.8a1.133,1.133,0,0,1,1.133,1.133v8.12A7.373,7.373,0,0,1,3965.567,595.617Zm-5.1-14.351v6.987a5.1,5.1,0,1,0,10.2,0v-6.987Z" transform="translate(-3958.203 -579)" fill="#367276"/>
        </g>
        <g id="Grupo_15496" data-name="Grupo 15496" transform="translate(12.84 29.457)">
          <path id="Trazado_26635" data-name="Trazado 26635" d="M3897.3,533.383h-41.77a7.334,7.334,0,0,1-7.326-7.326V480.133a1.133,1.133,0,0,1,1.133-1.133h41.542a1.133,1.133,0,0,1,1.133,1.133v41.92a1.133,1.133,0,0,1-2.266,0V481.266h-39.276v44.791a5.066,5.066,0,0,0,5.06,5.06h41.77a1.133,1.133,0,0,1,0,2.266Z" transform="translate(-3848.203 -479)" fill="#367276"/>
        </g>
        <g id="Grupo_15497" data-name="Grupo 15497" transform="translate(18.505 60.425)">
          <path id="Trazado_26636" data-name="Trazado 26636" d="M3874.532,576.484h-10.2a1.133,1.133,0,0,1-1.133-1.133V562.133a1.133,1.133,0,0,1,1.133-1.133h10.2a1.133,1.133,0,0,1,1.133,1.133v13.218A1.133,1.133,0,0,1,3874.532,576.484Zm-9.063-2.266h7.931V563.266h-7.931Z" transform="translate(-3863.203 -561)" fill="#367276"/>
        </g>
        <g id="Grupo_15498" data-name="Grupo 15498" transform="translate(38.521 60.425)">
          <path id="Trazado_26637" data-name="Trazado 26637" d="M3927.533,576.484h-10.2a1.133,1.133,0,0,1-1.133-1.133V562.133a1.133,1.133,0,0,1,1.133-1.133h10.2a1.133,1.133,0,0,1,1.133,1.133v13.218A1.133,1.133,0,0,1,3927.533,576.484Zm-9.064-2.266h7.931V563.266h-7.931Z" transform="translate(-3916.203 -561)" fill="#367276"/>
        </g>
        <g id="Grupo_15499" data-name="Grupo 15499" transform="translate(18.505 35.122)">
          <path id="Trazado_26638" data-name="Trazado 26638" d="M3894.549,503.064h-30.213a1.133,1.133,0,0,1-1.133-1.133v-6.8a1.133,1.133,0,0,1,1.133-1.133h5.1a1.133,1.133,0,0,1,0,2.266h-3.965V500.8h27.947v-4.532h-17.575a1.133,1.133,0,1,1,0-2.266h18.708a1.133,1.133,0,0,1,1.133,1.133v6.8A1.133,1.133,0,0,1,3894.549,503.064Z" transform="translate(-3863.203 -494)" fill="#367276"/>
        </g>
        <g id="Grupo_15502" data-name="Grupo 15502" transform="translate(18.505 47.963)">
          <g id="Grupo_15500" data-name="Grupo 15500">
            <path id="Trazado_26639" data-name="Trazado 26639" d="M3869.623,530.266h-5.287a1.133,1.133,0,0,1,0-2.266h5.287a1.133,1.133,0,1,1,0,2.266Z" transform="translate(-3863.203 -528)" fill="#367276"/>
          </g>
          <g id="Grupo_15501" data-name="Grupo 15501" transform="translate(10.197)">
            <path id="Trazado_26640" data-name="Trazado 26640" d="M3911.352,530.266h-20.016a1.133,1.133,0,0,1,0-2.266h20.016a1.133,1.133,0,0,1,0,2.266Z" transform="translate(-3890.203 -528)" fill="#367276"/>
          </g>
        </g>
        <g id="Grupo_15505" data-name="Grupo 15505" transform="translate(18.505 53.628)">
          <g id="Grupo_15503" data-name="Grupo 15503" transform="translate(24.925)">
            <path id="Trazado_26641" data-name="Trazado 26641" d="M3935.623,545.266h-5.288a1.133,1.133,0,0,1,0-2.266h5.288a1.133,1.133,0,0,1,0,2.266Z" transform="translate(-3929.203 -543)" fill="#367276"/>
          </g>
          <g id="Grupo_15504" data-name="Grupo 15504">
            <path id="Trazado_26642" data-name="Trazado 26642" d="M3884.352,545.266h-20.016a1.133,1.133,0,0,1,0-2.266h20.016a1.133,1.133,0,0,1,0,2.266Z" transform="translate(-3863.203 -543)" fill="#367276"/>
          </g>
        </g>
        <g id="Grupo_15506" data-name="Grupo 15506" transform="translate(72.133 35.122)">
          <path id="Trazado_26643" data-name="Trazado 26643" d="M4025.03,504.2H4010.3a5.1,5.1,0,0,1,0-10.2h14.729a5.1,5.1,0,1,1,0,10.2Zm-14.729-7.931a2.832,2.832,0,1,0,0,5.665h14.729a2.832,2.832,0,1,0,0-5.665Z" transform="translate(-4005.203 -494)" fill="#367276"/>
        </g>
        <g id="Grupo_15507" data-name="Grupo 15507" transform="translate(101.59 35.122)">
          <path id="Trazado_26644" data-name="Trazado 26644" d="M4096.232,504.2H4088.3a5.1,5.1,0,1,1,0-10.2h7.931a5.1,5.1,0,0,1,0,10.2Zm-7.931-7.931a2.832,2.832,0,1,0,0,5.665h7.931a2.832,2.832,0,0,0,0-5.665Z" transform="translate(-4083.203 -494)" fill="#367276"/>
        </g>
        <g id="Grupo_15508" data-name="Grupo 15508" transform="translate(72.133 60.803)">
          <path id="Trazado_26645" data-name="Trazado 26645" d="M4025.03,572.2H4010.3a5.1,5.1,0,0,1,0-10.2h14.729a5.1,5.1,0,1,1,0,10.2Zm-14.729-7.931a2.832,2.832,0,1,0,0,5.665h14.729a2.832,2.832,0,1,0,0-5.665Z" transform="translate(-4005.203 -562)" fill="#367276"/>
        </g>
        <g id="Grupo_15509" data-name="Grupo 15509" transform="translate(101.59 60.803)">
          <path id="Trazado_26646" data-name="Trazado 26646" d="M4096.232,572.2H4088.3a5.1,5.1,0,1,1,0-10.2h7.931a5.1,5.1,0,0,1,0,10.2Zm-7.931-7.931a2.832,2.832,0,1,0,0,5.665h7.931a2.832,2.832,0,0,0,0-5.665Z" transform="translate(-4083.203 -562)" fill="#367276"/>
        </g>
        <g id="Grupo_15510" data-name="Grupo 15510" transform="translate(90.638 47.963)">
          <path id="Trazado_26647" data-name="Trazado 26647" d="M4078.184,538.2H4059.3a5.1,5.1,0,0,1,0-10.2h18.883a5.1,5.1,0,1,1,0,10.2Zm-18.883-7.931a2.832,2.832,0,0,0,0,5.665h18.883a2.832,2.832,0,1,0,0-5.665Z" transform="translate(-4054.203 -528)" fill="#367276"/>
        </g>
        <g id="Grupo_15511" data-name="Grupo 15511" transform="translate(72.133 47.963)">
          <path id="Trazado_26648" data-name="Trazado 26648" d="M4014.078,538.2H4010.3a5.1,5.1,0,0,1,0-10.2h3.776a5.1,5.1,0,1,1,0,10.2Zm-3.776-7.931a2.832,2.832,0,1,0,0,5.665h3.776a2.832,2.832,0,1,0,0-5.665Z" transform="translate(-4005.203 -528)" fill="#367276"/>
        </g>
        <g id="Grupo_15512" data-name="Grupo 15512" transform="translate(41.165 91.016)">
          <path id="Trazado_26649" data-name="Trazado 26649" d="M3966.256,644.266h-41.92a1.133,1.133,0,0,1,0-2.266h41.92a1.133,1.133,0,1,1,0,2.266Z" transform="translate(-3923.203 -642)" fill="#367276"/>
        </g>
        <g id="Grupo_15513" data-name="Grupo 15513" transform="translate(53.439 97.436)">
          <path id="Trazado_26650" data-name="Trazado 26650" d="M3974.208,661.266h-17.372a1.133,1.133,0,0,1,0-2.266h17.372a1.133,1.133,0,1,1,0,2.266Z" transform="translate(-3955.703 -659)" fill="#367276"/>
        </g>
        <g id="Grupo_15514" data-name="Grupo 15514" transform="translate(28.324 149.553)">
          <path id="Trazado_26651" data-name="Trazado 26651" d="M3895.623,809.84a6.42,6.42,0,1,1,6.42-6.42A6.428,6.428,0,0,1,3895.623,809.84Zm0-10.574a4.154,4.154,0,1,0,4.154,4.154A4.159,4.159,0,0,0,3895.623,799.266Z" transform="translate(-3889.203 -797)" fill="#367276"/>
        </g>
        <g id="Grupo_15515" data-name="Grupo 15515" transform="translate(87.617 137.09)">
          <path id="Trazado_26652" data-name="Trazado 26652" d="M4052.623,776.84a6.42,6.42,0,1,1,6.42-6.42A6.427,6.427,0,0,1,4052.623,776.84Zm0-10.574a4.154,4.154,0,1,0,4.154,4.154A4.159,4.159,0,0,0,4052.623,766.266Z" transform="translate(-4046.203 -764)" fill="#367276"/>
        </g>
        <g id="Grupo_15516" data-name="Grupo 15516" transform="translate(57.026 163.148)">
          <path id="Trazado_26653" data-name="Trazado 26653" d="M3971.623,845.84a6.42,6.42,0,1,1,6.42-6.42A6.427,6.427,0,0,1,3971.623,845.84Zm0-10.574a4.154,4.154,0,1,0,4.154,4.154A4.159,4.159,0,0,0,3971.623,835.266Z" transform="translate(-3965.203 -833)" fill="#367276"/>
        </g>
        <g id="Grupo_15517" data-name="Grupo 15517" transform="translate(12.84 156.35)">
          <path id="Trazado_26654" data-name="Trazado 26654" d="M3849.335,848.99a1.134,1.134,0,0,1-1.022-1.62l15.106-31.723a1.133,1.133,0,0,1,2.046.974l-15.106,31.723A1.134,1.134,0,0,1,3849.335,848.99Z" transform="translate(-3848.202 -815)" fill="#367276"/>
        </g>
        <g id="Grupo_15518" data-name="Grupo 15518" transform="translate(38.899 154.84)">
          <path id="Trazado_26655" data-name="Trazado 26655" d="M3936.462,823.84a1.126,1.126,0,0,1-.57-.155l-18.128-10.574a1.133,1.133,0,0,1,1.143-1.957l18.127,10.574a1.133,1.133,0,0,1-.572,2.112Z" transform="translate(-3917.203 -810.999)" fill="#367276"/>
        </g>
        <g id="Grupo_15519" data-name="Grupo 15519" transform="translate(67.034 142.377)">
          <path id="Trazado_26656" data-name="Trazado 26656" d="M3992.835,803.944a1.133,1.133,0,0,1-.854-1.876l20.582-23.678a1.133,1.133,0,0,1,1.71,1.487l-20.582,23.678A1.131,1.131,0,0,1,3992.835,803.944Z" transform="translate(-3991.703 -778)" fill="#367276"/>
        </g>
        <g id="Grupo_15520" data-name="Grupo 15520" transform="translate(98.191 142.377)">
          <path id="Trazado_26657" data-name="Trazado 26657" d="M4088.931,790.966a1.129,1.129,0,0,1-.7-.242l-13.6-10.7a1.133,1.133,0,0,1,1.4-1.78l13.6,10.7a1.133,1.133,0,0,1-.7,2.023Z" transform="translate(-4074.203 -778)" fill="#367276"/>
        </g>
        <g id="Grupo_15521" data-name="Grupo 15521" transform="translate(33.612 160.127)">
          <path id="Trazado_26658" data-name="Trazado 26658" d="M3904.336,832.553a1.133,1.133,0,0,1-1.133-1.133v-5.287a1.133,1.133,0,0,1,2.266,0v5.287A1.133,1.133,0,0,1,3904.336,832.553Z" transform="translate(-3903.203 -825)" fill="#367276"/>
        </g>
        <g id="Grupo_15522" data-name="Grupo 15522" transform="translate(33.612 170.701)">
          <path id="Trazado_26659" data-name="Trazado 26659" d="M3904.336,870.75a1.133,1.133,0,0,1-1.133-1.133V854.133a1.133,1.133,0,0,1,2.266,0v15.484A1.133,1.133,0,0,1,3904.336,870.75Z" transform="translate(-3903.203 -853)" fill="#367276"/>
        </g>
        <g id="Grupo_15523" data-name="Grupo 15523" transform="translate(62.314 173.723)">
          <path id="Trazado_26660" data-name="Trazado 26660" d="M3980.336,877.617a1.133,1.133,0,0,1-1.133-1.133V862.133a1.133,1.133,0,1,1,2.266,0v14.351A1.133,1.133,0,0,1,3980.336,877.617Z" transform="translate(-3979.203 -861)" fill="#367276"/>
        </g>
        <g id="Grupo_15524" data-name="Grupo 15524" transform="translate(92.904 147.664)">
          <path id="Trazado_26661" data-name="Trazado 26661" d="M4061.336,821.835a1.133,1.133,0,0,1-1.133-1.133V793.133a1.133,1.133,0,1,1,2.266,0V820.7A1.133,1.133,0,0,1,4061.336,821.835Z" transform="translate(-4060.203 -792)" fill="#367276"/>
        </g>
        <g id="Grupo_15525" data-name="Grupo 15525" transform="translate(92.904 180.898)">
          <path id="Trazado_26662" data-name="Trazado 26662" d="M4061.336,889.441a1.133,1.133,0,0,1-1.133-1.133v-7.176a1.133,1.133,0,1,1,2.266,0v7.176A1.133,1.133,0,0,1,4061.336,889.441Z" transform="translate(-4060.203 -880)" fill="#367276"/>
        </g>
        <g id="Grupo_15526" data-name="Grupo 15526" transform="translate(20.394 115.186)">
          <path id="Trazado_26663" data-name="Trazado 26663" d="M3921.075,721.106h-35.311a1.133,1.133,0,1,1,0-2.266h34.178V708.266h-49.473V718.84h6.42a1.133,1.133,0,0,1,0,2.266h-7.554a1.133,1.133,0,0,1-1.132-1.133v-12.84a1.133,1.133,0,0,1,1.132-1.133h51.739a1.133,1.133,0,0,1,1.133,1.133v12.84A1.133,1.133,0,0,1,3921.075,721.106Z" transform="translate(-3868.203 -706)" fill="#367276"/>
        </g>
      </g>
      <g id="Grupo_15528" data-name="Grupo 15528" transform="translate(207.926 68.356)">
        <path id="Trazado_26664" data-name="Trazado 26664" d="M4195.766,668.948a1.513,1.513,0,0,1-.5-.086,14.054,14.054,0,0,1-5.315-3.373,1.511,1.511,0,1,1,2.15-2.122,11.008,11.008,0,0,0,4.167,2.644,1.511,1.511,0,0,1-.5,2.936Zm14.785-5.3a1.511,1.511,0,0,1-1.29-2.3,10.807,10.807,0,0,0,1.541-4.684,1.511,1.511,0,0,1,3.009.271,13.81,13.81,0,0,1-1.969,5.983A1.509,1.509,0,0,1,4210.551,663.65ZM4187.433,649.9a1.511,1.511,0,0,1-1.511-1.511v-5.665a1.511,1.511,0,0,1,3.021,0v5.665A1.511,1.511,0,0,1,4187.433,649.9Zm24.925-8.576a1.51,1.51,0,0,1-1.51-1.511v-5.665a1.51,1.51,0,1,1,3.021,0v5.665A1.511,1.511,0,0,1,4212.358,641.324Zm-24.925-14.084a1.511,1.511,0,0,1-1.511-1.511v-5.665a1.511,1.511,0,0,1,3.021,0v5.665A1.511,1.511,0,0,1,4187.433,627.24Zm24.925-8.576a1.51,1.51,0,0,1-1.51-1.511v-5.665a1.51,1.51,0,1,1,3.021,0v5.665A1.511,1.511,0,0,1,4212.358,618.665Zm-24.925-14.084a1.511,1.511,0,0,1-1.511-1.511v-5.665a1.511,1.511,0,0,1,3.021,0v5.665A1.511,1.511,0,0,1,4187.433,604.581Zm24.925-8.576a1.51,1.51,0,0,1-1.51-1.511V588.83a1.51,1.51,0,1,1,3.021,0v5.665A1.511,1.511,0,0,1,4212.358,596.005Zm-31.066-11.874a1.5,1.5,0,0,1-.766-.21,10.815,10.815,0,0,0-4.7-1.479,1.511,1.511,0,0,1,.231-3.013,13.81,13.81,0,0,1,6.007,1.889,1.511,1.511,0,0,1-.769,2.812Zm-22.348-1.721h-5.665a1.511,1.511,0,1,1,0-3.021h5.665a1.511,1.511,0,1,1,0,3.021Zm53.414-9.064a1.51,1.51,0,0,1-1.51-1.511V566.17a1.51,1.51,0,1,1,3.021,0v5.665A1.511,1.511,0,0,1,4212.358,573.346Zm0-22.659a1.51,1.51,0,0,1-1.51-1.511v-5.665a1.51,1.51,0,1,1,3.021,0v5.665A1.511,1.511,0,0,1,4212.358,550.686Z" transform="translate(-4151.769 -542)" fill="#367276"/>
      </g>
      <g id="Grupo_15535" data-name="Grupo 15535" transform="translate(238.582 0)">
        <g id="Grupo_15529" data-name="Grupo 15529" transform="translate(0 4.154)">
          <path id="Trazado_26665" data-name="Trazado 26665" d="M4262.939,432.158a1.134,1.134,0,0,1-.976-.557l-7.041-11.908h-16.312a5.674,5.674,0,0,1-5.668-5.668V377.668a5.674,5.674,0,0,1,5.668-5.668l34.395.255a1.133,1.133,0,0,1-.008,2.266h-.008l-34.387-.255a3.4,3.4,0,0,0-3.394,3.4v36.358a3.406,3.406,0,0,0,3.4,3.4h16.958a1.134,1.134,0,0,1,.976.556l6.385,10.8,6.255-10.79a1.132,1.132,0,0,1,.979-.565h16.94a3.406,3.406,0,0,0,3.4-3.4V377.668c0-2-1.746-3.042-3.471-3.042l-6.5-.048a1.133,1.133,0,1,1,.017-2.266l6.488.048a5.41,5.41,0,0,1,5.727,5.308v36.358a5.674,5.674,0,0,1-5.668,5.668h-16.288l-6.9,11.9a1.133,1.133,0,0,1-.975.565Z" transform="translate(-4232.943 -372)" fill="#367276"/>
        </g>
        <g id="Grupo_15533" data-name="Grupo 15533" transform="translate(11.513 13.517)">
          <g id="Grupo_15532" data-name="Grupo 15532">
            <g id="Grupo_15530" data-name="Grupo 15530">
              <path id="Trazado_26666" data-name="Trazado 26666" d="M4281.755,429.3a1.133,1.133,0,0,1-.509-2.146c.107-.054,10.762-5.48,15.66-15.126,1.554-4.328,1.066-8.039-1.376-10.456a9.141,9.141,0,0,0-9.224-2.032,4.928,4.928,0,0,0-3.378,4.368,1.133,1.133,0,0,1-1.13,1.051h-.089a1.134,1.134,0,0,1-1.13-1.051,4.926,4.926,0,0,0-3.377-4.368,9.141,9.141,0,0,0-9.223,2.032c-2.455,2.429-2.936,6.164-1.354,10.519a1.133,1.133,0,0,1-2.13.774c-2.566-7.063.083-11.116,1.89-12.9A11.509,11.509,0,0,1,4278,397.419a3.865,3.865,0,0,0,7.511,0,11.508,11.508,0,0,1,11.615,2.542c1.807,1.788,4.456,5.842,1.89,12.9a1.338,1.338,0,0,1-.053.123c-5.229,10.367-16.234,15.959-16.7,16.192A1.128,1.128,0,0,1,4281.755,429.3Z" transform="translate(-4263.429 -396.791)" fill="#367276"/>
            </g>
            <g id="Grupo_15531" data-name="Grupo 15531" transform="translate(3.277 18.304)">
              <path id="Trazado_26667" data-name="Trazado 26667" d="M4287.153,459.463a1.13,1.13,0,0,1-.506-.12,43.54,43.54,0,0,1-14.329-12.294,1.133,1.133,0,0,1,1.843-1.318,41.872,41.872,0,0,0,13.5,11.585,1.133,1.133,0,0,1-.507,2.146Z" transform="translate(-4272.106 -445.257)" fill="#367276"/>
            </g>
          </g>
        </g>
        <g id="Grupo_15534" data-name="Grupo 15534" transform="translate(35.976)">
          <path id="Trazado_26668" data-name="Trazado 26668" d="M4343.31,363.266h-13.974a1.133,1.133,0,0,1,0-2.266h13.974a1.133,1.133,0,0,1,0,2.266Z" transform="translate(-4328.203 -361)" fill="#367276"/>
        </g>
      </g>
      <g id="Grupo_15543" data-name="Grupo 15543" transform="translate(14.162 104.422)">
        <g id="Grupo_15536" data-name="Grupo 15536">
          <path id="Trazado_26669" data-name="Trazado 26669" d="M3700.072,680.364a1.132,1.132,0,0,1-.691-.236l-10.718-8.262h-38.857a11.115,11.115,0,0,1-11.1-11.1V648.6a11.115,11.115,0,0,1,11.1-11.1h52.57a11.115,11.115,0,0,1,11.1,11.1v12.162a11.115,11.115,0,0,1-11.1,11.1h-4.627l3.342,6.869a1.133,1.133,0,0,1-1.019,1.628Zm-50.266-40.6a8.847,8.847,0,0,0-8.837,8.836v12.162a8.847,8.847,0,0,0,8.837,8.836h39.243a1.131,1.131,0,0,1,.691.236l7.2,5.552-2.023-4.159a1.133,1.133,0,0,1,1.019-1.629h6.438a8.847,8.847,0,0,0,8.837-8.836V648.6a8.847,8.847,0,0,0-8.837-8.836Z" transform="translate(-3638.703 -637.5)" fill="#367276"/>
        </g>
        <g id="Grupo_15539" data-name="Grupo 15539" transform="translate(6.609 7.364)">
          <g id="Grupo_15537" data-name="Grupo 15537">
            <path id="Trazado_26670" data-name="Trazado 26670" d="M3691.514,664.931h-31.345a3.965,3.965,0,0,1,0-7.931h31.345a3.965,3.965,0,1,1,0,7.931Zm-31.345-5.665a1.7,1.7,0,0,0,0,3.4h31.345a1.7,1.7,0,1,0,0-3.4Z" transform="translate(-3656.203 -657)" fill="#367276"/>
          </g>
          <g id="Grupo_15538" data-name="Grupo 15538" transform="translate(42.298)">
            <path id="Trazado_26671" data-name="Trazado 26671" d="M3783.5,664.931h-11.33a3.965,3.965,0,0,1,0-7.931h11.33a3.965,3.965,0,0,1,0,7.931Zm-11.33-5.665a1.7,1.7,0,1,0,0,3.4h11.33a1.7,1.7,0,0,0,0-3.4Z" transform="translate(-3768.203 -657)" fill="#367276"/>
          </g>
        </g>
        <g id="Grupo_15542" data-name="Grupo 15542" transform="translate(6.609 19.072)">
          <g id="Grupo_15540" data-name="Grupo 15540">
            <path id="Trazado_26672" data-name="Trazado 26672" d="M3668.854,695.931h-8.686a3.965,3.965,0,0,1,0-7.931h8.686a3.965,3.965,0,0,1,0,7.931Zm-8.686-5.665a1.7,1.7,0,0,0,0,3.4h8.686a1.7,1.7,0,0,0,0-3.4Z" transform="translate(-3656.203 -688)" fill="#367276"/>
          </g>
          <g id="Grupo_15541" data-name="Grupo 15541" transform="translate(19.638)">
            <path id="Trazado_26673" data-name="Trazado 26673" d="M3746.157,695.931h-33.989a3.965,3.965,0,0,1,0-7.931h33.989a3.965,3.965,0,0,1,0,7.931Zm-33.989-5.665a1.7,1.7,0,0,0,0,3.4h33.989a1.7,1.7,0,0,0,0-3.4Z" transform="translate(-3708.203 -688)" fill="#367276"/>
          </g>
        </g>
      </g>
    </g>
    <g id="MEDIA" transform="translate(3613.835 304.995)">
      <g id="Grupo_15546" data-name="Grupo 15546" transform="translate(49.968 10.986)">
        <g id="Grupo_15544" data-name="Grupo 15544" transform="translate(4.978)">
          <path id="Trazado_26674" data-name="Trazado 26674" d="M3781.273,346.517a1.133,1.133,0,0,1-1.133-1.133V335.218a1.133,1.133,0,0,1,2.266,0v10.167A1.133,1.133,0,0,1,3781.273,346.517Z" transform="translate(-3780.14 -334.085)" fill="#1e243a"/>
        </g>
        <g id="Grupo_15545" data-name="Grupo 15545" transform="translate(0 5.189)">
          <path id="Trazado_26675" data-name="Trazado 26675" d="M3778.26,350.092h-10.167a1.133,1.133,0,0,1,0-2.266h10.167a1.133,1.133,0,1,1,0,2.266Z" transform="translate(-3766.96 -347.826)" fill="#1e243a"/>
        </g>
      </g>
      <g id="Grupo_15549" data-name="Grupo 15549" transform="translate(213.116 91.805)">
        <g id="Grupo_15547" data-name="Grupo 15547" transform="translate(4.978)">
          <path id="Trazado_26676" data-name="Trazado 26676" d="M4213.273,560.518a1.133,1.133,0,0,1-1.133-1.133V549.218a1.133,1.133,0,1,1,2.266,0v10.167A1.133,1.133,0,0,1,4213.273,560.518Z" transform="translate(-4212.14 -548.085)" fill="#1e243a"/>
        </g>
        <g id="Grupo_15548" data-name="Grupo 15548" transform="translate(0 5.189)">
          <path id="Trazado_26677" data-name="Trazado 26677" d="M4210.26,564.092h-10.167a1.133,1.133,0,1,1,0-2.266h10.167a1.133,1.133,0,1,1,0,2.266Z" transform="translate(-4198.96 -561.826)" fill="#1e243a"/>
        </g>
      </g>
      <g id="Grupo_15552" data-name="Grupo 15552" transform="translate(18.244 185.464)">
        <g id="Grupo_15550" data-name="Grupo 15550" transform="translate(4.978)">
          <path id="Trazado_26678" data-name="Trazado 26678" d="M3697.273,808.518a1.133,1.133,0,0,1-1.133-1.133V797.218a1.133,1.133,0,0,1,2.266,0v10.167A1.133,1.133,0,0,1,3697.273,808.518Z" transform="translate(-3696.14 -796.085)" fill="#1e243a"/>
        </g>
        <g id="Grupo_15551" data-name="Grupo 15551" transform="translate(0 5.189)">
          <path id="Trazado_26679" data-name="Trazado 26679" d="M3694.26,812.092h-10.167a1.133,1.133,0,1,1,0-2.266h10.167a1.133,1.133,0,0,1,0,2.266Z" transform="translate(-3682.96 -809.826)" fill="#1e243a"/>
        </g>
      </g>
      <g id="Grupo_15553" data-name="Grupo 15553" transform="translate(0 86.106)">
        <path id="Trazado_26680" data-name="Trazado 26680" d="M3647.26,555.551a2.246,2.246,0,0,1,1.583-2.749h0a2.248,2.248,0,0,1,2.75,1.586h0a2.244,2.244,0,0,1-1.586,2.749h0a2.382,2.382,0,0,1-.581.076h0A2.244,2.244,0,0,1,3647.26,555.551Zm-9.287-1.628a2.239,2.239,0,0,1,0-3.169h0a2.238,2.238,0,0,1,3.168-.008h0a2.243,2.243,0,0,1,.008,3.172h0a2.234,2.234,0,0,1-1.59.661h0A2.236,2.236,0,0,1,3637.973,553.923Zm18.09-4.014a2.245,2.245,0,0,1-1.59-2.746h0a2.246,2.246,0,0,1,2.746-1.59h0a2.246,2.246,0,0,1,1.59,2.746h0a2.244,2.244,0,0,1-2.168,1.665h0A2.186,2.186,0,0,1,3656.064,549.908Zm-19.744-5.265a2.242,2.242,0,0,1-1.594-2.742h0a2.246,2.246,0,0,1,2.746-1.594h0a2.241,2.241,0,0,1,1.59,2.742h0a2.24,2.24,0,0,1-2.165,1.669h0A2.168,2.168,0,0,1,3636.32,544.644Zm16.126-5.147a.322.322,0,0,1-.053-.049h0a2.243,2.243,0,0,1-.011-3.172h0a2.24,2.24,0,0,1,3.165-.015h0c.011.011.022.019.034.03h0v0h0a2.239,2.239,0,0,1,0,3.169h0a2.237,2.237,0,0,1-1.586.657h0A2.23,2.23,0,0,1,3652.446,539.5Zm-10.51-3.675a2.242,2.242,0,0,1,1.583-2.749h0a2.242,2.242,0,0,1,2.75,1.582h0a2.245,2.245,0,0,1-1.583,2.749h0a2.249,2.249,0,0,1-.585.076h0A2.243,2.243,0,0,1,3641.935,535.822Z" transform="translate(-3634.65 -532.995)" fill="#1e243a"/>
      </g>
      <g id="Grupo_15554" data-name="Grupo 15554" transform="translate(184.675)">
        <path id="Trazado_26681" data-name="Trazado 26681" d="M4136.26,327.551a2.246,2.246,0,0,1,1.583-2.749h0a2.245,2.245,0,0,1,2.746,1.586h0a2.245,2.245,0,0,1-1.586,2.749h0a2.392,2.392,0,0,1-.582.076h0A2.244,2.244,0,0,1,4136.26,327.551Zm-9.287-1.628a2.238,2.238,0,0,1,0-3.169h0a2.235,2.235,0,0,1,3.168,0h0a2.239,2.239,0,0,1,.008,3.169h0a2.234,2.234,0,0,1-1.59.661h0A2.227,2.227,0,0,1,4126.974,325.923Zm18.09-4.015a2.244,2.244,0,0,1-1.59-2.746h0a2.243,2.243,0,0,1,2.746-1.586h0a2.241,2.241,0,0,1,1.59,2.742h0a2.244,2.244,0,0,1-2.168,1.665h0A2.184,2.184,0,0,1,4145.063,321.908Zm-19.744-5.265a2.242,2.242,0,0,1-1.593-2.742h0a2.242,2.242,0,0,1,2.741-1.594h0a2.239,2.239,0,0,1,1.594,2.742h0a2.247,2.247,0,0,1-2.168,1.669h0A2.192,2.192,0,0,1,4125.319,316.644Zm16.088-5.181h0a.264.264,0,0,1-.03-.03h0a2.246,2.246,0,0,1,0-3.157h0a2.244,2.244,0,0,1,3.173-.008h0c.007,0,.011.011.019.015h0a.008.008,0,0,0,.007.008h0a2.242,2.242,0,0,1,0,3.172h0a2.234,2.234,0,0,1-1.586.657h0A2.238,2.238,0,0,1,4141.407,311.462Zm-10.472-3.641a2.242,2.242,0,0,1,1.583-2.749h0a2.242,2.242,0,0,1,2.75,1.582h0a2.244,2.244,0,0,1-1.582,2.749h0a2.25,2.25,0,0,1-.585.076h0A2.244,2.244,0,0,1,4130.935,307.822Z" transform="translate(-4123.651 -304.995)" fill="#1e243a"/>
      </g>
    </g>
  </g>
</svg>
