<svg xmlns="http://www.w3.org/2000/svg" width="133" height="133" viewBox="0 0 133 133">
  <g id="Grupo_15738" data-name="Grupo 15738" transform="translate(-527 -7480)">
    <circle id="Elipse_1292" data-name="Elipse 1292" cx="66.5" cy="66.5" r="66.5" transform="translate(527 7480)" fill="#f59b4b"/>
    <path id="Trazado_26820" data-name="Trazado 26820" d="M11.06,47.3a9.06,9.06,0,1,0,9.06,9.06A9.06,9.06,0,0,0,11.06,47.3ZM8.8,2a6.8,6.8,0,1,0,0,13.59A43.083,43.083,0,0,1,51.83,58.625a6.8,6.8,0,0,0,13.59,0A56.69,56.69,0,0,0,8.8,2Zm0,22.65a6.8,6.8,0,1,0,0,13.59A20.409,20.409,0,0,1,29.18,58.625a6.8,6.8,0,0,0,13.59,0A34.014,34.014,0,0,0,8.8,24.65Z" transform="translate(565.59 7507.763)" fill="#fff"/>
  </g>
</svg>
