<svg xmlns="http://www.w3.org/2000/svg" width="194" height="194" viewBox="0 0 194 194">
  <g id="Grupo_15754" data-name="Grupo 15754" transform="translate(-495 -3385)">
    <circle id="Elipse_773" data-name="Elipse 773" cx="97" cy="97" r="97" transform="translate(495 3385)" fill="#efefef"/>
    <g id="Grupo_15142" data-name="Grupo 15142" transform="translate(24.672 3208.529)">
      <g id="Grupo_15125" data-name="Grupo 15125" transform="translate(539.484 237.932)">
        <path id="Trazado_25595" data-name="Trazado 25595" d="M584.987,262.207V248.78l-7.006-1.848c-.077-.192-.157-.385-.239-.577l3.645-6.261-9.5-9.5-6.26,3.647c-.192-.084-.385-.162-.577-.239L563.207,227H549.778l-1.847,7.006c-.192.077-.385.155-.577.239l-6.261-3.647-9.5,9.5,3.647,6.261c-.084.192-.162.385-.239.577L528,248.78v13.427l7.006,1.849c.076.192.155.385.239.577l-3.647,6.261,9.5,9.5,6.261-3.647c.192.084.385.162.577.239l1.847,7.006h13.429l1.848-7.006c.192-.077.385-.155.577-.239l6.26,3.647,9.5-9.5-3.645-6.261c.082-.192.162-.385.239-.577Zm-28.493,7.533a14.247,14.247,0,1,1,14.247-14.247A14.247,14.247,0,0,1,556.493,269.74Z" transform="translate(-528 -227)" fill="#fd6764"/>
      </g>
      <g id="Grupo_15126" data-name="Grupo 15126" transform="translate(551.95 250.397)">
        <path id="Trazado_25596" data-name="Trazado 25596" d="M551.028,266.055a16.027,16.027,0,1,1,16.027-16.027A16.045,16.045,0,0,1,551.028,266.055Zm0-28.493a12.466,12.466,0,1,0,12.466,12.466A12.482,12.482,0,0,0,551.028,237.562Z" transform="translate(-535 -234)" fill="#4d4d4d"/>
      </g>
      <g id="Grupo_15127" data-name="Grupo 15127" transform="translate(559.073 257.521)">
        <path id="Trazado_25597" data-name="Trazado 25597" d="M547.9,255.808a8.9,8.9,0,1,1,8.9-8.9A8.914,8.914,0,0,1,547.9,255.808Zm0-14.247a5.342,5.342,0,1,0,5.342,5.342A5.349,5.349,0,0,0,547.9,241.562Z" transform="translate(-539 -238)" fill="#fd6764"/>
      </g>
      <g id="Grupo_15128" data-name="Grupo 15128" transform="translate(527.018 266.425)">
        <path id="Trazado_25598" data-name="Trazado 25598" d="M570.863,299.987H553.055V281.351L521,259.981V243h12.466v3.562h-8.9v11.513l32.055,21.37v16.981H567.3V279.444l32.055-21.37V246.562h-8.9V243h12.466v16.981l-32.055,21.37Z" transform="translate(-521 -243)" fill="#4a91d6"/>
      </g>
      <g id="Grupo_15129" data-name="Grupo 15129" transform="translate(521.675 213)">
        <path id="Trazado_25599" data-name="Trazado 25599" d="M600.711,264.573l-1.585-3.189a14.234,14.234,0,0,0-9.718-26.59l-1.906.465-.28-1.939a19.567,19.567,0,0,0-36.7-6.269l-.725,1.373-1.458-.529a10.64,10.64,0,0,0-14.206,8.6l-.183,1.373-1.377.158a12.461,12.461,0,0,0-4.586,23.281l-1.727,3.116a16.025,16.025,0,0,1,4.587-29.727,14.286,14.286,0,0,1,13.862-11.009,14.106,14.106,0,0,1,3.391.417,23.127,23.127,0,0,1,42.3,6.878,17.8,17.8,0,0,1,10.306,33.594Z" transform="translate(-518 -213)" fill="#4a91d6"/>
      </g>
      <g id="Grupo_15130" data-name="Grupo 15130" transform="translate(513.293 281.715)">
        <path id="Trazado_25600" data-name="Trazado 25600" d="M527.54,262.487l-5.864-5.864-5.864,5.864-2.518-2.518,8.382-8.383,8.382,8.383Z" transform="translate(-513.293 -251.586)" fill="#4a91d6"/>
      </g>
      <g id="Grupo_15131" data-name="Grupo 15131" transform="translate(519.895 284.233)">
        <rect id="Rectángulo_2802" data-name="Rectángulo 2802" width="3.562" height="21.37" fill="#4a91d6"/>
      </g>
      <g id="Grupo_15132" data-name="Grupo 15132" transform="translate(519.895 309.165)">
        <rect id="Rectángulo_2803" data-name="Rectángulo 2803" width="3.562" height="3.562" fill="#4a91d6"/>
      </g>
      <g id="Grupo_15133" data-name="Grupo 15133" transform="translate(519.895 316.288)">
        <rect id="Rectángulo_2804" data-name="Rectángulo 2804" width="3.562" height="3.562" fill="#4a91d6"/>
      </g>
      <g id="Grupo_15134" data-name="Grupo 15134" transform="translate(605.896 311.468)">
        <path id="Trazado_25601" data-name="Trazado 25601" d="M573.675,279.194l-8.382-8.383,2.518-2.518,5.864,5.864,5.864-5.864,2.518,2.518Z" transform="translate(-565.293 -268.293)" fill="#4a91d6"/>
      </g>
      <g id="Grupo_15135" data-name="Grupo 15135" transform="translate(612.498 298.48)">
        <rect id="Rectángulo_2805" data-name="Rectángulo 2805" width="3.562" height="21.37" fill="#4a91d6"/>
      </g>
      <g id="Grupo_15136" data-name="Grupo 15136" transform="translate(612.498 291.357)">
        <rect id="Rectángulo_2806" data-name="Rectángulo 2806" width="3.562" height="3.562" fill="#4a91d6"/>
      </g>
      <g id="Grupo_15137" data-name="Grupo 15137" transform="translate(612.498 284.233)">
        <rect id="Rectángulo_2807" data-name="Rectángulo 2807" width="3.562" height="3.562" fill="#4a91d6"/>
      </g>
      <g id="Grupo_15138" data-name="Grupo 15138" transform="translate(528.799 241.493)">
        <path id="Trazado_25602" data-name="Trazado 25602" d="M525.562,237.9H522a8.914,8.914,0,0,1,8.9-8.9v3.562A5.349,5.349,0,0,0,525.562,237.9Z" transform="translate(-522 -229)" fill="#4a91d6"/>
      </g>
      <g id="Grupo_15139" data-name="Grupo 15139" transform="translate(560.205 220.132)">
        <path id="Trazado_25603" data-name="Trazado 25603" d="M559.784,224.208a12.482,12.482,0,0,0-17.63,0l-2.518-2.518a16.049,16.049,0,0,1,22.666,0Z" transform="translate(-539.636 -217.005)" fill="#4a91d6"/>
      </g>
      <g id="Grupo_15140" data-name="Grupo 15140" transform="translate(596.47 237.932)">
        <path id="Trazado_25604" data-name="Trazado 25604" d="M570.685,237.685h-3.562A7.131,7.131,0,0,0,560,230.562V227A10.7,10.7,0,0,1,570.685,237.685Z" transform="translate(-560 -227)" fill="#4a91d6"/>
      </g>
    </g>
  </g>
</svg>
