<svg xmlns="http://www.w3.org/2000/svg" width="194" height="194" viewBox="0 0 194 194">
  <g id="Grupo_15756" data-name="Grupo 15756" transform="translate(-495 -3980)">
    <circle id="Elipse_777" data-name="Elipse 777" cx="97" cy="97" r="97" transform="translate(495 3980)" fill="#efefef"/>
    <g id="Grupo_15166" data-name="Grupo 15166" transform="translate(311.464 3708.836)">
      <g id="Grupo_15143" data-name="Grupo 15143" transform="translate(258.558 384.614)">
        <circle id="Elipse_774" data-name="Elipse 774" cx="12" cy="12" r="12" transform="translate(-0.021 -0.45)" fill="#fd6764"/>
      </g>
      <g id="Grupo_15144" data-name="Grupo 15144" transform="translate(226.993 310.993)">
        <path id="Trazado_25605" data-name="Trazado 25605" d="M243.933,327.933H226v-3.985h13.948V310h3.985Z" transform="translate(-226 -310)" fill="#4a91d6"/>
      </g>
      <g id="Grupo_15145" data-name="Grupo 15145" transform="translate(225 309)">
        <path id="Trazado_25606" data-name="Trazado 25606" d="M312.673,404.643h-25.8v-3.985h21.811V312.985H243.758l-14.773,14.773v72.9h25.8v3.985H225V326.108L242.108,309h70.565Z" transform="translate(-225 -309)" fill="#4a91d6"/>
      </g>
      <g id="Grupo_15146" data-name="Grupo 15146" transform="translate(250.903 376.747)">
        <path id="Trazado_25607" data-name="Trazado 25607" d="M257.926,382.851a19.926,19.926,0,1,1,19.926-19.926A19.948,19.948,0,0,1,257.926,382.851Zm0-35.866a15.941,15.941,0,1,0,15.941,15.941A15.959,15.959,0,0,0,257.926,346.985Z" transform="translate(-238 -343)" fill="#4a91d6"/>
      </g>
      <g id="Grupo_15147" data-name="Grupo 15147" transform="translate(260.866 412.72)">
        <path id="Trazado_25608" data-name="Trazado 25608" d="M262.926,380.112l-9.963-4.981L243,380.112V361.054h3.985v12.609l5.978-2.989,5.978,2.989V361.054h3.985Z" transform="translate(-243 -361.054)" fill="#4a91d6"/>
      </g>
      <g id="Grupo_15148" data-name="Grupo 15148" transform="translate(261.45 383.826)">
        <path id="Trazado_25609" data-name="Trazado 25609" d="M251.226,370.734l-7.933-7.933,2.817-2.817,4.022,4.022,8.727-17.452,3.565,1.783Z" transform="translate(-243.293 -346.553)" fill="#fff"/>
      </g>
      <g id="Grupo_15150" data-name="Grupo 15150" transform="translate(292.747 316.97)">
        <g id="Grupo_15149" data-name="Grupo 15149">
          <path id="Trazado_25610" data-name="Trazado 25610" d="M270.955,344.881H259V313h11.955Z" transform="translate(-259 -313)" fill="#fd6764"/>
        </g>
      </g>
      <g id="Grupo_15152" data-name="Grupo 15152" transform="translate(276.807 324.941)">
        <g id="Grupo_15151" data-name="Grupo 15151">
          <path id="Trazado_25611" data-name="Trazado 25611" d="M262.955,340.911H251V317h11.955Z" transform="translate(-251 -317)" fill="#fd6764"/>
        </g>
      </g>
      <g id="Grupo_15154" data-name="Grupo 15154" transform="translate(260.866 332.911)">
        <g id="Grupo_15153" data-name="Grupo 15153">
          <path id="Trazado_25612" data-name="Trazado 25612" d="M254.955,336.94H243V321h11.955Z" transform="translate(-243 -321)" fill="#fd6764"/>
        </g>
      </g>
      <g id="Grupo_15155" data-name="Grupo 15155" transform="translate(233.118 353.238)">
        <rect id="Rectángulo_2809" data-name="Rectángulo 2809" width="3" height="3" transform="translate(0.419 -0.074)" fill="#4a91d6"/>
      </g>
      <g id="Grupo_15156" data-name="Grupo 15156" transform="translate(241.598 353.238)">
        <rect id="Rectángulo_2810" data-name="Rectángulo 2810" width="31" height="3" transform="translate(-0.061 -0.074)" fill="#4a91d6"/>
      </g>
      <g id="Grupo_15157" data-name="Grupo 15157" transform="translate(233.118 360.87)">
        <rect id="Rectángulo_2811" data-name="Rectángulo 2811" width="3" height="4" transform="translate(0.419 0.294)" fill="#4a91d6"/>
      </g>
      <g id="Grupo_15158" data-name="Grupo 15158" transform="translate(241.598 360.87)">
        <rect id="Rectángulo_2812" data-name="Rectángulo 2812" width="31" height="4" transform="translate(-0.061 0.294)" fill="#4a91d6"/>
      </g>
      <g id="Grupo_15159" data-name="Grupo 15159" transform="translate(233.118 368.502)">
        <rect id="Rectángulo_2813" data-name="Rectángulo 2813" width="3" height="5" transform="translate(0.419 -0.338)" fill="#4a91d6"/>
      </g>
      <g id="Grupo_15160" data-name="Grupo 15160" transform="translate(241.598 368.502)">
        <rect id="Rectángulo_2814" data-name="Rectángulo 2814" width="31" height="5" transform="translate(-0.061 -0.338)" fill="#4a91d6"/>
      </g>
      <g id="Grupo_15161" data-name="Grupo 15161" transform="translate(316.658 315.24)">
        <path id="Trazado_25613" data-name="Trazado 25613" d="M284.948,335.517V329.8H271v-3.985h17.933v2.255l6.371-4.248-6.371-4.248v2.255H278.97v-3.985h5.978v-5.715l17.54,11.693Z" transform="translate(-271 -312.132)" fill="#4a91d6"/>
      </g>
      <g id="Grupo_15162" data-name="Grupo 15162" transform="translate(316.222 321.014)">
        <rect id="Rectángulo_2815" data-name="Rectángulo 2815" width="4" height="4" transform="translate(0.314 0.15)" fill="#4a91d6"/>
      </g>
      <g id="Grupo_15163" data-name="Grupo 15163" transform="translate(316.658 345.129)">
        <path id="Trazado_25614" data-name="Trazado 25614" d="M284.948,350.517V344.8H271v-3.985h17.933v2.255l6.371-4.248-6.371-4.248v2.255H271v-3.985h13.948v-5.715l17.54,11.693Z" transform="translate(-271 -327.132)" fill="#4a91d6"/>
      </g>
      <g id="Grupo_15164" data-name="Grupo 15164" transform="translate(316.658 375.017)">
        <path id="Trazado_25615" data-name="Trazado 25615" d="M284.948,365.517V359.8H278.97v-3.985h9.963v2.255l6.371-4.248-6.371-4.248v2.255H271v-3.985h13.948v-5.715l17.54,11.693Z" transform="translate(-271 -342.132)" fill="#4a91d6"/>
      </g>
      <g id="Grupo_15165" data-name="Grupo 15165" transform="translate(316.222 388.006)">
        <rect id="Rectángulo_2816" data-name="Rectángulo 2816" width="4" height="5" transform="translate(0.314 0.158)" fill="#4a91d6"/>
      </g>
    </g>
  </g>
</svg>
