<svg xmlns="http://www.w3.org/2000/svg" width="194" height="194" viewBox="0 0 194 194">
  <g id="Grupo_15753" data-name="Grupo 15753" transform="translate(-495 -3058)">
    <circle id="Elipse_775" data-name="Elipse 775" cx="97" cy="97" r="97" transform="translate(495 3058)" fill="#efefef"/>
    <g id="Grupo_15221" data-name="Grupo 15221" transform="translate(200.037 2592)">
      <g id="Grupo_15205" data-name="Grupo 15205" transform="translate(356.796 505)">
        <path id="Trazado_25623" data-name="Trazado 25623" d="M366.841,560.682a27.841,27.841,0,1,1,27.841-27.841A27.872,27.872,0,0,1,366.841,560.682Zm0-51.7A23.864,23.864,0,1,0,390.7,532.841,23.89,23.89,0,0,0,366.841,508.977Z" transform="translate(-339 -505)" fill="#4a91d6"/>
      </g>
      <g id="Grupo_15206" data-name="Grupo 15206" transform="translate(364.75 512.955)">
        <path id="Trazado_25624" data-name="Trazado 25624" d="M362.886,548.773a19.886,19.886,0,1,1,19.886-19.886A19.909,19.909,0,0,1,362.886,548.773Zm0-35.8A15.909,15.909,0,1,0,378.8,528.886,15.928,15.928,0,0,0,362.886,512.977Z" transform="translate(-343 -509)" fill="#4a91d6"/>
      </g>
      <g id="Grupo_15207" data-name="Grupo 15207" transform="translate(321 522.898)">
        <path id="Trazado_25625" data-name="Trazado 25625" d="M359.826,533.886H330.943a9.943,9.943,0,0,1,0-19.886h28.883v3.977H330.943a5.966,5.966,0,1,0,0,11.932h28.883Z" transform="translate(-321 -514)" fill="#4a91d6"/>
      </g>
      <g id="Grupo_15208" data-name="Grupo 15208" transform="translate(348.605 518.822)">
        <rect id="Rectángulo_2847" data-name="Rectángulo 2847" width="4" height="27" transform="translate(0.358 0.178)" fill="#4a91d6"/>
      </g>
      <g id="Grupo_15209" data-name="Grupo 15209" transform="translate(356.796 592.5)">
        <path id="Trazado_25626" data-name="Trazado 25626" d="M416.557,568.886H348.943A9.954,9.954,0,0,1,339,558.943V549h87.5v9.943A9.954,9.954,0,0,1,416.557,568.886Zm-73.58-15.909v5.966a5.973,5.973,0,0,0,5.966,5.966h67.614a5.973,5.973,0,0,0,5.966-5.966v-5.966Z" transform="translate(-339 -549)" fill="#4a91d6"/>
      </g>
      <g id="Grupo_15210" data-name="Grupo 15210" transform="translate(384.636 594.489)">
        <path id="Trazado_25627" data-name="Trazado 25627" d="M378.852,559.943H358.966A5.973,5.973,0,0,1,353,553.977V550h3.977v3.977a1.989,1.989,0,0,0,1.989,1.989h19.886a1.989,1.989,0,0,0,1.989-1.989V550h3.977v3.977A5.973,5.973,0,0,1,378.852,559.943Z" transform="translate(-353 -550)" fill="#4a91d6"/>
      </g>
      <g id="Grupo_15211" data-name="Grupo 15211" transform="translate(368.806 600.691)">
        <rect id="Rectángulo_2848" data-name="Rectángulo 2848" width="4" height="4" transform="translate(0.157 0.309)" fill="#4a91d6"/>
      </g>
      <g id="Grupo_15212" data-name="Grupo 15212" transform="translate(376.249 600.691)">
        <rect id="Rectángulo_2849" data-name="Rectángulo 2849" width="5" height="4" transform="translate(-0.286 0.309)" fill="#4a91d6"/>
      </g>
      <g id="Grupo_15213" data-name="Grupo 15213" transform="translate(408.5 540.796)">
        <path id="Trazado_25628" data-name="Trazado 25628" d="M396.818,576.693h-3.977v-43.75a5.973,5.973,0,0,0-5.966-5.966H365V523h21.875a9.954,9.954,0,0,1,9.943,9.943Z" transform="translate(-365 -523)" fill="#4a91d6"/>
      </g>
      <g id="Grupo_15214" data-name="Grupo 15214" transform="translate(360.773 546.575)">
        <rect id="Rectángulo_2850" data-name="Rectángulo 2850" width="3.977" height="47.914" fill="#4a91d6"/>
      </g>
      <g id="Grupo_15215" data-name="Grupo 15215" transform="translate(403.264 548.75)">
        <path id="Trazado_25629" data-name="Trazado 25629" d="M391.467,572.739H387.49V530.977H362.367V527H387.49a3.983,3.983,0,0,1,3.977,3.977Z" transform="translate(-362.367 -527)" fill="#4a91d6"/>
      </g>
      <g id="Grupo_15216" data-name="Grupo 15216" transform="translate(368.727 554.604)">
        <rect id="Rectángulo_2851" data-name="Rectángulo 2851" width="3.977" height="39.885" fill="#4a91d6"/>
      </g>
      <g id="Grupo_15217" data-name="Grupo 15217" transform="translate(414.525 557.099)">
        <rect id="Rectángulo_2852" data-name="Rectángulo 2852" width="7" height="32" transform="translate(0.438 -0.099)" fill="#fd6764"/>
      </g>
      <g id="Grupo_15218" data-name="Grupo 15218" transform="translate(402.83 568.794)">
        <rect id="Rectángulo_2853" data-name="Rectángulo 2853" width="7" height="20" transform="translate(0.133 0.206)" fill="#fd6764"/>
      </g>
      <g id="Grupo_15219" data-name="Grupo 15219" transform="translate(390.071 576.237)">
        <rect id="Rectángulo_2854" data-name="Rectángulo 2854" width="9" height="13" transform="translate(-0.108 -0.237)" fill="#fd6764"/>
      </g>
      <g id="Grupo_15220" data-name="Grupo 15220" transform="translate(378.375 570.92)">
        <rect id="Rectángulo_2855" data-name="Rectángulo 2855" width="9" height="18" transform="translate(-0.412 0.08)" fill="#fd6764"/>
      </g>
    </g>
  </g>
</svg>
