<svg xmlns="http://www.w3.org/2000/svg" width="301.5" height="233.565" viewBox="0 0 301.5 233.565">
  <g id="Grupo_15481" data-name="Grupo 15481" transform="translate(-215.137 -87.785)">
    <g id="Grupo_15454" data-name="Grupo 15454" transform="translate(271.751 93.326)">
      <path id="Trazado_26449" data-name="Trazado 26449" d="M383.293,318.792,281.7,260.139c-2.873-1.659-2.513-4.557.805-6.473l69.176-39.925c3.318-1.916,8.338-2.124,11.211-.465l101.591,58.654c2.873,1.659,2.513,4.557-.805,6.473L394.5,318.327C391.186,320.243,386.166,320.451,383.293,318.792Z" transform="translate(-279.763 -108.745)" fill="#efefef"/>
      <path id="Trazado_26450" data-name="Trazado 26450" d="M500.46,153.392,398.87,94.739a4.1,4.1,0,0,0-3.442-.422l.006-.011-.184.07-.046.017L391.533,95.8l3.3,1.613c-.015.061-.034.117-.047.18l-16.547,75.323c-.829,3.77.83,8.171,3.7,9.829l99.146,57.243-.353,4.2,4.012-1.556a5.635,5.635,0,0,0,2.873-4.087l16.547-75.323C504.993,159.452,503.334,155.051,500.46,153.392Z" transform="translate(-291.944 -94.111)" fill="#173d7a"/>
      <path id="Trazado_26451" data-name="Trazado 26451" d="M501.289,153.392,399.7,94.739a4.1,4.1,0,0,0-3.442-.422l.006-.011-.184.07-.046.017L392.361,95.8l3.3,1.613c-.015.061-.034.117-.047.18L384.7,147.233l49.706,38.727L504.5,157.44A7.888,7.888,0,0,0,501.289,153.392Z" transform="translate(-292.772 -94.111)" fill="#396caa"/>
      <path id="Trazado_26452" data-name="Trazado 26452" d="M512.333,173.436l7.734-3.292a9.689,9.689,0,0,0-3.133-7.744l-12.242,5.149Z" transform="translate(-307.647 -102.576)" fill="#274f89"/>
      <path id="Trazado_26453" data-name="Trazado 26453" d="M476.306,243.988,374.716,185.335c-2.873-1.659-4.532-6.06-3.7-9.83l16.547-75.323c.828-3.77,3.829-5.48,6.7-3.821l101.59,58.654c2.874,1.659,4.533,6.06,3.7,9.829L483.01,240.167C482.181,243.936,479.18,245.647,476.306,243.988Z" transform="translate(-291.048 -94.311)" fill="#d4ecff"/>
      <path id="Trazado_26454" data-name="Trazado 26454" d="M474.7,239.167l-95.543-55.135c-2.63-1.518-4.147-5.545-3.389-9L390.9,106.11c.758-3.449,3.5-5.014,6.133-3.5l95.544,55.135c2.63,1.519,4.147,5.546,3.389,9l-15.142,68.927C480.071,239.12,477.325,240.685,474.7,239.167Z" transform="translate(-291.64 -95.093)" fill="#fff"/>
      <path id="Trazado_26455" data-name="Trazado 26455" d="M474.7,239.167l-95.543-55.135c-2.63-1.518-4.147-5.545-3.389-9L390.9,106.11c.758-3.449,3.5-5.014,6.133-3.5l95.544,55.135c2.63,1.519,4.147,5.546,3.389,9l-15.142,68.927C480.071,239.12,477.325,240.685,474.7,239.167Z" transform="translate(-291.64 -95.093)" fill="#173d7a"/>
      <path id="Trazado_26456" data-name="Trazado 26456" d="M466.424,260.143l-13.887-1.834L362.9,206.555c-2.873-1.659-7.893-1.451-11.211.465l-63.52,36.659-8.4-1.108v4.764h.008a3.272,3.272,0,0,0,1.928,2.943l101.591,58.653c2.873,1.659,7.893,1.452,11.211-.464l69.176-39.925c1.867-1.078,2.8-2.467,2.743-3.77h0Z" transform="translate(-279.763 -107.911)" fill="#173d7a"/>
      <path id="Trazado_26457" data-name="Trazado 26457" d="M399.07,230.034l-6.369-3.677H322.683l-34.519,19.916-8.4-1.108v4.764h.008a3.272,3.272,0,0,0,1.928,2.943l101.591,58.653a10.507,10.507,0,0,0,5.786,1.085Z" transform="translate(-279.763 -110.505)" fill="#396caa"/>
      <path id="Trazado_26458" data-name="Trazado 26458" d="M283.494,248.317l-3.727-.491v4.764h.008a3.272,3.272,0,0,0,1.928,2.943l1.791,1.034Z" transform="translate(-279.763 -113.167)" fill="#5793ce"/>
      <path id="Trazado_26459" data-name="Trazado 26459" d="M399.111,322.533a13.016,13.016,0,0,0,9.527-.591V311.314h-9.527Z" transform="translate(-294.558 -121.037)" fill="#274f89"/>
      <path id="Trazado_26460" data-name="Trazado 26460" d="M383.293,303.056,281.7,244.4c-2.873-1.659-2.513-4.558.805-6.474L351.683,198c3.318-1.916,8.338-2.124,11.211-.464l101.591,58.653c2.873,1.659,2.513,4.557-.805,6.473L394.5,302.59C391.186,304.506,386.166,304.715,383.293,303.056Z" transform="translate(-279.763 -106.794)" fill="#d4ecff"/>
      <path id="Trazado_26461" data-name="Trazado 26461" d="M463.681,267.193l-69.176,39.925c-3.318,1.916-8.338,2.124-11.211.465L281.7,248.929a3.783,3.783,0,0,1-1.786-1.954c-.449,1.36.124,2.734,1.786,3.7l101.591,58.653c2.873,1.659,7.893,1.451,11.211-.465l69.176-39.925c2.23-1.288,3.118-3.018,2.591-4.519A5.4,5.4,0,0,1,463.681,267.193Z" transform="translate(-279.763 -113.061)" fill="#fff"/>
      <g id="Grupo_15452" data-name="Grupo 15452" transform="translate(40.302 93.237)">
        <path id="Trazado_26462" data-name="Trazado 26462" d="M330.613,228.062l-4.6-2.653c-.369-.214-.322-.585.1-.831l5.426-3.133a1.6,1.6,0,0,1,1.439-.06l4.6,2.654c.37.214.323.585-.1.831L332.053,228A1.6,1.6,0,0,1,330.613,228.062Z" transform="translate(-325.768 -203.108)" fill="#b9dff9"/>
        <path id="Trazado_26463" data-name="Trazado 26463" d="M338.716,232.74l-4.6-2.654c-.369-.213-.322-.585.1-.831l5.426-3.133a1.6,1.6,0,0,1,1.439-.06l4.6,2.654c.369.213.323.585-.1.83l-5.425,3.133A1.6,1.6,0,0,1,338.716,232.74Z" transform="translate(-326.772 -203.688)" fill="#b9dff9"/>
        <path id="Trazado_26464" data-name="Trazado 26464" d="M346.819,237.419l-4.6-2.654c-.369-.213-.322-.585.1-.831l5.426-3.132a1.6,1.6,0,0,1,1.439-.06l4.6,2.654c.369.213.323.585-.1.831l-5.425,3.133A1.6,1.6,0,0,1,346.819,237.419Z" transform="translate(-327.777 -204.268)" fill="#b9dff9"/>
        <path id="Trazado_26465" data-name="Trazado 26465" d="M358.026,233.626l-4.6-2.653c-.369-.213-.322-.585.1-.831l4.555-2.63a1.6,1.6,0,0,1,1.44-.06l4.6,2.654c.369.214.322.585-.1.831l-4.554,2.63A1.6,1.6,0,0,1,358.026,233.626Z" transform="translate(-329.166 -203.86)" fill="#b9dff9"/>
        <path id="Trazado_26466" data-name="Trazado 26466" d="M366.129,238.3l-4.6-2.653c-.369-.213-.322-.585.1-.831l4.554-2.63a1.6,1.6,0,0,1,1.44-.06l4.6,2.654c.369.213.322.585-.1.831l-4.554,2.629A1.6,1.6,0,0,1,366.129,238.3Z" transform="translate(-330.171 -204.44)" fill="#b9dff9"/>
        <path id="Trazado_26467" data-name="Trazado 26467" d="M374.232,242.983l-4.6-2.654c-.369-.213-.322-.585.1-.831l4.555-2.629a1.6,1.6,0,0,1,1.44-.06l4.6,2.654c.369.213.322.585-.1.831l-4.554,2.629A1.6,1.6,0,0,1,374.232,242.983Z" transform="translate(-331.175 -205.02)" fill="#b9dff9"/>
        <path id="Trazado_26468" data-name="Trazado 26468" d="M382.335,247.661l-4.6-2.654c-.369-.213-.322-.585.1-.83l4.554-2.63a1.6,1.6,0,0,1,1.44-.06l4.6,2.653c.369.213.322.585-.1.831l-4.555,2.63A1.6,1.6,0,0,1,382.335,247.661Z" transform="translate(-332.18 -205.6)" fill="#b9dff9"/>
        <path id="Trazado_26469" data-name="Trazado 26469" d="M390.438,252.339l-4.6-2.654c-.369-.213-.322-.585.1-.831l4.554-2.63a1.6,1.6,0,0,1,1.44-.06l4.6,2.654c.369.214.322.585-.1.831l-4.554,2.63A1.6,1.6,0,0,1,390.438,252.339Z" transform="translate(-333.184 -206.18)" fill="#b9dff9"/>
        <path id="Trazado_26470" data-name="Trazado 26470" d="M398.541,257.017l-4.6-2.654c-.369-.213-.323-.585.1-.831L398.6,250.9a1.6,1.6,0,0,1,1.44-.06l4.6,2.654c.369.213.322.585-.1.831l-4.555,2.629A1.6,1.6,0,0,1,398.541,257.017Z" transform="translate(-334.189 -206.76)" fill="#b9dff9"/>
        <path id="Trazado_26471" data-name="Trazado 26471" d="M406.644,261.7l-4.6-2.654c-.369-.213-.322-.585.1-.831l4.554-2.629a1.6,1.6,0,0,1,1.439-.06l4.6,2.654c.37.213.323.585-.1.831l-4.554,2.63A1.6,1.6,0,0,1,406.644,261.7Z" transform="translate(-335.193 -207.34)" fill="#b9dff9"/>
        <path id="Trazado_26472" data-name="Trazado 26472" d="M414.747,266.374l-4.6-2.654c-.369-.213-.323-.585.1-.83l4.555-2.63a1.6,1.6,0,0,1,1.439-.06l4.6,2.653c.369.213.322.585-.1.831l-4.554,2.63A1.6,1.6,0,0,1,414.747,266.374Z" transform="translate(-336.198 -207.92)" fill="#b9dff9"/>
        <path id="Trazado_26473" data-name="Trazado 26473" d="M422.85,271.052l-4.6-2.654c-.369-.213-.322-.585.1-.831l4.554-2.63a1.6,1.6,0,0,1,1.439-.06l4.6,2.654c.37.213.323.585-.1.83l-4.554,2.63A1.6,1.6,0,0,1,422.85,271.052Z" transform="translate(-337.202 -208.5)" fill="#b9dff9"/>
        <path id="Trazado_26474" data-name="Trazado 26474" d="M430.953,275.73l-4.6-2.654c-.369-.213-.323-.585.1-.831l4.555-2.629a1.6,1.6,0,0,1,1.439-.06l4.6,2.654c.369.213.322.585-.1.831l-4.554,2.629A1.6,1.6,0,0,1,430.953,275.73Z" transform="translate(-338.207 -209.08)" fill="#b9dff9"/>
        <path id="Trazado_26475" data-name="Trazado 26475" d="M369.965,231.411l-4.6-2.653c-.369-.213-.322-.585.1-.831l4.554-2.63a1.6,1.6,0,0,1,1.44-.06l4.6,2.654c.369.213.322.585-.1.831l-4.554,2.629A1.6,1.6,0,0,1,369.965,231.411Z" transform="translate(-330.646 -203.586)" fill="#b9dff9"/>
        <path id="Trazado_26476" data-name="Trazado 26476" d="M361.741,226.663l-4.6-2.653c-.369-.213-.322-.585.1-.831l4.554-2.63a1.6,1.6,0,0,1,1.44-.06l4.6,2.654c.369.213.322.585-.1.83l-4.554,2.63A1.6,1.6,0,0,1,361.741,226.663Z" transform="translate(-329.627 -202.997)" fill="#b9dff9"/>
        <path id="Trazado_26477" data-name="Trazado 26477" d="M352.754,221.474l-9.9-5.715c-.369-.213-.322-.585.1-.831l4.554-2.63a1.6,1.6,0,0,1,1.44-.06l9.9,5.716c.369.213.322.585-.1.831l-4.554,2.629A1.6,1.6,0,0,1,352.754,221.474Z" transform="translate(-327.855 -201.974)" fill="#b9dff9"/>
        <path id="Trazado_26478" data-name="Trazado 26478" d="M358.776,215.843l-8.034-4.639c-.369-.213-.322-.585.1-.831l4.554-2.63a1.6,1.6,0,0,1,1.44-.06l8.033,4.639c.37.213.323.585-.1.831l-4.554,2.63A1.6,1.6,0,0,1,358.776,215.843Z" transform="translate(-328.833 -201.41)" fill="#b9dff9"/>
        <path id="Trazado_26479" data-name="Trazado 26479" d="M378.068,236.09l-4.6-2.654c-.369-.213-.322-.585.1-.831l4.554-2.629a1.6,1.6,0,0,1,1.44-.06l4.6,2.654c.369.213.322.585-.1.831l-4.554,2.629A1.6,1.6,0,0,1,378.068,236.09Z" transform="translate(-331.651 -204.166)" fill="#b9dff9"/>
        <path id="Trazado_26480" data-name="Trazado 26480" d="M386.171,240.768l-4.6-2.654c-.369-.213-.322-.585.1-.831l4.555-2.629a1.6,1.6,0,0,1,1.44-.06l4.6,2.654c.369.213.322.585-.1.831l-4.554,2.63A1.6,1.6,0,0,1,386.171,240.768Z" transform="translate(-332.655 -204.746)" fill="#b9dff9"/>
        <path id="Trazado_26481" data-name="Trazado 26481" d="M394.274,245.446l-4.6-2.653c-.369-.214-.322-.585.1-.831l4.554-2.63a1.6,1.6,0,0,1,1.44-.06l4.6,2.653c.369.214.322.585-.1.831l-4.554,2.63A1.6,1.6,0,0,1,394.274,245.446Z" transform="translate(-333.66 -205.326)" fill="#b9dff9"/>
        <path id="Trazado_26482" data-name="Trazado 26482" d="M402.377,250.124l-4.6-2.654c-.369-.213-.322-.585.1-.831l4.555-2.63a1.6,1.6,0,0,1,1.44-.06l4.6,2.654c.369.213.322.585-.1.831l-4.554,2.629A1.6,1.6,0,0,1,402.377,250.124Z" transform="translate(-334.664 -205.906)" fill="#b9dff9"/>
        <path id="Trazado_26483" data-name="Trazado 26483" d="M410.48,254.8l-4.6-2.654c-.369-.213-.322-.585.1-.831l4.555-2.629a1.6,1.6,0,0,1,1.44-.06l4.6,2.654c.369.213.322.585-.1.831l-4.555,2.629A1.6,1.6,0,0,1,410.48,254.8Z" transform="translate(-335.669 -206.486)" fill="#b9dff9"/>
        <path id="Trazado_26484" data-name="Trazado 26484" d="M418.583,259.481l-4.6-2.654c-.369-.213-.322-.585.1-.83l4.554-2.63a1.6,1.6,0,0,1,1.44-.06l4.6,2.653c.369.213.322.585-.1.831l-4.554,2.63A1.6,1.6,0,0,1,418.583,259.481Z" transform="translate(-336.674 -207.066)" fill="#b9dff9"/>
        <path id="Trazado_26485" data-name="Trazado 26485" d="M426.686,264.159l-4.6-2.654c-.369-.214-.322-.585.1-.831l4.554-2.63a1.6,1.6,0,0,1,1.44-.06l4.6,2.653c.369.214.322.585-.1.831l-4.555,2.63A1.6,1.6,0,0,1,426.686,264.159Z" transform="translate(-337.678 -207.646)" fill="#b9dff9"/>
        <path id="Trazado_26486" data-name="Trazado 26486" d="M434.789,268.837l-4.6-2.653c-.369-.213-.322-.585.1-.831l4.555-2.63a1.6,1.6,0,0,1,1.44-.06l4.6,2.654c.369.213.322.585-.1.831l-4.554,2.629A1.6,1.6,0,0,1,434.789,268.837Z" transform="translate(-338.683 -208.225)" fill="#b9dff9"/>
        <path id="Trazado_26487" data-name="Trazado 26487" d="M442.892,273.516l-4.6-2.654c-.369-.213-.322-.585.1-.831l4.554-2.629a1.6,1.6,0,0,1,1.44-.06l4.6,2.654c.369.213.322.585-.1.831l-4.555,2.629A1.6,1.6,0,0,1,442.892,273.516Z" transform="translate(-339.687 -208.805)" fill="#b9dff9"/>
        <path id="Trazado_26488" data-name="Trazado 26488" d="M456.529,281.388,446.5,275.6c-.369-.214-.323-.585.1-.831l4.554-2.63a1.6,1.6,0,0,1,1.439-.06l10.03,5.791c.369.213.322.585-.1.831l-4.554,2.629A1.6,1.6,0,0,1,456.529,281.388Z" transform="translate(-340.704 -209.393)" fill="#b9dff9"/>
        <path id="Trazado_26489" data-name="Trazado 26489" d="M472.526,272.409l-8.465-4.887c-.369-.214-.323-.586.1-.831l4.554-2.63a1.6,1.6,0,0,1,1.439-.06l8.465,4.887c.37.213.323.585-.1.831l-4.554,2.629A1.6,1.6,0,0,1,472.526,272.409Z" transform="translate(-342.881 -208.391)" fill="#b9dff9"/>
        <path id="Trazado_26490" data-name="Trazado 26490" d="M392.258,235.174l-4.6-2.653c-.369-.213-.322-.585.1-.831l4.555-2.63a1.6,1.6,0,0,1,1.44-.06l4.6,2.654c.369.213.322.585-.1.83l-4.554,2.63A1.6,1.6,0,0,1,392.258,235.174Z" transform="translate(-333.41 -204.052)" fill="#b9dff9"/>
        <path id="Trazado_26491" data-name="Trazado 26491" d="M383.954,230.379l-4.6-2.653c-.37-.213-.323-.585.1-.831l4.555-2.629a1.6,1.6,0,0,1,1.439-.06l4.6,2.654c.37.213.323.585-.1.831l-4.554,2.629A1.6,1.6,0,0,1,383.954,230.379Z" transform="translate(-332.38 -203.458)" fill="#b9dff9"/>
        <path id="Trazado_26492" data-name="Trazado 26492" d="M375.649,225.585l-4.6-2.654c-.369-.214-.322-.586.1-.831l4.555-2.63a1.6,1.6,0,0,1,1.44-.06l4.6,2.654c.369.213.322.585-.1.831l-4.554,2.63A1.6,1.6,0,0,1,375.649,225.585Z" transform="translate(-331.351 -202.863)" fill="#b9dff9"/>
        <path id="Trazado_26493" data-name="Trazado 26493" d="M367.345,220.79l-4.6-2.654c-.37-.213-.323-.585.1-.831l4.555-2.63a1.6,1.6,0,0,1,1.439-.06l4.6,2.654c.37.213.323.585-.1.83l-4.554,2.63A1.6,1.6,0,0,1,367.345,220.79Z" transform="translate(-330.321 -202.269)" fill="#b9dff9"/>
        <path id="Trazado_26494" data-name="Trazado 26494" d="M400.361,239.852l-4.6-2.654c-.369-.213-.322-.585.1-.831l4.554-2.629a1.6,1.6,0,0,1,1.44-.06l4.6,2.654c.369.213.322.585-.1.831l-4.554,2.629A1.6,1.6,0,0,1,400.361,239.852Z" transform="translate(-334.415 -204.632)" fill="#b9dff9"/>
        <path id="Trazado_26495" data-name="Trazado 26495" d="M408.464,244.531l-4.6-2.654c-.369-.213-.322-.585.1-.831l4.555-2.629a1.6,1.6,0,0,1,1.44-.06l4.6,2.654c.369.213.322.585-.1.831l-4.554,2.63A1.6,1.6,0,0,1,408.464,244.531Z" transform="translate(-335.419 -205.212)" fill="#b9dff9"/>
        <path id="Trazado_26496" data-name="Trazado 26496" d="M416.567,249.209l-4.6-2.653c-.369-.214-.322-.585.1-.831l4.554-2.63a1.6,1.6,0,0,1,1.44-.06l4.6,2.654c.369.213.322.585-.1.831l-4.555,2.63A1.6,1.6,0,0,1,416.567,249.209Z" transform="translate(-336.424 -205.792)" fill="#b9dff9"/>
        <path id="Trazado_26497" data-name="Trazado 26497" d="M424.67,253.887l-4.6-2.654c-.369-.213-.322-.585.1-.831l4.555-2.63a1.6,1.6,0,0,1,1.44-.06l4.6,2.654c.369.213.322.585-.1.83l-4.554,2.63A1.6,1.6,0,0,1,424.67,253.887Z" transform="translate(-337.428 -206.372)" fill="#b9dff9"/>
        <path id="Trazado_26498" data-name="Trazado 26498" d="M432.773,258.565l-4.6-2.654c-.369-.213-.322-.585.1-.831l4.554-2.629a1.6,1.6,0,0,1,1.44-.06l4.6,2.654c.369.213.322.585-.1.831l-4.555,2.629A1.6,1.6,0,0,1,432.773,258.565Z" transform="translate(-338.433 -206.952)" fill="#b9dff9"/>
        <path id="Trazado_26499" data-name="Trazado 26499" d="M440.876,263.244l-4.6-2.654c-.369-.213-.322-.585.1-.831l4.554-2.629a1.6,1.6,0,0,1,1.44-.06l4.6,2.654c.369.213.322.585-.1.831l-4.554,2.63A1.6,1.6,0,0,1,440.876,263.244Z" transform="translate(-339.437 -207.532)" fill="#b9dff9"/>
        <path id="Trazado_26500" data-name="Trazado 26500" d="M448.979,267.922l-4.6-2.654c-.369-.214-.322-.585.1-.831l4.554-2.63a1.6,1.6,0,0,1,1.44-.06l4.6,2.653c.369.213.322.585-.1.831l-4.555,2.63A1.6,1.6,0,0,1,448.979,267.922Z" transform="translate(-340.442 -208.112)" fill="#b9dff9"/>
        <path id="Trazado_26501" data-name="Trazado 26501" d="M457.082,272.6l-4.6-2.653c-.369-.213-.322-.585.1-.831l4.554-2.63a1.6,1.6,0,0,1,1.44-.06l4.6,2.654c.369.213.322.585-.1.831l-4.554,2.629A1.6,1.6,0,0,1,457.082,272.6Z" transform="translate(-341.446 -208.692)" fill="#b9dff9"/>
        <path id="Trazado_26502" data-name="Trazado 26502" d="M465.185,277.279l-4.6-2.654c-.369-.213-.322-.585.1-.831l4.554-2.629a1.6,1.6,0,0,1,1.44-.06l4.6,2.654c.369.213.322.585-.1.831l-4.554,2.629A1.6,1.6,0,0,1,465.185,277.279Z" transform="translate(-342.451 -209.272)" fill="#b9dff9"/>
        <path id="Trazado_26503" data-name="Trazado 26503" d="M387.992,223.6l-4.6-2.654c-.37-.213-.323-.585.1-.83l4.554-2.63a1.6,1.6,0,0,1,1.439-.06l4.6,2.653c.369.213.323.585-.1.831l-4.555,2.63A1.6,1.6,0,0,1,387.992,223.6Z" transform="translate(-332.881 -202.618)" fill="#b9dff9"/>
        <path id="Trazado_26504" data-name="Trazado 26504" d="M379.929,218.948l-4.6-2.654c-.369-.213-.323-.585.1-.831l4.554-2.629a1.6,1.6,0,0,1,1.439-.06l4.6,2.653c.369.213.322.585-.1.831l-4.554,2.63A1.6,1.6,0,0,1,379.929,218.948Z" transform="translate(-331.882 -202.041)" fill="#b9dff9"/>
        <path id="Trazado_26505" data-name="Trazado 26505" d="M371.866,214.293l-4.6-2.654c-.369-.214-.322-.586.1-.831l4.554-2.63a1.6,1.6,0,0,1,1.44-.06l4.6,2.653c.369.213.322.585-.1.831l-4.554,2.63A1.6,1.6,0,0,1,371.866,214.293Z" transform="translate(-330.882 -201.464)" fill="#b9dff9"/>
        <path id="Trazado_26506" data-name="Trazado 26506" d="M363.8,209.638l-4.6-2.653c-.37-.214-.323-.586.1-.831l4.554-2.63a1.6,1.6,0,0,1,1.439-.06l4.6,2.654c.369.213.323.585-.1.831l-4.554,2.63A1.6,1.6,0,0,1,363.8,209.638Z" transform="translate(-329.882 -200.887)" fill="#b9dff9"/>
        <path id="Trazado_26507" data-name="Trazado 26507" d="M372.094,205.1l-4.6-2.654c-.369-.214-.322-.585.1-.831l1.506-.869a1.6,1.6,0,0,1,1.44-.06l4.6,2.654c.369.213.322.585-.1.831l-1.506.869A1.6,1.6,0,0,1,372.094,205.1Z" transform="translate(-330.91 -200.542)" fill="#b9dff9"/>
        <path id="Trazado_26508" data-name="Trazado 26508" d="M382.616,211.175l-4.6-2.654c-.369-.213-.322-.585.1-.83l1.506-.87a1.6,1.6,0,0,1,1.44-.06l4.6,2.653c.369.214.322.586-.1.832l-1.506.869A1.6,1.6,0,0,1,382.616,211.175Z" transform="translate(-332.215 -201.295)" fill="#b9dff9"/>
        <path id="Trazado_26509" data-name="Trazado 26509" d="M390.645,215.81l-4.6-2.654c-.369-.213-.322-.585.1-.831l1.506-.869a1.6,1.6,0,0,1,1.44-.06l4.6,2.653c.369.213.322.585-.1.831l-1.506.869A1.6,1.6,0,0,1,390.645,215.81Z" transform="translate(-333.21 -201.87)" fill="#b9dff9"/>
        <path id="Trazado_26510" data-name="Trazado 26510" d="M398.674,220.446l-4.6-2.654c-.369-.214-.322-.585.1-.831l1.506-.869a1.6,1.6,0,0,1,1.44-.06l4.6,2.654c.369.213.322.585-.1.831l-1.506.869A1.6,1.6,0,0,1,398.674,220.446Z" transform="translate(-334.205 -202.445)" fill="#b9dff9"/>
        <path id="Trazado_26511" data-name="Trazado 26511" d="M406.7,225.082l-4.6-2.654c-.369-.213-.322-.585.1-.831l1.506-.869a1.6,1.6,0,0,1,1.44-.06l4.6,2.653c.369.214.322.585-.1.831l-1.506.87A1.6,1.6,0,0,1,406.7,225.082Z" transform="translate(-335.201 -203.019)" fill="#b9dff9"/>
        <path id="Trazado_26512" data-name="Trazado 26512" d="M451.529,250.961l-4.6-2.654c-.369-.213-.322-.585.1-.831l1.506-.869a1.6,1.6,0,0,1,1.44-.06l4.6,2.654c.369.213.322.585-.1.831l-1.506.869A1.6,1.6,0,0,1,451.529,250.961Z" transform="translate(-340.758 -206.228)" fill="#b9dff9"/>
        <path id="Trazado_26513" data-name="Trazado 26513" d="M459.558,255.6l-4.6-2.654c-.37-.214-.323-.586.1-.831l1.505-.87a1.6,1.6,0,0,1,1.44-.06l4.6,2.654c.369.213.322.585-.1.831l-1.506.869A1.6,1.6,0,0,1,459.558,255.6Z" transform="translate(-341.753 -206.802)" fill="#b9dff9"/>
        <path id="Trazado_26514" data-name="Trazado 26514" d="M467.587,260.233l-4.6-2.654c-.37-.213-.323-.585.1-.831l1.505-.869a1.6,1.6,0,0,1,1.44-.06l4.6,2.653c.369.213.322.585-.1.831l-1.506.869A1.6,1.6,0,0,1,467.587,260.233Z" transform="translate(-342.748 -207.377)" fill="#b9dff9"/>
        <path id="Trazado_26515" data-name="Trazado 26515" d="M475.616,264.868l-4.6-2.654c-.37-.214-.323-.585.1-.831l1.505-.87a1.6,1.6,0,0,1,1.44-.06l4.6,2.654c.369.213.322.585-.1.831l-1.506.869A1.6,1.6,0,0,1,475.616,264.868Z" transform="translate(-343.744 -207.952)" fill="#b9dff9"/>
        <path id="Trazado_26516" data-name="Trazado 26516" d="M396.1,228.281l-4.6-2.654c-.37-.214-.323-.585.1-.831l4.555-2.63a1.6,1.6,0,0,1,1.439-.06l4.6,2.653c.37.214.323.585-.1.831l-4.554,2.63A1.6,1.6,0,0,1,396.1,228.281Z" transform="translate(-333.886 -203.198)" fill="#b9dff9"/>
        <path id="Trazado_26517" data-name="Trazado 26517" d="M404.2,232.959l-4.6-2.653c-.37-.213-.323-.585.1-.831l4.554-2.63a1.6,1.6,0,0,1,1.44-.06l4.6,2.654c.369.213.323.585-.1.831l-4.555,2.629A1.6,1.6,0,0,1,404.2,232.959Z" transform="translate(-334.89 -203.778)" fill="#b9dff9"/>
        <path id="Trazado_26518" data-name="Trazado 26518" d="M412.3,237.638l-4.6-2.654c-.37-.213-.323-.585.1-.831l4.554-2.629a1.6,1.6,0,0,1,1.44-.06l4.6,2.653c.369.213.323.585-.1.831l-4.554,2.629A1.6,1.6,0,0,1,412.3,237.638Z" transform="translate(-335.895 -204.358)" fill="#b9dff9"/>
        <path id="Trazado_26519" data-name="Trazado 26519" d="M420.4,242.316l-4.6-2.654c-.369-.213-.322-.585.1-.83l4.554-2.63a1.6,1.6,0,0,1,1.44-.06l4.6,2.653c.369.213.323.585-.1.831l-4.555,2.63A1.6,1.6,0,0,1,420.4,242.316Z" transform="translate(-336.899 -204.938)" fill="#b9dff9"/>
        <path id="Trazado_26520" data-name="Trazado 26520" d="M428.506,246.994l-4.6-2.654c-.369-.214-.322-.585.1-.831l4.554-2.63a1.6,1.6,0,0,1,1.44-.06l4.6,2.653c.369.214.323.586-.1.831l-4.554,2.63A1.6,1.6,0,0,1,428.506,246.994Z" transform="translate(-337.904 -205.518)" fill="#b9dff9"/>
        <path id="Trazado_26521" data-name="Trazado 26521" d="M436.61,251.672l-4.6-2.653c-.369-.213-.322-.585.1-.831l4.555-2.63a1.6,1.6,0,0,1,1.44-.06l4.6,2.654c.369.213.322.585-.1.831l-4.555,2.629A1.6,1.6,0,0,1,436.61,251.672Z" transform="translate(-338.908 -206.098)" fill="#b9dff9"/>
        <path id="Trazado_26522" data-name="Trazado 26522" d="M444.712,256.351l-4.6-2.654c-.369-.213-.322-.585.1-.831l4.554-2.629a1.6,1.6,0,0,1,1.44-.06l4.6,2.653c.369.213.322.585-.1.831l-4.554,2.629A1.6,1.6,0,0,1,444.712,256.351Z" transform="translate(-339.913 -206.678)" fill="#b9dff9"/>
        <path id="Trazado_26523" data-name="Trazado 26523" d="M452.816,261.029l-4.6-2.653c-.369-.214-.322-.586.1-.831l4.554-2.63a1.6,1.6,0,0,1,1.44-.06l4.6,2.654c.369.213.323.585-.1.831l-4.554,2.63A1.6,1.6,0,0,1,452.816,261.029Z" transform="translate(-340.917 -207.257)" fill="#b9dff9"/>
        <path id="Trazado_26524" data-name="Trazado 26524" d="M460.918,265.707l-4.6-2.654c-.369-.214-.322-.585.1-.831l4.554-2.63a1.6,1.6,0,0,1,1.44-.06l4.6,2.653c.369.214.322.586-.1.831l-4.554,2.63A1.6,1.6,0,0,1,460.918,265.707Z" transform="translate(-341.922 -207.837)" fill="#b9dff9"/>
        <path id="Trazado_26525" data-name="Trazado 26525" d="M348.5,228.128l-13.537-7.816c-.37-.213-.323-.585.1-.831l4.554-2.63a1.6,1.6,0,0,1,1.439-.06l13.537,7.816c.369.213.323.585-.1.831l-4.554,2.629A1.6,1.6,0,0,1,348.5,228.128Z" transform="translate(-326.877 -202.539)" fill="#b9dff9"/>
        <path id="Trazado_26526" data-name="Trazado 26526" d="M448.051,285.6l-13.537-7.816c-.37-.213-.323-.585.1-.831l4.555-2.629a1.6,1.6,0,0,1,1.439-.06l13.537,7.815c.369.214.323.586-.1.831l-4.555,2.63A1.6,1.6,0,0,1,448.051,285.6Z" transform="translate(-339.218 -209.664)" fill="#b9dff9"/>
        <path id="Trazado_26527" data-name="Trazado 26527" d="M416.911,277.886l-4.6-2.654c-.37-.214-.323-.586.1-.831l5.425-3.133a1.6,1.6,0,0,1,1.44-.06l4.6,2.653c.369.213.322.585-.1.831l-5.426,3.133A1.6,1.6,0,0,1,416.911,277.886Z" transform="translate(-336.466 -209.285)" fill="#b9dff9"/>
        <path id="Trazado_26528" data-name="Trazado 26528" d="M357.677,243.687l-7.352-4.243c-.369-.214-.322-.586.1-.831l5.426-3.133a1.6,1.6,0,0,1,1.439-.06l7.352,4.244c.369.213.322.585-.1.831l-5.426,3.132A1.6,1.6,0,0,1,357.677,243.687Z" transform="translate(-328.781 -204.848)" fill="#b9dff9"/>
        <path id="Trazado_26529" data-name="Trazado 26529" d="M408.714,273.153l-7.351-4.243c-.369-.214-.323-.586.1-.831l5.425-3.133a1.6,1.6,0,0,1,1.44-.06l7.351,4.244c.37.213.323.585-.1.831l-5.425,3.132A1.6,1.6,0,0,1,408.714,273.153Z" transform="translate(-335.108 -208.501)" fill="#b9dff9"/>
        <path id="Trazado_26530" data-name="Trazado 26530" d="M369.368,250.437l-7.352-4.244c-.369-.213-.322-.585.1-.831l5.425-3.132a1.6,1.6,0,0,1,1.44-.06l7.351,4.244c.37.214.323.585-.1.831l-5.425,3.133A1.6,1.6,0,0,1,369.368,250.437Z" transform="translate(-330.231 -205.685)" fill="#b9dff9"/>
        <path id="Trazado_26531" data-name="Trazado 26531" d="M369.078,242.222l31.96,18.453a.438.438,0,0,1,0,.83l-5.532,3.194a1.589,1.589,0,0,1-1.436,0l-31.961-18.453Z" transform="translate(-330.273 -205.709)" fill="#b9dff9"/>
        <path id="Trazado_26532" data-name="Trazado 26532" d="M439.721,287.316l5.12,2.957c.3.174.265.479-.085.681l-2.219,1.282a1.315,1.315,0,0,1-1.181.049l-5.12-2.957c-.3-.174-.265-.479.084-.681l2.22-1.282A1.313,1.313,0,0,1,439.721,287.316Z" transform="translate(-339.437 -211.285)" fill="#b9dff9"/>
        <path id="Trazado_26533" data-name="Trazado 26533" d="M431.551,282.6l5.12,2.956c.3.175.265.48-.085.682l-2.22,1.282a1.313,1.313,0,0,1-1.18.049l-5.12-2.957c-.3-.174-.265-.479.084-.681l2.22-1.282A1.313,1.313,0,0,1,431.551,282.6Z" transform="translate(-338.425 -210.7)" fill="#b9dff9"/>
        <path id="Trazado_26534" data-name="Trazado 26534" d="M423.448,277.921l5.12,2.956c.3.175.265.48-.085.682l-2.22,1.282a1.313,1.313,0,0,1-1.18.049l-5.12-2.957c-.3-.174-.265-.48.084-.682l2.22-1.281A1.308,1.308,0,0,1,423.448,277.921Z" transform="translate(-337.42 -210.12)" fill="#b9dff9"/>
        <path id="Trazado_26535" data-name="Trazado 26535" d="M436.026,280.016l5.12,2.956c.3.174.265.48-.084.682l-2.22,1.281a1.308,1.308,0,0,1-1.18.049l-5.12-2.956c-.3-.174-.265-.48.085-.682l2.219-1.282A1.312,1.312,0,0,1,436.026,280.016Z" transform="translate(-338.979 -210.38)" fill="#b9dff9"/>
      </g>
      <g id="Grupo_15453" data-name="Grupo 15453" transform="translate(128.491 37.952)">
        <path id="Trazado_26536" data-name="Trazado 26536" d="M475.566,167.089,429.4,140.435l.594-3,46.167,26.655Z" transform="translate(-426.804 -137.433)" fill="#5793ce"/>
        <path id="Trazado_26537" data-name="Trazado 26537" d="M458.664,174.009,426.436,155.4l.594-3,32.227,18.606Z" transform="translate(-426.436 -139.289)" fill="#5793ce"/>
        <path id="Trazado_26538" data-name="Trazado 26538" d="M455.8,164.015l-27.88-16.1.594-3,27.88,16.1Z" transform="translate(-426.62 -138.361)" fill="#fff"/>
        <path id="Trazado_26539" data-name="Trazado 26539" d="M478.645,177.207l-13.94-8.048.594-3,13.94,8.048Z" transform="translate(-431.181 -140.994)" fill="#ff2c9c"/>
      </g>
    </g>
    <path id="Trazado_26540" data-name="Trazado 26540" d="M476.312,204.965l-8.156,38.669-29.288-16.9,6.4-12.567Z" transform="translate(-27.736 -14.527)" fill="#0a2d60"/>
    <path id="Trazado_26541" data-name="Trazado 26541" d="M377.171,266.476h0a12.22,12.22,0,0,1,0-21.165L418.12,221.67l41.63,24.036-35.977,20.771A46.6,46.6,0,0,1,377.171,266.476Z" transform="translate(-19.33 -16.598)" fill="#5793ce"/>
    <path id="Trazado_26542" data-name="Trazado 26542" d="M418.869,134.7l-14.4-8.315.614-3.1,14.4,8.315Z" transform="translate(-23.471 -4.401)" fill="#d4ecff"/>
    <path id="Trazado_26543" data-name="Trazado 26543" d="M417.406,142.205,403,133.89l.614-3.1,14.4,8.315Z" transform="translate(-23.29 -5.331)" fill="#fff"/>
    <g id="Grupo_15456" data-name="Grupo 15456" transform="translate(259 113.997)">
      <path id="Trazado_26544" data-name="Trazado 26544" d="M275.935,211.05h.015c-6.591-3.661-10.706-11.682-10.742-23.162-.072-22.727,15.853-50.512,35.5-61.937l14.178-8.245h0l.683.385L380.6,154.664l-16.476,10.709-6.185,4.526-8.516,8.9-1.368,1.249-9.063,13.728-3.324,8.6L333.2,209.2l-2.025,14.339-.139,1.238.732,6.045,2.091,7.485,2.949,5.071,4.292,5.094Z" transform="translate(-265.208 -117.706)" fill="#5793ce"/>
      <path id="Trazado_26545" data-name="Trazado 26545" d="M401.257,159.578l.008,2.407-43.156,25.058a15.292,15.292,0,0,1,3.525-4.461Z" transform="translate(-276.725 -122.897)" fill="#d4ecff"/>
      <path id="Trazado_26546" data-name="Trazado 26546" d="M464.183,196.932l-65.035-37.354-39.373,23.634-4.929,5.738-7.4,13.006-4.65,13-1.515,10.162-.19,10.146,6.352,14.513L355.7,254.6l8.493.441,10.187-4.227L454.9,203.447Z" transform="translate(-274.615 -122.897)" fill="#d4ecff"/>
      <path id="Trazado_26547" data-name="Trazado 26547" d="M276,221.738c-5.515-3.063-9.285-9.189-10.394-17.828l66.332,38.02L333.912,249l2.949,5.071,4.292,5.094-65.168-37.425Z" transform="translate(-265.257 -128.393)" fill="#396caa"/>
      <g id="Grupo_15455" data-name="Grupo 15455" transform="translate(0 36.958)">
        <path id="Trazado_26548" data-name="Trazado 26548" d="M265.806,204.093a41.286,41.286,0,0,1-.6-6.993c-.005-1.673.086-3.376.25-5.1l66.124,37.9-.4,2.848-.139,1.238.732,6.045.62,2.221Z" transform="translate(-265.208 -163.875)" fill="#173d7a"/>
        <path id="Trazado_26549" data-name="Trazado 26549" d="M463.987,199.378l-.008-2.407L375.2,248.563c-18.5,10.758-33.6,2.1-33.671-19.3s14.928-47.563,33.427-58.321l14.859-8.641-.007-2.407-14.86,8.642c-19.646,11.425-35.57,39.209-35.5,61.937s16.113,31.923,35.76,20.5Z" transform="translate(-274.411 -159.894)" fill="#173d7a"/>
      </g>
    </g>
    <g id="Grupo_15457" data-name="Grupo 15457" transform="translate(370.659 165.481)">
      <path id="Trazado_26550" data-name="Trazado 26550" d="M435.149,206.934l-39.974-23.309-2.508,1.433,39.974,23.309Z" transform="translate(-392.667 -177.362)" fill="#5793ce"/>
      <path id="Trazado_26551" data-name="Trazado 26551" d="M435.585,192.747l-27.9-16.271-2.508,1.433,27.9,16.271Z" transform="translate(-394.218 -176.476)" fill="#5793ce"/>
      <path id="Trazado_26552" data-name="Trazado 26552" d="M425.568,194.127l-24.14-14.076-2.508,1.433,24.14,14.076Z" transform="translate(-393.442 -176.919)" fill="#5793ce"/>
      <path id="Trazado_26553" data-name="Trazado 26553" d="M445.351,205.663l-12.07-7.038-2.508,1.433,12.07,7.038Z" transform="translate(-397.391 -179.222)" fill="#5793ce"/>
    </g>
    <g id="Grupo_15465" data-name="Grupo 15465" transform="translate(392.534 249.915)">
      <path id="Trazado_26554" data-name="Trazado 26554" d="M435.832,341.489l86.243-49.827c2.09-1.207,1.828-3.316-.586-4.71h0c-2.414-1.395-6.066-1.545-8.158-.338l-86.242,49.827c-2.091,1.207-1.828,3.316.586,4.71h0C430.089,342.545,433.741,342.7,435.832,341.489Z" transform="translate(-418.635 -274.462)" fill="#efefef"/>
      <g id="Grupo_15464" data-name="Grupo 15464">
        <path id="Trazado_26555" data-name="Trazado 26555" d="M543.06,273.024h0a.332.332,0,0,0-.355-.159l-4.591.948,1.774,3.087,3.131-3.489A.33.33,0,0,0,543.06,273.024Z" transform="translate(-432.574 -272.858)" fill="#ff2c9c"/>
        <g id="Grupo_15458" data-name="Grupo 15458" transform="translate(55.119 0.476)">
          <path id="Trazado_26556" data-name="Trazado 26556" d="M539.244,275.338a2.29,2.29,0,0,0-1.033-1.8.751.751,0,0,0-.687-.092,29.265,29.265,0,0,0-15.106,3.884l-.333.192,5.6,9.738,1.692-1.1a29.25,29.25,0,0,0,8.873-9.019l.732-1.168A.751.751,0,0,0,539.244,275.338Z" transform="translate(-485.705 -273.402)" fill="#5793ce"/>
          <path id="Trazado_26557" data-name="Trazado 26557" d="M528.684,285.241a8.776,8.776,0,0,0-3.956-6.886c-2.191-1.271-3.97-.248-3.975,2.284a8.775,8.775,0,0,0,3.956,6.886C526.9,288.8,528.678,287.773,528.684,285.241Z" transform="translate(-485.54 -273.948)" fill="#5793ce"/>
          <path id="Trazado_26558" data-name="Trazado 26558" d="M488.744,308.554l33.983-20.708-5.6-9.738-35,18.939Z" transform="translate(-480.752 -273.985)" fill="#5793ce"/>
          <path id="Trazado_26559" data-name="Trazado 26559" d="M489.93,308.156a10.37,10.37,0,0,0-4.675-8.137c-2.588-1.5-4.691-.293-4.7,2.7a10.37,10.37,0,0,0,4.675,8.137C487.82,312.357,489.923,311.148,489.93,308.156Z" transform="translate(-480.557 -276.622)" fill="#d4ecff"/>
        </g>
        <g id="Grupo_15459" data-name="Grupo 15459" transform="translate(8.237 24.343)">
          <path id="Trazado_26560" data-name="Trazado 26560" d="M487.718,309.427a10.37,10.37,0,0,0-4.675-8.137c-2.588-1.5-4.691-.293-4.7,2.7a10.371,10.371,0,0,0,4.674,8.137C485.608,313.628,487.712,312.419,487.718,309.427Z" transform="translate(-433.401 -300.646)" fill="#d4ecff"/>
          <rect id="Rectángulo_2903" data-name="Rectángulo 2903" width="51.834" height="13.271" transform="translate(1.38 26.133) rotate(-29.88)" fill="#d4ecff"/>
          <path id="Trazado_26561" data-name="Trazado 26561" d="M436.414,338.9a10.37,10.37,0,0,0-4.675-8.136c-2.588-1.5-4.691-.293-4.7,2.7a10.371,10.371,0,0,0,4.675,8.136C434.3,343.1,436.407,341.9,436.414,338.9Z" transform="translate(-427.041 -304.3)" fill="#d4ecff"/>
          <path id="Trazado_26562" data-name="Trazado 26562" d="M434.973,338.274a6.857,6.857,0,0,0-3.163-4.945c-1.662-.964-2.94-.313-2.855,1.454a6.852,6.852,0,0,0,3.164,4.944C433.78,340.692,435.058,340.041,434.973,338.274Z" transform="translate(-427.278 -304.642)" fill="#396caa"/>
        </g>
        <g id="Grupo_15460" data-name="Grupo 15460" transform="translate(52.914 22.431)">
          <path id="Trazado_26563" data-name="Trazado 26563" d="M490.591,307.847a10.371,10.371,0,0,0-4.675-8.137,3.667,3.667,0,0,0-2.782-.549c.853-.874,2.24-.965,3.808-.055a10.371,10.371,0,0,1,4.675,8.137c0,1.787-.759,2.931-1.915,3.247A3.7,3.7,0,0,0,490.591,307.847Z" transform="translate(-478.671 -298.464)" fill="#fff"/>
          <path id="Trazado_26564" data-name="Trazado 26564" d="M490.155,307.932a10.37,10.37,0,0,0-4.675-8.137,3.3,3.3,0,0,0-3.317-.336l-2.547,1.463,1.186,2.065a10.588,10.588,0,0,0,4.239,7.377l1.186,2.065,2.547-1.463h0A3.3,3.3,0,0,0,490.155,307.932Z" transform="translate(-478.235 -298.549)" fill="#5793ce"/>
          <path id="Trazado_26565" data-name="Trazado 26565" d="M487.413,309.6a10.371,10.371,0,0,0-4.675-8.137c-2.588-1.5-4.691-.293-4.7,2.7a10.371,10.371,0,0,0,4.674,8.137C485.3,313.8,487.407,312.595,487.413,309.6Z" transform="translate(-478.04 -298.756)" fill="#d4ecff"/>
        </g>
        <g id="Grupo_15461" data-name="Grupo 15461" transform="translate(0 54.184)">
          <path id="Trazado_26566" data-name="Trazado 26566" d="M431.454,339.826l-2.852-4.964-9.526,5.473a2.863,2.863,0,0,0-1.056,3.909h0a2.863,2.863,0,0,0,3.909,1.056Z" transform="translate(-417.638 -334.728)" fill="#ff2c9c"/>
          <path id="Trazado_26567" data-name="Trazado 26567" d="M433.517,338.5a4.476,4.476,0,0,0-2.017-3.511c-1.116-.647-2.024-.126-2.026,1.165a4.477,4.477,0,0,0,2.017,3.51C432.607,340.31,433.514,339.789,433.517,338.5Z" transform="translate(-419.105 -334.71)" fill="#ff2c9c"/>
        </g>
        <g id="Grupo_15463" data-name="Grupo 15463" transform="translate(12.258 26.677)">
          <path id="Trazado_26568" data-name="Trazado 26568" d="M444.483,317.287l-1.412-.82a3.026,3.026,0,0,0-3.042.3l-4.9,2.813a3.705,3.705,0,0,0-1.679,2.9l-.005,2.436a2,2,0,0,1-.5,1.219l.171,1.13-1.206-.707,0,0a.626.626,0,0,1-.284-.6l.005-2.436a7.725,7.725,0,0,1,3.5-6.038l4.9-2.813c1.636-.939,3.172-1.088,4.327-.42l1.411.82a3.021,3.021,0,0,0,3.042-.3l19.733-11.338a.632.632,0,0,1,.649-.057v0l1.2.706-1.041.388a2,2,0,0,1-.816,1.062l-19.733,11.338C447.173,317.807,445.637,317.956,444.483,317.287Z" transform="translate(-431.631 -303.31)" fill="#5793ce"/>
          <path id="Trazado_26569" data-name="Trazado 26569" d="M444.466,317.284a3.024,3.024,0,0,0-3.041.3l-4.9,2.813a3.706,3.706,0,0,0-1.68,2.9l-.005,2.436a2.009,2.009,0,0,1-.911,1.572c-.5.288-.908.053-.908-.527l.005-2.436a7.726,7.726,0,0,1,3.5-6.038l4.9-2.813c1.636-.939,3.171-1.088,4.326-.42l1.411.82a3.021,3.021,0,0,0,3.042-.3l19.733-11.338c.5-.288.908-.053.907.526a2.006,2.006,0,0,1-.911,1.571L450.2,317.684c-1.636.94-3.172,1.089-4.326.42Z" transform="translate(-431.804 -303.411)" fill="#5793ce"/>
          <g id="Grupo_15462" data-name="Grupo 15462" transform="translate(2.968 19.664)">
            <path id="Trazado_26570" data-name="Trazado 26570" d="M435.032,326.37l-.005,2.436c0,.016-.007.033-.008.05a1.563,1.563,0,0,0,.073-.451l.005-2.436c0-.069.011-.142.018-.212A2.7,2.7,0,0,0,435.032,326.37Z" transform="translate(-435.019 -325.757)" fill="#fff"/>
          </g>
        </g>
      </g>
      <path id="Trazado_26571" data-name="Trazado 26571" d="M423.74,352.75l9.022-5.21c1.088-.628.951-1.725-.3-2.45h0a4.717,4.717,0,0,0-4.244-.176l-9.023,5.209c-1.088.628-.951,1.726.3,2.451h0A4.719,4.719,0,0,0,423.74,352.75Z" transform="translate(-417.74 -281.738)" fill="#efefef"/>
    </g>
    <g id="Grupo_15466" data-name="Grupo 15466" transform="translate(215.137 189.504)">
      <path id="Trazado_26572" data-name="Trazado 26572" d="M227.194,242.726l-12.057-6.961,12.056-6.961,12.057,6.961Z" transform="translate(-215.137 -206.986)" fill="#efefef"/>
      <path id="Trazado_26573" data-name="Trazado 26573" d="M240.957,225.766,228.9,232.727V218.805l12.057-6.961Z" transform="translate(-216.844 -204.883)" fill="#d3008d"/>
      <path id="Trazado_26574" data-name="Trazado 26574" d="M227.194,217.82l-12.057-6.961,12.056-6.961,12.057,6.961Z" transform="translate(-215.137 -203.898)" fill="#ff2c9c"/>
      <path id="Trazado_26575" data-name="Trazado 26575" d="M227.194,232.727l-12.057-6.961V211.844l12.057,6.961Z" transform="translate(-215.137 -204.883)" fill="#ff2c9c"/>
    </g>
    <g id="Grupo_15467" data-name="Grupo 15467" transform="translate(489.778 187.99)">
      <path id="Trazado_26576" data-name="Trazado 26576" d="M542.073,245.419l-13.43-7.754,13.429-7.753,13.43,7.754Z" transform="translate(-528.644 -205.61)" fill="#efefef"/>
      <path id="Trazado_26577" data-name="Trazado 26577" d="M557.4,226.528l-13.43,7.754V218.775l13.43-7.754Z" transform="translate(-530.544 -203.268)" fill="#173d7a"/>
      <path id="Trazado_26578" data-name="Trazado 26578" d="M542.073,217.678l-13.43-7.754,13.429-7.753,13.43,7.754Z" transform="translate(-528.644 -202.171)" fill="#d4ecff"/>
      <path id="Trazado_26579" data-name="Trazado 26579" d="M542.073,234.282l-13.43-7.754V211.021l13.43,7.754Z" transform="translate(-528.644 -203.268)" fill="#5793ce"/>
    </g>
    <g id="Grupo_15468" data-name="Grupo 15468" transform="translate(297.227 280.271)">
      <path id="Trazado_26580" data-name="Trazado 26580" d="M322.273,350.758,308.844,343l13.429-7.753L335.7,343Z" transform="translate(-308.844 -310.949)" fill="#efefef"/>
      <path id="Trazado_26581" data-name="Trazado 26581" d="M337.6,331.867l-13.43,7.754V324.114l13.43-7.754Z" transform="translate(-310.744 -308.607)" fill="#173d7a"/>
      <path id="Trazado_26582" data-name="Trazado 26582" d="M322.273,323.017l-13.43-7.754,13.429-7.753,13.43,7.754Z" transform="translate(-308.844 -307.51)" fill="#d4ecff"/>
      <path id="Trazado_26583" data-name="Trazado 26583" d="M322.273,339.621l-13.43-7.754V316.361l13.43,7.754Z" transform="translate(-308.844 -308.607)" fill="#5793ce"/>
    </g>
    <g id="Grupo_15471" data-name="Grupo 15471" transform="translate(337.839 179.122)">
      <g id="Grupo_15469" data-name="Grupo 15469">
        <ellipse id="Elipse_1286" data-name="Elipse 1286" cx="20.407" cy="11.782" rx="20.407" ry="11.782" transform="translate(0 9.811)" fill="#5793ce"/>
        <path id="Trazado_26584" data-name="Trazado 26584" d="M396.017,208.112V204.36h-1.082a13.032,13.032,0,0,0-4.9-4.578c-7.97-4.6-20.891-4.6-28.86,0a13.025,13.025,0,0,0-4.9,4.578H355.2v3.721h0c-.013,3.025,1.976,6.053,5.975,8.362,7.97,4.6,20.891,4.6,28.86,0C394.025,214.143,396.017,211.127,396.017,208.112Z" transform="translate(-355.203 -192.578)" fill="#d3008d"/>
        <ellipse id="Elipse_1287" data-name="Elipse 1287" cx="20.407" cy="11.782" rx="20.407" ry="11.782" transform="translate(0)" fill="#ff2c9c"/>
        <path id="Trazado_26585" data-name="Trazado 26585" d="M390.043,213.88c-7.969,4.6-20.89,4.6-28.86,0-3.82-2.2-5.787-5.067-5.946-7.956-.173,3.139,1.8,6.31,5.946,8.706,7.97,4.6,20.891,4.6,28.86,0,4.15-2.4,6.118-5.566,5.946-8.706C395.831,208.813,393.863,211.675,390.043,213.88Z" transform="translate(-355.206 -193.767)" fill="#fff"/>
      </g>
      <g id="Grupo_15470" data-name="Grupo 15470" transform="translate(10.033 6.196)">
        <path id="Trazado_26586" data-name="Trazado 26586" d="M367.194,208.607a.917.917,0,0,1-.538-.752l.021-7.677c0-.585.825-1.059,1.839-1.058s1.834.476,1.834,1.063l-.017,6.365,18.474-2.263c.993-.122,1.968.245,2.178.817s-.424,1.136-1.416,1.258l-20.694,2.533a2.905,2.905,0,0,1-1.539-.214C367.286,208.656,367.239,208.633,367.194,208.607Z" transform="translate(-366.656 -199.12)" fill="#fff"/>
      </g>
    </g>
    <g id="Grupo_15472" data-name="Grupo 15472" transform="translate(444.628 170.167)">
      <path id="Trazado_26587" data-name="Trazado 26587" d="M480.048,184.284a1.429,1.429,0,0,1-2.059.634,1.792,1.792,0,0,1-.738-2.248,1.428,1.428,0,0,1,2.059-.634A1.792,1.792,0,0,1,480.048,184.284Z" transform="translate(-477.104 -181.825)" fill="#ff2c9c"/>
      <path id="Trazado_26588" data-name="Trazado 26588" d="M485.677,187.534a1.429,1.429,0,0,1-2.059.634,1.793,1.793,0,0,1-.738-2.248,1.429,1.429,0,0,1,2.059-.634A1.792,1.792,0,0,1,485.677,187.534Z" transform="translate(-477.801 -182.228)" fill="#fff"/>
      <path id="Trazado_26589" data-name="Trazado 26589" d="M491.306,190.785a1.429,1.429,0,0,1-2.059.633,1.791,1.791,0,0,1-.737-2.248,1.429,1.429,0,0,1,2.059-.634A1.792,1.792,0,0,1,491.306,190.785Z" transform="translate(-478.499 -182.631)" fill="#d4ecff"/>
      <path id="Trazado_26590" data-name="Trazado 26590" d="M496.936,194.035a1.43,1.43,0,0,1-2.059.634,1.792,1.792,0,0,1-.738-2.249,1.429,1.429,0,0,1,2.059-.633A1.792,1.792,0,0,1,496.936,194.035Z" transform="translate(-479.197 -183.034)" fill="#ff2c9c"/>
    </g>
    <path id="Trazado_26591" data-name="Trazado 26591" d="M318.729,118.091l-.683-.384h0l-14.178,8.245a60.806,60.806,0,0,0-13.168,10.6l24.279,14.017,30.345-17.519Z" transform="translate(-9.368 -3.709)" fill="#173d7a"/>
    <g id="Grupo_15477" data-name="Grupo 15477" transform="translate(271.75 87.785)">
      <g id="Grupo_15475" data-name="Grupo 15475" transform="translate(0)">
        <g id="Grupo_15473" data-name="Grupo 15473" transform="translate(35.383)">
          <path id="Trazado_26592" data-name="Trazado 26592" d="M348.322,114.8l-4.4-2.542,16.233-9.372a.848.848,0,0,0,0-1.606l-16.583-9.574a3.073,3.073,0,0,0-2.781,0l-16.233,9.372-4.4-2.542,16.233-9.372a12.825,12.825,0,0,1,11.586,0l16.583,9.574c3.194,1.845,3.194,4.845,0,6.689Z" transform="translate(-320.152 -87.785)" fill="#ff2c9c"/>
        </g>
        <g id="Grupo_15474" data-name="Grupo 15474" transform="translate(0 4.668)">
          <path id="Trazado_26593" data-name="Trazado 26593" d="M350.54,116.584a7.653,7.653,0,0,0-3.2-6.107L317.933,93.5a2.052,2.052,0,0,0-2.071-.177h0l-35.117,20.406L314.7,139.313l34.6-20.079a1.6,1.6,0,0,0,.306-.178h0A3,3,0,0,0,350.54,116.584Z" transform="translate(-279.884 -93.114)" fill="#d4ecff"/>
          <path id="Trazado_26594" data-name="Trazado 26594" d="M318.878,142.153l34.6-20.079a1.6,1.6,0,0,0,.306-.178h0a3.005,3.005,0,0,0,.935-2.472,7.842,7.842,0,0,0-.861-3.4l-39.437,22.769Z" transform="translate(-284.058 -95.954)" fill="#5793ce"/>
          <path id="Trazado_26595" data-name="Trazado 26595" d="M312.37,142.084,282.959,125.1a7.654,7.654,0,0,1-3.2-6.107h0c0-2.354,1.431-3.436,3.2-2.417l29.411,16.981a7.654,7.654,0,0,1,3.2,6.107h0C315.566,142.021,314.135,143.1,312.37,142.084Z" transform="translate(-279.762 -95.976)" fill="#5793ce"/>
          <path id="Trazado_26596" data-name="Trazado 26596" d="M312.927,133.377,283.516,116.4a2.028,2.028,0,0,0-2.114-.15,2.225,2.225,0,0,1,1.76.31l29.411,16.981a7.654,7.654,0,0,1,3.2,6.107h0a2.849,2.849,0,0,1-1.083,2.566c.866-.264,1.437-1.24,1.437-2.726h0A7.656,7.656,0,0,0,312.927,133.377Z" transform="translate(-279.965 -95.953)" fill="#fff"/>
        </g>
        <path id="Trazado_26597" data-name="Trazado 26597" d="M311.365,138.67l-3.537-2.039a1.525,1.525,0,0,1-.637-1.218h0c0-.469.285-.684.637-.481l3.537,2.039a1.527,1.527,0,0,1,.637,1.218h0C312,138.658,311.717,138.873,311.365,138.67Z" transform="translate(-283.163 -93.621)" fill="#fff"/>
      </g>
      <g id="Grupo_15476" data-name="Grupo 15476" transform="translate(27.488 18.219)">
        <path id="Trazado_26598" data-name="Trazado 26598" d="M315.842,111.271a1.184,1.184,0,0,0-.024-2.244,4.294,4.294,0,0,0-3.886.04,1.184,1.184,0,0,0,.024,2.244A4.294,4.294,0,0,0,315.842,111.271Z" transform="translate(-311.14 -108.582)" fill="#5793ce"/>
        <path id="Trazado_26599" data-name="Trazado 26599" d="M322.6,115.08a1.184,1.184,0,0,0-.023-2.244,4.3,4.3,0,0,0-3.887.04,1.184,1.184,0,0,0,.024,2.244A4.294,4.294,0,0,0,322.6,115.08Z" transform="translate(-311.978 -109.054)" fill="#fff"/>
        <path id="Trazado_26600" data-name="Trazado 26600" d="M329.363,118.889a1.184,1.184,0,0,0-.023-2.244,4.3,4.3,0,0,0-3.887.04,1.185,1.185,0,0,0,.024,2.244A4.3,4.3,0,0,0,329.363,118.889Z" transform="translate(-312.816 -109.527)" fill="#fff"/>
      </g>
    </g>
    <g id="Grupo_15480" data-name="Grupo 15480" transform="translate(217.619 239.97)">
      <path id="Trazado_26601" data-name="Trazado 26601" d="M245.979,317.789l-26.895-15.528c-1.65-.953-1.444-2.618.463-3.719l25.969-14.993a7.159,7.159,0,0,1,6.441-.267l26.9,15.529c1.651.953,1.444,2.618-.462,3.718l-25.97,14.994A7.159,7.159,0,0,1,245.979,317.789Z" transform="translate(-217.97 -264.126)" fill="#efefef"/>
      <path id="Trazado_26602" data-name="Trazado 26602" d="M279.958,290.535h0v-9.281l-20.809-.011-7.192-4.152a7.159,7.159,0,0,0-6.441.267l-6.71,3.874-20.828-.011v9.544a1.866,1.866,0,0,0,1.106,1.725l26.895,15.529a7.159,7.159,0,0,0,6.441-.267l25.97-14.993A2.552,2.552,0,0,0,279.958,290.535Z" transform="translate(-217.971 -263.358)" fill="#396caa"/>
      <path id="Trazado_26603" data-name="Trazado 26603" d="M248.969,276.453a7.433,7.433,0,0,0-3.452.906l-6.71,3.874-20.828-.011v9.544a1.866,1.866,0,0,0,1.106,1.725l26.895,15.529a5.83,5.83,0,0,0,2.989.639Z" transform="translate(-217.971 -263.359)" fill="#396caa"/>
      <path id="Trazado_26604" data-name="Trazado 26604" d="M220.336,281.9h-2.357v9.544a1.866,1.866,0,0,0,1.106,1.725l1.251.723Z" transform="translate(-217.971 -264.034)" fill="#5793ce"/>
      <path id="Trazado_26605" data-name="Trazado 26605" d="M250.416,311.176a7.339,7.339,0,0,0,5.148-.06V300.28h-5.148Z" transform="translate(-221.992 -266.313)" fill="#5793ce"/>
      <path id="Trazado_26606" data-name="Trazado 26606" d="M245.979,296.657l-26.895-15.529c-1.65-.953-1.444-2.618.463-3.718l25.969-14.994a7.162,7.162,0,0,1,6.441-.267l26.9,15.529c1.651.953,1.444,2.618-.462,3.718L252.42,296.39A7.162,7.162,0,0,1,245.979,296.657Z" transform="translate(-217.97 -261.506)" fill="#d4ecff"/>
      <path id="Trazado_26607" data-name="Trazado 26607" d="M278.39,281.962l-25.97,14.993a7.159,7.159,0,0,1-6.441.267l-26.895-15.529a2.481,2.481,0,0,1-.823-.731,1.73,1.73,0,0,0,.823,2.557l26.895,15.529a7.162,7.162,0,0,0,6.441-.267l25.97-14.994c1.48-.855,1.931-2.049,1.286-2.987A3.617,3.617,0,0,1,278.39,281.962Z" transform="translate(-217.97 -263.898)" fill="#fff"/>
      <g id="Grupo_15478" data-name="Grupo 15478" transform="translate(49.922 24.815)">
        <path id="Trazado_26608" data-name="Trazado 26608" d="M277.13,295.214a2.4,2.4,0,0,1-1.086,1.882c-.6.347-1.086.066-1.086-.627a2.4,2.4,0,0,1,1.086-1.881C276.643,294.241,277.13,294.522,277.13,295.214Z" transform="translate(-274.957 -290.403)" fill="#d4ecff"/>
        <path id="Trazado_26609" data-name="Trazado 26609" d="M281.12,292.911a2.4,2.4,0,0,1-1.086,1.882c-.6.346-1.086.066-1.086-.627a2.4,2.4,0,0,1,1.086-1.882C280.633,291.938,281.12,292.218,281.12,292.911Z" transform="translate(-275.452 -290.118)" fill="#d4ecff"/>
        <path id="Trazado_26610" data-name="Trazado 26610" d="M285.11,290.607a2.4,2.4,0,0,1-1.086,1.882c-.6.347-1.086.066-1.086-.627a2.4,2.4,0,0,1,1.086-1.881C284.623,289.634,285.11,289.915,285.11,290.607Z" transform="translate(-275.946 -289.832)" fill="#d4ecff"/>
      </g>
      <g id="Grupo_15479" data-name="Grupo 15479" transform="translate(16.493 9.074)">
        <path id="Trazado_26611" data-name="Trazado 26611" d="M249.9,288.313l-12.586-7.267c-.773-.446-.675-1.225.216-1.74l12.152-7.016a3.349,3.349,0,0,1,3.014-.125l12.586,7.267c.773.446.675,1.225-.216,1.74l-12.152,7.016A3.349,3.349,0,0,1,249.9,288.313Z" transform="translate(-236.797 -271.864)" fill="#5793ce"/>
        <path id="Trazado_26612" data-name="Trazado 26612" d="M252.877,283.374l-1.742-1.006c-.107-.061-.093-.169.031-.241l1.681-.971a.463.463,0,0,1,.417-.017l1.742,1c.107.062.093.17-.031.241l-1.681.971A.466.466,0,0,1,252.877,283.374Z" transform="translate(-238.565 -273.009)" fill="#d4ecff"/>
        <path id="Trazado_26613" data-name="Trazado 26613" d="M237.318,281.047l.036.021a1.971,1.971,0,0,1,.18-.124l12.152-7.016a3.349,3.349,0,0,1,3.014-.125l12.551,7.246c.711-.509.749-1.2.035-1.615L252.7,272.165a3.349,3.349,0,0,0-3.014.125l-12.152,7.016C236.643,279.822,236.546,280.6,237.318,281.047Z" transform="translate(-236.797 -271.864)" fill="#396caa"/>
      </g>
    </g>
  </g>
</svg>
